<?xml version="1.0" encoding="UTF-8"?>
<svg id="_圖層_1" data-name="圖層_1" xmlns="http://www.w3.org/2000/svg" version="1.1" xmlns:xlink="http://www.w3.org/1999/xlink" viewBox="0 0 880 880">
  <!-- Generator: Adobe Illustrator 29.3.1, SVG Export Plug-In . SVG Version: 2.1.0 Build 151)  -->
  <defs>
    <style>
      .st0 {
        fill: #fff;
      }
    </style>
  </defs>
  <path class="st0" d="M376.2,413.3v.8h-5.3v12.1h-2v-12.1h-5.3v-.8h12.6ZM385.1,426.3h-2v-13h2v5.9h7.8v-5.9h2v13h-2v-6.2h-7.8v6.2ZM413.1,413.3v.8h-7.7v4.6h5.2v.8h-5.2v5.8h7.7v.8h-9.7v-13h9.7ZM439.1,425.8c8.9-2-2.8-5.3-4.5-7.9-2.4-5.5,7.8-6.7,9-1.8l-.9.4c-3.6-6.1-12.6-.4-1.7,3.1,8.7,4.6-4.6,11-7.1,4l.9-.3c.6,1.7,2.4,2.6,4.2,2.6ZM461.6,413.3v.8h-7.7v4.6h5.2v.8h-5.2v5.8h7.7v.8h-9.7v-13h9.7ZM468.8,413.3h1.2l9.9,9.7v-9.7h1.1v13.2h-.6l-10.5-10.7v10.4h-1.1v-13ZM493.8,425.8c8.9-2-2.8-5.4-4.5-7.9-2.4-5.5,7.8-6.7,9-1.8l-.9.4c-3.6-6.1-12.6-.4-1.7,3.1,8.7,4.6-4.6,11-7.1,4l.9-.3c.6,1.7,2.4,2.6,4.2,2.6ZM516.3,413.3v.8h-7.7v4.6h5.2v.8h-5.2v5.8h7.7v.8h-9.7v-13h9.7ZM365.2,470.7c1.5,0,5.7-.2,7.1.2,4.2.8,3.3,6.1-.7,6.4l5.3,6.3h-2.5l-5.1-6.1h-2.1v6.1h-2v-13ZM367.2,476.9c7.5.9,7.6-6.5,0-5.4v5.4ZM379.3,470.7h2v13h-2v-13ZM396.8,470.7v.8h-5.3v12.1h-2v-12.1h-5.3v-.8h12.6ZM399.4,470.7h2c.3,3.8-1.8,13,4.8,12.4,6.2.2,4.3-8.8,4.5-12.4h1.1c0,5.1,1.6,13.9-6.4,13.3-7.7.6-5.8-8.5-6-13.3ZM420.8,470.4l6.9,13.3h-2.1l-2.2-4.3h-6.5l-2.3,4.3h-1.2l7-13.3h.4ZM417.4,478.5h5.6l-2.8-5.3-2.8,5.3ZM430.2,470.7h2v12.1h7.4v.8h-9.4v-13ZM448.1,470.7h2v13h-2v-13ZM454.3,470.7h1.2l9.9,9.7v-9.7h1.1v13.2h-.6l-10.5-10.7v10.4h-1.1v-13ZM476.5,470.7h2v12.1h7.4v.8h-9.4v-13ZM488.5,470.7h2v13h-2v-13ZM504,470.7v.8h-7.1v4.6h5.2v.8h-5.2v6.7h-2v-13h9.2ZM516.3,470.7v.8h-7.7v4.6h5.2v.8h-5.2v5.8h7.7v.8h-9.7v-13h9.7ZM434.4,457.7c-10.2.2-10.2-13.8,0-13.6,10.2-.2,10.2,13.7,0,13.6ZM434.4,457.1c7.2.3,7.3-12.6,0-12.3-7.3-.4-7.2,12.6,0,12.3ZM455,444.4v.8h-7.1v4.6h5.2v.8h-5.2v6.7h-2v-13h9.2Z"/>
</svg>