<svg xmlns="http://www.w3.org/2000/svg" viewBox="0 0 1674 14" fill="#fff9">
  <path d="M12.1,9.5C8.6,13.3,0,11.5,0,5.7,0,.2,8.2-1.8,11.8,1.7l-1,.7C7.9-.7,1.1,1.2,1.3,5.7c0,4.7,6.9,6.4,9.8,3.1l1,.6h0ZM42,5.7c0-7.6,14-7.6,14.1,0,0,7.7-14.1,7.7-14.1,0ZM43.3,5.7c0,6.4,11.6,6.4,11.5,0,0-6.4-11.6-6.4-11.5,0ZM87.5.3h1.6l8.3,9.6h0V.3h1.3v10.9h-1.6l-8.3-9.5h0v9.5h-1.3V.3ZM129,.3h1.4l4.4,9.6,4.4-9.6h1.4l-5.2,10.9h-1.3l-5.1-10.9h0ZM170.8.3h8.3v.9h-7.1v3.9h6.6v.9h-6.6v4.2h7.4v.9h-8.6V.3ZM210.7.3h1.6l8.3,9.6h0V.3h1.3v10.9h-1.6l-8.3-9.5h0v9.5h-1.3V.3ZM254.2.3h1.3v10.9h-1.3V.3ZM287.7.3h8.3v.9h-7.1v3.9h6.6v.9h-6.6v4.2h7.4v.9h-8.6V.3ZM327.6.3h1.6l8.3,9.6h0V.3h1.3v10.9h-1.6l-8.3-9.5h0v9.5h-1.3V.3ZM374,1.2h-4.7V.3h10.6v.9h-4.7v10h-1.3V1.2ZM444,.3h1.3v10h6.4v.9h-7.6V.3ZM482.1.3h1.3v10.9h-1.3V.3ZM515.6.3h8.2v.9h-6.9v3.9h6.4v.9h-6.4v5.2h-1.3V.3ZM554.8.3h8.3v.9h-7.1v3.9h6.6v.9h-6.6v4.2h7.4v.9h-8.6V.3ZM628.6,9.8h1.3l-1.5,3.5h-1.1l1.3-3.5ZM706.4,9.5c-3.5,3.8-12.1,2-12.1-3.7,0-5.6,8.2-7.5,11.7-4l-1,.7c-2.8-3.1-9.6-1.2-9.4,3.3,0,4.7,6.9,6.4,9.8,3.1l1,.6h0ZM736.3,5.7c0-7.6,14-7.6,14.1,0,0,7.7-14.1,7.7-14.1,0ZM737.6,5.7c0,6.4,11.6,6.4,11.5,0,0-6.4-11.6-6.4-11.5,0ZM781.8.3h1.6l8.3,9.6h0V.3h1.3v10.9h-1.6l-8.3-9.5h0v9.5h-1.3V.3ZM823.3.3h1.4l4.4,9.6,4.4-9.6h1.4l-5.2,10.9h-1.3l-5.1-10.9h0ZM865.1.3h8.3v.9h-7.1v3.9h6.6v.9h-6.6v4.2h7.4v.9h-8.6V.3ZM905,.3h1.6l8.3,9.6h0V.3h1.3v10.9h-1.6l-8.3-9.5h0v9.5h-1.3V.3ZM948.5.3h1.3v10.9h-1.3V.3ZM982,.3h8.3v.9h-7.1v3.9h6.6v.9h-6.6v4.2h7.4v.9h-8.6V.3ZM1021.9.3h1.6l8.3,9.6h0V.3h1.3v10.9h-1.6l-8.3-9.5h0v9.5h-1.3V.3ZM1068.3,1.2h-4.7V.3h10.6v.9h-4.7v10h-1.3V1.2ZM1141.4,1.2h-4.7V.3h10.6v.9h-4.7v10h-1.3V1.2ZM1177.9.3c1.8,0,4.7-.2,6.4.3,3.6,1.3,2,5.3-1.5,5.3l4,5.2h-1.4l-3.8-5.2h-2.4v5.2h-1.3V.3h0ZM1179.2,5.1c1.8-.1,5.7.6,5.9-1.9-.2-2.6-4.1-1.8-5.9-1.9v3.9ZM1222,.3h1.3l5.7,10.9h-1.4l-1.5-2.9h-7.2l-1.5,2.9h-1.3l5.9-10.9h0ZM1222.6,1.4l-3.2,6h6.3l-3.1-6ZM1259.5.3h1.6l8.3,9.6h0V.3h1.3v10.9h-1.6l-8.3-9.5h0v9.5h-1.3V.3ZM1303.3,9.2c1.4,2.4,7.5,1.6,5.9-1.7-1.4-1.5-4-1.1-5.6-2.3-4.2-4.2,4.4-7,7-3.8l-1.1.6c-1.6-2.2-7.5-.8-5.2,2.2,1.7,1.3,4.5.9,6,2.6,2.7,4.7-5.8,6.1-8.1,3l1.2-.7h0ZM1342.1.3c1.9,0,5.1-.3,6.8.6,1.8.8,2,3.5.2,4.5-1.5,1-4.1.6-5.8.7v5.2h-1.3V.3ZM1343.4,5.1c1.7-.2,5.6.7,5.8-1.9-.2-2.6-4-1.8-5.8-2v3.9ZM1380.8,5.7c0-7.6,14-7.6,14.1,0,0,7.7-14.1,7.7-14.1,0ZM1382,5.7c0,6.4,11.6,6.4,11.5,0,0-6.4-11.6-6.4-11.5,0ZM1426.2.3c1.8,0,4.7-.2,6.4.3,3.6,1.3,2,5.3-1.5,5.3l4,5.2h-1.4l-3.8-5.2h-2.4v5.2h-1.3V.3h0ZM1427.4,5.1c1.8-.1,5.7.6,5.9-1.9-.2-2.6-4.1-1.8-5.9-1.9v3.9ZM1469.2,1.2h-4.7V.3h10.6v.9h-4.7v10h-1.3V1.2ZM1508.6.3h1.3l5.7,10.9h-1.4l-1.5-2.9h-7.2l-1.5,2.9h-1.3l5.9-10.9h0ZM1509.2,1.4l-3.2,6h6.3l-3.1-6ZM1547.8,1.2h-4.7V.3h10.6v.9h-4.7v10h-1.3V1.2ZM1584.3.3h1.3v10.9h-1.3V.3ZM1616.9,5.7c0-7.6,14-7.6,14.1,0,0,7.7-14.1,7.7-14.1,0ZM1618.2,5.7c0,6.4,11.6,6.4,11.5,0,0-6.4-11.6-6.4-11.5,0ZM1662.3.3h1.6l8.3,9.6h0V.3h1.3v10.9h-1.6l-8.3-9.5h0v9.5h-1.3V.3Z"/>
</svg>