<svg xmlns="http://www.w3.org/2000/svg" viewBox="0 0 400 186">
  <path fill="#fff" d="M255.4,184.1v-118.2l-39.6,118.2h-36.8l-38.9-116.5v116.5h-44.2V.8h62.5l39.9,116.8L236.9.8h61.5v183.3h-43ZM352.2,24.6h-31.2l10.3-23.8h68.8v183.3h-47.8V24.6ZM33,56.5h-9.2l.5-12.6c-5.4,4.6-13.2,11.2-19.3,11,0,0-4.9-6.3-4.9-6.3,7.7-2.4,13.8-5.5,19.3-10.3-1.8,0-8.9.1-10.8.2l-.4-.4c.2-6.6.3-15.7,0-22.3l.4-.4c3.8.1,11.6.2,15.4.2v-2.6c-5.5,0-17.1,0-22.6.2l-.4-.4v-6.4l.5-.3c5.4.2,17,.2,22.5.2V1.2l.3-.4h7.9l.4.4v5.1c5.6,0,17.5,0,23.1-.2l.4.4v6.3l-.4.4c-5.5-.2-17.5-.2-23.1-.2v2.6c4,0,12.1,0,16.1-.2l.5.5c-.3,6.5-.2,15.6,0,22.2l-.5.4c-2.6,0-8.9-.2-11.5-.2,5.5,4.5,12.1,7.5,20,9.7-.4.3-5.5,8-6.1,7.4-8.5-2.7-13.8-7-18.6-11.9l.5,13h0ZM24.3,21.5h-7.9v2.7h7.9v-2.7ZM16.4,29.7v2.7h7.9v-2.7h-7.9ZM40.8,24.3v-2.7h-8.3v2.7h8.3ZM32.6,32.4h8.3v-2.7h-8.3v2.7ZM53.2,60.5l.4.3v5.9l-.4.3-9.2-.2v16.5c1.9,0,9.3-.1,11.3-.2l.4.3v5.9l-.4.3c-1.4,0-9.2-.2-10.4-.2,3.1,2.1,7.1,4,12.6,5.6-5.6,9.7-3.9,8.5-15,1.7v4.1l-.4.4c-1.6,0-7.8-.2-9.3-.2v2.9c4.6,0,13.7,0,18.3-.2l.4.4v5.8l-.4.4c-10.9-.3-33.6-.3-44.5,0l-.5-.4v-5.9c-.2-.5,8.5,0,8.7-.1,0,0,10.2,0,10.2,0v-2.9c-1.6,0-7.8.1-9.5.2l-.5-.4v-3.1c-9.4,5.7-7.9,8.1-15-.9,5.6-2,10-4.7,13.2-7.5-1.7,0-8.9.1-10.8.2l-.4-.4v-5.7l.4-.4c2,0,9.1.2,11,.2v-16.5l-8.9.2-.4-.4v-5.7l.4-.4,8.9.2v-4.2l.4-.4h7l.5.4v4.2h14.7v-4.2l.4-.4h7.1l.5.4v4.2l9.2-.2h0ZM40.2,94.8c-2-1.7-3.7-3.5-5.4-5.5h-11.8c-1.4,2-2.9,3.8-4.6,5.5,1.5,0,5.2.2,6.7.1v-3.7l.4-.5h6.9l.5.5v3.8c1.4,0,5.9,0,7.4-.1h0ZM36,66.7h-14.7v2h14.7v-2ZM36,73.9h-14.7v2.1h14.7v-2.1ZM36,81.1h-14.7v2.1h14.7v-2.1Z"/>
  <path fill="#fff100" d="M37.3,142.1h-13.9c-1.4,4.1-7.7,7-10.3,9.2v9.6h9.1l-1.8,1v23.6H1.2v-57.8h17l10.6,11.2,10.5-11.2h17v57.8h-18.9v-43.3Z"/>
</svg>