<svg xmlns="http://www.w3.org/2000/svg" viewBox="0 0 350 56">
  <path fill="#fff" d="M219.8,25.9c1.2-1.4,2.9-3.3,12.7-6.2,2-.6,1-5.3-1.6-4-.5-1.2-1.7-4.8-5.4-4.7-3.7-.2-.3,4.9-1.4,6.5-.9,1.1-7.3,5.7-10.9,5.8-1.9,2.2,4.7,6.1,6.6,2.5h0ZM232.3,26.9c.7-1.3-.9-2.8-2-3.2-2.4-.2-4.6,1.4-7.2,1.2-.4,4.3,7,4.9,9.2,2h0ZM229.6,30.5h-.1c-.3,0-5.7,1.1-7.7.4-.2,2.3,4.9,4.8,9.5,3.5,1.2-1.1.5-3.2-1.7-4ZM232.1,42.2c1.3-1.7,2.2-4.1-.5-5.2-.8-.4-1.6-1-2.5-.9-1.2.2-2,1.1-3,1.6-.6.5-3.2,1.6-3.1,2.5.3.8,1.4.5,2,.7.5,0,1.3-.1,1.7,0,0,.3-1.6,1.4-2.3,1.8-.8-1.1-4.8-6.4-5.7-3.1.1,1.6,1.5,2.6,2,3.9.8,1.9.5,4,.7,6,.5,1.2,2.4,2.5,3.6,1.8.8-.7.4-2.5.3-3.6.2-.5,2.8-.6,3.3-.8,2.7-.5,3.5,0,3.3-3.3-.4-.6-.3-1,.2-1.6h0ZM233.9,12.5c3.4,4.3,1.8,7.4,2.2,15.6,1.3,1.5,4.2,4.5,3.8-.4,0,0-.3-12.3-.3-12.3-.3-.5-2.6-4.5-4.8-4.5-.5,0-1.4.7-1,1.6ZM243.4,15.5c-1,1.5-5.4,2.6-2.6,4.5,2,1.7,4.2.1,6.4.2,2.8,0,2.8-1.7,2.3-3.9,1.1-4.2,5.5-6.2-1.1-8.9,0,0-1.8-.6-2.1.3-1.3,2.3-4.2,3.8-6.4,5.2,0,3.1,7.6-2.2,3.5,2.6h0ZM248.9,21.5c-.1.2-7.4,3.6-8.2,3.1h-.4c0,2.3,4.6,2.8,5.8,2.3,2.5-1.1,6.5.3,7.8-2,.3-.7-.5-1.3-.9-1.8-1.3-2.1-2.8-2-4.2-1.5ZM259.5,44.4c-2.4-2.1-11.1-3.2-10.5-6.4.5-1.9,1.9-4.1,1.2-6.2-.7-1.6-3.4-3.8-4.8-2.2,1,.9.4,3.1.2,4.4-.5,2.1-.6,2.4-1,2.2-1.2-1.2-2.7-2.3-3.7-3.8-.6-1.1-1.5-1.4-3-1.4-3.3.7-4.2,3-.3,4.3,1.9.9,3.4,3.5,4.5,5.4-.6,2.8-10.4,4.8-9.7,6.5,6.1,2.1,11.7-1.3,12.9-2.1,3,3.1,6.1,6.2,10.9,5.5,4.3-.4,6.5-2.9,3.4-6.2h0ZM269.5,20.7l2.4,2c.4-.3,1.6-1.1,2.5-2.2.3.1.8,1.4.7,2.3,0,3.5-.2,3.9-.7,6.4-.4,1.2,3.9,5.4,4.3,1.7.8-4.1,1.1-10.1-2.3-12.8.9-1.6,4.6-5.5,4.6-7.4.3-2.3-5.8-7.4-7.3-5.5,1.4,9.9-9,12.2-4.2,15.7h0ZM303.3,32.5c-1.9-1.6-4.2-.3-6.3,0-1.8.2-6,1.3-6.9-1.7,1.6-.6,4.3-.2,5.2-1.6,0-2.1-2.6-3.3-4.4-3.2,0-.2,0-.3.3-.4,3.9-.8,2.6-3.3-.3-4v-.2c3.2-.8,3.9-3.1.6-4.4.4-.7,2.7-1.8,3.6-2.3,2.5-2.2-2.1-3.2-3.8-2.9,2.5-3.2-.9-7.8-7-7.3.7,1.7,1.8,4.5.8,5.4,1,.6,3.9,2.6,5.6,2.1-3,1.6-7,3.6-9.9,4,.7,2,3.8,2,5.6,2.5,0,1.3-2.5,1.8-3.4,2.3.1,1.7,2.8,1,3.4,2,0,1.8-2.2.7-3,1.8-.5,1.5,1.5,1.8,2.6,1.8.7,2.1-2.4,1.6-3.8,1.9-2.1.2-.1,2.2.8,2.4,4.9,2.7-.4,2.1-2.8,2.5-2.1.4-4.9,1.2-7,1.5-3.3.5-7.8-1.8-10.6-1.2-.4,3.7,2.8,6.6,4.9,6.3,3.8-2.4,15.7-4,17.9-4.3,0,1.1.2,4.8,0,6.5,0,1.2-.5,1.4-1.9,1.4-1.3,0-2.6,0-3.9-.3.3-1.1-1-3.1-1.1-3.8h0s-.6-.4-.6-.4c-.7,1-2,1.8-2.9,2.8-1,1.4-2.4,1.4-3.7,2.1-2.5,2,1.7,4.9,4.9,5.1,1.2,0,1.7-1.8,2.3-2.8.2-.9,1.5,0,2.2.3,1.5.6,3,1.4,3.8,2.8,7,7.8,7-8.8,7-13.2,2.4,0,5.7-.4,7.3.5,4.3,2,10.7.6,4.2-3.9ZM293.8,41.3h-.4c.2.4,2.2,5.3,2.7,6.3.4.4,1.6,1.4,1.9,1.9.2.4.5.7,1.1.7,1.9,0,2.9-4.2,2.7-5.9-.3-1-3.9-4-8-3h0ZM172.3,23.3c0,.6-1.3,5.7-2.7,10.3l.6.3c.3-.7,1.3-1.2,2-1.4.9.6,4.2-7.2,5.8-11.1,4.4-3.3,0-6.7-3.1-6.6-1.6,1.7-6.3,4.3-7.9,4.7-1,2.4,5.1,3.4,5.3,3.8ZM193.3,41.8c0-.3,0-6.1,0-6.1,1.4-.3,4.5.3,6,.3,3.3,0,1.2-4.7-1.1-4.5-1.4.2-3.3.4-4.8.7-1.3-2.7,2.6-1.3,3.5-2.6,1.2-2.2-2.6-2.7-3.9-2.5-.4-1.3.2-1.3,1.3-1.6,4.8-1.6,2.5-3.9-1.4-3.4,0-.4-.2-1.2-.2-1.6,3.3-.5,6.8-.7,9.5,0,.5.1,1.3-.5,1.5-.8.5-2.2-2.8-4.1-4.9-3.6,1.2-1.4.5-3.1-.6-4.2-1-1.7-3.3-1.8-5.3-.9-.5-1.7.7-3.1.8-4.7.2-2.3-6.2-5-6-5-.4-.2-2.5-.1-2.4,1.1.8,1.3,1.2,8.3,1.2,10.8-1.4.8-3.5,0-4.8,1.2-1.6,1.5-.6,2.6,5,2.9.1,1.9-4.8,2.1-6.5,2.9-.7,1.6.9,2.5,2.8,3.3.8-.2,2.7-.7,3.7-.8.7,2.4-2.3,1.8-4,2.4-2.5,2.1,3.7,2.4,4.1,2.4.3,1.4-.6,1.2-1.5,1.3-6.9.4-1.3,3.7,1.8,3.6.1.5.3.9.1,1.3-.9.3-5.2,1.3-6.3.6-.2,2.4,4.3,3.1,6.3,2.6v3c-.8-.3-7.4-2.7-7.9-2.9,1-3.5,2.1-5-2.9-7.8-2.9.7-1.4,1.6-1.1,3.5-.1.9-.5,3.1-.9,3.7-1.2.3-4.8.4-5.8.8-1.5,2.5,2.8,2.8,3.9,3.9-.5.8-3.1,5.1-6.6,7.8-.1.1-.2.3-.2.5,1.4,1.8,6.4,0,12.3-7.4,3.9-.4,17.8,9.1,20.8,9.3.6,0,13.7-.7,14-8.4-7.2.1-18.5-.2-19.3-1.4h0ZM192.6,16.1c0-.6,0-1,0-1.2.5-.4,1-.6,1.4-.6-.2.4-.8,1.1-1.5,1.8h0ZM323.7,20.5c-.9-2.1-2.6-1.9-4.3-1.7,0,.2,0,1.1,0,1.3,1.7,1.7,3.7,3.5,3.8,6.1,0,1.2.6,2.6,1.4,3.4-.4,0-2.6.5-2.6.5-.8,1.5,1.2,3,2.6,3.1-1.1,1.9-6.3,2-7.8,1.4-.4-.6,0-3,0-4-.4-3.7-.5-7.6-.1-10.8.8-2.9-1.9-6.6-4.7-6.6-.5,2.7,1.2,6.8,1.1,9.8,0,3.2,0,11.7-.2,15.1-1.2,5.6-2,9.1,2.4,13.1.1,0,.5,0,.6,0,2.4-2.6,1.2-5.6,1.3-8.6,0-1.3.4-3.1,0-4.2,2.4,2.1,5.3.5,7.6-.6,2.5,5.3,6,2.5,4.1-1.5.7-.5,2.4-.8,3.4-.9,1.3,9.7-.4,5.8-4.1,6.6,0,1.5,1.5,2.2,2.1,3.3-2.2.2-4.2.5-6.1.9-1.8.4-4.1-.7-5.5,1.1,1.8,3.1,5,3.1,8,2.5,3.9-.4,9-.8,12.4.5.4-.3.8-.6,1.1-1,2.5,7.3,7.4,3.4,8.3-1.9-.7-6.5-1.1-13.1-.5-19.6,0-2.3-.3-5.6,0-7.9h0c.5-2.1.1-4.1,1.3-6.1-1.6-5-4.7-7.9-11.1-7-7,.2-13.7,1.7-20.7,2.7-.9,1.1.5,2.4,1.2,2.9,3.3,2.9,5.6.2,8.6-.7,0,.2,0,.9,0,1.2-.9.8-3.1,1-2.9,2.5,1,.7,1.9,1.4,3.2,1.6,0,.2,0,1,0,1.2-.3.2-3.3,1.6-3.3,1.6.7,1.6,2.1,1.3,3.4,1-.4.9-1.1,1.7-1.9,2.3-.2,1,.9,1.4,1.7,1.3,0,.2,0,.7,0,.9-.5.3-1,.5-1.3,1.1-1.2-1.9-1.5-3.8-2.5-5.8ZM325.9,33c2.4-.7,4.8-2.7,7.4-3,0,0,0,.3,0,.5-.2,0-.6,0-.9,0,0,0-.3,1.3-.4,1.5-1.9.3-4.6,1.6-6.2,1.1h0s0,0,0,0ZM332.4,23.4c-.2.2-.5.3-.8.3,0-.1,0-.1,0-.2.4-.2.8-.5,1.1-.9-.1.3-.2.7-.3.7ZM331.8,20.6c0-.2,0-.9.1-1.2.9-.2,1.1-.3,1.9-.4-.2.6-.8,2.4-.9,2.5-.1-.4-1.1-.9-1.2-1ZM332.7,27.3c-.3.2-.6.2-1,.3,0-.3,0-.5,0-.6.2,0,.6-.1.9-.2,0,.2,0,.3,0,.5h0ZM327.4,28.7v.2c-.2,0-.5,0-.6.1,0-.8-.2-1.4-.4-2,.7.5,1,.7,1,1.8h0ZM340.5,46.2c-.8-1.2-2.5-2-3.8-2.2.4-2.2.1-7.5-.2-9.2,1.5-.8,4.5,1.1,5.9-.3.9-1.2-.9-3-1.5-3.7-.1,0-.4,0-.5,0-.3,0-1.6-.3-3.4.4.4-1.6.6-3.5-1.2-4.3,0,0,0,0,0,0,1.2-2.5,1.9-5.6,3.8-7.3,0-1.9-1.8-4.8-4-4.3-1,.2-2.1.9-3.2,1.3,0-.2,0-.2,0-.3,2-1,3.9-3.4.8-4.3-.8,0-.7-1-1.1-1.5,14.8-4.4,11.5,11.6,10.9,20.7-.7,4.8,1.5,13.7-2,16.9,0-.6,0-1.2-.5-1.7h0ZM76.5,39.5c.9-4.3.6-5.3-2.5-2.6-.4-4.3,0-5.5,3.6-7.5-.2-.4-1.3-2.6-3-3.3-.2-1.6.5-3.5,1-5.2,0-1-.6-2.7-3.7-4.6-.6-.4-6.2-2.2-6,1.4,1.5-.4,1.8.8,2.1,4.1,0,1.8.5,4.4.1,6-3.8,4-11.8,3-1.1,7.9,4.1,11.2-14.7,4.7-2.9,13.5h0c1.5,1.7,11.1-8.6,12.5-9.8ZM114.5,46c-.1,0-10.3-5.9-12.6-9,.2-.8,1.2-5.4.9-7.6-.4-4.6-4.5-8.5-.1-11.8,1.3,0,1.5-1.7.5-2.8-.1-3.2-10.3-6.8-4.7.6.4.6,1,1.8,1,2.3,0,1-.6,11.9-1.2,14.3-3.1-5.4-4.8-6.7-.3-11.9,1.4-1.4.8-5.3-3.7-3.9-.5.4-1.7,1.2-2.3,1.5-2.9-5.6.1-13.7-10.7-14.2-2.2.6.3,2.3.7,3.4,1.7,3.3,6.2,11.1,6.5,12.7.1.5,0,.8-.9,1.8-1.4,1.1-5.6,6.4-5.8,5.5,0-.9.4-2.2,0-2.9-1-1.1-4.8-4-5.7-1.6,0,0,0,0,0,0,0,0,5.5,9.1.4,19.7.2.3-1.3,2.2-4,2,.7.8,2.2,2.6,2.6,3.5,2.2,2.9,5.4-1.1,6.3-5.7.5,0,4.6,2.8,5.2,3.1,3.1,1.9,7.5-5.8,8.3-8.6,1.7,2.7-.4,5.2-4,9.7,1.3-.3,4.2-.2,8-3.8.8.8,3.9,3.8,8.3,6.3-.6,1.1,14.3,1.3,7.2-2.7ZM92,30.2c-.2,0-.5,0-.7,0,.2-.3.3-.6.4-.9.1.2.2.5.3.9ZM90.3,34c0,2.3-3.4,7.5-8.2,6,1.1-1.3,5.2-6,8.1-6.7,0,.1.1.3.1.7h0ZM82.2,30.2c.7-.6,6.3-5,7.3-5.8-.7,3.6-6.1,7.7-7.2,9.1,0-.9,0-1.7,0-3.3h0ZM130.1,28.4c-1-3.4,4.1-3,3.2-5.7-.4-1.2-1.1-2.8-2.5-2.9-1.6-1.9,1.2-4.2.4-6.2-1.1-2.2-7.6-7.4-7.6-2.4,2.2-.6,1.5,8,1.5,10.6-.3.4-2.9,3.4-6.8,3.8-2,1.2,0,2.5,2.8,3.8,0,0,2.1,1.5,4.4-.5.3.8-.1,2.7-.1,3.1-.5.4-5.3,4.4-7,5.2-1.8-.3-4.7,3.8-2.1,5.1,1.5.7,5.1,2.3,5.7,2.9,2.8,2.7,4.5,7.7,7.2,2,2.4-2.9.4-10.8.7-14,4.2-4.4,5-7.9.3-4.7ZM125.5,36.5c-.2,3.5.6,8.6-4,4.1,0-.7,2-2.5,4-4.1h0ZM159.5,33.9c-4.4-8.2-6.9-4.8-14.3-4.8.4-.5.8-1,1-1.2,1.4.9,3.1.7,3.3-.5,0-.2.9-6.8,1-8.5,0-3.5,3.8-10.8,1.3-11.9-.9-.7-3.2-3.7-4.7-2.7-1.6,1.2-8.3,4.8-8.8,5.1,3.4,1.9,8.4-2.5,9.2-.9.4,3.3-.9,10.7-1.5,13-1.3-.6-3,.8-3.4,1.1,0,0,0,0-.2,0-.3-4.1,2.5-1,3.8-3.4-.2-2.8-1.4-2.2-3.4-2.2-.7-1,1.5-1.7,2.4-2,1.4-.2,2.1-2.1.9-3.2-1.5-1.2-2.7.3-4.2,0-1.2-.2-1.7-1.4-3.1-1.5-1.2-.1-3.9-.2-3.2,1.8,2.5,1.5,3.2,8.7,2.5,12.2-.1.5-2.1,1.4-3.7,1.9-1,1.6,2,2.6,3.1,3-1,1.9-9.1,4.2-5.3,7.3,2.6,1.9,5.3-2,7.6-2.8.2.5-.4.9-.7,1.3-1.3,1.5-2.8,3.3-4.1,4.9-3.1,3.2,3.1,2.3,4.6,1.3,2.9-2,4.7-5.1,6.5-8,.2-.5.8-.8,1.1-.3.1,1.4-1.2,2.9-2,4.2-3.7,6.1-13.5,11-9.2,10.7s3.3,1,7.7-2.1,2.7,4.2,5.2,3.9c8.3-2.1,6.5-4.2,10-8.2,3-2.7,1.4-6.1.5-7.7ZM152.2,31c3.1.6,4.1,4.2,4.2,6.4-1.5,4.9-5.9,8.4-11.2,7.1.9-1.3,7.9-10.5,7-13.5Z"/>
  <path fill="#d07512" d="M47.2,24.3c-3.6-4.6-11,0-11.2,0l.2.5h0c.9-.7,7.9,4.9,7.5,8.4,1,5.5,5.4,9,11.8,5.1l.2-.5c-9.6-1.1-4.5-8.3-8.4-13.5h0ZM43.6,40.4c1.3-5.7-6.9-8.5-7-8.7l-.3.5h0c1.1.3,1.2,9.2-1.8,11.1-3.6,4.3-3.6,9.9,3.5,12.4l.5-.2c-5.2-8.2,3.6-8.7,5.2-15.1ZM28.8,47.9c5.2-2.6,2.3-10.7,2.4-11h-.5c0,0,0,0,0,0,.5,1-6.4,6.8-9.8,5.6-5.6-.1-10,3.4-7.4,10.5l.5.3c3.1-9.2,9-2.7,14.9-5.5ZM13.7,41.1c5.3,2.5,9.8-4.9,10-5.1l-.4-.4h0c-.5,1-9.3-.7-10.5-4-3.4-4.4-9-5.6-12.8.8v.5c9.2-3.4,7.8,5.3,13.7,8.2ZM9.5,25.1c1.4,5.7,10,4.5,10.2,4.6v-.6h0c-1.1.2-5.3-7.7-3.5-10.7,1.3-5.5-1.3-10.5-8.7-9.4l-.4.4c8.4,4.9.8,9.4,2.3,15.8ZM19.3,11.7c-3.5,4.7,2.8,10.6,2.9,10.8l.5-.3c-.9-.7,2.6-8.9,6.1-9.4,5-2.5,7.3-7.6,1.8-12.7h-.6c1.5,9.6-6.8,6.5-10.8,11.7ZM35.8,10.9c-5.8.2-6.4,8.9-6.6,9.1h.5v.2c0-1.1,8.6-3.6,11.2-1.2,5.1,2.3,10.5.9,11.1-6.6l-.3-.5c-6.5,7.2-9.3-1.1-15.9-1ZM33,28.6c0,6-9.4,6-9.3,0,0-6,9.4-6,9.3,0Z"/>
</svg>