<?xml version="1.0" encoding="UTF-8"?>
<svg id="_圖層_1" data-name="圖層_1" xmlns="http://www.w3.org/2000/svg" version="1.1" viewBox="0 0 450 253">
  <!-- Generator: Adobe Illustrator 29.3.1, SVG Export Plug-In . SVG Version: 2.1.0 Build 151)  -->
  <defs>
    <style>
      .st0 {
        fill: #fff;
        fill-rule: evenodd;
      }
    </style>
  </defs>
  <path class="st0" d="M235.7,63.6l-42.4-22.1c8.8,38.6,60.9,38.5,69.7,0l-33.3,17.3,6.1,4.8h0ZM245.4,44.2l17.4-16c-.5-2.3-1.2-4.5-2-6.6l-18.1,19.8,17-22.2c-1.1-2.1-2.3-4-3.8-5.9l-16.4,25.8,14.5-28c-1.6-1.7-3.4-3.3-5.3-4.6l-12.8,30.9,10.3-32.6c-2-1.2-4.1-2.2-6.4-3l-7.7,34.5L236.7,1c-2.2-.6-4.6-.9-7-1l-1.6,36.1L226.5,0c-2.4.1-4.7.4-7,1l4.6,35.4-7.7-34.5c-2.2.8-4.4,1.8-6.4,3l10.3,32.6-12.8-30.9c-1.9,1.4-3.7,2.9-5.3,4.6l14.5,28-16.4-25.8c-1.4,1.8-2.7,3.8-3.8,5.9l17,22.2-18.1-19.8c-.9,2.1-1.6,4.3-2,6.6l17.4,16-17.8-13.6c-.4,2.8-.4,5.9-.1,8.7l22.1,11.5c5.3-9.7,21.1-9.7,26.4,0l22.1-11.5c.3-2.8.3-5.8-.1-8.7l-17.8,13.6h0ZM151.8,36.5h3.2v.3c-1.5-.2-.9,1.4-1,2.4-9.3,3.8-8.1-10.8-.6-5.9.1-.2.2-.5.2-.8h.3v2.4h-.3c-.2-2.2-2.8-3.3-4.4-1.7-1.7,1.9-.7,7.7,2.8,6.1,1.1-.4,1.2-2.9-.3-2.5v-.3h0ZM157.1,35.9c-.2-5,8.2-4.9,8,0,.2,5.1-8.2,5-8,0ZM158.4,35.9c-.5,4.6,6,4.6,5.5,0,.5-4.6-6-4.6-5.5,0ZM167.4,35.9c-.2-5,8.2-4.9,8,0,.2,5.1-8.2,5-8,0ZM168.6,35.9c-.5,4.6,6,4.6,5.5,0,.5-4.6-6-4.6-5.5,0ZM177.2,32.3c4.7-.9,9.8,1.1,6.7,6.2-1.5,1.6-4.7.8-6.7,1v-.2c1.2.1,1.3-.4,1.2-1.7,0,0,0-3.5,0-3.5,0-1.2,0-1.7-1.2-1.6v-.2h0ZM179.4,32.5c.2,1.2-.4,5.9.3,6.7,5.4,1.6,5-8.2-.3-6.7h0ZM272.5,32.3c4.7-.9,9.8,1.1,6.7,6.2-1.5,1.6-4.7.8-6.7,1v-.2c1.2.1,1.3-.4,1.2-1.7,0,0,0-3.5,0-3.5,0-1.2,0-1.7-1.2-1.6v-.2h0ZM274.7,32.5c.2,1.2-.4,5.8.3,6.7,5.4,1.6,5-8.2-.3-6.7h0ZM292.4,36.9h-2.8c-.4,1-1.2,2.4.2,2.4v.2h-2.2v-.2c1.6-.4,2.8-5.8,3.7-7.2h.2c.8,1.1,2.2,7,3.7,7.2v.2h-2.9v-.2c1.8.3.3-1.6,0-2.4h0ZM292.3,36.7l-1.3-3.1-1.3,3.1h2.6,0ZM306.1,36.4c.2-.8,3.1-3.8.9-3.9v-.2h2.4v.2c-1.4.2-2.4,3.2-3.2,4.2.1,1.1-.5,2.8,1,2.6v.2h-3.1v-.2c1.5.2.9-1.5,1-2.6-.8-.9-2-4.3-3.2-4.3v-.2h3v.2c-2.2-.2,1.1,3.2,1.2,3.9ZM46.1,157.3c-8.2-2.9-14.9-7.2-20.1-12.7-6.3,5.7-14.5,9.9-24.4,12.6l-.4-.7c9.2-3.6,16.6-8.6,22.2-15-3.8-4.8-6.6-10.5-8.3-17.1-1.6,3.3-2.9,5.9-3.9,7.8.5.7.4,1.3-.2,1.8l-4-4.7c2.8-2.1,5.3-4.2,7.5-6.6l.6-3.4,2.6.8-2,2.9c2,5.9,5.3,11.2,9.9,15.7,4.5-5.9,7.4-12.7,8.9-20.4H1.9l-.5-1.5h21.9v-10.5l7.2.6c-.1.8-.8,1.4-2,1.5v8.4h12.8l3.3-4.6c1.9,1.6,4.6,3.9,6,5.2-.2,1.8-8.8.5-9.9.9-2.2,9.4-6.2,17.2-11.8,23.3,6,4.8,13.5,8.3,22.5,10.5l-.2.7c-2.5.3-4.2,1.7-5.2,4.5h0ZM8.3,215.6v-23.9c-2.5,2.4-5.1,4.5-7.7,6.2l-.6-.6c5.3-5,11.2-13.6,13.7-20.4H2l-.5-1.5h7v-10.9l6.6.7c-.1.8-.8,1.3-2,1.5v8.7h.6l2.9-2.9,4.5,4.8c-.4.3-1.2.6-2.4.7-1.3,2.6-3.1,5.3-5.5,8.3,6.5,1,9.8,10.8,3,8.1-.4-1.9-1.5-4.1-3.3-6.4v26.1c-.6,1.3-3.3,1.7-4.8,1.6h0ZM20.7,170.1l-.4-1.6h22.3l2.8-3.7c1.6,1.3,3.9,3.3,5.1,4.4,1,1.9-29.4.5-29.8.9ZM20.7,215.5v-26.8l5.3,2.2h17.7l2.4-2.9,4.8,3.8c-.3.5-1,.8-2.1,1v21.1c-.8,1.1-3.4,1.3-4.9,1.3v-3.4h-18.4c.5,3.8-1.4,3.7-4.8,3.8h0ZM23.3,188.1v-15.3l5.2,2.2h12.7l2.3-2.7,4.7,3.6c-.4.5-1,.8-1.9,1v9.6c-.9.9-3.4,1.2-4.9,1.1v-2h-13.4c.6,2.5-2.8,2.5-4.7,2.5h0ZM25.5,200.1h6.9v-7.7h-6.9v7.7ZM25.5,210.1h6.9v-8.4h-6.9v8.4ZM28,184.1h13.4v-7.5h-13.4v7.5ZM36.9,200.1h7v-7.7h-7v7.7ZM36.9,210.1h7v-8.4h-7v8.4ZM72,140.7c9.8-.4,13.8-11.9,13.5-20.9h84.7c-1.8,5.1-3.9,10.2-6.4,15.3l1.6,1.1c5.9-3.8,11.5-8.6,16.9-14.3,2.5-.3,4.2-.8,5-1.5l-11.1-10.9-6,6.3h-39.2v-13.5c2.9-.4,4.4-1.6,4.6-3.6l-15.5-1.5v18.7h-34.7c-.4-2.9-1-5.5-1.8-7.8h-2.2c.6,8-3.5,17.8-10.2,21.6-5.7,3.1-5.4,10.8,1,11.2h0ZM178.8,206.6c-1.5-1.3-3-2.6-4.6-3.9l-6.8,9.7h-8.1v-70.2c3-.4,5-1.2,6-2.6l-12.7-9.7-5.2,6.9h-42.2l-11.7-4.9v80.4h-27.5l1,3.9h116.6c1.9,0,3.1-.7,3.4-2.2-1.9-2-4.6-4.5-8.1-7.6h0ZM148.8,161.6h-41.2v3.9h41.2v20.9h-41.2v3.8h41.2v22.2h-45.1v-71.6h45.1v20.8ZM204.6,136.7c8.8-.4,11.5-9.5,11.4-18.7h85.4c-1.6,5-3.1,9.1-4.6,12.3-1.8-1.5-3.7-3-5.6-4.5l-6.4,8h-70.1l1.2,3.8h26.5c-3.4,8.7-7.2,16.1-11.3,22.2-10.5.4-18.1.7-22.8.7l5.2,13c1.5-.3,2.7-1.2,3.5-2.8,28-3.5,51.8-7.2,71.5-10.9,4.5,4.9,7.6,9.1,9.4,12.8,6.3,3.2,9.7-2.6,7-8.5-1.6-3.9-4.8-7.6-9.6-11.2-5.9-4.3-13.6-7.9-23.1-10.7l-1.3,1.4c4.6,3.3,9.6,7.7,14.8,13.2-20,1.4-36.5,2.3-49.4,3,6.8-5.9,13.4-13.3,19.7-22,1.8-.9,48.4,2.3,47.2-2-.9-.8-2.4-2.1-4.5-3.9,5.2-3.1,10.1-7,14.7-11.8,2.6-.2,4.2-.6,4.9-1.4l-11-10.8-5.9,6.2h-38.3v-11.8c2.9-.4,4.5-1.7,4.7-3.8l-15.5-1.5v17h-36.5c-.5-3.1-1.1-5.7-1.8-8h-2c.5,6.5-3.1,16-8.4,19.6-4.7,2.6-5.7,10.9,1,11.1h0ZM304.6,204.6l-6.8,8.9h-34.9v-40c2.7-.4,4.2-1.7,4.5-3.6l-15.2-1.5v18.8h-41.8l1,3.8h40.8v22.6h-54.1l1.2,3.8h114.8c1.9,0,3.1-.7,3.4-2-2.9-2.8-8.8-7.4-12.8-10.7h0ZM302.9,190.9c1.9,0,3.1-.7,3.4-2-2.8-2.7-8.2-7.1-12.2-10.1l-6.6,8.4h-20.8v3.8h36.1ZM400.7,131.3c-2.7-2.5-7.6-6.9-11.1-9.7l-6.3,8h-28.8l1,3.9c1.9-1,46.4,2.4,45.2-2.2h0ZM349.7,184.6c-.9,13.2-9,16.8-17,24-4,17.5,27,4.9,19.1-23.9h-2.1c0-.1,0-.1,0-.1ZM394.4,168.9v-19.6c2.4-.6,4.1-1.5,5-2.6l-11-8.5-5,5.5h-13.3v3.9h14.5v15.3h-14.5v3.8h14.5v5c2.4.3,8.5-.9,9.8-2.8h0ZM419.7,103.5c1.9,2.3,3.2,4.5,3.9,6.5,12.7,5.3,11.8-12.9-8.7-13.1l-1,1.2c2,1.4,3.9,3.2,5.8,5.4h0ZM347.5,161.2c3.7-11.2,3-34.7,3.2-48.4l-10-4.2c-.3,25.4,2.8,57.2-11.5,77.4l1.7,1.5c8-6.6,13.6-15.4,16.7-26.4h0ZM379.1,179.8c6.6,4.1,15.4,12.5,17.8,19.5,5.2,2.9,9.5-1.5,8-6.8-3.4-9.5-13.8-12.5-24.6-14.1l-1.2,1.4h0ZM445.9,172.7l2-17-1.6-.3c-2.8,6.2-3.3,11.6-7,14.5-6.4-2.6-11.6-8.7-16.1-14.4,5.6-6.9,10.3-15,14-24.1,2.6.4,4.3-.4,5.1-2.2l-14.3-5.8c-2.3,8.4-5.5,16.4-9.8,23.9-4.5-8.6-7.5-18.6-9-30,2.1-1,41.6,2.4,40.8-2.2-2.3-2.7-7.1-7.2-10.5-10.3l-5.8,8.5h-24.9c-.5-4.1-.8-8.1-.8-12,2.4-.4,3.7-1.7,4.1-3.6l-14.7-1.5c0,5.3.4,11,1,17.2h-44v3.9h44.5c2.2,15.4,6.6,28.6,13.1,39.6-5.3,7.5-11.7,14-19.1,19.5l1.4,1.5c8.4-3.9,15.7-8.8,21.9-14.9,6,8.1,15.4,17.3,25.3,20.1,8.5,2.1,10-5.1,4.3-10.6ZM442,194.7c-5-4.4-11.8-8-20.6-10.7l-1.4,1.2c8,6.9,17.5,18.9,19.8,28.5,13.9,6.9,10.9-13.7,2.2-19.1h0ZM419.6,208.1l-.3-14.6h-1.7c-3.4,9.7-2.1,14.4-7.6,15.8-2.6.2-24.2.1-30,.1-3.7-.3-5.6.8-5.9-2.3,0,0,0-20.1,0-20.1,2.4-.4,3.7-1.4,3.9-3.2l-14.2-1.5v26.9c.3,9.8,4.3,9.4,14.6,9.9,10,0,34.4.3,40-1.5,6.3-1.3,7.6-7.4,1.2-9.5h0ZM367,171.6v-28.1s-9.6-4.2-9.6-4.2v35.3c2.5.2,8.3-.8,9.6-3h0ZM68.8,242.4v2.4c.1,0-.2,0-.2,0,0-1.9-1.9-1.8-3.4-1.8v7.9c0,1.3.4,1.6,1.5,1.5v.3h-4.4v-.3c1.1,0,1.5-.3,1.5-1.5,0,0,0-7.9,0-7.9-1.5,0-3.3-.2-3.3,1.8h-.3v-2.4h8.6,0ZM74.4,247.2h4.8c-.2-1.3.9-5-1.5-4.5v-.3h4.4v.3c-1,0-1.6.3-1.5,1.6,0,0,0,6.7,0,6.7-.1,1.2.4,1.6,1.5,1.6v.3h-4.4v-.3c2.4.5,1.2-3.4,1.5-4.7h-4.8c.3,1.3-.9,5.2,1.5,4.7v.3h-4.4v-.3c1.1,0,1.6-.2,1.5-1.6,0,0,0-6.7,0-6.7.1-1.2-.4-1.6-1.5-1.6v-.3h4.4v.3c-2.3-.5-1.3,3.2-1.5,4.5h0ZM87.7,243v4.1c1.3-.1,4,.7,3.9-1.5h.3v3.6h-.3c.1-2.2-2.5-1.4-3.9-1.5.1.7-.3,4.1.3,4.5,2.1.2,4.5.5,5.3-2h.3l-.9,2.6h-8v-.3c1,0,1.6-.3,1.5-1.5,0,0,0-6.7,0-6.7,0-1.4-.3-1.6-1.5-1.5v-.3h8v2.3c.1,0-.2,0-.2,0,0-2.5-3.3-1.5-4.9-1.7h0ZM104.9,243v4.1c1.3-.1,4,.7,3.9-1.5h.3v3.6h-.3c.1-2.2-2.5-1.4-3.9-1.5.1.7-.3,4.1.3,4.5,2.1.2,4.5.5,5.3-2h.3l-.9,2.6h-8v-.3c1,0,1.6-.3,1.5-1.5,0,0,0-6.7,0-6.7,0-1.4-.4-1.6-1.5-1.5v-.3h8v2.3c.1,0-.2,0-.2,0,0-2.5-3.3-1.5-4.9-1.7h0ZM120.2,242.2v3.6h-.3c.4-3.4-5.9-4.1-4.4-.5.9,1.1,4.4,2.2,5.1,3.7,1.2,2.4-1.5,4.6-3.8,4-.6,0-2.4-1.2-2.4,0h-.3v-3.6h.3c-.2,4.3,7.7,3.4,4.3-.2-1-.8-3.8-1.9-4.4-3.1-1.4-2.7,2.1-4.9,4.5-3.5.6.3,1,.3,1.1-.4h.3ZM130.8,242.2v3.6h-.3c.4-3.4-5.9-4.1-4.4-.5.9,1.1,4.4,2.2,5.1,3.7,1.2,2.4-1.5,4.6-3.8,4-.6,0-2.4-1.2-2.4,0h-.3v-3.6h.3c-.2,4.3,7.7,3.4,4.3-.2-1-.8-3.8-1.9-4.4-3.1-1.4-2.7,2.1-4.9,4.5-3.5.6.3,1,.3,1.1-.4h.3ZM137.5,243v4.1c1.3-.1,4,.7,3.9-1.5h.3v3.6h-.3c.1-2.2-2.5-1.4-3.9-1.5.1.7-.3,4,.3,4.5,2.1.2,4.5.5,5.3-2h.3l-.9,2.6h-8v-.3c1,0,1.6-.3,1.5-1.5,0,0,0-6.7,0-6.7,0-1.4-.3-1.6-1.5-1.5v-.3h8v2.3c.1,0-.2,0-.2,0,0-2.5-3.3-1.5-4.9-1.7h0ZM145.4,242.4h2.8l6.3,7.8v-6c0-1.3-.4-1.6-1.5-1.5v-.3h3.6v.3c-1.1,0-1.5.3-1.5,1.5,0,0,0,8.7,0,8.7h-.3l-6.8-8.3v6.4c0,1.3.4,1.6,1.5,1.5v.3h-3.6v-.3c1.1,0,1.5-.3,1.5-1.5,0,0,0-7.2,0-7.2-.7-.8-1-1.1-2-1.1v-.3h0ZM168.3,242.2l.2,3.5h-.2c-1.3-5.2-7.9-2.8-7.1,2.1-.5,4.4,5.1,6.4,7.3,2.4l.2.2c-8.8,10.4-14.5-11.2-1.8-7.6.6.4,1,0,1.1-.5h.3ZM174.4,243v4.1c1.3-.1,4,.7,3.9-1.5h.3v3.6h-.3c.1-2.2-2.5-1.4-3.9-1.5.1.7-.3,4.1.3,4.5,2.1.2,4.5.5,5.3-2h.3l-.9,2.6h-8v-.3c1,0,1.6-.3,1.5-1.5,0,0,0-6.7,0-6.7,0-1.4-.3-1.6-1.5-1.5v-.3h8v2.3c.1,0-.2,0-.2,0,0-2.5-3.3-1.5-4.9-1.7h0ZM194.1,242.2c6.6,0,6.5,11-.1,10.8-6.7.1-6.6-11,.1-10.8h0ZM193.9,242.7c-4.5,0-4.4,9.7,0,9.7,4.6.1,4.6-9.9,0-9.7h0ZM204.8,243v4.1c1.2,0,3.3.5,3.2-1.4h.3v3.5h-.3c.2-1.9-2.1-1.4-3.2-1.5.3,1.3-.9,5.3,1.5,4.8v.3h-4.4v-.3c1.1,0,1.6-.2,1.5-1.6,0,0,0-6.7,0-6.7.1-1.2-.4-1.6-1.5-1.5v-.3h7.7v2.3c0,0-.2,0-.2,0-.3-2.3-3-1.6-4.6-1.7ZM225.1,247.5c2.9.3,3.1,4.1.5,5-1.3.6-5.9.2-7.5.3v-.3c1.1,0,1.6-.3,1.5-1.6,0,0,0-6.7,0-6.7,0-1.3-.4-1.6-1.5-1.6v-.3c1.3,0,5.3-.1,6.5.2,2.7.4,3.2,4.2.5,4.9h0ZM221.1,247.1c5.7,1.5,5.5-5.5,0-4v4ZM221.1,252c6,1.7,5.9-5.6,0-4.2v4.2h0ZM233.5,243v4.1c1.3-.1,4,.7,3.9-1.5h.3v3.6h-.3c.1-2.2-2.5-1.4-3.9-1.5.1.7-.3,4,.3,4.5,2.1.2,4.5.5,5.3-2h.3l-.9,2.6h-8v-.3c1,0,1.6-.3,1.5-1.5,0,0,0-6.7,0-6.7,0-1.4-.3-1.6-1.5-1.5v-.3h8v2.3c.1,0-.2,0-.2,0,0-2.5-3.3-1.5-4.9-1.7h0ZM248.8,249.3h-4c-.3,1.1-2,3.3.2,3.2v.3h-3.3v-.3c2-.1,4.3-8.9,5.3-10.3h.3c1,1.4,3.2,10.4,5.4,10.3v.3h-4.1v-.3c2.1,0,.4-2.2.1-3.2ZM248.6,248.7l-1.8-4.2-1.8,4.2h3.6ZM262.3,242.7v-.3h3.7v.3c-4.1,0,1.9,10.6-5.5,10.3-7.6.4-1.4-10.4-5.6-10.3v-.3h4.5v.3c-1.1,0-1.6.3-1.5,1.6.3,2.1-.9,6.6,1.4,7.8,2.5,1,5-.7,4.5-3.6-.3-1.3,1-6.3-1.5-5.7h0ZM277.1,242.4v2.4c.1,0-.2,0-.2,0,0-1.9-1.9-1.8-3.3-1.8v7.9c0,1.3.4,1.6,1.5,1.5v.3h-4.4v-.3c1.1,0,1.5-.3,1.5-1.5,0,0,0-7.9,0-7.9-1.5,0-3.3-.2-3.3,1.8h-.3v-2.4h8.6,0ZM284.3,252.5v.3h-4.4v-.3c1.1,0,1.6-.2,1.5-1.6,0,0,0-6.7,0-6.7.1-1.2-.4-1.6-1.5-1.5v-.3h4.4v.3c-1.1,0-1.6.2-1.5,1.6,0,0,0,6.7,0,6.7-.1,1.2.4,1.6,1.5,1.6h0ZM289.8,243v4.1c1.2,0,3.3.5,3.2-1.4h.3v3.5h-.3c.2-1.9-2.1-1.4-3.2-1.5.3,1.3-.9,5.3,1.5,4.8v.3h-4.4v-.3c1.1,0,1.6-.2,1.5-1.6,0,0,0-6.7,0-6.7.1-1.2-.4-1.6-1.5-1.5v-.3h7.7v2.3c0,0-.2,0-.2,0-.3-2.3-3-1.6-4.6-1.7ZM304.6,242.7v-.3h3.7v.3c-4.1,0,1.9,10.6-5.5,10.3-7.6.4-1.4-10.4-5.6-10.3v-.3h4.5v.3c-1.1,0-1.6.3-1.5,1.6.3,2.1-.9,6.6,1.4,7.8,2.5,1,5-.7,4.5-3.6-.3-1.3,1-6.3-1.5-5.7h0ZM319.3,249.9h.2c0,0-.9,2.9-.9,2.9h-8v-.3c1.1,0,1.6-.3,1.5-1.6,0,0,0-6.7,0-6.7,0-1.3-.4-1.6-1.5-1.6v-.3h4.7v.3c-1.4,0-1.8.3-1.7,1.7,0,.6-.1,7,.1,7.4.3.5,1.5.3,2.2.3,1.9,0,2.7-.5,3.4-2.2ZM335.9,249.9h.2c0,0-.9,2.9-.9,2.9h-8v-.3c1.1,0,1.6-.3,1.5-1.6,0,0,0-6.7,0-6.7,0-1.3-.4-1.6-1.5-1.6v-.3h4.7v.3c-1.4,0-1.8.3-1.7,1.7,0,.6-.1,7,.1,7.4.3.5,1.5.3,2.2.3,1.9,0,2.6-.5,3.4-2.2ZM343.2,252.5v.3h-4.4v-.3c1.1,0,1.6-.2,1.5-1.6,0,0,0-6.7,0-6.7.1-1.2-.4-1.6-1.5-1.5v-.3h4.4v.3c-1.1,0-1.6.2-1.5,1.6,0,0,0,6.7,0,6.7-.1,1.2.4,1.6,1.5,1.6h0ZM356.6,242.4v.3c-1.9,0-4.3,9.1-5.2,10.3h-.3c-1-1.2-3.5-10.6-5.5-10.3v-.3h4.2v.3c-3.1-.4,1.8,6.9,1.8,8l2.4-6c.5-1.2.5-1.8-.7-2v-.3h3.2,0ZM363.5,252.5v.3h-4.4v-.3c1.1,0,1.6-.2,1.5-1.6,0,0,0-6.7,0-6.7.1-1.2-.4-1.6-1.5-1.5v-.3h4.4v.3c-1.1,0-1.6.2-1.5,1.6,0,0,0,6.7,0,6.7-.1,1.2.4,1.6,1.5,1.6h0ZM365.5,242.4h2.8l6.3,7.8v-6c0-1.3-.4-1.6-1.5-1.5v-.3h3.6v.3c-1.1,0-1.5.3-1.5,1.5,0,0,0,8.7,0,8.7h-.3l-6.8-8.3v6.4c0,1.3.4,1.6,1.5,1.5v.3h-3.6v-.3c1.1,0,1.5-.3,1.5-1.5,0,0,0-7.2,0-7.2-.7-.8-1-1.1-2-1.1v-.3h0ZM388.5,242.2l.3,3.3h-.3c-.6-3.1-4.9-3.7-6.4-1.2-2.5,3.5.6,10.3,5.2,7.6-.3-1.2.9-4.9-1.4-4.5v-.3h4v.3c-2-.3-.9,3.6-1.2,4.7-10.9,5.5-13-12.7-1.5-9.4.6.3.9.2.9-.5h.3Z"/>
</svg>