<svg width="138" height="136" viewBox="0 0 138 136" fill="none" xmlns="http://www.w3.org/2000/svg">
<g clip-path="url(#clip0_3_2025)">
<path d="M14.4115 18.024C11.9692 17.1536 9.98167 15.8978 8.44898 14.2565C6.57673 15.9413 4.16243 17.1878 1.20297 17.9929L1.09082 17.7815C3.81976 16.706 6.01287 15.2264 7.67329 13.3457C6.55181 11.922 5.72939 10.2342 5.1998 8.28825C4.73563 9.27674 4.34934 10.0508 4.04094 10.6041C4.17801 10.7999 4.1562 10.9802 3.97863 11.1418L2.78862 9.7399C3.61415 9.13064 4.35869 8.48408 5.02535 7.80022L5.1998 6.80551L5.97549 7.05108L5.37425 7.89969C5.96614 9.64976 6.95055 11.2009 8.32437 12.55C9.64522 10.8092 10.5299 8.79182 10.9723 6.49777H1.29643L1.15312 6.04083H7.6546V2.91992L9.79475 3.10021C9.7636 3.352 9.56734 3.50431 9.20909 3.55716V6.03772H13.0003L13.9847 4.68242C14.1966 4.86893 14.4115 5.04611 14.6358 5.22019C15.1124 5.63362 15.4863 5.96933 15.7604 6.23044C15.7168 6.40452 15.5704 6.49155 15.3149 6.49155H12.8259C12.1592 9.27674 10.991 11.577 9.32124 13.3924C11.1063 14.816 13.3336 15.8543 15.9972 16.507L15.9504 16.7029C15.209 16.7775 14.6981 17.2189 14.4115 18.024Z" fill="#E73820"/>
<path d="M3.21567 35.3003V28.2379C2.47425 28.956 1.70791 29.5652 0.91664 30.0657L0.742188 29.904C1.56772 29.1114 2.35276 28.154 3.10353 27.0318C3.8543 25.9221 4.41815 24.8683 4.80132 23.8674H1.32785L1.18455 23.4104H3.2624V20.1963L5.22811 20.3921C5.19696 20.6439 5.0007 20.79 4.64245 20.8335V23.4104H4.83248L5.70474 22.5618L7.03805 23.9824C6.93214 24.0788 6.69538 24.144 6.32467 24.1782C5.93215 24.9398 5.39322 25.7542 4.70787 26.6246C5.40568 26.864 5.92903 27.1748 6.27794 27.554C6.57389 27.868 6.71719 28.1913 6.70472 28.5177C6.70472 28.8223 6.58946 29.0306 6.35582 29.1456C6.12218 29.2606 5.87608 29.214 5.61128 29.0057C5.49602 28.4399 5.17204 27.8027 4.64556 27.0971V34.831C4.64556 34.9056 4.53964 34.9988 4.32781 35.1076C4.06302 35.2382 3.77953 35.3035 3.47112 35.3035H3.21879L3.21567 35.3003ZM6.89475 21.8251L6.76703 21.3526H13.3806L14.2218 20.2585C14.4024 20.4108 14.58 20.5631 14.7607 20.7154C15.1719 21.0542 15.4959 21.334 15.7264 21.564C15.6953 21.7381 15.5582 21.8251 15.3152 21.8251H6.89475ZM6.87918 35.2661V27.3209L8.44925 27.9737H13.6984L14.4118 27.1251L15.823 28.2503C15.7264 28.3933 15.5208 28.4897 15.2031 28.5425V34.775C15.2031 34.8279 15.0909 34.8994 14.8697 34.9864C14.6174 35.0952 14.3308 35.148 14.013 35.148H13.7607V34.1378H8.29037V34.8714C8.29037 34.946 8.18446 35.0299 7.97262 35.1169C7.72963 35.2164 7.44926 35.263 7.13151 35.263H6.87918V35.2661ZM7.65487 27.1593V22.6395L9.20936 23.2768H12.9663L13.6486 22.4779L15.0286 23.5379C14.9227 23.6778 14.7327 23.7772 14.4585 23.8301V26.6837C14.4585 26.7272 14.3464 26.7862 14.1252 26.864C13.8729 26.9634 13.5863 27.0101 13.2685 27.0101H13.0162V26.4226H9.03491V26.7987C9.03491 26.864 8.93522 26.9386 8.73274 27.0256C8.49909 27.1126 8.22495 27.1562 7.9072 27.1562H7.65487V27.1593ZM8.29037 30.6998H10.3371V28.4337H8.29037V30.6998ZM8.29037 33.6684H10.3371V31.1723H8.29037V33.6684ZM9.03491 25.9532H13.0162V23.7337H9.03491V25.9532ZM11.6829 30.6998H13.7607V28.4337H11.6829V30.6998ZM11.6829 33.6684H13.7607V31.1723H11.6829V33.6684Z" fill="#E73820"/>
<path d="M22.5114 13.5666C23.1345 13.5946 23.7295 13.3925 24.2996 12.9667C24.9475 12.488 25.4802 11.8072 25.8946 10.9275C26.3338 9.88619 26.5425 8.70186 26.5176 7.36833H51.6419C51.1216 8.88837 50.4892 10.396 49.7354 11.888L50.2026 12.2082C51.9378 11.0892 53.6107 9.67482 55.2182 7.96827C55.9689 7.88745 56.4642 7.74135 56.6948 7.52686L53.3895 4.28784L51.6014 6.16846H39.9723V2.16475C40.8289 2.05906 41.2806 1.69848 41.3336 1.083L36.7449 0.641602V6.16224H26.4397C26.3089 5.31052 26.1282 4.53651 25.8946 3.84333L25.2341 3.88374C25.312 5.24525 25.041 6.53837 24.4179 7.76311C23.8198 8.91013 23.0815 9.73699 22.1999 10.2437C21.1096 10.9648 20.7607 11.7917 21.1501 12.7242C21.3837 13.2589 21.8354 13.5386 22.5114 13.5635V13.5666Z" fill="#E73820"/>
<path d="M54.2092 33.0909C53.7668 32.7179 53.3151 32.3293 52.8478 31.9314L50.826 34.813H48.4149V14.0484C49.2965 13.9427 49.8915 13.6878 50.203 13.2868L46.4305 10.4053L44.876 12.4444H32.3528L28.8917 11.0052V34.8099H20.7236L21.0352 35.9693H55.6079C56.178 35.9693 56.5144 35.7548 56.6203 35.329C56.0503 34.7415 55.2465 33.9955 54.2092 33.0878V33.0909ZM45.3027 19.768H33.0848V20.9274H45.3027V27.1288H33.0848V28.2479H45.3027V34.8099H31.9229V13.607H45.3027V19.768Z" fill="#E73820"/>
<path d="M63.3515 12.407C63.9745 12.435 64.5322 12.2484 65.0244 11.8475C66.2424 10.7533 66.8125 9.09957 66.7346 6.88634H92.0521C91.5848 8.35354 91.1331 9.56584 90.6907 10.5264C90.1455 10.0725 89.5879 9.63423 89.0178 9.20526L87.1113 11.5646H66.3047L66.6536 12.6836H74.5102C73.4978 15.2699 72.3825 17.4582 71.1645 19.2456C68.0524 19.3793 65.797 19.4446 64.3982 19.4446L65.9527 23.2866C66.392 23.2058 66.744 22.926 67.0025 22.4473C75.2984 21.406 82.3637 20.3274 88.1985 19.2083C89.5225 20.6475 90.454 21.9158 90.9991 23.01C91.8558 23.4358 92.5162 23.3768 92.9835 22.8297C93.4508 22.2826 93.4757 21.5024 93.0614 20.489C92.5941 19.342 91.6471 18.2354 90.2234 17.1692C88.4851 15.8885 86.2048 14.8347 83.3793 14.0078L82.9899 14.4088C84.3637 15.3973 85.8278 16.7029 87.3855 18.3286C81.4478 18.7296 76.5601 19.0218 72.7221 19.2083C74.7439 17.4489 76.6878 15.2761 78.5569 12.6867H91.5069C92.1019 12.6867 92.4539 12.4878 92.5567 12.0868C92.2982 11.8475 91.8558 11.462 91.2359 10.9273C92.7654 10.0197 94.2171 8.86022 95.591 7.44586C96.3698 7.39302 96.8495 7.25935 97.0302 7.04487L93.7623 3.84315L92.0116 5.68336H80.6566V2.20498C81.5133 2.07132 81.9774 1.6983 82.0553 1.08593L77.4666 0.644531V5.68647H66.6536C66.4979 4.7788 66.3172 3.99235 66.1085 3.32714H65.5259C65.5789 4.47417 65.3452 5.62119 64.825 6.76822C64.3328 7.8624 63.7347 8.64884 63.0369 9.12755C62.5696 9.44772 62.2456 9.82073 62.0649 10.2466C61.8562 10.7253 61.8437 11.1947 62.0275 11.6454C62.2612 12.1241 62.7004 12.379 63.3484 12.407H63.3515Z" fill="#E73820"/>
<path d="M93.0246 32.49L91.0028 35.1291H80.6572V23.2858C81.4609 23.1522 81.9001 22.7916 81.978 22.2041L77.4672 21.7627V27.3237H65.0624L65.3739 28.4428H77.4703V35.1229H61.4082L61.7571 36.2419H95.8252C96.3953 36.2419 96.7317 36.043 96.8345 35.642C96.2364 35.0825 95.4202 34.3893 94.386 33.5624C93.9436 33.2174 93.4919 32.8568 93.0246 32.4807V32.49Z" fill="#E73820"/>
<path d="M92.5197 28.4494C93.0898 28.4494 93.4262 28.2505 93.5321 27.8495C92.9621 27.3148 92.1833 26.6496 91.1988 25.8476C90.7845 25.5274 90.3546 25.1948 89.9154 24.8467L87.9715 27.3272H81.8096V28.4463H92.5197V28.4494Z" fill="#E73820"/>
<path d="M123.034 10.8054C122.488 10.2987 121.775 9.65835 120.893 8.88435C120.504 8.56417 120.115 8.244 119.725 7.92383L117.859 10.2832H109.302L109.613 11.4426H122.018C122.588 11.4426 122.925 11.2281 123.031 10.8023L123.034 10.8054Z" fill="#E73820"/>
<path d="M107.906 26.5693C107.803 27.9029 107.348 29.1711 106.545 30.371C105.794 31.4372 104.937 32.1988 103.978 32.6526C103.457 32.9199 103.084 33.2681 102.85 33.6939C102.616 34.1478 102.579 34.6265 102.735 35.1332C102.968 35.6678 103.42 35.96 104.096 36.0129C104.719 36.0657 105.327 35.9072 105.925 35.5342C106.987 34.8658 107.778 33.84 108.298 32.4537C108.946 30.7191 109.024 28.7732 108.532 26.6129L107.909 26.5724L107.906 26.5693Z" fill="#E73820"/>
<path d="M121.168 21.9277V16.1273C121.893 15.9408 122.386 15.6859 122.644 15.3657L119.376 12.8447L117.9 14.486H113.959V15.6455H118.249V20.1652H113.959V21.2842H118.249V22.7639H118.716C119.155 22.7639 119.675 22.6582 120.27 22.4437C120.841 22.2292 121.14 22.0582 121.164 21.9246L121.168 21.9277Z" fill="#E73820"/>
<path d="M128.675 2.56496C129.245 3.25815 129.635 3.89849 129.84 4.48599C130.463 4.88699 131.046 4.95226 131.591 4.68494C132.108 4.41761 132.354 3.99175 132.329 3.40425C132.305 2.7639 131.915 2.20438 131.161 1.72256C130.28 1.1102 128.984 0.73718 127.273 0.603516L126.962 0.964098C127.557 1.38996 128.13 1.92462 128.672 2.56496H128.675Z" fill="#E73820"/>
<path d="M107.245 19.6491C107.84 17.5415 108.139 14.8745 108.139 11.6479L108.186 5.31902L105.223 4.08496V11.6852C105.223 14.8869 105.043 17.4856 104.678 19.4874C104.158 22.4467 103.202 24.9552 101.8 27.0099L102.304 27.4513C104.691 25.5054 106.336 22.9036 107.245 19.6491Z" fill="#E73820"/>
<path d="M116.619 25.1703C117.709 25.8635 118.744 26.7184 119.731 27.7317C120.822 28.8787 121.544 29.945 121.909 30.9334C122.713 31.3344 123.36 31.3002 123.853 30.834C124.345 30.3677 124.488 29.7336 124.279 28.9347C124.021 28.0022 123.345 27.1753 122.258 26.4541C120.934 25.5993 119.171 25.0398 116.968 24.7725L116.619 25.1735V25.1703Z" fill="#E73820"/>
<path d="M136.45 23.0499L137.033 18.008L136.565 17.9272C135.967 19.5529 135.438 20.8336 134.971 21.7692C134.815 22.0645 134.653 22.2169 134.485 22.2293C134.316 22.2417 134.089 22.1423 133.802 21.9278C132.248 20.8864 130.886 19.5684 129.718 17.9676C131.379 15.9129 132.765 13.5411 133.88 10.8461C134.659 10.9518 135.164 10.7404 135.397 10.2057L131.157 8.48675C130.481 10.9673 129.51 13.3266 128.242 15.5678C126.921 13.0344 126.024 10.0752 125.559 6.68694H136.681C137.226 6.68694 137.55 6.47246 137.653 6.0466C137.185 5.51194 136.525 4.84673 135.668 4.04785C135.304 3.70281 134.93 3.35466 134.541 3.00651L132.83 5.52748H125.441C125.285 4.32761 125.207 3.14018 125.207 1.96828C125.908 1.83462 126.31 1.47404 126.413 0.889645L122.058 0.448242C122.083 2.02113 122.189 3.71524 122.369 5.53059H109.329V6.69005H122.525C123.173 11.2502 124.469 15.1575 126.413 18.4121C124.83 20.6253 122.94 22.5464 120.734 24.1721L121.161 24.6135C123.65 23.4665 125.815 21.9993 127.656 20.2119C128.927 21.9713 130.494 23.5069 132.363 24.8124C133.347 25.5056 134.282 25.9595 135.164 26.1739C136.201 26.4413 136.927 26.2548 137.341 25.6144C137.55 25.3471 137.587 25.0269 137.456 24.6539C137.326 24.2809 136.989 23.7462 136.444 23.053L136.45 23.0499Z" fill="#E73820"/>
<path d="M135.286 29.5685C133.809 28.263 131.772 27.2092 129.18 26.4072L128.753 26.7678C130.049 27.8869 131.23 29.1831 132.292 30.6472C133.51 32.3009 134.289 33.8209 134.625 35.2073C135.507 35.7948 136.245 35.8352 136.843 35.3285C137.438 34.8219 137.647 34.0478 137.466 33.0096C137.233 31.8097 136.507 30.6627 135.289 29.5685H135.286Z" fill="#E73820"/>
<path d="M128.635 33.5324L128.557 29.2116H128.052C127.429 31.5305 126.99 32.92 126.728 33.3739C126.547 33.694 126.236 33.8681 125.794 33.893C125.404 33.921 124.005 33.9334 121.594 33.9334H116.887C116.108 33.9334 115.616 33.893 115.411 33.8122C115.23 33.7313 115.14 33.5448 115.14 33.2526V27.2906C115.84 27.1849 116.23 26.8647 116.308 26.3301L112.108 25.8887V33.8495C112.108 35.0214 112.379 35.8016 112.925 36.1901C113.47 36.5756 114.635 36.7714 116.426 36.7714H121.404C124.8 36.7714 127.096 36.6253 128.289 36.33C129.351 36.0627 129.884 35.556 129.884 34.81C129.884 34.2505 129.47 33.8246 128.641 33.5293L128.635 33.5324Z" fill="#E73820"/>
<path d="M113.039 22.7296L113.046 14.4082L110.198 13.168V23.6093H110.625C111.142 23.6093 111.687 23.4881 112.257 23.2487C112.775 23.0343 113.036 22.8633 113.036 22.7296H113.039Z" fill="#E73820"/>
<path d="M6.74189 82.6451V93.5838H4.35563V82.6451H1.17188V80.4785H9.92254V82.6451H6.73878H6.74189Z" fill="#493024"/>
<path d="M20.0442 93.5877H17.6766V88.0422H13.5365V93.5877H11.1689V80.4824H13.5365V85.8756H17.6766V80.4824H20.0442V93.5877Z" fill="#493024"/>
<path d="M24.3432 85.8935H29.0814V88.057H24.3432V91.4172H29.8945V93.5838H21.9756V80.4785H29.8945V82.6451H24.3432V85.8935Z" fill="#493024"/>
<path d="M35.1221 89.5966H37.365C37.4491 90.3178 37.6703 90.8276 38.0255 91.126C38.3806 91.4244 38.9071 91.5736 39.608 91.5736C40.9475 91.5736 41.6142 90.9985 41.6142 89.8453C41.6142 89.3262 41.4802 88.9314 41.2154 88.6579C40.9507 88.3843 40.527 88.1978 39.9507 88.0983L38.7762 87.8901C36.5208 87.4984 35.3962 86.283 35.3962 84.2438C35.3962 83.0284 35.7794 82.0648 36.5457 81.3561C37.3121 80.6473 38.3276 80.293 39.5924 80.293C40.8572 80.293 41.7949 80.6349 42.5114 81.3188C43.2279 82.0026 43.636 82.9631 43.7325 84.2065H41.4553C41.4179 83.5724 41.2435 83.1124 40.932 82.8202C40.6173 82.528 40.1594 82.3819 39.5581 82.3819C38.9569 82.3819 38.4803 82.5311 38.1656 82.8295C37.851 83.1279 37.6952 83.5351 37.6952 84.0542C37.6952 84.5112 37.8354 84.8717 38.1096 85.136C38.3868 85.4033 38.8198 85.5929 39.4117 85.7048L40.7326 85.9504C42.879 86.3545 43.9506 87.5823 43.9506 89.6339C43.9506 90.9519 43.5487 91.9559 42.7481 92.6522C41.9475 93.3485 40.8634 93.6967 39.5021 93.6967C38.1407 93.6967 37.122 93.3454 36.3744 92.6429C35.6267 91.9404 35.2124 90.9239 35.1283 89.5935L35.1221 89.5966Z" fill="#493024"/>
<path d="M47.7943 85.8935H52.5326V88.057H47.7943V91.4172H53.3457V93.5838H45.4268V80.4785H53.3457V82.6451H47.7943V85.8935Z" fill="#493024"/>
<path d="M64.1864 93.5877H61.8188L57.2269 85.4031V93.5877H54.8594V80.4824H57.2269L61.8188 88.6857V80.4824H64.1864V93.5877Z" fill="#493024"/>
<path d="M65.5947 89.5966H67.8377C67.9218 90.3178 68.143 90.8276 68.4981 91.126C68.8533 91.4244 69.3797 91.5736 70.0807 91.5736C71.4202 91.5736 72.0869 90.9985 72.0869 89.8453C72.0869 89.3262 71.9529 88.9314 71.6881 88.6579C71.4233 88.3843 71.0028 88.1978 70.4233 88.0983L69.2489 87.8901C66.9935 87.4984 65.8689 86.283 65.8689 84.2438C65.8689 83.0284 66.252 82.0648 67.0184 81.3561C67.7847 80.6473 68.8003 80.293 70.0651 80.293C71.3299 80.293 72.2675 80.6349 72.984 81.3188C73.7005 82.0026 74.1086 82.9631 74.2052 84.2065H71.928C71.8906 83.5724 71.7161 83.1124 71.4046 82.8202C71.09 82.528 70.632 82.3819 70.0308 82.3819C69.4296 82.3819 68.9529 82.5311 68.6383 82.8295C68.3237 83.1279 68.1679 83.5351 68.1679 84.0542C68.1679 84.5112 68.3081 84.8717 68.5822 85.136C68.8595 85.4033 69.2925 85.5929 69.8844 85.7048L71.2052 85.9504C73.3516 86.3545 74.4233 87.5823 74.4233 89.6339C74.4233 90.9519 74.0214 91.9559 73.2208 92.6522C72.4202 93.3485 71.3361 93.6967 69.9747 93.6967C68.6134 93.6967 67.5947 93.3454 66.847 92.6429C66.0994 91.9404 65.6851 90.9239 65.601 89.5935L65.5947 89.5966Z" fill="#493024"/>
<path d="M78.2709 85.8935H83.0091V88.057H78.2709V91.4172H83.8222V93.5838H75.9033V80.4785H83.8222V82.6451H78.2709V85.8935Z" fill="#493024"/>
<path d="M1.96991 108.306C1.96991 104.825 3.48391 103.084 6.50879 103.084C7.89507 103.084 8.99162 103.491 9.79847 104.309C10.6053 105.126 11.0103 106.457 11.0103 108.306V111.306C11.0103 113.155 10.596 114.486 9.77043 115.303C8.9449 116.121 7.83276 116.528 6.43403 116.528C3.45587 116.528 1.9668 114.787 1.9668 111.306V108.306H1.96991ZM8.6396 111.269V108.44C8.6396 107.327 8.46515 106.519 8.11625 106.018C7.76734 105.518 7.23152 105.269 6.50568 105.269C5.74556 105.269 5.19728 105.512 4.86084 106C4.52439 106.488 4.35617 107.302 4.35617 108.44V111.269C4.35617 112.344 4.52439 113.121 4.86084 113.594C5.19728 114.069 5.74556 114.306 6.50568 114.306C7.26579 114.306 7.76423 114.063 8.11625 113.575C8.46515 113.087 8.6396 112.319 8.6396 111.269Z" fill="#493024"/>
<path d="M15.1185 108.8H19.8755V110.967H15.1185V116.379H12.751V103.273H20.6699V105.44H15.1185V108.8Z" fill="#493024"/>
<path d="M28.7885 111.06V116.379H26.4209V103.273H31.1592C32.3772 103.273 33.346 103.625 34.0719 104.327C34.7946 105.03 35.156 105.984 35.156 107.187C35.156 108.048 34.966 108.775 34.5859 109.372C34.2058 109.966 33.6607 110.404 32.9504 110.684L35.6638 116.382H32.9348L30.5673 111.063H28.7947L28.7885 111.06ZM31.0283 108.99C31.5828 108.99 32.0127 108.834 32.3211 108.524C32.6295 108.213 32.7822 107.768 32.7822 107.184C32.7822 106.652 32.6264 106.226 32.3118 105.913C31.9971 105.595 31.5704 105.437 31.0283 105.437H28.7854V108.987H31.0283V108.99Z" fill="#493024"/>
<path d="M39.5267 103.273V116.379H37.1592V103.273H39.5267Z" fill="#493024"/>
<path d="M46.3649 105.44V116.379H43.9787V105.44H40.7949V103.273H49.5456V105.44H46.3618H46.3649Z" fill="#493024"/>
<path d="M51.3675 114.355C50.9812 113.677 50.7881 112.91 50.7881 112.049V103.273H53.1557V111.971C53.1557 112.717 53.3426 113.298 53.7164 113.709C54.0902 114.119 54.6011 114.327 55.2522 114.327C55.9033 114.327 56.4173 114.122 56.7974 113.709C57.1774 113.298 57.3674 112.717 57.3674 111.971V103.273H59.7537V112.049C59.7537 112.91 59.5574 113.677 59.1649 114.355C58.7724 115.033 58.2366 115.558 57.5544 115.931C56.8721 116.304 56.1058 116.491 55.2491 116.491C54.3924 116.491 53.6416 116.304 52.9625 115.931C52.2803 115.558 51.7476 115.033 51.3613 114.355H51.3675Z" fill="#493024"/>
<path d="M63.6695 113.833L62.9094 116.379H60.4141L64.8439 103.273H66.7785L71.227 116.379H68.713L67.9529 113.833H63.6664H63.6695ZM65.8034 106.73L64.3019 111.763H67.3205L65.8003 106.73H65.8034Z" fill="#493024"/>
<path d="M74.8314 103.273V114.212H80.2924V116.379H72.4639V103.273H74.8314Z" fill="#493024"/>
<path d="M88.4105 103.273V116.379H86.043V103.273H88.4105Z" fill="#493024"/>
<path d="M99.7039 116.379H97.3364L92.7445 108.194V116.379H90.377V103.273H92.7445L97.3364 111.477V103.273H99.7039V116.379Z" fill="#493024"/>
<path d="M108.345 103.273V114.212H113.806V116.379H105.978V103.273H108.345Z" fill="#493024"/>
<path d="M117.616 103.273V116.379H115.248V103.273H117.616Z" fill="#493024"/>
<path d="M121.946 108.8H126.703V110.967H121.946V116.379H119.578V103.273H127.497V105.44H121.946V108.8Z" fill="#493024"/>
<path d="M131.304 108.685H136.042V110.849H131.304V114.209H136.855V116.376H128.937V103.271H136.855V105.437H131.304V108.685Z" fill="#493024"/>
<path d="M2.38342 132.313H4.88494V132.869H2.38342V135.533H1.7666V129.714H5.30861V130.27H2.38342V132.313Z" fill="#493024"/>
<path d="M5.72363 133.83V132.954C5.72363 132.347 5.87316 131.903 6.17223 131.62C6.47129 131.34 6.87004 131.197 7.37159 131.197C7.87314 131.197 8.25631 131.337 8.55226 131.62C8.8482 131.9 8.99462 132.344 8.99462 132.954V133.83C8.99462 134.436 8.8482 134.881 8.55226 135.164C8.25631 135.443 7.86379 135.586 7.37159 135.586C6.87938 135.586 6.47129 135.447 6.17223 135.17C5.87316 134.89 5.72363 134.446 5.72363 133.833V133.83ZM8.4183 133.796V132.988C8.4183 132.521 8.32484 132.195 8.13482 132.005C7.94479 131.816 7.69245 131.723 7.36847 131.723C7.04449 131.723 6.77346 131.816 6.58343 132.005C6.39029 132.195 6.29683 132.521 6.29683 132.988V133.796C6.29683 134.268 6.39341 134.598 6.58343 134.788C6.77346 134.977 7.03826 135.07 7.36847 135.07C7.69868 135.07 7.94479 134.977 8.13482 134.788C8.32484 134.598 8.4183 134.268 8.4183 133.796Z" fill="#493024"/>
<path d="M10.6928 131.259V131.831C10.8111 131.617 10.9669 131.458 11.1632 131.356C11.3563 131.253 11.5744 131.2 11.8174 131.2C11.9233 131.2 12.0292 131.21 12.1289 131.225V131.797C11.9949 131.753 11.8485 131.729 11.6896 131.729C11.3968 131.729 11.16 131.831 10.9762 132.033C10.7924 132.235 10.7021 132.5 10.7021 132.826V135.533H10.1289V131.259H10.6959H10.6928Z" fill="#493024"/>
<path d="M15.7142 134.446C15.7142 134.834 15.898 135.027 16.2625 135.027H16.599V135.534H16.1691C15.842 135.534 15.5865 135.44 15.4027 135.251C15.2189 135.061 15.1286 134.803 15.1286 134.47V131.713H14.4619V131.259H15.1286V130.28L15.7111 130.01V131.259H16.6737V131.713H15.7111V134.446H15.7142Z" fill="#493024"/>
<path d="M18.2595 129.714V131.781C18.5181 131.399 18.9013 131.209 19.4091 131.209C19.8545 131.209 20.2034 131.343 20.4527 131.607C20.7019 131.871 20.8296 132.244 20.8296 132.729V135.536H20.2564V132.813C20.2564 132.459 20.1692 132.188 19.9947 132.005C19.8203 131.818 19.5773 131.725 19.2689 131.725C18.9605 131.725 18.7206 131.818 18.5368 132.008C18.353 132.198 18.2627 132.465 18.2627 132.813V135.536H17.6895V129.717H18.2627L18.2595 129.714Z" fill="#493024"/>
<path d="M22.5361 133.762C22.5361 134.246 22.6358 134.585 22.832 134.778C23.0283 134.971 23.3024 135.07 23.6513 135.07C23.9566 135.07 24.1934 134.996 24.3647 134.85C24.5361 134.703 24.6233 134.501 24.6233 134.243V134.219H25.1809V134.262C25.1809 134.66 25.0407 134.983 24.7635 135.223C24.4831 135.465 24.0999 135.586 23.6108 135.586C23.1218 135.586 22.7105 135.437 22.4115 135.139C22.1124 134.84 21.9629 134.377 21.9629 133.746V133.003C21.9629 132.391 22.1124 131.937 22.4115 131.642C22.7105 131.346 23.1031 131.2 23.5953 131.2C24.0875 131.2 24.4769 131.346 24.7728 131.642C25.0688 131.937 25.2152 132.391 25.2152 133.003V133.51H22.5361V133.762ZM22.5361 132.988V133.081H24.642V132.929C24.642 132.484 24.5485 132.173 24.3616 131.993C24.1747 131.813 23.9192 131.722 23.5922 131.722C23.2651 131.722 23.0158 131.816 22.8227 132.005C22.6295 132.195 22.5361 132.521 22.5361 132.988Z" fill="#493024"/>
<path d="M32.4738 135.533H31.857L28.8414 130.845V135.533H28.2246V129.714H28.8414L31.857 134.386V129.714H32.4738V135.533Z" fill="#493024"/>
<path d="M34.2246 133.762C34.2246 134.246 34.3243 134.585 34.5205 134.778C34.7168 134.971 34.9909 135.07 35.3398 135.07C35.6451 135.07 35.8819 134.996 36.0532 134.85C36.2245 134.703 36.3118 134.501 36.3118 134.243V134.219H36.8694V134.262C36.8694 134.66 36.7292 134.983 36.452 135.223C36.1716 135.465 35.7884 135.586 35.2993 135.586C34.8102 135.586 34.399 135.437 34.1 135.139C33.8009 134.84 33.6514 134.377 33.6514 133.746V133.003C33.6514 132.391 33.8009 131.937 34.1 131.642C34.399 131.346 34.7947 131.2 35.2837 131.2C35.7728 131.2 36.1654 131.346 36.4613 131.642C36.7572 131.937 36.9037 132.391 36.9037 133.003V133.51H34.2246V133.762ZM34.2246 132.988V133.081H36.3305V132.929C36.3305 132.484 36.237 132.173 36.0501 131.993C35.8632 131.813 35.6077 131.722 35.2806 131.722C34.9535 131.722 34.7043 131.816 34.5112 132.005C34.318 132.195 34.2246 132.521 34.2246 132.988Z" fill="#493024"/>
<path d="M38.1467 131.259L39.1093 134.681L40.1747 131.259H40.6575L41.7229 134.681L42.6949 131.259H43.3211L42.0189 135.533H41.4955L40.4146 132.083L39.3398 135.533H38.8227L37.5205 131.259H38.1467Z" fill="#493024"/>
<path d="M45.8283 133.376V131.865C45.8283 131.094 46.0121 130.532 46.3828 130.174C46.7504 129.817 47.2457 129.64 47.8657 129.64C48.2644 129.64 48.6164 129.714 48.9124 129.86C49.2114 130.006 49.442 130.215 49.604 130.479C49.766 130.746 49.8501 131.054 49.8501 131.402V131.436H49.2333V131.402C49.2333 131.032 49.1118 130.737 48.8657 130.519C48.6195 130.302 48.2893 130.196 47.8719 130.196C47.4046 130.196 47.0495 130.33 46.8065 130.597C46.5635 130.864 46.442 131.296 46.442 131.89V133.407C46.442 134.492 46.9218 135.036 47.8781 135.036C48.3236 135.036 48.6632 134.915 48.8968 134.672C49.1304 134.43 49.2488 134.044 49.2488 133.516V133.068H47.8532V132.537H49.8656V133.404C49.8656 134.169 49.685 134.725 49.3236 135.073C48.9622 135.421 48.4762 135.595 47.8625 135.595C47.2489 135.595 46.7473 135.418 46.3797 135.061C46.0121 134.703 45.8252 134.141 45.8252 133.37L45.8283 133.376Z" fill="#493024"/>
<path d="M51.5019 133.762C51.5019 134.246 51.6016 134.585 51.7979 134.778C51.9941 134.971 52.2683 135.07 52.6172 135.07C52.9225 135.07 53.1592 134.996 53.3305 134.85C53.5019 134.703 53.5891 134.501 53.5891 134.243V134.219H54.1467V134.262C54.1467 134.66 54.0065 134.983 53.7293 135.223C53.4489 135.465 53.0658 135.586 52.5767 135.586C52.0876 135.586 51.6764 135.437 51.3773 135.139C51.0782 134.84 50.9287 134.377 50.9287 133.746V133.003C50.9287 132.391 51.0782 131.937 51.3773 131.642C51.6764 131.346 52.0689 131.2 52.5611 131.2C53.0533 131.2 53.4427 131.346 53.7386 131.642C54.0346 131.937 54.181 132.391 54.181 133.003V133.51H51.5019V133.762ZM51.5019 132.988V133.081H53.6078V132.929C53.6078 132.484 53.5143 132.173 53.3274 131.993C53.1405 131.813 52.8851 131.722 52.558 131.722C52.2309 131.722 51.9817 131.816 51.7885 132.005C51.5954 132.195 51.5019 132.521 51.5019 132.988Z" fill="#493024"/>
<path d="M55.8781 131.259V131.781C56.0027 131.591 56.1647 131.445 56.3641 131.352C56.5635 131.256 56.7878 131.209 57.037 131.209C57.4918 131.209 57.8438 131.343 58.0899 131.61C58.336 131.877 58.4575 132.25 58.4575 132.726V135.533H57.8843V132.81C57.8843 132.455 57.7971 132.185 57.6226 132.002C57.4482 131.815 57.2052 131.722 56.8968 131.722C56.5884 131.722 56.3485 131.815 56.1647 132.005C55.9809 132.194 55.8906 132.462 55.8906 132.81V135.533H55.3174V131.259H55.8844H55.8781Z" fill="#493024"/>
<path d="M60.165 133.762C60.165 134.246 60.2647 134.585 60.4609 134.778C60.6572 134.971 60.9313 135.07 61.2802 135.07C61.5855 135.07 61.8223 134.996 61.9936 134.85C62.165 134.703 62.2522 134.501 62.2522 134.243V134.219H62.8098V134.262C62.8098 134.66 62.6696 134.983 62.3924 135.223C62.112 135.465 61.7288 135.586 61.2397 135.586C60.7507 135.586 60.3395 135.437 60.0404 135.139C59.7413 134.84 59.5918 134.377 59.5918 133.746V133.003C59.5918 132.391 59.7413 131.937 60.0404 131.642C60.3395 131.346 60.7351 131.2 61.2242 131.2C61.7133 131.2 62.1058 131.346 62.4017 131.642C62.6977 131.937 62.8441 132.391 62.8441 133.003V133.51H60.165V133.762ZM60.165 132.988V133.081H62.2709V132.929C62.2709 132.484 62.1774 132.173 61.9905 131.993C61.8036 131.813 61.5482 131.722 61.2211 131.722C60.894 131.722 60.6447 131.816 60.4516 132.005C60.2585 132.195 60.165 132.521 60.165 132.988Z" fill="#493024"/>
<path d="M64.5424 131.259V131.831C64.6607 131.617 64.8165 131.458 65.0128 131.356C65.2059 131.253 65.424 131.2 65.667 131.2C65.7729 131.2 65.8788 131.21 65.9785 131.225V131.797C65.8445 131.753 65.6981 131.729 65.5392 131.729C65.2464 131.729 65.0097 131.831 64.8259 132.033C64.6421 132.235 64.5517 132.5 64.5517 132.826V135.533H63.9785V131.259H64.5455H64.5424Z" fill="#493024"/>
<path d="M69.757 132.624V135.534H69.1901V135.077C69.0592 135.251 68.9004 135.378 68.7072 135.459C68.5141 135.54 68.2804 135.58 68.0063 135.58C67.5546 135.58 67.2057 135.475 66.9596 135.26C66.7104 135.046 66.5889 134.735 66.5889 134.324C66.5889 133.942 66.7135 133.644 66.9658 133.426C67.215 133.208 67.5702 133.103 68.0281 133.103H69.187V132.615C69.187 132.307 69.1029 132.071 68.9346 131.915C68.7664 131.757 68.5265 131.679 68.215 131.679C67.9222 131.679 67.6917 131.744 67.5266 131.878C67.3614 132.012 67.2773 132.192 67.2773 132.422V132.447H66.7197V132.403C66.7197 132.037 66.8537 131.744 67.1185 131.527C67.3833 131.306 67.7477 131.197 68.2088 131.197C68.7103 131.197 69.0935 131.318 69.3614 131.561C69.6293 131.803 69.7633 132.158 69.7633 132.624H69.757ZM69.1838 134.085V133.529H68.1091C67.4767 133.529 67.1621 133.793 67.1621 134.321C67.1621 134.85 67.4736 135.123 68.0998 135.123C68.4767 135.123 68.7508 135.036 68.9222 134.865C69.0935 134.694 69.1807 134.433 69.1807 134.085H69.1838Z" fill="#493024"/>
<path d="M71.931 134.446C71.931 134.834 72.1148 135.027 72.4793 135.027H72.8158V135.534H72.3859C72.0588 135.534 71.8033 135.44 71.6195 135.251C71.4357 135.061 71.3454 134.803 71.3454 134.47V131.713H70.6787V131.259H71.3454V130.28L71.9279 130.01V131.259H72.8905V131.713H71.9279V134.446H71.931Z" fill="#493024"/>
<path d="M74.5606 129.798V130.556H73.9531V129.798H74.5606ZM74.5419 131.259V135.533H73.9687V131.259H74.5419Z" fill="#493024"/>
<path d="M75.7412 133.83V132.954C75.7412 132.347 75.8907 131.903 76.1898 131.62C76.4889 131.34 76.8876 131.197 77.3892 131.197C77.8907 131.197 78.2739 131.337 78.5698 131.62C78.8658 131.9 79.0122 132.344 79.0122 132.954V133.83C79.0122 134.436 78.8658 134.881 78.5698 135.164C78.2739 135.443 77.8814 135.586 77.3892 135.586C76.897 135.586 76.4889 135.447 76.1898 135.17C75.8907 134.89 75.7412 134.446 75.7412 133.833V133.83ZM78.439 133.796V132.988C78.439 132.521 78.3455 132.195 78.1555 132.005C77.9655 131.816 77.7131 131.723 77.3892 131.723C77.0652 131.723 76.7942 131.816 76.6041 132.005C76.411 132.195 76.3175 132.521 76.3175 132.988V133.796C76.3175 134.268 76.4141 134.598 76.6041 134.788C76.7942 134.977 77.0589 135.07 77.3892 135.07C77.7194 135.07 77.9655 134.977 78.1555 134.788C78.3455 134.598 78.439 134.268 78.439 133.796Z" fill="#493024"/>
<path d="M80.7131 131.259V131.781C80.8377 131.591 80.9997 131.445 81.1991 131.352C81.3984 131.256 81.6227 131.209 81.8719 131.209C82.3268 131.209 82.6788 131.343 82.9249 131.61C83.171 131.877 83.2925 132.25 83.2925 132.726V135.533H82.7193V132.81C82.7193 132.455 82.6321 132.185 82.4576 132.002C82.2832 131.815 82.0402 131.722 81.7318 131.722C81.4234 131.722 81.1835 131.815 80.9997 132.005C80.8159 132.194 80.7255 132.462 80.7255 132.81V135.533H80.1523V131.259H80.7193H80.7131Z" fill="#493024"/>
</g>
<defs>
<clipPath id="clip0_3_2025">
<rect width="136.914" height="135.156" fill="white" transform="translate(0.742188 0.445312)"/>
</clipPath>
</defs>
</svg>
