<svg width="437" height="432" viewBox="0 0 437 432" fill="none" xmlns="http://www.w3.org/2000/svg">
<path d="M43.6305 66.1863C35.8351 63.4043 29.4914 59.3903 24.5994 54.1443C18.6236 59.5294 10.9177 63.5136 1.47172 66.0869L1.11377 65.4113C9.82394 61.9736 16.8239 57.2442 22.1236 51.2332C18.5441 46.6827 15.9191 41.2877 14.2287 35.068C12.7472 38.2275 11.5143 40.7015 10.5299 42.47C10.9674 43.0959 10.8978 43.6722 10.331 44.1889L6.53277 39.7079C9.1677 37.7605 11.5441 35.6939 13.6719 33.5081L14.2287 30.3287L16.7046 31.1136L14.7856 33.826C16.6747 39.4198 19.8168 44.3776 24.2017 48.6897C28.4176 43.1257 31.2414 36.6775 32.6533 29.3451H1.77002L1.31263 27.8845H22.0639V17.9092L28.8948 18.4854C28.7954 19.2902 28.169 19.7771 27.0255 19.946V27.8746H39.1263L42.2683 23.5427C42.9445 24.1388 43.6305 24.7051 44.3464 25.2615C45.8677 26.583 47.0609 27.656 47.9359 28.4906C47.7967 29.047 47.3294 29.3252 46.514 29.3252H38.5695C36.4417 38.2275 32.713 45.5798 27.3835 51.3822C33.0809 55.9327 40.1902 59.2512 48.6916 61.3377L48.5424 61.9636C46.176 62.2021 44.5453 63.613 43.6305 66.1863Z" fill="#E73820"/>
<path d="M7.89484 121.408V98.8343C5.52837 101.129 3.08237 103.077 0.556815 104.676L0 104.16C2.63493 101.626 5.14059 98.566 7.53688 94.9792C9.93317 91.4322 11.7329 88.0641 12.9559 84.8648H1.86931L1.41192 83.4043H8.04398V73.1309L14.3181 73.7568C14.2187 74.5616 13.5922 75.0286 12.4488 75.1677V83.4043H13.0553L15.8394 80.6919L20.095 85.2324C19.757 85.5404 19.0013 85.7491 17.8181 85.8584C16.5652 88.2926 14.8451 90.8957 12.6576 93.6777C14.8848 94.4427 16.5553 95.4363 17.6689 96.6484C18.6135 97.6519 19.0709 98.6852 19.0311 99.7285C19.0311 100.702 18.6632 101.368 17.9175 101.735C17.1718 102.103 16.3863 101.954 15.5411 101.288C15.1732 99.4801 14.1391 97.4433 12.4587 95.1879V119.908C12.4587 120.146 12.1207 120.444 11.4445 120.792C10.5994 121.209 9.69454 121.418 8.71017 121.418H7.90478L7.89484 121.408ZM19.6377 78.3371L19.23 76.8269H40.3392L43.0239 73.3296C43.6006 73.8164 44.1673 74.3033 44.744 74.7901C46.0565 75.8731 47.0906 76.7673 47.8264 77.5025C47.727 78.0589 47.2895 78.3371 46.5139 78.3371H19.6377ZM19.5879 121.299V95.9033L24.5993 97.9897H41.3534L43.6304 95.2773L48.1346 98.874C47.8264 99.331 47.1701 99.639 46.1559 99.808V119.729C46.1559 119.898 45.798 120.126 45.092 120.404C44.2866 120.752 43.3719 120.921 42.3577 120.921H41.5523V117.692H24.0922V120.037C24.0922 120.275 23.7541 120.544 23.078 120.822C22.3024 121.14 21.4075 121.289 20.3933 121.289H19.5879V121.299ZM22.0638 95.3866V80.9402L27.0254 82.977H39.0168L41.1943 80.4236L45.5991 83.8116C45.2611 84.2587 44.6545 84.5767 43.7795 84.7456V93.8665C43.7795 94.0056 43.4216 94.1943 42.7156 94.4427C41.9102 94.7607 40.9955 94.9097 39.9813 94.9097H39.1759V93.0319H26.4686V94.2341C26.4686 94.4427 26.1504 94.6812 25.5041 94.9594C24.7584 95.2376 23.8834 95.3767 22.8692 95.3767H22.0638V95.3866ZM24.0922 106.703H30.6248V99.4602H24.0922V106.703ZM24.0922 116.192H30.6248V108.213H24.0922V116.192ZM26.4686 91.5316H39.1759V84.4376H26.4686V91.5316ZM34.9202 106.703H41.5523V99.4602H34.9202V106.703ZM34.9202 116.192H41.5523V108.213H34.9202V116.192Z" fill="#E73820"/>
<path d="M69.4826 51.9382C71.4712 52.0276 73.3704 51.3818 75.19 50.0206C77.2581 48.4906 78.9584 46.3147 80.2808 43.5029C81.6828 40.1745 82.349 36.389 82.2695 32.1266H162.461C160.8 36.9851 158.782 41.8039 156.376 46.573L157.867 47.5964C163.405 44.0195 168.745 39.4988 173.875 34.0442C176.272 33.7859 177.853 33.3189 178.588 32.6333L168.039 22.2804L162.331 28.2915H125.214V15.4944C127.948 15.1566 129.39 14.0041 129.559 12.0368L114.913 10.626V28.2716H82.0209C81.6033 25.5493 81.0266 23.0753 80.2808 20.8596L78.1729 20.9888C78.4215 25.3406 77.5564 29.4738 75.5678 33.3884C73.6587 37.0547 71.3022 39.6976 68.4883 41.3171C65.0082 43.6221 63.8946 46.265 65.1375 49.2457C65.8832 50.9546 67.3249 51.8488 69.4826 51.9283V51.9382Z" fill="#E73820"/>
<path d="M170.654 114.344C169.242 113.152 167.8 111.91 166.309 110.638L159.856 119.848H152.16V53.4785C154.974 53.1407 156.873 52.326 157.867 51.0443L145.826 41.834L140.864 48.3517H100.893L89.8462 43.7516V119.838H63.7754L64.7697 123.544H175.118C176.938 123.544 178.012 122.859 178.35 121.498C176.53 119.62 173.965 117.235 170.654 114.334V114.344ZM142.227 71.76H103.23V75.466H142.227V95.2875H103.23V98.8644H142.227V119.838H99.5209V52.0677H142.227V71.76Z" fill="#E73820"/>
<path d="M199.837 48.2321C201.825 48.3215 203.605 47.7253 205.176 46.4437C209.064 42.9463 210.883 37.6606 210.635 30.5864H291.443C289.951 35.276 288.509 39.1509 287.097 42.221C285.357 40.7704 283.578 39.3695 281.758 37.9984L275.673 45.5395H209.263L210.376 49.1163H235.453C232.221 57.3828 228.662 64.3774 224.774 70.0904C214.841 70.5176 207.642 70.7263 203.177 70.7263L208.139 83.0067C209.541 82.7484 210.665 81.8541 211.49 80.3241C237.968 76.9956 260.519 73.548 279.143 69.9712C283.369 74.5714 286.342 78.6251 288.082 82.1224C290.816 83.4836 292.924 83.2948 294.416 81.5461C295.907 79.7975 295.987 77.3036 294.664 74.0646C293.173 70.3984 290.15 66.8613 285.606 63.4534C280.058 59.3599 272.779 55.9918 263.761 53.3489L262.518 54.6306C266.903 57.7901 271.576 61.9631 276.548 67.1594C257.596 68.4411 241.995 69.375 229.745 69.9712C236.199 64.3476 242.403 57.4026 248.369 49.1263H289.702C291.602 49.1263 292.725 48.4904 293.053 47.2087C292.228 46.4437 290.816 45.2116 288.837 43.5027C293.72 40.6015 298.353 36.8955 302.738 32.3748C305.224 32.2059 306.755 31.7787 307.332 31.0931L296.901 20.8595L291.313 26.7414H255.071V15.6234C257.805 15.1962 259.286 14.0039 259.535 12.0466L244.889 10.6357V26.7513H210.376C209.879 23.8501 209.302 21.3364 208.636 19.2102H206.777C206.946 22.8764 206.2 26.5426 204.54 30.2089C202.969 33.7062 201.06 36.2199 198.832 37.75C197.341 38.7734 196.307 39.9656 195.73 41.3268C195.064 42.8569 195.024 44.3572 195.611 45.7978C196.357 47.3279 197.758 48.1426 199.827 48.2321H199.837Z" fill="#E73820"/>
<path d="M294.545 112.426L288.092 120.862H255.071V83.0071C257.636 82.5799 259.038 81.4274 259.287 79.5495L244.889 78.1387V95.9135H205.296L206.29 99.4903H244.899V120.842H193.632L194.746 124.419H303.484C305.303 124.419 306.377 123.783 306.705 122.501C304.796 120.713 302.191 118.497 298.89 115.854C297.478 114.751 296.037 113.599 294.545 112.397V112.426Z" fill="#E73820"/>
<path d="M292.934 99.5095C294.754 99.5095 295.827 98.8736 296.165 97.5919C294.346 95.883 291.86 93.7568 288.718 91.1934C287.396 90.17 286.023 89.1069 284.621 87.9941L278.417 95.9228H258.75V99.4996H292.934V99.5095Z" fill="#E73820"/>
<path d="M390.327 43.1156C388.587 41.4961 386.31 39.4493 383.496 36.9754C382.253 35.952 381.01 34.9286 379.767 33.9053L373.811 41.4464H346.498L347.492 45.1524H387.085C388.905 45.1524 389.979 44.4668 390.317 43.1056L390.327 43.1156Z" fill="#E73820"/>
<path d="M342.043 93.499C341.715 97.7614 340.263 101.815 337.698 105.65C335.302 109.058 332.567 111.492 329.505 112.943C327.844 113.797 326.651 114.91 325.905 116.271C325.16 117.722 325.04 119.252 325.537 120.872C326.283 122.581 327.725 123.514 329.882 123.683C331.871 123.852 333.81 123.346 335.719 122.153C339.11 120.017 341.635 116.738 343.296 112.307C345.364 106.763 345.613 100.543 344.042 93.6381L342.053 93.509L342.043 93.499Z" fill="#E73820"/>
<path d="M384.371 78.6646V60.1248C386.688 59.5287 388.259 58.714 389.084 57.6906L378.654 49.6328L373.941 54.8788H361.363V58.5848H375.054V73.0312H361.363V76.608H375.054V81.3373H376.546C377.948 81.3373 379.608 80.9995 381.508 80.314C383.327 79.6284 384.282 79.0819 384.361 78.6547L384.371 78.6646Z" fill="#E73820"/>
<path d="M408.334 16.7762C410.154 18.9918 411.396 21.0386 412.053 22.9164C414.041 24.1981 415.901 24.4067 417.641 23.5523C419.291 22.6978 420.077 21.3366 419.997 19.4588C419.918 17.4121 418.675 15.6237 416.269 14.0837C413.455 12.1263 409.318 10.9341 403.86 10.5068L402.865 11.6594C404.764 13.0205 406.594 14.7295 408.324 16.7762H408.334Z" fill="#E73820"/>
<path d="M339.935 71.3823C341.834 64.646 342.789 56.1213 342.789 45.8081L342.938 25.5792L333.482 21.6348V45.9273C333.482 56.161 332.905 64.4672 331.742 70.8657C330.082 80.3244 327.029 88.3424 322.555 94.9099L324.165 96.3207C331.782 90.101 337.032 81.7849 339.935 71.3823Z" fill="#E73820"/>
<path d="M369.854 89.0276C373.334 91.2433 376.635 93.9755 379.787 97.2145C383.267 100.881 385.574 104.289 386.737 107.448C389.303 108.73 391.371 108.621 392.942 107.13C394.513 105.64 394.97 103.613 394.304 101.06C393.479 98.0789 391.321 95.4361 387.851 93.131C383.625 90.3987 377.997 88.6103 370.968 87.7559L369.854 89.0376V89.0276Z" fill="#E73820"/>
<path d="M433.152 82.2515L435.011 66.136L433.52 65.8777C431.61 71.074 429.92 75.1674 428.429 78.1581C427.932 79.1019 427.415 79.5888 426.878 79.6285C426.341 79.6683 425.615 79.3503 424.7 78.6648C419.738 75.3364 415.393 71.1237 411.665 66.0068C416.964 59.4394 421.389 51.8585 424.949 43.2444C427.434 43.5822 429.045 42.9065 429.791 41.1976L416.258 35.7032C414.101 43.6318 410.998 51.173 406.952 58.3365C402.736 50.239 399.872 40.7803 398.391 29.9505H433.887C435.628 29.9505 436.662 29.265 436.99 27.9038C435.498 26.1949 433.39 24.0686 430.656 21.5152C429.493 20.4123 428.299 19.2996 427.057 18.1868L421.598 26.2445H398.013C397.516 22.4094 397.267 18.614 397.267 14.8683C399.504 14.441 400.787 13.2885 401.115 11.4206L387.214 10.0098C387.294 15.0372 387.632 20.4521 388.209 26.2545H346.587V29.9605H388.706C390.774 44.536 394.91 57.025 401.115 67.4276C396.064 74.5018 390.028 80.642 382.989 85.8383L384.351 87.2491C392.295 83.5829 399.206 78.8933 405.082 73.1803C409.139 78.8039 414.14 83.7121 420.106 87.885C423.248 90.1007 426.231 91.5513 429.045 92.2368C432.356 93.0913 434.673 92.4951 435.995 90.4484C436.662 89.5939 436.781 88.5706 436.363 87.3783C435.946 86.186 434.872 84.4771 433.132 82.2615L433.152 82.2515Z" fill="#E73820"/>
<path d="M429.433 103.087C424.72 98.914 418.217 95.5458 409.945 92.9824L408.583 94.135C412.719 97.7118 416.487 101.855 419.878 106.535C423.766 111.82 426.251 116.679 427.325 121.11C430.139 122.988 432.496 123.117 434.405 121.498C436.304 119.878 436.97 117.404 436.393 114.086C435.648 110.251 433.331 106.584 429.443 103.087H429.433Z" fill="#E73820"/>
<path d="M408.205 115.755L407.956 101.944H406.345C404.357 109.356 402.955 113.798 402.12 115.248C401.543 116.272 400.549 116.828 399.137 116.907C397.894 116.997 393.429 117.037 385.733 117.037H370.709C368.224 117.037 366.652 116.907 365.996 116.649C365.42 116.391 365.131 115.795 365.131 114.861V95.8042C367.368 95.4664 368.611 94.443 368.86 92.7341L355.457 91.3232V116.768C355.457 120.514 356.322 123.008 358.062 124.25C359.802 125.482 363.52 126.108 369.238 126.108H385.127C395.965 126.108 403.293 125.641 407.101 124.697C410.492 123.842 412.192 122.223 412.192 119.838C412.192 118.05 410.87 116.689 408.225 115.745L408.205 115.755Z" fill="#E73820"/>
<path d="M358.429 81.2279L358.449 54.6303L349.361 50.666V84.0397H350.724C352.374 84.0397 354.114 83.6522 355.934 82.8872C357.584 82.2016 358.42 81.6552 358.42 81.2279H358.429Z" fill="#E73820"/>
<path d="M19.1504 211.41V246.374H11.5339V211.41H1.37207V204.485H29.3023V211.41H19.1404H19.1504Z" fill="#493024"/>
<path d="M61.6077 246.384H54.051V228.658H40.8366V246.384H33.2798V204.495H40.8366V221.733H54.051V204.495H61.6077V246.384Z" fill="#493024"/>
<path d="M75.3292 221.793H90.4527V228.708H75.3292V239.449H93.0479V246.374H67.7725V204.485H93.0479V211.41H75.3292V221.793Z" fill="#493024"/>
<path d="M109.732 233.627H116.891C117.16 235.932 117.866 237.561 118.999 238.515C120.133 239.469 121.813 239.946 124.051 239.946C128.326 239.946 130.454 238.108 130.454 234.422C130.454 232.763 130.026 231.501 129.181 230.626C128.336 229.752 126.984 229.156 125.144 228.838L121.396 228.172C114.197 226.92 110.607 223.036 110.607 216.518C110.607 212.633 111.83 209.553 114.276 207.288C116.722 205.022 119.964 203.89 124.001 203.89C128.038 203.89 131.031 204.983 133.317 207.168C135.604 209.354 136.907 212.424 137.215 216.399H129.947C129.827 214.372 129.271 212.901 128.276 211.967C127.272 211.033 125.81 210.566 123.891 210.566C121.972 210.566 120.451 211.043 119.447 211.997C118.443 212.951 117.945 214.252 117.945 215.912C117.945 217.372 118.393 218.525 119.268 219.369C120.153 220.224 121.535 220.83 123.424 221.188L127.64 221.972C134.491 223.264 137.911 227.189 137.911 233.746C137.911 237.959 136.629 241.168 134.073 243.394C131.518 245.619 128.058 246.732 123.712 246.732C119.367 246.732 116.116 245.609 113.73 243.364C111.343 241.118 110.021 237.869 109.752 233.617L109.732 233.627Z" fill="#493024"/>
<path d="M150.181 221.793H165.304V228.708H150.181V239.449H167.899V246.374H142.624V204.485H167.899V211.41H150.181V221.793Z" fill="#493024"/>
<path d="M202.501 246.384H194.944L180.288 220.223V246.384H172.731V204.495H180.288L194.944 230.715V204.495H202.501V246.384Z" fill="#493024"/>
<path d="M206.996 233.627H214.155C214.424 235.932 215.13 237.561 216.263 238.515C217.397 239.469 219.077 239.946 221.314 239.946C225.59 239.946 227.718 238.108 227.718 234.422C227.718 232.763 227.29 231.501 226.445 230.626C225.6 229.752 224.257 229.156 222.408 228.838L218.659 228.172C211.461 226.92 207.871 223.036 207.871 216.518C207.871 212.633 209.094 209.553 211.54 207.288C213.986 205.022 217.228 203.89 221.264 203.89C225.301 203.89 228.294 204.983 230.581 207.168C232.868 209.354 234.171 212.424 234.479 216.399H227.21C227.091 214.372 226.534 212.901 225.54 211.967C224.536 211.033 223.074 210.566 221.155 210.566C219.236 210.566 217.715 211.043 216.711 211.997C215.706 212.951 215.209 214.252 215.209 215.912C215.209 217.372 215.657 218.525 216.532 219.369C217.416 220.224 218.799 220.83 220.688 221.188L224.904 221.972C231.754 223.264 235.175 227.189 235.175 233.746C235.175 237.959 233.892 241.168 231.337 243.394C228.781 245.619 225.321 246.732 220.976 246.732C216.631 246.732 213.38 245.609 210.993 243.364C208.607 241.118 207.284 237.869 207.016 233.617L206.996 233.627Z" fill="#493024"/>
<path d="M247.454 221.793H262.578V228.708H247.454V239.449H265.173V246.374H239.897V204.485H265.173V211.41H247.454V221.793Z" fill="#493024"/>
<path d="M3.91766 293.428C3.91766 282.3 8.75001 276.736 18.4048 276.736C22.8295 276.736 26.3294 278.038 28.9047 280.651C31.48 283.264 32.7726 287.516 32.7726 293.428V303.016C32.7726 308.928 31.4501 313.18 28.8152 315.793C26.1803 318.406 22.6306 319.708 18.1661 319.708C8.66052 319.708 3.90771 314.144 3.90771 303.016V293.428H3.91766ZM25.2059 302.897V293.855C25.2059 290.298 24.6491 287.715 23.5354 286.116C22.4218 284.516 20.7116 283.721 18.3948 283.721C15.9687 283.721 14.2187 284.496 13.1449 286.056C12.071 287.616 11.5341 290.219 11.5341 293.855V302.897C11.5341 306.334 12.071 308.818 13.1449 310.329C14.2187 311.849 15.9687 312.604 18.3948 312.604C20.821 312.604 22.4119 311.829 23.5354 310.269C24.6491 308.709 25.2059 306.255 25.2059 302.897Z" fill="#493024"/>
<path d="M45.8873 295.008H61.0705V301.933H45.8873V319.231H38.3306V277.343H63.606V284.268H45.8873V295.008Z" fill="#493024"/>
<path d="M89.5182 302.231V319.231H81.9614V277.343H97.0849C100.973 277.343 104.065 278.466 106.382 280.711C108.689 282.956 109.842 286.007 109.842 289.852C109.842 292.604 109.235 294.929 108.022 296.836C106.809 298.734 105.069 300.135 102.802 301.029L111.463 319.241H102.752L95.1957 302.241H89.5381L89.5182 302.231ZM96.6673 295.614C98.4372 295.614 99.8093 295.118 100.794 294.124C101.778 293.13 102.265 291.71 102.265 289.842C102.265 288.143 101.768 286.782 100.764 285.778C99.7596 284.765 98.3974 284.258 96.6673 284.258H89.5082V295.604H96.6673V295.614Z" fill="#493024"/>
<path d="M123.792 277.343V319.231H116.235V277.343H123.792Z" fill="#493024"/>
<path d="M145.617 284.268V319.231H138V284.268H127.838V277.343H155.769V284.268H145.607H145.617Z" fill="#493024"/>
<path d="M161.585 312.763C160.352 310.597 159.736 308.143 159.736 305.391V277.343H167.293V305.143C167.293 307.527 167.889 309.385 169.082 310.697C170.276 312.008 171.906 312.674 173.984 312.674C176.062 312.674 177.703 312.018 178.916 310.697C180.129 309.385 180.736 307.527 180.736 305.143V277.343H188.352V305.391C188.352 308.143 187.726 310.597 186.473 312.763C185.22 314.929 183.51 316.608 181.332 317.801C179.155 318.993 176.709 319.589 173.974 319.589C171.24 319.589 168.844 318.993 166.676 317.801C164.499 316.608 162.798 314.929 161.565 312.763H161.585Z" fill="#493024"/>
<path d="M200.851 311.094L198.425 319.231H190.46L204.6 277.343H210.774L224.973 319.231H216.949L214.523 311.094H200.841H200.851ZM207.662 288.391L202.869 304.477H212.504L207.652 288.391H207.662Z" fill="#493024"/>
<path d="M236.477 277.343V312.306H253.907V319.231H228.92V277.343H236.477Z" fill="#493024"/>
<path d="M279.819 277.343V319.231H272.262V277.343H279.819Z" fill="#493024"/>
<path d="M315.863 319.231H308.307L293.65 293.071V319.231H286.094V277.343H293.65L308.307 303.563V277.343H315.863V319.231Z" fill="#493024"/>
<path d="M343.445 277.343V312.306H360.876V319.231H335.889V277.343H343.445Z" fill="#493024"/>
<path d="M373.036 277.343V319.231H365.479V277.343H373.036Z" fill="#493024"/>
<path d="M386.857 295.008H402.04V301.933H386.857V319.231H379.3V277.343H404.575V284.268H386.857V295.008Z" fill="#493024"/>
<path d="M416.726 294.641H431.85V301.556H416.726V312.296H434.445V319.222H409.169V277.333H434.445V284.258H416.726V294.641Z" fill="#493024"/>
<path d="M5.24022 370.162H13.2245V371.94H5.24022V380.455H3.27148V361.855H14.5768V363.634H5.24022V370.162Z" fill="#493024"/>
<path d="M15.8989 375.01V372.208C15.8989 370.271 16.3762 368.85 17.3307 367.946C18.2853 367.052 19.558 366.595 21.1588 366.595C22.7597 366.595 23.9827 367.042 24.9273 367.946C25.8719 368.84 26.3392 370.261 26.3392 372.208V375.01C26.3392 376.948 25.8719 378.368 24.9273 379.273C23.9827 380.167 22.7298 380.624 21.1588 380.624C19.5878 380.624 18.2853 380.177 17.3307 379.292C16.3762 378.398 15.8989 376.977 15.8989 375.02V375.01ZM24.4997 374.901V372.318C24.4997 370.827 24.2014 369.784 23.5949 369.178C22.9884 368.572 22.183 368.274 21.1489 368.274C20.1148 368.274 19.2498 368.572 18.6432 369.178C18.0268 369.784 17.7285 370.827 17.7285 372.318V374.901C17.7285 376.411 18.0367 377.464 18.6432 378.07C19.2498 378.676 20.0949 378.974 21.1489 378.974C22.2029 378.974 22.9884 378.676 23.5949 378.07C24.2014 377.464 24.4997 376.411 24.4997 374.901Z" fill="#493024"/>
<path d="M31.7582 366.793V368.621C32.136 367.936 32.6332 367.429 33.2596 367.101C33.8761 366.773 34.5721 366.604 35.3477 366.604C35.6857 366.604 36.0238 366.634 36.342 366.684V368.512C35.9144 368.373 35.4471 368.294 34.94 368.294C34.0053 368.294 33.2497 368.621 32.663 369.267C32.0764 369.913 31.788 370.758 31.788 371.801V380.455H29.9585V366.793H31.7681H31.7582Z" fill="#493024"/>
<path d="M47.7867 376.977C47.7867 378.219 48.3733 378.835 49.5367 378.835H50.6105V380.454H49.2384C48.1944 380.454 47.379 380.156 46.7924 379.55C46.2057 378.944 45.9174 378.12 45.9174 377.056V368.244H43.7896V366.793H45.9174V363.663L47.7767 362.799V366.793H50.8492V368.244H47.7767V376.977H47.7867Z" fill="#493024"/>
<path d="M55.9099 361.855V368.463C56.7352 367.241 57.9582 366.635 59.5789 366.635C61.0008 366.635 62.1144 367.062 62.9099 367.906C63.7053 368.751 64.113 369.943 64.113 371.493V380.465H62.2835V371.761C62.2835 370.629 62.0051 369.764 61.4482 369.178C60.8914 368.582 60.1159 368.284 59.1315 368.284C58.1471 368.284 57.3815 368.582 56.7949 369.188C56.2082 369.794 55.9199 370.648 55.9199 371.761V380.465H54.0903V361.865H55.9199L55.9099 361.855Z" fill="#493024"/>
<path d="M69.562 374.791C69.562 376.341 69.8801 377.424 70.5066 378.04C71.133 378.656 72.008 378.974 73.1216 378.974C74.096 378.974 74.8517 378.736 75.3986 378.269C75.9454 377.802 76.2238 377.156 76.2238 376.331V376.252H78.0037V376.391C78.0037 377.663 77.5562 378.696 76.6713 379.461C75.7764 380.236 74.5534 380.624 72.9923 380.624C71.4313 380.624 70.1188 380.147 69.1642 379.193C68.2097 378.239 67.7324 376.759 67.7324 374.742V372.367C67.7324 370.41 68.2097 368.959 69.1642 368.015C70.1188 367.071 71.3716 366.604 72.9426 366.604C74.5136 366.604 75.7565 367.071 76.7011 368.015C77.6457 368.959 78.113 370.41 78.113 372.367V373.987H69.562V374.791ZM69.562 372.317V372.616H76.2835V372.129C76.2835 370.708 75.9852 369.714 75.3886 369.138C74.792 368.562 73.9767 368.274 72.9327 368.274C71.8886 368.274 71.0932 368.572 70.4767 369.178C69.8602 369.784 69.562 370.827 69.562 372.317Z" fill="#493024"/>
<path d="M101.281 380.455H99.3119L89.687 365.472V380.455H87.7183V361.855H89.687L99.3119 376.789V361.855H101.281V380.455Z" fill="#493024"/>
<path d="M106.869 374.791C106.869 376.341 107.187 377.424 107.813 378.04C108.44 378.656 109.315 378.974 110.428 378.974C111.403 378.974 112.158 378.736 112.705 378.269C113.252 377.802 113.53 377.156 113.53 376.331V376.252H115.31V376.391C115.31 377.663 114.863 378.696 113.978 379.461C113.083 380.236 111.86 380.624 110.299 380.624C108.738 380.624 107.425 380.147 106.471 379.193C105.516 378.239 105.039 376.759 105.039 374.742V372.367C105.039 370.41 105.516 368.959 106.471 368.015C107.425 367.071 108.688 366.604 110.249 366.604C111.81 366.604 113.063 367.071 114.008 368.015C114.952 368.959 115.42 370.41 115.42 372.367V373.987H106.869V374.791ZM106.869 372.317V372.616H113.59V372.129C113.59 370.708 113.292 369.714 112.695 369.138C112.099 368.562 111.283 368.274 110.239 368.274C109.195 368.274 108.4 368.572 107.783 369.178C107.167 369.784 106.869 370.827 106.869 372.317Z" fill="#493024"/>
<path d="M119.387 366.793L122.46 377.732L125.86 366.793H127.401L130.802 377.732L133.904 366.793H135.903L131.747 380.454H130.076L126.626 369.426L123.195 380.454H121.545L117.389 366.793H119.387Z" fill="#493024"/>
<path d="M143.906 373.56V368.731C143.906 366.267 144.493 364.469 145.676 363.326C146.85 362.184 148.431 361.617 150.409 361.617C151.682 361.617 152.806 361.856 153.75 362.323C154.705 362.79 155.44 363.455 155.957 364.3C156.475 365.154 156.743 366.138 156.743 367.251V367.36H154.774V367.251C154.774 366.068 154.386 365.124 153.601 364.429C152.815 363.733 151.761 363.396 150.429 363.396C148.938 363.396 147.804 363.823 147.029 364.677C146.253 365.532 145.865 366.913 145.865 368.811V373.659C145.865 377.127 147.396 378.865 150.449 378.865C151.871 378.865 152.955 378.478 153.7 377.703C154.446 376.928 154.824 375.696 154.824 374.007V372.576H150.369V370.877H156.793V373.649C156.793 376.093 156.216 377.872 155.063 378.985C153.909 380.097 152.358 380.654 150.399 380.654C148.44 380.654 146.84 380.087 145.666 378.945C144.493 377.802 143.896 376.004 143.896 373.54L143.906 373.56Z" fill="#493024"/>
<path d="M162.013 374.791C162.013 376.341 162.331 377.424 162.958 378.04C163.584 378.656 164.459 378.974 165.573 378.974C166.547 378.974 167.303 378.736 167.85 378.269C168.397 377.802 168.675 377.156 168.675 376.331V376.252H170.455V376.391C170.455 377.663 170.007 378.696 169.122 379.461C168.228 380.236 167.005 380.624 165.443 380.624C163.882 380.624 162.57 380.147 161.615 379.193C160.661 378.239 160.184 376.759 160.184 374.742V372.367C160.184 370.41 160.661 368.959 161.615 368.015C162.57 367.071 163.823 366.604 165.394 366.604C166.965 366.604 168.208 367.071 169.152 368.015C170.097 368.959 170.564 370.41 170.564 372.367V373.987H162.013V374.791ZM162.013 372.317V372.616H168.735V372.129C168.735 370.708 168.436 369.714 167.84 369.138C167.243 368.562 166.428 368.274 165.384 368.274C164.34 368.274 163.544 368.572 162.928 369.178C162.311 369.784 162.013 370.827 162.013 372.317Z" fill="#493024"/>
<path d="M175.983 366.794V368.463C176.381 367.857 176.898 367.39 177.534 367.092C178.171 366.784 178.887 366.635 179.682 366.635C181.134 366.635 182.257 367.062 183.043 367.916C183.828 368.771 184.216 369.963 184.216 371.483V380.455H182.386V371.752C182.386 370.619 182.108 369.755 181.551 369.168C180.994 368.572 180.219 368.274 179.235 368.274C178.25 368.274 177.485 368.572 176.898 369.178C176.311 369.784 176.023 370.639 176.023 371.752V380.455H174.193V366.794H176.003H175.983Z" fill="#493024"/>
<path d="M189.665 374.791C189.665 376.341 189.983 377.424 190.61 378.04C191.236 378.656 192.111 378.974 193.225 378.974C194.199 378.974 194.955 378.736 195.502 378.269C196.048 377.802 196.327 377.156 196.327 376.331V376.252H198.107V376.391C198.107 377.663 197.659 378.696 196.774 379.461C195.879 380.236 194.656 380.624 193.095 380.624C191.534 380.624 190.222 380.147 189.267 379.193C188.313 378.239 187.835 376.759 187.835 374.742V372.367C187.835 370.41 188.313 368.959 189.267 368.015C190.222 367.071 191.485 366.604 193.046 366.604C194.607 366.604 195.86 367.071 196.804 368.015C197.749 368.959 198.216 370.41 198.216 372.367V373.987H189.665V374.791ZM189.665 372.317V372.616H196.387V372.129C196.387 370.708 196.088 369.714 195.492 369.138C194.895 368.562 194.08 368.274 193.036 368.274C191.992 368.274 191.196 368.572 190.58 369.178C189.963 369.784 189.665 370.827 189.665 372.317Z" fill="#493024"/>
<path d="M203.635 366.793V368.621C204.013 367.936 204.51 367.429 205.136 367.101C205.753 366.773 206.449 366.604 207.224 366.604C207.562 366.604 207.9 366.634 208.218 366.684V368.512C207.791 368.373 207.324 368.294 206.816 368.294C205.882 368.294 205.126 368.621 204.539 369.267C203.953 369.913 203.664 370.758 203.664 371.801V380.455H201.835V366.793H203.645H203.635Z" fill="#493024"/>
<path d="M220.28 371.155V380.455H218.47V378.994C218.053 379.551 217.546 379.958 216.929 380.216C216.313 380.475 215.567 380.604 214.692 380.604C213.25 380.604 212.137 380.266 211.351 379.581C210.556 378.895 210.168 377.901 210.168 376.59C210.168 375.368 210.566 374.414 211.371 373.719C212.167 373.023 213.3 372.685 214.762 372.685H218.461V371.125C218.461 370.142 218.192 369.387 217.655 368.89C217.118 368.383 216.353 368.135 215.358 368.135C214.424 368.135 213.688 368.343 213.161 368.771C212.634 369.198 212.365 369.774 212.365 370.509V370.589H210.586V370.45C210.586 369.277 211.013 368.343 211.858 367.648C212.703 366.942 213.867 366.595 215.338 366.595C216.939 366.595 218.162 366.982 219.017 367.757C219.872 368.532 220.3 369.665 220.3 371.155H220.28ZM218.451 375.825V374.046H215.02C213.002 374.046 211.998 374.891 211.998 376.58C211.998 378.269 212.992 379.143 214.99 379.143C216.194 379.143 217.068 378.865 217.615 378.319C218.162 377.772 218.441 376.938 218.441 375.825H218.451Z" fill="#493024"/>
<path d="M227.22 376.977C227.22 378.219 227.807 378.835 228.97 378.835H230.044V380.454H228.672C227.628 380.454 226.813 380.156 226.226 379.55C225.639 378.944 225.351 378.12 225.351 377.056V368.244H223.223V366.793H225.351V363.663L227.21 362.799V366.793H230.283V368.244H227.21V376.977H227.22Z" fill="#493024"/>
<path d="M235.612 362.123V364.547H233.673V362.123H235.612ZM235.553 366.793V380.454H233.723V366.793H235.553Z" fill="#493024"/>
<path d="M239.381 375.01V372.208C239.381 370.271 239.858 368.85 240.813 367.946C241.767 367.052 243.04 366.595 244.641 366.595C246.242 366.595 247.465 367.042 248.409 367.946C249.354 368.84 249.821 370.261 249.821 372.208V375.01C249.821 376.948 249.354 378.368 248.409 379.273C247.465 380.167 246.212 380.624 244.641 380.624C243.07 380.624 241.767 380.177 240.813 379.292C239.858 378.398 239.381 376.977 239.381 375.02V375.01ZM247.992 374.901V372.318C247.992 370.827 247.693 369.784 247.087 369.178C246.48 368.572 245.675 368.274 244.641 368.274C243.607 368.274 242.742 368.572 242.135 369.178C241.519 369.784 241.22 370.827 241.22 372.318V374.901C241.22 376.411 241.529 377.464 242.135 378.07C242.742 378.676 243.587 378.974 244.641 378.974C245.695 378.974 246.48 378.676 247.087 378.07C247.693 377.464 247.992 376.411 247.992 374.901Z" fill="#493024"/>
<path d="M255.25 366.794V368.463C255.647 367.857 256.164 367.39 256.801 367.092C257.437 366.784 258.153 366.635 258.949 366.635C260.4 366.635 261.524 367.062 262.309 367.916C263.095 368.771 263.483 369.963 263.483 371.483V380.455H261.653V371.752C261.653 370.619 261.375 369.755 260.818 369.168C260.261 368.572 259.485 368.274 258.501 368.274C257.517 368.274 256.751 368.572 256.164 369.178C255.578 369.784 255.289 370.639 255.289 371.752V380.455H253.46V366.794H255.27H255.25Z" fill="#493024"/>
</svg>
