<?xml version="1.0" encoding="UTF-8"?>
<svg id="_圖層_1" data-name="圖層_1" xmlns="http://www.w3.org/2000/svg" version="1.1" viewBox="0 0 437 117">
  <!-- Generator: Adobe Illustrator 29.3.1, SVG Export Plug-In . SVG Version: 2.1.0 Build 151)  -->
  <defs>
    <style>
      .st0 {
        fill: #e73820;
      }
    </style>
  </defs>
  <path class="st0" d="M43.6,56.2c-7.8-2.8-14.1-6.8-19-12-6,5.4-13.7,9.4-23.1,11.9l-.4-.7c8.7-3.4,15.7-8.2,21-14.2-3.6-4.6-6.2-9.9-7.9-16.2-1.5,3.2-2.7,5.6-3.7,7.4.4.6.4,1.2-.2,1.7l-3.8-4.5c2.6-1.9,5-4,7.1-6.2l.6-3.2,2.5.8-1.9,2.7c1.9,5.6,5,10.6,9.4,14.9,4.2-5.6,7-12,8.5-19.3H1.8l-.5-1.5h20.8V7.9l6.8.6c0,.8-.7,1.3-1.9,1.5v7.9h12.1l3.1-4.3c1.8,1.5,4.4,3.7,5.7,4.9-.2,1.7-8.3.5-9.4.8-2.1,8.9-5.9,16.3-11.2,22.1,5.7,4.6,12.8,7.9,21.3,10v.6c-2.5.2-4.1,1.6-5.1,4.2ZM7.9,111.4v-22.6c-2.4,2.3-4.8,4.2-7.3,5.8l-.6-.5c5-4.8,10.6-12.9,13-19.3H1.9l-.5-1.5h6.6v-10.3l6.3.6c0,.8-.7,1.3-1.9,1.4v8.2h.6l2.8-2.7,4.3,4.5c-.3.3-1.1.5-2.3.6-1.3,2.4-3,5-5.2,7.8,6.1.9,9.3,10.2,2.9,7.6-.4-1.8-1.4-3.8-3.1-6.1v24.7c-.6,1.3-3.2,1.6-4.6,1.5h0ZM19.6,68.3l-.4-1.5h21.1l2.7-3.5c1.5,1.3,3.7,3.1,4.8,4.2,1,1.8-27.8.4-28.2.8ZM19.6,111.3v-25.4l5,2.1h16.8l2.3-2.7,4.5,3.6c-.3.5-1,.8-2,.9v19.9c-.8,1-3.2,1.3-4.6,1.2v-3.2h-17.5c.5,3.5-1.4,3.5-4.5,3.6h0ZM22.1,85.4v-14.4l5,2h12l2.2-2.6,4.4,3.4c-.3.4-.9.8-1.8.9v9.1c-.8.9-3.2,1.1-4.6,1v-1.9h-12.7c.6,2.4-2.6,2.3-4.4,2.3h0ZM24.1,96.7h6.5v-7.2h-6.5v7.2ZM24.1,106.2h6.5v-8h-6.5v8ZM26.5,81.5h12.7v-7.1h-12.7v7.1ZM34.9,96.7h6.6v-7.2h-6.6v7.2ZM34.9,106.2h6.6v-8h-6.6v8ZM69.5,41.9c9.3-.4,13.1-11.3,12.8-19.8h80.2c-1.7,4.9-3.7,9.7-6.1,14.4l1.5,1c5.5-3.6,10.9-8.1,16-13.6,2.4-.3,4-.7,4.7-1.4l-10.5-10.4-5.7,6h-37.1V5.5c2.7-.3,4.2-1.5,4.3-3.5l-14.6-1.4v17.6h-32.9c-.4-2.7-1-5.2-1.7-7.4h-2.1c.6,7.6-3.3,16.8-9.7,20.5-5.4,3-5.1,10.3,1,10.6h0ZM170.7,104.3c-1.4-1.2-2.9-2.4-4.3-3.7l-6.5,9.2h-7.7V43.5c2.8-.3,4.7-1.2,5.7-2.4l-12-9.2-5,6.5h-40l-11-4.6v76.1h-26.1l1,3.7h110.3c1.8,0,2.9-.7,3.2-2-1.8-1.9-4.4-4.3-7.7-7.2h0ZM142.2,61.8h-39v3.7h39v19.8h-39v3.6h39v21h-42.7V42.1h42.7v19.7ZM199.8,38.2c8.3-.4,10.9-9,10.8-17.6h80.8c-1.5,4.7-2.9,8.6-4.3,11.6-1.7-1.5-3.5-2.9-5.3-4.2l-6.1,7.5h-66.4l1.1,3.6h25.1c-3.2,8.3-6.8,15.3-10.7,21-9.9.4-17.1.6-21.6.6l5,12.3c1.4-.3,2.5-1.2,3.4-2.7,26.5-3.3,49-6.8,67.7-10.4,4.2,4.6,7.2,8.7,8.9,12.2,5.9,3,9.2-2.4,6.6-8.1-5.4-11.2-17.6-16.5-30.9-20.7l-1.2,1.3c4.4,3.2,9.1,7.3,14,12.5-19,1.3-34.6,2.2-46.8,2.8,6.5-5.6,12.7-12.6,18.6-20.8,1.7-.9,45.9,2.1,44.7-1.9-.8-.8-2.2-2-4.2-3.7,4.9-2.9,9.5-6.6,13.9-11.1,2.5-.2,4-.6,4.6-1.3l-10.4-10.2-5.6,5.9h-36.2V5.6c2.7-.4,4.2-1.6,4.5-3.6l-14.6-1.4v16.1h-34.5c-.5-2.9-1.1-5.4-1.7-7.5h-1.9c.4,6.2-3,15.1-7.9,18.5-4.5,2.5-5.4,10.3,1,10.5ZM294.5,102.4l-6.5,8.4h-33v-37.9c2.6-.4,4-1.6,4.2-3.5l-14.4-1.4v17.8h-39.6l1,3.6h38.6v21.4h-51.3l1.1,3.6h108.7c1.8,0,2.9-.6,3.2-1.9-2.8-2.7-8.3-7-12.2-10.1h0ZM292.9,89.5c1.8,0,2.9-.6,3.2-1.9-2.6-2.5-7.8-6.7-11.5-9.6l-6.2,7.9h-19.7v3.6h34.2ZM390.3,33.1c-2.5-2.4-7.2-6.5-10.6-9.2l-6,7.5h-27.3l1,3.7c1.8-.9,43.9,2.3,42.8-2h0ZM342,83.5c-.7,12.2-8.6,16-16.1,22.8-3.7,16.7,25.6,4.5,18.1-22.6h-2c0-.1,0-.1,0-.1ZM384.4,68.7v-18.5c2.3-.6,3.9-1.4,4.7-2.4l-10.4-8.1-4.7,5.2h-12.6v3.7h13.7v14.4h-13.7v3.6h13.7v4.7c2.2.2,8-.8,9.3-2.7h0ZM408.3,6.8c1.8,2.2,3.1,4.3,3.7,6.1,12.2,5,11-12.2-8.2-12.4l-1,1.2c1.9,1.4,3.7,3.1,5.5,5.1h0ZM339.9,61.4c3.5-10.6,2.8-32.9,3-45.8l-9.5-3.9c-.3,24,2.6,54.1-10.9,73.3l1.6,1.4c7.6-6.2,12.9-14.5,15.8-24.9ZM369.9,79c6.3,3.9,14.6,11.8,16.9,18.4,4.9,2.7,9-1.4,7.6-6.4-3.2-8.9-13-11.8-23.3-13.3l-1.1,1.3h0ZM433.2,72.2l1.9-16.1-1.5-.3c-2.7,5.8-3.2,11-6.6,13.8-6.1-2.5-11-8.2-15.2-13.6,5.3-6.6,9.7-14.1,13.3-22.8,2.5.3,4.1-.3,4.8-2l-13.5-5.5c-2.2,7.9-5.3,15.5-9.3,22.6-4.2-8.1-7.1-17.6-8.6-28.4,2-.9,39.4,2.3,38.6-2-2.2-2.5-6.7-6.8-9.9-9.7l-5.5,8.1h-23.6c-.5-3.8-.7-7.6-.7-11.4,2.2-.4,3.5-1.6,3.8-3.4l-13.9-1.4c0,5,.4,10.4,1,16.2h-41.6v3.7h42.1c2.1,14.6,6.2,27.1,12.4,37.5-5.1,7.1-11.1,13.2-18.1,18.4l1.4,1.4c7.9-3.7,14.9-8.4,20.7-14.1,5.7,7.7,14.6,16.4,24,19.1,8.1,2,9.5-4.8,4.1-10h0ZM429.4,93.1c-4.7-4.2-11.2-7.5-19.5-10.1l-1.4,1.2c7.6,6.5,16.6,17.9,18.7,27,13.1,6.5,10.3-13,2.1-18h0ZM408.2,105.7l-.2-13.8h-1.6c-3.3,9.3-1.8,13.5-7.2,15-2.5.2-22.9.1-28.4.1-3.5-.3-5.3.7-5.6-2.2,0,0,0-19.1,0-19.1,2.2-.3,3.5-1.4,3.7-3.1l-13.4-1.4v25.4c.3,9.3,4.1,8.9,13.8,9.3,9.5,0,32.6.3,37.9-1.4,6-1.2,7.2-7,1.1-9h0ZM358.4,71.2v-26.6s-9.1-4-9.1-4v33.4c2.4.2,7.8-.8,9.1-2.8h0Z"/>
</svg>