<svg width="454" height="315" viewBox="0 0 454 315" fill="none" xmlns="http://www.w3.org/2000/svg">
<g clip-path="url(#clip0_3_15)">
<path d="M13.3477 269.844V315" stroke="#4C4948" stroke-width="0.76" stroke-miterlimit="10"/>
<path d="M441.3 269.844V315" stroke="#4C4948" stroke-width="0.76" stroke-miterlimit="10"/>
<path d="M275.669 34.529C275.321 44.9972 273.717 57.6246 268.547 69.9237C274.066 74.7797 279.116 79.3072 282.453 83.0885L271.426 96.1439C268.667 92.8004 264.762 88.8102 260.399 84.4916C255.807 91.069 249.711 97.2285 241.902 102.622C239.491 99.2783 233.863 93.9846 230.178 91.5068C238.336 86.223 244.193 79.964 248.566 73.3766C242.818 68.2022 237.071 63.0179 232.13 58.4903C233.734 52.4502 235.467 44.9972 236.842 36.9072L231.781 37.2256L230.287 22.4389L239.023 22.1205C240.059 14.5679 240.746 7.01526 241.095 0L257.64 0.756255C257.062 7.33368 256.265 14.3489 255.339 21.3642L260.28 21.1453V14.9957H275.789V20.389L281.646 20.0706L281.526 34.1011L275.669 34.529ZM255.668 59.0277C258.537 50.8283 259.692 42.6289 260.031 35.5042L253.018 35.9321C251.873 42.1911 250.717 48.2311 249.452 53.8433L255.658 59.0177L255.668 59.0277ZM339.778 58.3809H318.063V85.8946C318.063 93.5567 316.449 97.4375 311.051 99.8157C305.652 102.084 298.639 102.403 289.565 102.403C288.758 97.9748 286.348 91.5068 284.047 87.4071C289.216 87.626 296.229 87.626 298.062 87.626C300.014 87.626 300.701 87.1982 300.701 85.5762V58.3809H277.602V43.4946H300.701V34.539C305.184 30.6582 309.666 25.1554 313.222 19.7522H281.855V5.61221H323.91L327.815 4.85595L338.961 12.4085C333.443 20.2895 326.211 29.4541 318.053 36.7978V43.4846H339.768V58.3709L339.778 58.3809Z" fill="#493024"/>
<path d="M441.818 5.83105V101H423.778V93.875H376.095V101H358.863V5.83105H441.828H441.818ZM376.095 21.6925V41.4347H423.778V21.6925H376.095ZM423.778 78.0136V56.9678H376.095V78.0136H423.778Z" fill="#493024"/>
<path d="M103.185 173.212C98.3641 187.342 91.6903 200.079 83.4227 210.975C85.9528 217.125 88.8216 220.687 91.5807 220.687C93.8817 220.687 95.2563 215.294 95.8341 202.129C99.6292 205.801 105.486 209.463 109.969 211.085C107.439 232.13 102.04 236.658 90.2061 236.658C82.6258 236.658 76.4202 232.021 71.4796 224.249C66.3098 229.105 60.5624 233.424 54.4762 237.086C52.0657 233.742 45.9696 227.155 42.4135 224.14C50.6911 219.931 58.0422 214.428 64.2479 207.851C60.3432 195.76 57.9327 180.874 56.5481 165.331H26.6752V175.58H54.8249C54.8249 175.58 54.7053 179.362 54.7053 181.083C54.3567 203.094 53.7889 213.025 51.0297 216.478C48.4997 219.602 45.86 220.687 42.4135 221.334C39.3157 221.871 34.4846 221.981 29.1953 221.981C28.9662 217.553 27.243 211.622 24.942 207.741C23.3383 219.175 20.111 230.727 14.2539 239.036C11.3852 235.912 3.79492 230.08 0.00976562 228.25C8.51641 215.513 9.08419 196.417 9.08419 182.287V149.917H55.5022C55.2731 144.952 55.1536 139.987 55.1536 135.031H72.7346C72.6151 139.997 72.6151 144.962 72.8542 149.917H85.8333C82.2673 147.33 77.9044 144.524 74.3383 142.474L84.4487 133.091C90.3057 136.006 98.3542 140.753 102.378 144.315L96.6309 149.927H108.813V165.361H73.7706C74.5774 174.207 75.8424 182.735 77.4462 190.178C81.0122 183.81 84.0005 176.904 86.2915 169.461L103.185 173.232V173.212ZM26.5457 189.83C26.3166 195.333 25.8584 201.263 25.0516 207.313C28.4981 207.632 31.4864 207.741 33.3192 207.741C34.8133 207.741 35.8493 207.423 36.7657 206.338C37.6821 205.044 38.1403 200.616 38.3694 189.83H26.5358H26.5457Z" fill="#493024"/>
<path d="M214.648 184.327C210.514 187.352 205.912 190.367 201.43 193.283C205.564 204.935 213.612 214.976 226.133 219.831C222.458 222.747 217.517 228.678 215.216 232.668C201.888 226.409 193.611 215.403 188.212 201.164L185.911 202.458C188.67 214.976 186.03 226.847 180.283 231.703C176.03 236.021 172.005 237.315 165.571 237.424C162.931 237.534 159.714 237.424 156.496 237.315C156.267 233.215 155.002 227.384 152.243 223.175C143.398 227.165 133.975 230.727 125.587 233.215C123.745 229.334 120.189 223.722 116.971 220.269C135.13 216.597 156.954 207.861 168.449 199.124C168.22 198.368 167.872 197.612 167.533 196.855C155.928 203.443 139.493 210.13 126.623 213.801C124.781 210.348 121.454 205.065 118.465 201.821C132.6 199.233 151.097 192.974 161.098 187.034C160.52 186.387 159.953 185.74 159.255 185.093C149.484 189.621 138.576 193.183 128.117 195.671C126.514 192.646 122.37 186.387 119.73 183.481C131.793 181.432 144.204 178.198 154.086 173.66H138.228V160.495H201.888V173.66H177.992C176.149 175.282 174.087 176.795 171.786 178.188C175.581 181.641 178.57 185.422 180.861 189.522C188.102 184.666 195.573 178.944 200.852 173.979L214.638 184.337L214.648 184.327ZM136.166 168.784H119.85V142.883H160.869C160.182 141.261 159.494 139.649 158.797 138.246L176.607 133.499C178.211 136.305 180.054 139.758 181.199 142.883H221.183V168.784H204.06V157.023H136.156V168.784H136.166ZM167.991 220.259C169.137 219.075 170.063 216.697 170.402 213.572C165.232 216.806 159.375 219.831 153.279 222.638C156.845 222.966 159.823 223.065 162.353 223.065C164.883 223.065 166.607 222.638 167.981 220.259H167.991Z" fill="#493024"/>
<path d="M275.669 169.65C275.321 180.118 273.717 192.746 268.547 205.045C274.066 209.901 279.116 214.428 282.453 218.21L271.426 231.265C268.667 227.922 264.762 223.931 260.399 219.613C255.807 226.19 249.711 232.35 241.902 237.743C239.491 234.399 233.863 229.106 230.178 226.628C238.336 221.344 244.193 215.085 248.566 208.498C242.818 203.323 237.071 198.139 232.13 193.611C233.734 187.571 235.467 180.118 236.842 172.028L231.781 172.347L230.287 157.56L239.023 157.242C240.059 149.689 240.746 142.136 241.095 135.121L257.64 135.877C257.062 142.455 256.265 149.47 255.339 156.485L260.28 156.266V150.117H275.789V155.51L281.646 155.192L281.526 169.222L275.669 169.65ZM255.668 194.149C258.537 185.949 259.692 177.75 260.031 170.625L253.018 171.053C251.873 177.312 250.717 183.352 249.452 188.964L255.658 194.149H255.668ZM339.778 193.502H318.063V221.016C318.063 228.678 316.449 232.559 311.051 234.937C305.652 237.206 298.639 237.524 289.565 237.524C288.758 233.096 286.348 226.628 284.047 222.528C289.216 222.747 296.229 222.747 298.062 222.747C300.014 222.747 300.701 222.319 300.701 220.697V193.502H277.602V178.616H300.701V169.66C305.184 165.779 309.666 160.277 313.222 154.873H281.855V140.733H323.91L327.815 139.977L338.961 147.53C333.443 155.411 326.211 164.575 318.053 171.919V178.606H339.768V193.492L339.778 193.502Z" fill="#493024"/>
<path d="M386.326 211.731C374.143 216.587 360.706 221.662 349.898 225.652L344.5 209.572C348.066 208.597 352.309 207.303 357.02 205.9V175.152H346.561V160.365H357.02V136.514H373.227V160.365H382.301V175.152H373.227V200.726L382.999 197.492L386.326 211.731ZM438.491 223.931C439.069 223.931 439.527 223.931 439.866 223.712C440.324 223.493 440.672 222.955 440.902 221.662C441.131 220.478 441.25 217.672 441.36 214.109C444.119 216.488 449.976 219.184 454 220.478C453.652 224.468 453.084 228.568 452.048 230.508C450.902 232.558 449.289 233.961 446.878 234.827C445.035 235.583 441.818 235.911 439.756 235.911H432.514C429.297 235.911 425.273 234.936 423.091 232.886C420.79 230.836 419.645 228.14 419.645 221.125V209.472H412.523C410.57 223.174 405.052 232.458 382.879 237.742C381.504 234.18 377.59 228.458 374.492 225.762C391.495 222.637 395.4 217.562 396.894 209.472H388.856V175.59H445.733V209.472H435.044V221.234C435.044 222.309 435.045 223.065 435.274 223.393C435.503 223.821 435.961 223.931 436.539 223.931H438.491ZM451.012 173.212H384.712V160.375H397.581C397.123 158.544 396.436 156.704 395.739 155.092L406.198 153.151H388.039V140.633H409.754C409.295 139.23 408.837 137.937 408.379 136.752L424.117 133.946C425.034 135.996 425.96 138.374 426.757 140.633H448.133V153.151H430.323L441.818 154.883L438.72 160.385H451.012V173.222V173.212ZM404.016 188.108H429.755V185.083H404.016V188.108ZM404.016 199.969H429.755V196.944H404.016V199.969ZM409.305 153.141C410.451 155.301 411.487 158.107 412.174 160.375H424.127C425.044 157.997 426.08 155.301 426.657 153.141H409.305Z" fill="#493024"/>
<path d="M68.0984 61.7037C74.9954 54.8139 74.9954 43.6432 68.0984 36.7533C61.2014 29.8634 50.0193 29.8634 43.1223 36.7533C36.2254 43.6432 36.2254 54.8139 43.1223 61.7037C50.0193 68.5936 61.2014 68.5936 68.0984 61.7037Z" fill="#E73820"/>
<path d="M14.1348 5.83105V101H31.3672V93.875H79.0502V101H97.0895V5.83105H14.1348ZM79.0502 78.0136H31.3672V21.6925H79.0502V78.0136Z" fill="#493024"/>
<path d="M185.505 58.5469C190.662 50.2766 188.132 39.3957 179.853 34.2438C171.574 29.092 160.682 31.62 155.525 39.8904C150.368 48.1608 152.898 59.0416 161.177 64.1935C169.456 69.3454 180.348 66.8173 185.505 58.5469Z" fill="#CC3B25"/>
<path d="M129.044 5.83105V101H146.277V93.875H193.96V101H211.999V5.83105H129.034H129.044ZM193.96 78.0136H146.277V21.6925H193.96V78.0136Z" fill="#493024"/>
<path d="M185.505 58.5469C190.662 50.2766 188.132 39.3957 179.853 34.2438C171.574 29.092 160.682 31.62 155.525 39.8904C150.368 48.1608 152.898 59.0416 161.177 64.1935C169.456 69.3454 180.348 66.8173 185.505 58.5469Z" fill="#E73820"/>
<path d="M129.044 5.83105V101H146.277V93.875H193.96V101H211.999V5.83105H129.034H129.044ZM193.96 78.0136H146.277V21.6925H193.96V78.0136Z" fill="#493024"/>
<path d="M288.349 297.726L276.018 313.308" stroke="#4C4948" stroke-width="0.97" stroke-miterlimit="10"/>
<path d="M76.8686 312.682H49.1572L63.4512 295.378C64.8756 293.646 67.0371 290.93 68.4018 288.95C69.5772 287.218 70.5633 285.427 70.5633 283.019C70.5633 279.556 68.2723 276.342 63.7002 276.342C59.1281 276.342 56.6479 279.924 56.3988 283.815H50.3326C50.5219 279.795 52.1854 276.581 53.799 274.79C55.2832 273.118 58.2516 270.77 63.4512 270.77C72.2367 270.77 76.7491 276.76 76.7491 283.188C76.7491 286.591 75.4541 289.367 73.7807 291.835C72.2965 294.064 70.374 296.343 67.9037 299.249L61.469 306.851H76.8686V312.662V312.682Z" fill="#4C4948"/>
<path d="M106.054 294.571C107.598 296.611 107.907 298.9 107.907 300.751C107.907 304.95 106.303 307.796 104.63 309.527C102.707 311.567 99.6194 313.358 94.9178 313.358C90.2162 313.358 87.1283 311.567 85.2059 309.527C83.5324 307.796 81.9287 304.95 81.9287 300.751C81.9287 298.9 82.2375 296.611 83.7814 294.571C84.7078 293.278 86.192 292.034 88.1145 291.238C86.3813 290.492 85.2059 289.258 84.4688 288.143C83.4129 286.472 82.9846 284.372 82.9846 282.521C82.9846 279.247 84.16 276.153 86.451 273.934C87.7459 272.7 90.4055 270.779 94.9277 270.779C99.45 270.779 102.1 272.7 103.405 273.934C105.696 276.163 106.871 279.247 106.871 282.521C106.871 284.372 106.443 286.472 105.387 288.143C104.64 289.258 103.464 290.492 101.741 291.238C103.663 292.044 105.148 293.278 106.074 294.571H106.054ZM90.0369 295.875C88.8018 297.109 88.1244 299.089 88.1244 300.88C88.1244 302.482 88.742 304.343 89.9772 305.696C90.8438 306.681 92.3877 307.796 94.9277 307.796C97.4678 307.796 99.0117 306.681 99.8783 305.696C101.113 304.333 101.731 302.482 101.731 300.88C101.731 299.089 101.054 297.109 99.8086 295.875C98.5735 294.641 96.7207 293.955 94.9178 293.955C93.1149 293.955 91.2721 294.631 90.027 295.875H90.0369ZM90.4055 278.013C89.3496 279.068 88.6723 280.73 88.6723 282.591C88.6723 284.452 89.4193 285.994 90.3457 286.919C91.4613 288.094 93.3141 288.77 94.9277 288.77C96.5414 288.77 98.3942 288.094 99.5098 286.919C100.436 285.994 101.183 284.511 101.183 282.591C101.183 280.67 100.506 279.068 99.45 278.013C98.3942 277.028 96.8502 276.342 94.9377 276.342C93.0252 276.342 91.4713 277.018 90.4254 278.013H90.4055Z" fill="#4C4948"/>
<path d="M113.007 309.129C113.794 309.129 114.431 309.766 114.431 310.552C114.431 311.338 113.794 311.975 113.007 311.975C112.22 311.975 111.583 311.338 111.583 310.552C111.583 309.766 112.22 309.129 113.007 309.129Z" fill="#4C4948"/>
<path d="M118.426 298.512C118.515 296.97 119.173 295.656 120.049 294.8C121.364 293.547 122.958 293.348 124.213 293.348C125.667 293.348 127.092 293.636 128.327 294.92C129.323 295.945 129.701 297.169 129.701 298.542C129.701 299.457 129.532 300.253 129.044 301.05C128.526 301.875 127.879 302.363 127.331 302.642C128.297 303.01 128.905 303.667 129.213 304.154C129.751 304.95 130.01 306.005 130.01 307.09C130.01 308.97 129.293 310.423 128.387 311.339C127.012 312.712 125.219 312.99 123.735 312.99C122.251 312.99 120.707 312.702 119.482 311.398C118.625 310.483 117.997 308.97 117.858 307.518H120.657C120.796 308.373 121.195 309.11 121.683 309.567C122.081 309.936 122.799 310.423 123.994 310.423C124.88 310.423 125.707 310.085 126.215 309.627C126.753 309.11 127.211 308.234 127.211 306.95C127.211 306.323 127.102 305.408 126.355 304.701C125.528 303.905 124.502 303.846 123.904 303.846H123.336V301.398H123.735C124.96 301.398 125.737 301 126.165 300.572C126.624 300.114 126.912 299.408 126.912 298.552C126.912 297.557 126.484 296.96 126.165 296.641C125.508 296.014 124.711 295.925 124.143 295.925C123.456 295.925 122.659 296.034 122.032 296.691C121.374 297.378 121.235 298.403 121.235 298.512H118.436H118.426Z" fill="#4C4948"/>
<path d="M154.415 273.088C153.229 276.381 151.695 279.665 150.032 282.78V313.587H146.177V289.088C144.992 290.83 143.726 292.382 142.451 293.795C142.053 292.74 140.878 290.462 140.22 289.496C144.334 285.247 148.239 278.57 150.6 271.903L154.415 273.088ZM172.773 292.74C173.779 301.975 175.442 308.373 177.375 308.462C178.072 308.462 178.6 306.223 178.909 302.243C179.526 303.019 181.01 304.024 181.668 304.343C180.751 311.338 179.088 313.259 177.375 313.209C172.822 313.119 170.362 304.94 169.007 292.73H159.634V304.064L167.165 302.144C167.075 303.238 167.125 304.84 167.254 305.706C157.702 308.492 156.217 309.04 155.291 309.686C155.072 308.731 154.375 307.079 153.847 306.263C154.634 305.855 155.819 305.029 155.819 303.248V276.371H155.859L155.819 276.322C163.13 275.177 171.368 273.396 176.189 271.476L179.297 274.63C177.106 275.456 174.476 276.232 171.717 276.869C171.846 281.028 172.065 285.098 172.374 288.8H180.652V292.73H172.763L172.773 292.74ZM168.699 288.81C168.39 285.387 168.171 281.635 168.041 277.754C165.242 278.352 162.433 278.849 159.634 279.267V288.82H168.699V288.81ZM159.803 309.059H171.458V312.532H159.803V309.059Z" fill="#4C4948"/>
<path d="M199.428 274.371C196.32 281.824 191.37 289.317 186.549 293.934C185.851 293.068 184.008 291.287 182.953 290.411C187.724 286.302 192.286 279.625 194.956 272.908L199.428 274.371ZM211.74 295.705C215.246 300.641 219.36 307.039 221.422 311.149L217.308 313.477C216.69 312.154 215.953 310.691 214.987 309.049C193.043 310.741 190.413 310.92 188.481 311.696C188.302 310.741 187.475 308.363 186.857 307.129C188.172 306.76 189.358 305.387 191.061 303.288C192.854 301.278 198.422 293.327 201.928 285.695L206.66 287.705C203.064 294.382 198.691 301.009 194.308 306.263L212.666 305.119C211.043 302.472 209.339 299.815 207.805 297.536L211.75 295.705H211.74ZM212.576 272.809C214.589 279.665 218.792 286.332 224.012 289.715C223.045 290.67 221.601 292.591 220.854 293.924C215.903 290.043 211.869 283.645 209.469 277.147H201.849V272.809H212.576Z" fill="#4C4948"/>
<path d="M241.623 282.68H224.888V279.297H232.638C231.98 277.605 230.666 274.998 229.48 273.127L232.678 271.436C233.863 273.356 235.307 275.774 235.915 277.426L232.717 279.297H241.613V282.68H241.623ZM239.78 287.397C244.332 284.75 245.039 281.277 245.039 278.212V273.276H258.885V283.556C258.885 284.839 258.975 285.297 259.542 285.297H261.774C262.301 285.297 263.218 285.207 263.746 285.018C263.835 286.113 263.925 287.625 264.055 288.581C263.527 288.81 262.61 288.859 261.774 288.859H259.194C255.817 288.859 255.12 287.347 255.12 283.416V277.197H248.765V278.292C248.765 282.501 247.579 287.436 242.28 290.63C241.802 289.805 240.567 288.342 239.83 287.615V288.71H226.781V285.377H239.79V287.387L239.78 287.397ZM262.65 292.511C261.156 298.044 258.576 302.333 255.289 305.716C258.088 307.497 261.375 308.82 265.011 309.646C264.174 310.512 263.039 312.293 262.471 313.487C258.486 312.433 255.02 310.741 252.002 308.502C248.894 310.791 245.298 312.433 241.493 313.617C241.144 312.661 240.487 311.328 239.83 310.323V310.96H230.277V313.02H226.771V297.576H239.82V309.736C243.057 308.87 246.125 307.547 248.844 305.716C246.304 303.109 244.202 299.954 242.629 296.342L244.989 295.476H241.045V291.496H259.443L260.14 291.357L262.64 292.501L262.65 292.511ZM226.771 291.456H239.869V294.75H226.771V291.456ZM236.274 301.009H230.277V307.547H236.274V301.009ZM246.264 295.476C247.619 298.452 249.551 301.009 252.002 303.198C254.283 301.049 256.166 298.492 257.52 295.476H246.264Z" fill="#4C4948"/>
<path d="M320.205 312.682H294.934L307.963 296.9C309.257 295.318 311.24 292.84 312.475 291.039C313.551 289.457 314.447 287.825 314.447 285.626C314.447 282.471 312.355 279.536 308.182 279.536C304.008 279.536 301.747 282.81 301.528 286.352H295.999C296.169 282.69 297.693 279.755 299.157 278.123C300.512 276.6 303.221 274.461 307.963 274.461C315.971 274.461 320.095 279.924 320.095 285.785C320.095 288.889 318.91 291.417 317.386 293.676C316.031 295.706 314.278 297.785 312.027 300.442L306.16 307.378H320.205V312.672V312.682Z" fill="#4C4948"/>
<path d="M325.225 293.626H333.622V295.556H325.225V293.626Z" fill="#4C4948"/>
<path d="M336.202 284.67C336.371 281.625 337.666 279.038 339.419 277.346C342.019 274.869 345.177 274.471 347.657 274.471C350.536 274.471 353.355 275.038 355.785 277.575C357.758 279.605 358.495 282.023 358.495 284.73C358.495 286.531 358.156 288.113 357.2 289.685C356.184 291.317 354.889 292.283 353.813 292.84C355.735 293.576 356.921 294.87 357.538 295.825C358.614 297.407 359.122 299.487 359.122 301.626C359.122 305.348 357.708 308.224 355.905 310.025C353.195 312.731 349.639 313.298 346.711 313.298C343.782 313.298 340.734 312.731 338.304 310.144C336.61 308.343 335.365 305.358 335.086 302.482H340.615C340.894 304.174 341.691 305.636 342.647 306.542C343.434 307.278 344.848 308.234 347.219 308.234C348.972 308.234 350.606 307.557 351.622 306.651C352.697 305.636 353.594 303.885 353.594 301.358C353.594 300.114 353.365 298.313 351.901 296.91C350.267 295.327 348.235 295.218 347.05 295.218H345.924V290.372H346.711C349.141 290.372 350.655 289.586 351.502 288.74C352.409 287.835 352.966 286.431 352.966 284.74C352.966 282.77 352.12 281.585 351.502 280.969C350.207 279.725 348.623 279.556 347.498 279.556C346.143 279.556 344.559 279.784 343.324 281.078C342.029 282.431 341.74 284.461 341.74 284.68H336.212L336.202 284.67Z" fill="#4C4948"/>
<path d="M384.891 297.816C384.761 298.91 384.582 299.875 384.363 300.88H399.085C399.085 300.88 399.045 301.975 398.995 302.482C398.428 308.513 397.86 311.169 396.714 312.354C395.878 313.179 394.921 313.448 393.607 313.538C392.421 313.677 390.28 313.627 387.999 313.538C387.909 312.443 387.471 310.98 386.903 309.975C389.005 310.204 391.067 310.204 391.853 310.204C392.601 310.204 392.989 310.154 393.387 309.836C393.955 309.239 394.393 307.647 394.792 304.214H383.357C381.643 308.463 378.366 311.617 371.922 313.677C371.573 312.722 370.517 311.12 369.69 310.383C377.928 308.055 379.98 303.806 380.817 297.816H372.23C371.613 303.577 370.039 309.607 366.622 313.946C366.055 313.08 364.431 311.428 363.644 310.931C368.246 304.901 368.634 296.124 368.634 289.497V275.098H368.674C378.486 274.501 389.961 273.317 396.535 271.715L399.643 274.919C392.332 276.611 382.032 277.705 372.659 278.252V280.263H400.519V290.641H372.659C372.659 291.825 372.619 293.109 372.529 294.432H385.14C384.701 293.477 384.223 292.422 383.695 291.596L387.64 290.641C388.427 291.736 389.134 293.198 389.652 294.432H403.408V297.816H384.881H384.891ZM372.669 283.596V287.298H396.545V283.596H372.669Z" fill="#4C4948"/>
<path d="M122.3 276.183C122.3 278.173 120.617 279.854 118.535 279.854C116.453 279.854 114.77 278.173 114.77 276.183C114.77 274.192 116.473 272.511 118.535 272.511C120.597 272.511 122.3 274.173 122.3 276.183ZM120.478 276.183C120.478 275.267 119.82 274.192 118.535 274.192C117.25 274.192 116.593 275.267 116.593 276.183C116.593 277.098 117.25 278.173 118.535 278.173C119.82 278.173 120.478 277.098 120.478 276.183ZM127.381 272.401L128.476 273.028L119.561 288.502L118.466 287.825L127.381 272.401ZM132.172 284.74C132.172 286.73 130.488 288.412 128.407 288.412C126.325 288.412 124.641 286.73 124.641 284.74C124.641 282.75 126.345 281.068 128.407 281.068C130.468 281.068 132.172 282.73 132.172 284.74ZM130.349 284.74C130.349 283.825 129.692 282.75 128.407 282.75C127.122 282.75 126.464 283.825 126.464 284.74C126.464 285.656 127.122 286.73 128.407 286.73C129.692 286.73 130.349 285.656 130.349 284.74Z" fill="#4C4948"/>
</g>
<defs>
<clipPath id="clip0_3_15">
<rect width="454" height="315" fill="white"/>
</clipPath>
</defs>
</svg>
