<?xml version="1.0" encoding="UTF-8"?>
<svg id="_圖層_1" data-name="圖層_1" xmlns="http://www.w3.org/2000/svg" version="1.1" viewBox="0 0 454 315">
  <!-- Generator: Adobe Illustrator 29.3.1, SVG Export Plug-In . SVG Version: 2.1.0 Build 151)  -->
  <defs>
    <style>
      .st0 {
        fill: none;
        stroke: #4c4948;
        stroke-miterlimit: 10;
      }

      .st1 {
        fill: #e73820;
      }

      .st2 {
        fill: #493024;
      }

      .st3 {
        fill: #4c4948;
      }
    </style>
  </defs>
  <path class="st1" d="M68.1,61.7c6.9-6.9,6.9-18.1,0-25-6.9-6.9-18.1-6.9-25,0-6.9,6.9-6.9,18.1,0,25,6.9,6.9,18.1,6.9,25,0ZM185.5,58.5c5.2-8.3,2.6-19.2-5.7-24.3-8.3-5.2-19.2-2.6-24.3,5.6-5.2,8.3-2.6,19.2,5.7,24.3,8.3,5.2,19.2,2.6,24.3-5.6Z"/>
  <path class="st2" d="M441.8,101h-18v-7.1h-47.7v7.1h-17.2V5.8h83,0M423.8,41.4v-19.7h-47.7v19.7M376.1,57v21h47.7v-21M108.8,149.9v15.4h-35c.8,8.8,2.1,17.4,3.7,24.8,3.6-6.4,6.6-13.3,8.8-20.7l16.9,3.8h0c-4.8,14.1-11.5,26.8-19.8,37.7,2.5,6.1,5.4,9.7,8.2,9.7s3.7-5.4,4.3-18.6c3.8,3.7,9.7,7.3,14.1,9-2.5,21-7.9,25.6-19.8,25.6s-13.8-4.6-18.7-12.4c-5.2,4.9-10.9,9.2-17,12.8-2.4-3.3-8.5-9.9-12.1-12.9,8.3-4.2,15.6-9.7,21.8-16.3-3.9-12.1-6.3-27-7.7-42.5h-29.9v10.2h28.1c-.6,43.8.7,46.6-25.6,46.4-.2-4.4-1.9-10.9-4.6-14.7,14.7,1.1,13.2,2,13.8-17.5h-11.8c-1.9,33-7.2,40.3-12.3,49.2-2.9-3.1-10.5-9-14.2-10.8,8.5-12.7,9.1-31.8,9.1-46v-32.4h46.4c-.2-5-.3-9.9-.3-14.9h17.6c-.1,5-.1,9.9.1,14.9h36ZM92,154.1c-3.6-2.6-14.1-9.6-17.6-11.7l10.1-9.4c5.9,2.9,13.9,7.7,17.9,11.2l-10.4,9.8ZM136.2,168.8h-16.3v-25.9h41c-.7-1.6-1.4-3.2-2.1-4.6l17.8-4.7c1.6,2.8,3.4,6.3,4.6,9.4h40v25.9h-17.1v-11.8h-67.9v11.8h0ZM125.6,233.2c-1.8-3.9-5.4-9.5-8.6-12.9,18.2-3.7,40-12.4,51.5-21.1-.2-.8-.6-1.5-.9-2.3-11.6,6.6-28,13.3-40.9,16.9-1.8-3.5-5.2-8.7-8.2-12,14.1-2.6,32.6-8.8,42.6-14.8-.6-.6-1.1-1.3-1.8-1.9-9.8,4.5-20.7,8.1-31.1,10.6-1.6-3-5.7-9.3-8.4-12.2,12.1-2,24.5-5.3,34.4-9.8h-15.9v-13.2h63.7v13.2h-23.9c-1.8,1.6-3.9,3.1-6.2,4.5,3.8,3.5,6.8,7.2,9.1,11.3,7.2-4.9,14.7-10.6,20-15.5l13.8,10.4h0c-4.1,3-8.7,6-13.2,8.9,4.1,11.7,12.2,21.7,24.7,26.5-3.7,2.9-8.6,8.8-10.9,12.8-13.3-6.3-21.6-17.3-27-31.5l-2.3,1.3c4.2,22.4-4,38.3-29.4,34.9-.2-4.1-1.3-10.7-4.9-14.8,10.6.4,17.1,3.4,18.8-8.9-13,7.9-27.9,14.5-44.8,19.6ZM275.7,169.6c-.3,10.5-2,23.1-7.1,35.4,5.5,4.9,10.6,9.4,13.9,13.2l-11,13.1c-2.8-3.3-6.7-7.3-11-11.7-4.6,6.6-10.7,12.7-18.5,18.1-2.4-3.3-8-8.6-11.7-11.1,8.2-5.3,14-11.5,18.4-18.1-5.7-5.2-11.5-10.4-16.4-14.9,1.6-6,3.3-13.5,4.7-21.6l-5.1.3-1.5-14.8,8.7-.3c1-7.6,1.7-15.1,2.1-22.1l16.5.8c-.6,6.6-1.4,13.6-2.3,20.6l4.9-.2v-6.1h15.5v5.4l5.9-.3v14c-.1,0-6,.4-6,.4ZM255.7,194.1c2.9-8.2,4-16.4,4.4-23.5l-7,.4c-1.1,6.3-2.3,12.3-3.6,17.9l6.2,5.2h0ZM277.6,193.5v-14.9h62.2s0,14.9,0,14.9h0M318.1,221c0,17.6-13.7,16-28.5,16.5-.8-4.4-3.2-10.9-5.5-15,15.5.3,16.7.8,16.7-1.8v-51c4.5-3.9,9-9.4,12.5-14.8h-31.4v-14.1h42.1l3.9-.8,11.1,7.6c-5.5,7.9-12.8,17-20.9,24.4M275.7,34.5c-.3,10.5-2,23.1-7.1,35.4,5.5,4.9,10.6,9.4,13.9,13.2l-11,13.1c-2.8-3.3-6.7-7.3-11-11.7-4.6,6.6-10.7,12.7-18.5,18.1-2.4-3.3-8-8.6-11.7-11.1,8.2-5.3,14-11.5,18.4-18.1-5.7-5.2-11.5-10.4-16.4-14.9,1.6-6,3.3-13.5,4.7-21.6l-5.1.3-1.5-14.8,8.7-.3C240.1,14.6,240.7,7,241.1,0l16.5.8c-.6,6.6-1.4,13.6-2.3,20.6l4.9-.2v-6.1h15.5v5.4l5.9-.3v14c-.1,0-6,.4-6,.4ZM255.7,59c2.9-8.2,4-16.4,4.4-23.5l-7,.4c-1.1,6.3-2.3,12.3-3.6,17.9l6.2,5.2h0ZM277.6,58.4v-14.9h62.2s0,14.9,0,14.9h0M318.1,85.9c0,17.6-13.7,16-28.5,16.5-.8-4.4-3.2-10.9-5.5-15,15.5.3,16.7.8,16.7-1.8v-51c4.5-3.9,9-9.4,12.5-14.8h-31.4V5.6h42.1l3.9-.8,11.1,7.6c-5.5,7.9-12.8,17-20.9,24.4M386.3,211.7c-12.2,4.9-25.6,9.9-36.4,13.9l-5.4-16.1c3.6-1,7.8-2.3,12.5-3.7v-30.7h-10.5v-14.8h10.5v-23.9h16.2v23.9h9.1v14.8h-9.1v25.6l9.8-3.2,3.3,14.2ZM438.5,223.9c2.8,0,2.8-3.1,2.9-9.8,2.8,2.4,8.6,5.1,12.6,6.4,0,10.1-4.5,16-14.2,15.4h-7.2c-8.9-.6-13.1-3.4-12.9-14.8v-11.7h-7.1c-2,13.7-7.5,23-29.6,28.3-1.4-3.6-5.3-9.3-8.4-12,17-3.1,20.9-8.2,22.4-16.3h-8v-33.9h56.9v33.9h-10.7v11.8c0,1.7-.1,2.7,1.5,2.7h2ZM451,173.2h-66.3v-12.8h12.9c-.5-1.8-1.1-3.7-1.8-5.3l10.5-1.9h-18.2v-12.5h21.7c-.5-1.4-.9-2.7-1.4-3.9l15.7-2.8c.9,2.1,1.8,4.4,2.6,6.7h21.4v12.5h-17.8l11.5,1.7-3.1,5.5h12.3v12.8h0ZM404,188.1h25.7v-3h-25.7v3ZM404,200h25.7v-3h-25.7v3ZM409.3,153.1c1.1,2.2,2.2,5,2.9,7.2h12c.9-2.4,2-5.1,2.5-7.2h-17.4ZM97.1,5.8H14.1v95.2h17.2v-7.1h47.7v7.1h18M79.1,78H31.4V21.7h47.7M212,5.8h-83,0v95.2h17.2v-7.1h47.7v7.1h18M194,78h-47.7V21.7h47.7M212,5.8h-83,0v95.2h17.2v-7.1h47.7v7.1h18M194,78h-47.7V21.7h47.7"/>
  <path class="st0" d="M13.3,269.8v45.2M441.3,269.8v45.2M288.3,297.7l-12.3,15.6"/>
  <path class="st3" d="M76.9,312.7h-27.7l14.3-17.3c2.7-3.7,7-7.3,7.1-12.4.1-9.3-14.4-8.4-14.2.8h-6.1c0-17.4,26.7-16.9,26.4-.6-.3,7.2-4.4,10.4-8.8,16.1l-6.4,7.6h15.4v5.8h0ZM320.3,312.7h-25.5l13.2-15.9c2.5-3.4,6.4-6.7,6.5-11.4.1-8.6-13.2-7.7-13,.7h-5.6c0-16,24.6-15.5,24.3-.6-.3,6.6-4,9.6-8.1,14.8l-5.9,7h14.2v5.3h0ZM94.9,313.4c-14.8,0-16.7-17.4-6.8-22.1-9.6-5.3-5.1-20.5,6.8-20.5,11.9,0,16.5,15.2,6.8,20.5,9.8,4.1,8.1,22.1-6.8,22.1ZM94.9,307.8c9.3,0,8.6-13.8,0-13.8-9,0-9,13.8,0,13.8ZM94.9,288.8c8,0,8.4-12.4,0-12.4-8.6,0-8.6,12.4,0,12.4ZM113,309.1c1.8,0,1.8,2.8,0,2.8s-1.9-2.8,0-2.8ZM118.4,298.5c0-5.8,8-6.4,10-3.3s2.3,4.7-1.1,7.4c4.5,3.3,3.1,7.2.1,9.1s-9.6,1.2-9.6-4.3h2.8c.2,2.6,3.6,3.8,5.6,2.1,2.2-2.1.5-6.5-2.9-5.8v-2.4c3.1.5,4.6-2.9,2.8-4.8-1.8-1.7-5-.2-4.9,1.9h-2.8ZM336.2,284.6c0-11.3,15.8-12.7,19.6-6.5,2.7,4.4,4.6,9.3-2.1,14.6,8.9,6.5,6.1,14.1.3,18-6.6,4.4-18.9,2.4-18.9-8.4h5.5c.4,5.2,7.1,7.5,10.9,4.1,4.4-4.1,1-12.8-5.7-11.4v-4.8c6,1,9.1-5.6,5.6-9.4-3.5-3.4-9.8-.4-9.7,3.7h-5.5ZM154.4,273.1c-1.2,3.3-2.7,6.6-4.4,9.7v30.8h-3.9v-24.5c-1.2,1.7-2.5,3.3-3.7,4.7-.4-1.1-1.6-3.3-2.2-4.3,4.1-4.2,8-10.9,10.4-17.6l3.8,1.2ZM172.8,292.7c1,9.2,2.7,15.6,4.6,15.7.7,0,1.2-2.2,1.5-6.2.6.8,2.1,1.8,2.8,2.1-.9,7-2.6,8.9-4.3,8.9-4.6,0-7-8.3-8.4-20.5h-9.4v11.3l7.5-1.9c0,1.1,0,2.7,0,3.6-9.6,2.8-11,3.3-12,4-.2-1-.9-2.6-1.4-3.4.8-.4,2-1.2,2-3v-26.9h0,0c7.3-1.2,15.5-3,20.4-4.9l3.1,3.2c-2.2.8-4.8,1.6-7.6,2.2.1,4.2.3,8.2.7,11.9h8.3v3.9h-7.9,0ZM168.7,288.8c-.3-3.4-.5-7.2-.7-11.1-2.8.6-5.6,1.1-8.4,1.5v9.6h9.1ZM159.8,309.1h11.7v3.5h-11.7v-3.5ZM199.4,274.4c-3.1,7.5-8.1,14.9-12.9,19.6-.7-.9-2.5-2.6-3.6-3.5,4.8-4.1,9.3-10.8,12-17.5l4.5,1.5ZM211.7,295.7c3.5,4.9,7.6,11.3,9.7,15.4l-4.1,2.3c-.6-1.3-1.4-2.8-2.3-4.4-21.9,1.7-24.6,1.9-26.5,2.6-.2-1-1-3.3-1.6-4.6,6-4.1,9.5-10.8,15.1-21.4l4.7,2c-3.6,6.7-8,13.3-12.4,18.6l18.4-1.1c-1.6-2.6-3.3-5.3-4.9-7.6l3.9-1.8h0ZM212.6,272.8c2,6.9,6.2,13.5,11.4,16.9-1,1-2.4,2.9-3.2,4.2-5-3.9-9-10.3-11.4-16.8h-7.6v-4.3h10.7ZM241.6,282.7h-16.7v-3.4h7.8c-.7-1.7-2-4.3-3.2-6.2l3.2-1.7c1.2,1.9,2.6,4.3,3.2,6l-3.2,1.9h8.9v3.4h0ZM239.8,288.7h-13v-3.3h13v3.3ZM239.6,287.5h0c4.6-2.6,5.4-6.2,5.4-9.3v-4.9h13.8v10.3c0,1.3,0,1.7.7,1.7,1.2,0,3.1.1,4.2-.3,0,1.1.2,2.6.3,3.6-4.3.6-9.6,1.4-8.9-5.2v-6.2h-6.4c0,4.8-.8,9.9-6.5,13.4-.5-.8-1.9-2.4-2.6-3.2ZM226.8,291.5h13.1v3.3h-13.1v-3.3ZM236.3,301h-6v6.5h6v-6.5ZM239.8,311h-9.6v2.1h-3.5v-15.4h13v13.4ZM239.5,309.8c3.2-.9,6.6-2.2,9.3-4.1-2.5-2.6-4.6-5.8-6.2-9.4l3.5-1.3c1.2,3.1,3.5,6,5.9,8.2,2.3-2.1,4.2-4.7,5.5-7.7h-16.5v-4h19.1c0-.1,2.5,1,2.5,1h0c-1.5,5.5-4.1,9.8-7.4,13.2,2.8,1.8,6.1,3.1,9.7,3.9-.8.9-2,2.6-2.5,3.8-4-1.1-7.5-2.7-10.5-5-3.1,2.3-6.7,3.9-10.5,5.1-.3-1-1.3-2.8-2-3.8ZM325.2,293.6h8.4v1.9h-8.4v-1.9ZM368.6,275.1c9.8-.6,21.3-1.8,27.9-3.4l3.1,3.2c-7.3,1.7-17.6,2.8-27,3.3v2h27.9v10.4h-27.9c0,1.2,0,2.5-.1,3.8h12.6c-.4-1-.9-2-1.4-2.8l3.9-1c.8,1.1,1.5,2.6,2,3.8h13.8v3.4h-18.5,0c-.1,1.1-.3,2.1-.5,3.1h14.7c-.6,10.8-1.4,13.8-11.1,12.7,0-1.1-.5-2.6-1.1-3.6,5.9.3,7.3,1.6,7.9-5.8h-11.4c-1.7,4.2-5,7.4-11.4,9.5-.3-1-1.4-2.6-2.2-3.3,8.2-2.3,10.3-6.6,11.1-12.6h-8.6c-.6,5.8-2.2,11.8-5.6,16.1-.6-.9-2.2-2.5-3-3,6.1-8.6,5-19.1,5-35.8ZM372.7,283.6v3.7h23.9v-3.7h-23.9ZM122.3,276.2c0,4.8-7.6,4.7-7.5,0,0-4.7,7.6-4.8,7.5,0ZM120.5,276.2c.2-2.5-4.1-2.5-3.9,0-.2,2.5,4.1,2.5,3.9,0ZM127.4,272.4l1.1.6-8.9,15.5-1.1-.7,8.9-15.4ZM132.2,284.7c0,4.8-7.6,4.8-7.5,0,0-4.7,7.6-4.8,7.5,0ZM130.3,284.7c.2-2.5-4.1-2.5-3.9,0-.2,2.5,4.1,2.5,3.9,0Z"/>
</svg>