<svg width="143" height="100" viewBox="0 0 143 100" fill="none" xmlns="http://www.w3.org/2000/svg">
<g clip-path="url(#clip0_3_1997)">
<path d="M4.94043 85.3252V99.4926" stroke="#4C4948" stroke-width="0.148438" stroke-miterlimit="10"/>
<path d="M138.786 85.3252V99.4926" stroke="#4C4948" stroke-width="0.148438" stroke-miterlimit="10"/>
<path d="M86.9837 11.4972C86.8747 14.7815 86.3731 18.7432 84.7563 22.6019C86.4822 24.1254 88.0617 25.5459 89.1053 26.7323L85.6566 30.8282C84.7936 29.7793 83.5724 28.5274 82.2079 27.1725C80.7717 29.2361 78.8651 31.1685 76.4226 32.8606C75.6687 31.8117 73.9085 30.1508 72.7559 29.3734C75.3073 27.7157 77.1392 25.752 78.5068 23.6852C76.7093 22.0618 74.9117 20.4353 73.3665 19.0148C73.868 17.1198 74.4101 14.7815 74.84 12.2433L73.2574 12.3432L72.7901 7.70404L75.5223 7.60414C75.8463 5.23458 76.0613 2.86503 76.1703 0.664062L81.3449 0.90133C81.1642 2.96493 80.915 5.1659 80.6253 7.36687L82.1705 7.29819V5.36883H87.0211V7.06092L88.853 6.96102L88.8156 11.363L86.9837 11.4972ZM80.7281 19.1834C81.6253 16.6109 81.9867 14.0385 82.0926 11.8031L79.8994 11.9374C79.5411 13.9011 79.1797 15.7961 78.7841 17.5569L80.725 19.1803L80.7281 19.1834ZM107.034 18.9805H100.243V27.6126C100.243 30.0165 99.738 31.2341 98.0495 31.9802C96.361 32.692 94.1678 32.792 91.3297 32.792C91.0773 31.4027 90.3234 29.3734 89.6038 28.0872C91.2206 28.1559 93.4139 28.1559 93.9871 28.1559C94.5977 28.1559 94.8127 28.0216 94.8127 27.5127V18.9805H87.5881V14.3101H94.8127V11.5003C96.2146 10.2828 97.6165 8.55633 98.7287 6.86111H88.9184V2.42484H102.071L103.293 2.18757L106.779 4.55712C105.053 7.0297 102.791 9.90501 100.24 12.209V14.3069H107.031V18.9774L107.034 18.9805Z" fill="#493024"/>
<path d="M138.948 2.49316V32.3514H133.306V30.1161H118.393V32.3514H113.003V2.49316H138.951H138.948ZM118.393 7.46954V13.6635H133.306V7.46954H118.393ZM133.306 25.1397V18.5368H118.393V25.1397H133.306Z" fill="#493024"/>
<path d="M33.0375 55.0076C31.5297 59.4407 29.4424 63.4368 26.8566 66.8553C27.6479 68.7847 28.5452 69.9024 29.4081 69.9024C30.1278 69.9024 30.5577 68.2103 30.7384 64.0799C31.9253 65.2319 33.7572 66.3808 35.1591 66.8897C34.3678 73.4926 32.6793 74.9131 28.9782 74.9131C26.6074 74.9131 24.6665 73.4582 23.1213 71.02C21.5044 72.5435 19.7069 73.8984 17.8034 75.0473C17.0495 73.9983 15.1429 71.9316 14.0307 70.9857C16.6195 69.6651 18.9187 67.9387 20.8596 65.8751C19.6383 62.0819 18.8844 57.4115 18.4514 52.535H9.10839V55.7506H17.9124C17.9124 55.7506 17.875 56.9369 17.875 57.477C17.766 64.3828 17.5884 67.4985 16.7255 68.5818C15.9342 69.5621 15.1086 69.9024 14.0307 70.1053C13.0618 70.2739 11.5508 70.3082 9.89658 70.3082C9.82493 68.9189 9.28597 67.0583 8.56632 65.8407C8.06474 69.4278 7.05536 73.0524 5.22353 75.6592C4.3263 74.6789 1.95239 72.8495 0.768555 72.275C3.42908 68.2789 3.60665 62.2879 3.60665 57.8548V47.6991H18.1243C18.0526 46.1413 18.0152 44.5834 18.0152 43.0287H23.5138C23.4765 44.5865 23.4765 46.1444 23.5512 47.6991H27.6106C26.4953 46.8874 25.1307 46.007 24.0154 45.3639L27.1775 42.4199C29.0094 43.3347 31.5266 44.8238 32.7852 45.9415L30.9876 47.7022H34.7977V52.5444H23.8378C24.0902 55.3198 24.4858 57.9953 24.9874 60.3305C26.1027 58.3324 27.0373 56.1658 27.7539 53.8306L33.0375 55.0138V55.0076ZM9.06789 60.2212C8.99624 61.9477 8.85293 63.8083 8.60059 65.7065C9.6785 65.8064 10.6131 65.8407 11.1863 65.8407C11.6536 65.8407 11.9776 65.7408 12.2643 65.4005C12.5509 64.9947 12.6942 63.6054 12.7658 60.2212H9.06478H9.06789Z" fill="#493024"/>
<path d="M67.8989 58.4947C66.606 59.4438 65.1667 60.3897 63.7648 61.3045C65.0577 64.9603 67.5749 68.1103 71.4909 69.6338C70.3413 70.5485 68.7961 72.4092 68.0765 73.6611C63.9081 71.6974 61.3192 68.2445 59.6307 63.777L58.9111 64.1829C59.774 68.1103 58.9485 71.8348 57.1509 73.3583C55.8206 74.7132 54.562 75.119 52.5495 75.1534C51.7239 75.1877 50.7176 75.1534 49.7114 75.119C49.6397 73.8328 49.2441 72.0033 48.3811 70.6828C45.6147 71.9347 42.6675 73.0523 40.0444 73.8328C39.4681 72.6152 38.3559 70.8545 37.3496 69.7712C43.0289 68.6192 49.8547 65.8781 53.4498 63.137C53.3782 62.8998 53.2691 62.6625 53.1632 62.4252C49.5338 64.492 44.3935 66.5899 40.3684 67.7419C39.7921 66.6586 38.7515 65.0008 37.8169 63.9831C42.2376 63.1714 48.0229 61.2077 51.1507 59.3439C50.97 59.141 50.7924 58.938 50.5743 58.7351C47.5182 60.1556 44.1068 61.2732 40.8357 62.0537C40.3341 61.1047 39.0381 59.141 38.2126 58.2294C41.9853 57.5862 45.867 56.5716 48.9575 55.148H43.9978V51.0177H63.9081V55.148H56.4343C55.858 55.6569 55.2131 56.1314 54.4935 56.5685C55.6804 57.6518 56.615 58.8381 57.3316 60.1244C59.5964 58.6009 61.933 56.8057 63.5841 55.2479L67.8958 58.4978L67.8989 58.4947ZM43.3529 53.6182H38.25V45.4918H51.079C50.8641 44.983 50.6491 44.4772 50.431 44.037L56.0013 42.5479C56.5029 43.4282 57.0792 44.5115 57.4375 45.4918H69.9426V53.6182H64.5873V49.9281H43.3498V53.6182H43.3529ZM53.3065 69.768C53.6648 69.3965 53.9545 68.6504 54.0604 67.6701C52.4436 68.6847 50.6117 69.6338 48.7051 70.5142C49.8204 70.6172 50.7519 70.6484 51.5432 70.6484C52.3345 70.6484 52.8735 70.5142 53.3034 69.768H53.3065Z" fill="#493024"/>
<path d="M86.9837 53.8898C86.8747 57.1741 86.3731 61.1358 84.7563 64.9945C86.4822 66.518 88.0617 67.9385 89.1053 69.1248L85.6566 73.2208C84.7936 72.1719 83.5724 70.92 82.2079 69.565C80.7717 71.6286 78.8651 73.5611 76.4226 75.2532C75.6687 74.2042 73.9085 72.5434 72.7559 71.766C75.3073 70.1083 77.1392 68.1446 78.5068 66.0778C76.7093 64.4544 74.9117 62.8279 73.3665 61.4074C73.868 59.5124 74.4101 57.1741 74.84 54.6359L73.2574 54.7358L72.7901 50.0966L75.5223 49.9967C75.8463 47.6272 76.0613 45.2576 76.1703 43.0566L81.3449 43.2939C81.1642 45.3575 80.915 47.5585 80.6253 49.7594L82.1705 49.6908V47.7614H87.0211V49.4535L88.853 49.3536L88.8156 53.7555L86.9837 53.8898ZM80.7281 61.576C81.6253 59.0035 81.9867 56.431 82.0926 54.1957L79.8994 54.33C79.5411 56.2937 79.1797 58.1887 78.7841 59.9495L80.725 61.576H80.7281ZM107.034 61.3731H100.243V70.0052C100.243 72.4091 99.738 73.6267 98.0495 74.3728C96.361 75.0846 94.1678 75.1845 91.3297 75.1845C91.0773 73.7953 90.3234 71.766 89.6038 70.4798C91.2206 70.5484 93.4139 70.5484 93.9871 70.5484C94.5977 70.5484 94.8127 70.4142 94.8127 69.9053V61.3731H87.5881V56.7026H94.8127V53.8929C96.2146 52.6753 97.6165 50.9489 98.7287 49.2537H88.9184V44.8174H102.071L103.293 44.5801L106.779 46.9497C105.053 49.4223 102.791 52.2976 100.24 54.6016V56.6995H107.031V61.3699L107.034 61.3731Z" fill="#493024"/>
<path d="M121.592 67.0927C117.782 68.6162 113.579 70.2084 110.199 71.4603L108.511 66.4152C109.626 66.1093 110.953 65.7034 112.427 65.2632V55.6164H109.156V50.9772H112.427V43.4939H117.495V50.9772H120.334V55.6164H117.495V63.6398L120.552 62.6252L121.592 67.0927ZM137.907 70.9202C138.088 70.9202 138.231 70.9202 138.337 70.8515C138.481 70.7828 138.59 70.6142 138.661 70.2084C138.733 69.8369 138.77 68.9565 138.805 67.8388C139.668 68.585 141.499 69.431 142.758 69.8369C142.649 71.0888 142.471 72.375 142.147 72.9838C141.789 73.6269 141.284 74.0671 140.53 74.3387C139.954 74.576 138.948 74.679 138.303 74.679H136.038C135.032 74.679 133.773 74.373 133.091 73.7299C132.371 73.0868 132.013 72.2408 132.013 70.0398V66.384H129.786C129.175 70.6829 127.449 73.5957 120.514 75.2534C120.084 74.1358 118.86 72.3407 117.891 71.4946C123.209 70.5143 124.43 68.9221 124.898 66.384H122.383V55.7538H140.172V66.384H136.829V70.0741C136.829 70.4113 136.829 70.6486 136.901 70.7516C136.973 70.8858 137.116 70.9202 137.297 70.9202H137.907ZM141.823 55.0077H121.087V50.9803H125.113C124.969 50.4059 124.754 49.8284 124.536 49.3226L127.807 48.7138H122.128V44.7864H128.92C128.776 44.3462 128.633 43.9404 128.49 43.5689L133.412 42.6885C133.698 43.3316 133.988 44.0777 134.237 44.7864H140.923V48.7138H135.353L138.948 49.257L137.979 50.9835H141.823V55.0108V55.0077ZM127.125 59.6812H135.175V58.7321H127.125V59.6812ZM127.125 63.4026H135.175V62.4535H127.125V63.4026ZM128.779 48.7107C129.138 49.3882 129.462 50.2685 129.677 50.9803H133.415C133.702 50.2342 134.026 49.3882 134.206 48.7107H128.779Z" fill="#493024"/>
<path d="M22.0639 20.0234C24.221 17.8617 24.221 14.357 22.0639 12.1954C19.9068 10.0338 16.4095 10.0338 14.2524 12.1954C12.0953 14.357 12.0953 17.8617 14.2524 20.0234C16.4095 22.185 19.9068 22.185 22.0639 20.0234Z" fill="#E73820"/>
<path d="M5.18652 2.49316V32.3514H10.5761V30.1161H25.4894V32.3514H31.1313V2.49316H5.18652ZM25.4894 25.1397H10.5761V7.46954H25.4894V25.1397Z" fill="#493024"/>
<path d="M58.7844 19.033C60.3974 16.4383 59.6059 13.0245 57.0166 11.4082C54.4273 9.79183 51.0207 10.585 49.4078 13.1797C47.7949 15.7745 48.5863 19.1882 51.1756 20.8046C53.7649 22.4209 57.1715 21.6278 58.7844 19.033Z" fill="#CC3B25"/>
<path d="M41.1252 2.49316V32.3514H46.5148V30.1161H61.428V32.3514H67.07V2.49316H41.1221H41.1252ZM61.428 25.1397H46.5148V7.46954H61.428V25.1397Z" fill="#493024"/>
<path d="M58.7844 19.033C60.3974 16.4383 59.6059 13.0245 57.0166 11.4082C54.4273 9.79183 51.0207 10.585 49.4078 13.1797C47.7949 15.7745 48.5863 19.1882 51.1756 20.8046C53.7649 22.4209 57.1715 21.6278 58.7844 19.033Z" fill="#E73820"/>
<path d="M41.1252 2.49316V32.3514H46.5148V30.1161H61.428V32.3514H67.07V2.49316H41.1221H41.1252ZM61.428 25.1397H46.5148V7.46954H61.428V25.1397Z" fill="#493024"/>
<path d="M90.9496 94.0723L87.0928 98.9612" stroke="#4C4948" stroke-width="0.189453" stroke-miterlimit="10"/>
<path d="M24.8066 98.7649H16.1396L20.6102 93.3358C21.0557 92.7926 21.7317 91.9403 22.1585 91.319C22.5262 90.7758 22.8346 90.2139 22.8346 89.4584C22.8346 88.3719 22.118 87.3635 20.6881 87.3635C19.2581 87.3635 18.4824 88.4874 18.4045 89.7081H16.5073C16.5665 88.4468 17.0867 87.4384 17.5914 86.8765C18.0556 86.352 18.984 85.6152 20.6102 85.6152C23.358 85.6152 24.7692 87.4946 24.7692 89.5114C24.7692 90.5791 24.3642 91.4501 23.8408 92.2244C23.3766 92.9237 22.7754 93.6386 22.0028 94.5502L19.9902 96.9354H24.8066V98.7586V98.7649Z" fill="#4C4948"/>
<path d="M33.9351 93.0827C34.4179 93.7227 34.5145 94.4408 34.5145 95.0214C34.5145 96.3389 34.013 97.2318 33.4896 97.775C32.8883 98.415 31.9225 98.9769 30.4521 98.9769C28.9816 98.9769 28.0159 98.415 27.4146 97.775C26.8912 97.2318 26.3896 96.3389 26.3896 95.0214C26.3896 94.4408 26.4862 93.7227 26.9691 93.0827C27.2588 92.6769 27.723 92.2866 28.3243 92.0369C27.7822 91.8027 27.4146 91.4156 27.1841 91.066C26.8538 90.5415 26.7199 89.8827 26.7199 89.3021C26.7199 88.2749 27.0875 87.304 27.804 86.6078C28.209 86.2207 29.0408 85.6182 30.4552 85.6182C31.8696 85.6182 32.6983 86.2207 33.1064 86.6078C33.8229 87.3071 34.1905 88.2749 34.1905 89.3021C34.1905 89.8827 34.0566 90.5415 33.7263 91.066C33.4927 91.4156 33.1251 91.8027 32.5861 92.0369C33.1874 92.2897 33.6516 92.6769 33.9413 93.0827H33.9351ZM28.9256 93.4917C28.5393 93.8788 28.3274 94.5001 28.3274 95.062C28.3274 95.5647 28.5206 96.1485 28.9069 96.573C29.1779 96.8821 29.6608 97.2318 30.4552 97.2318C31.2496 97.2318 31.7325 96.8821 32.0035 96.573C32.3898 96.1453 32.583 95.5647 32.583 95.062C32.583 94.5001 32.3712 93.8788 31.9817 93.4917C31.5954 93.1046 31.016 92.8892 30.4521 92.8892C29.8882 92.8892 29.3119 93.1015 28.9224 93.4917H28.9256ZM29.0408 87.8878C28.7106 88.2187 28.4988 88.7401 28.4988 89.3239C28.4988 89.9077 28.7324 90.3916 29.0221 90.682C29.3711 91.0503 29.9505 91.2626 30.4552 91.2626C30.9599 91.2626 31.5394 91.0503 31.8883 90.682C32.178 90.3916 32.4117 89.9264 32.4117 89.3239C32.4117 88.7214 32.1998 88.2187 31.8696 87.8878C31.5393 87.5787 31.0565 87.3633 30.4583 87.3633C29.8602 87.3633 29.3742 87.5756 29.0471 87.8878H29.0408Z" fill="#4C4948"/>
<path d="M36.1096 97.6504C36.3557 97.6504 36.5551 97.8502 36.5551 98.0968C36.5551 98.3435 36.3557 98.5433 36.1096 98.5433C35.8634 98.5433 35.6641 98.3435 35.6641 98.0968C35.6641 97.8502 35.8634 97.6504 36.1096 97.6504Z" fill="#4C4948"/>
<path d="M37.8045 94.3195C37.8326 93.8356 38.0382 93.4235 38.3123 93.155C38.7236 92.7617 39.222 92.6992 39.6146 92.6992C40.0694 92.6992 40.5149 92.7898 40.9012 93.1925C41.2127 93.5141 41.3311 93.898 41.3311 94.3289C41.3311 94.6161 41.2782 94.8659 41.1255 95.1156C40.9635 95.3747 40.761 95.5277 40.5897 95.6151C40.8919 95.7306 41.0819 95.9367 41.1785 96.0897C41.3467 96.3394 41.4277 96.6703 41.4277 97.0106C41.4277 97.6007 41.2034 98.0565 40.9199 98.3437C40.49 98.7745 39.9292 98.8619 39.465 98.8619C39.0008 98.8619 38.5179 98.7714 38.1348 98.3624C37.8668 98.0752 37.6706 97.6007 37.627 97.1449H38.5024C38.546 97.4134 38.6706 97.6444 38.8233 97.788C38.9479 97.9035 39.1722 98.0565 39.546 98.0565C39.8233 98.0565 40.0819 97.9503 40.2407 97.8067C40.409 97.6444 40.5523 97.3696 40.5523 96.9669C40.5523 96.7702 40.518 96.483 40.2844 96.2614C40.0258 96.0116 39.7049 95.9929 39.518 95.9929H39.3404V95.2249H39.465C39.8482 95.2249 40.0912 95.1 40.2252 94.9658C40.3685 94.8221 40.4588 94.6005 40.4588 94.332C40.4588 94.0198 40.3249 93.8325 40.2252 93.7326C40.0196 93.5359 39.7703 93.5078 39.5927 93.5078C39.3778 93.5078 39.1286 93.5421 38.9323 93.7482C38.7267 93.9636 38.6831 94.2852 38.6831 94.3195H37.8076H37.8045Z" fill="#4C4948"/>
<path d="M49.0605 86.3427C48.6898 87.376 48.21 88.4063 47.6897 89.3834V99.049H46.4841V91.3627C46.1134 91.9091 45.7177 92.3961 45.3189 92.8394C45.1943 92.5085 44.8267 91.7936 44.6211 91.4907C45.9077 90.1577 47.129 88.0629 47.8673 85.9712L49.0605 86.3427ZM54.8021 92.5085C55.1168 95.4057 55.637 97.4131 56.2414 97.4412C56.4595 97.4412 56.6246 96.7387 56.7212 95.4899C56.9143 95.7335 57.3785 96.0488 57.5841 96.1487C57.2975 98.3434 56.7773 98.9459 56.2414 98.9303C54.8177 98.9022 54.0482 96.336 53.6245 92.5054H50.6929V96.0613L53.0482 95.4587C53.0201 95.8021 53.0357 96.3048 53.0762 96.5764C50.0886 97.4505 49.6244 97.6222 49.3346 97.8252C49.2661 97.5255 49.048 97.0072 48.8829 96.7512C49.129 96.6232 49.4998 96.3641 49.4998 95.8053V87.3729H49.5122L49.4998 87.3573C51.7864 86.9983 54.3628 86.4394 55.8707 85.8369L56.8427 86.8266C56.1573 87.0857 55.3348 87.3292 54.4719 87.529C54.5124 88.834 54.5809 90.1109 54.6775 91.2722H57.2664V92.5054H54.799L54.8021 92.5085ZM53.5279 91.2753C53.4313 90.2014 53.3628 89.0244 53.3223 87.8069C52.4469 87.9942 51.5684 88.1503 50.6929 88.2814V91.2785H53.5279V91.2753ZM50.7459 97.6285H54.3909V98.718H50.7459V97.6285Z" fill="#4C4948"/>
<path d="M63.1382 86.745C62.1662 89.0834 60.6178 91.4342 59.11 92.8828C58.8919 92.6112 58.3156 92.0523 57.9854 91.7776C59.4776 90.4882 60.9045 88.3934 61.7394 86.2861L63.1382 86.745ZM66.9888 93.4385C68.0854 94.987 69.372 96.9944 70.0169 98.2837L68.7303 99.0142C68.5371 98.599 68.3066 98.1401 68.0044 97.625C61.1412 98.1557 60.3188 98.2119 59.7144 98.4554C59.6583 98.1557 59.3997 97.4096 59.2066 97.0225C59.6178 96.9069 59.9885 96.4761 60.5213 95.8174C61.082 95.1868 62.8235 92.6923 63.9201 90.2978L65.3999 90.9284C64.2753 93.0232 62.9076 95.1025 61.5369 96.7508L67.2785 96.3918C66.7707 95.5614 66.238 94.7278 65.7582 94.0129L66.9919 93.4385H66.9888ZM67.2505 86.2549C67.8798 88.4059 69.1944 90.4976 70.8269 91.5591C70.5247 91.8588 70.073 92.4613 69.8393 92.8796C68.291 91.6621 67.0293 89.6547 66.2785 87.616H63.8952V86.2549H67.2505Z" fill="#4C4948"/>
<path d="M76.3354 89.352H71.1016V88.2905H73.5253C73.3197 87.7598 72.9085 86.9419 72.5377 86.355L73.5378 85.8242C73.9085 86.4268 74.3602 87.1854 74.5503 87.7036L73.5502 88.2905H76.3323V89.352H76.3354ZM75.759 90.8318C77.1828 90.0014 77.4039 88.9118 77.4039 87.9503V86.4018H81.7343V89.6267C81.7343 90.0295 81.7623 90.1731 81.9399 90.1731H82.6378C82.8029 90.1731 83.0895 90.145 83.2546 90.0857C83.2826 90.4291 83.3107 90.9036 83.3512 91.2033C83.1861 91.2751 82.8995 91.2907 82.6378 91.2907H81.8309C80.7748 91.2907 80.5567 90.8162 80.5567 89.583V87.6318H78.5691V87.9752C78.5691 89.2958 78.1984 90.8443 76.541 91.8464C76.3915 91.5873 76.0052 91.1284 75.7746 90.9005V91.2439H71.6935V90.1981H75.7621V90.8287L75.759 90.8318ZM82.9119 92.4365C82.4446 94.1723 81.6377 95.5178 80.6097 96.5793C81.4851 97.1381 82.5131 97.5533 83.6503 97.8125C83.3886 98.0841 83.0334 98.6429 82.8558 99.0175C81.6097 98.6866 80.5255 98.1559 79.5816 97.4534C78.6096 98.1715 77.4849 98.6866 76.2949 99.0581C76.1858 98.7584 75.9802 98.3401 75.7746 98.0248V98.2246H72.787V98.8708H71.6904V94.0255H75.7715V97.8406C76.784 97.569 77.7435 97.1537 78.594 96.5793C77.7996 95.7614 77.1423 94.7717 76.65 93.6384L77.3884 93.3668H76.1547V92.118H81.9088L82.1268 92.0743L82.9088 92.4334L82.9119 92.4365ZM71.6904 92.1056H75.7871V93.1389H71.6904V92.1056ZM74.6624 95.1026H72.787V97.1537H74.6624V95.1026ZM77.7871 93.3668C78.2108 94.3003 78.8152 95.1026 79.5816 95.7895C80.295 95.1151 80.8838 94.3128 81.3075 93.3668H77.7871Z" fill="#4C4948"/>
<path d="M100.912 98.7648H93.0088L97.0837 93.8134C97.4887 93.317 98.1086 92.5397 98.495 91.9746C98.8314 91.4782 99.1118 90.9662 99.1118 90.2763C99.1118 89.2866 98.4576 88.3656 97.1522 88.3656C95.8469 88.3656 95.1397 89.3927 95.0712 90.5041H93.3421C93.3951 89.3553 93.8717 88.4343 94.3297 87.9223C94.7534 87.4447 95.6008 86.7734 97.0837 86.7734C99.5884 86.7734 100.878 88.4874 100.878 90.3262C100.878 91.3003 100.507 92.0932 100.031 92.8019C99.6071 93.4388 99.0588 94.0913 98.3548 94.9248L96.5198 97.1008H100.912V98.7617V98.7648Z" fill="#4C4948"/>
<path d="M102.482 92.7861H105.109V93.3918H102.482V92.7861Z" fill="#4C4948"/>
<path d="M105.915 89.9764C105.968 89.021 106.373 88.2093 106.922 87.6786C107.735 86.9012 108.722 86.7764 109.498 86.7764C110.398 86.7764 111.28 86.9543 112.04 87.7504C112.657 88.3873 112.888 89.1459 112.888 89.9951C112.888 90.5602 112.782 91.0565 112.483 91.5498C112.165 92.0618 111.76 92.3646 111.423 92.5395C112.025 92.7705 112.395 93.1764 112.588 93.4761C112.925 93.9724 113.084 94.6249 113.084 95.2961C113.084 96.4637 112.641 97.366 112.078 97.9311C111.23 98.7802 110.118 98.9582 109.202 98.9582C108.286 98.9582 107.333 98.7802 106.573 97.9685C106.043 97.4035 105.654 96.4669 105.566 95.5646H107.295C107.383 96.0954 107.632 96.5543 107.931 96.8384C108.177 97.0694 108.619 97.3691 109.361 97.3691C109.909 97.3691 110.42 97.1568 110.738 96.8727C111.074 96.5543 111.355 96.0048 111.355 95.2119C111.355 94.8216 111.283 94.2565 110.825 93.8163C110.314 93.32 109.679 93.2856 109.308 93.2856H108.956V91.7652H109.202C109.962 91.7652 110.436 91.5186 110.701 91.2532C110.984 90.9691 111.158 90.5289 111.158 89.9982C111.158 89.3801 110.894 89.0086 110.701 88.815C110.296 88.4248 109.8 88.3717 109.448 88.3717C109.024 88.3717 108.529 88.4435 108.143 88.8493C107.738 89.2739 107.647 89.9108 107.647 89.9795H105.918L105.915 89.9764Z" fill="#4C4948"/>
<path d="M121.143 94.101C121.103 94.4444 121.047 94.7472 120.978 95.0625H125.583C125.583 95.0625 125.57 95.4059 125.554 95.5652C125.377 97.457 125.199 98.2906 124.841 98.6621C124.579 98.9212 124.28 99.0055 123.869 99.0336C123.498 99.0773 122.829 99.0617 122.115 99.0336C122.087 98.6902 121.95 98.2313 121.772 97.916C122.43 97.9878 123.075 97.9878 123.321 97.9878C123.554 97.9878 123.676 97.9722 123.801 97.8723C123.978 97.6849 124.115 97.1854 124.24 96.1084H120.663C120.128 97.4414 119.103 98.4311 117.087 99.0773C116.978 98.7776 116.648 98.275 116.389 98.044C118.965 97.3134 119.607 95.9804 119.869 94.101H117.183C116.99 95.9086 116.498 97.8005 115.43 99.1616C115.252 98.89 114.744 98.3718 114.498 98.2157C115.937 96.3238 116.059 93.5702 116.059 91.491V86.9736H116.071C119.14 86.7863 122.729 86.4147 124.785 85.9121L125.757 86.9174C123.47 87.4481 120.249 87.7915 117.317 87.9632V88.5939H126.031V91.85H117.317C117.317 92.2215 117.305 92.6243 117.277 93.0395H121.221C121.084 92.7398 120.934 92.4089 120.769 92.1497L122.003 91.85C122.249 92.1934 122.47 92.6524 122.632 93.0395H126.935V94.101H121.14H121.143ZM117.321 89.6397V90.8011H124.788V89.6397H117.321Z" fill="#4C4948"/>
<path d="M39.0163 87.3133C39.0163 87.9377 38.4899 88.4653 37.8387 88.4653C37.1876 88.4653 36.6611 87.9377 36.6611 87.3133C36.6611 86.6889 37.1939 86.1613 37.8387 86.1613C38.4836 86.1613 39.0163 86.6827 39.0163 87.3133ZM38.4462 87.3133C38.4462 87.0261 38.2406 86.6889 37.8387 86.6889C37.4369 86.6889 37.2312 87.0261 37.2312 87.3133C37.2312 87.6005 37.4369 87.9377 37.8387 87.9377C38.2406 87.9377 38.4462 87.6005 38.4462 87.3133ZM40.6052 86.127L40.9479 86.3236L38.1596 91.1783L37.8169 90.966L40.6052 86.127ZM42.1037 89.9982C42.1037 90.6225 41.5772 91.1502 40.9261 91.1502C40.275 91.1502 39.7485 90.6225 39.7485 89.9982C39.7485 89.3738 40.2812 88.8462 40.9261 88.8462C41.571 88.8462 42.1037 89.3675 42.1037 89.9982ZM41.5336 89.9982C41.5336 89.7109 41.328 89.3738 40.9261 89.3738C40.5242 89.3738 40.3186 89.7109 40.3186 89.9982C40.3186 90.2854 40.5242 90.6225 40.9261 90.6225C41.328 90.6225 41.5336 90.2854 41.5336 89.9982Z" fill="#4C4948"/>
</g>
<defs>
<clipPath id="clip0_3_1997">
<rect width="141.992" height="98.8281" fill="white" transform="translate(0.765625 0.664062)"/>
</clipPath>
</defs>
</svg>
