<svg xmlns="http://www.w3.org/2000/svg" viewBox="0 0 261 287">
  <path fill="#faee00" d="M212.3,95.6h8.9v-14.6h-12.1v-11.9h-14.8v11.9h-13.1v-7.7L260.8,0H0l.4,239.7,45.4-41.8v.3h25v27.9h-26.4c-1.1,17.6,1.1,36.9,15.9,48,18.8,16.7,57.2,16.1,75.7-.1,18.7-14.4,22-46.1,5.8-63.6,21.7-27.4.2-67.8-33.5-70.1l18-16.6v11.5h15.1v-18.2h15v-.5l4.8,12c1.5-1.9,4.3-5.5,5.6-7.5v14.1h14.1v-14.3l5.4,8.2c2.7-3.1,5.5-6.4,7.7-10v16.1h14.8v-15.2c2.6,4.6,4.7,6.4,8.1,9.1l8.6-13.5c-5.8-5.1-9.8-10.9-13.5-20ZM94.2,234.2c2.6-.3,7.9.6,7.6.9.2-.3,1,4.6,0,5.2-.5,1.1-7.3,1-7.6-.4,0,0,0-5.4,0-5.6ZM100.5,186.6c0,.5,0,1.8-.4,2.3,0,.1-2.8.6-4.4.5v-4c.5-.5,4.3-.4,4.7,0,0,.2,0,.6,0,1.3ZM156.5,109.7v-6.7h-5.2c.1-2.8,4-6,6-7.7h8.1c-1.8,5-4.8,9.8-8.8,14.4ZM188.9,100.5c-1.7-1.5-4-3.2-7-5.2h1.6v.3h7.9c-.8,1.7-1.6,3.4-2.5,4.9Z"/>
  <path d="M51.2,87.7v-15.8h10.1v15.8h23.8v8.6h-23.1c2.9,13.2,12.4,22.1,25.3,28l-5.7,8.8c-11.8-7.2-19.9-14.7-25.4-28.7-4.2,14-11.3,20-23.9,28.2l-5.9-7.6c12.4-6.6,21.1-16,24.1-28.7h-21.8v-8.6h22.5,0ZM101.1,87.2v-14.5h8.1v14.5h6.4v8h-6.4v15.9c1.9-.4,3.7-.9,5.4-1.4v-3.4h15v-24.3h-13.5v-7.5h35.5v7.5h-13.5v24.3h15v7.5h-15v18.2h-8.6v-18.2h-13.2v3.6c-6.6,2.1-13.9,4-22,5.4l-1.6-8.8c2.8-.3,5.6-.7,8.3-1.3v-17.6h-7v-8h7ZM128.3,103.2l-7.8,2.1c-.6-5.9-1.9-12.3-3.8-19.2l6.7-1.8c2.4,6.8,4,13.1,5,18.9ZM152.4,85.6c-1.1,6.3-2.9,12.9-5.4,19.6l-8-2.3c2.7-5.6,4.7-12,6.2-19.4l7.2,2.1ZM170.2,84.3v-11.9h7.6v11.9h6.7v7.8h-6.7v4.5c4.4,2.7,7.7,5.1,9.8,7.2l-4.6,7.5c-1.5-2-3.2-4-5.2-6v26.7h-7.6v-23.9c-2.1,5.2-4.8,9.9-8,14l-3.9-9.6c5.8-6.4,9.6-13.2,11.3-20.5h-9.3v-7.8h9.8ZM197.5,84.3v-11.9h8.3v11.9h12.1v8h-10.3c3.7,10.6,8.3,18.5,14,23.8l-5.2,8.1c-2.6-2.1-5.4-6.9-8.6-14.2-.7-1.6-1.4-3.2-2-4.8v26.9h-8.3v-26.1c-3.1,7.2-6.6,13.1-10.7,17.8l-5.4-8.3c5.6-4.6,10.7-12.3,15.1-23.1h-9.6v-8h10.7ZM33.3,38.3v14.1h-3.7v-14.1h-5.4v-3.3h14.4v3.3h-5.4ZM47.3,52.5v-.6c-8.9,4.3-10.3-9.1-.2-7.6,0-1.7-2.9-1.6-3.1-.3h-3.7c0-5.5,11-5.7,10.5.4,0,2.4-.2,5.7.4,8.1h-3.8ZM43.7,48.7c.4,2.2,3.8.9,3.5-1.6-2.3,0-3.5.5-3.5,1.6h0ZM67.8,45.8h-1.5v6.6h-3.7v-17.4h5c10.4-.8,10.5,11.6,0,10.8h0ZM68.6,38.3h-2.3v4.2h2.3c4.1.3,4-4.4,0-4.2ZM79.2,38.5v-3.5h3.6v3.5h-3.6ZM79.2,52.4v-12.4h3.6v12.4h-3.6ZM94.2,52.4v-7.2c.2-2.9-4.1-2.6-3.8.2v7h-3.6c0-2.9.2-9.2-.3-12.2h3.7v.7c3.3-2.6,8-.1,7.6,4.2v7.4h-3.6,0ZM111.7,49c0,9.1-10.4,8.4-11.6,3h3.5c.9,1.6,4.8,1.1,4.6-1.4-11.4,5.8-10.9-15.8,0-9.6v-.8h3.8c-.2,1.2-.3,8.8-.3,8.8ZM107.4,43.9c-2.5-2.4-5.5,1.4-3.5,3.8,2.5,2.3,5.7-1.3,3.5-3.8ZM115.6,52.4v-17.4h3.6v17.4h-3.6ZM124.5,38.5v-3.5h3.6v3.5h-3.6ZM124.5,52.4v-12.4h3.6v12.4h-3.6ZM139.5,52.4v-7.2c.2-2.9-4.1-2.6-3.8.2v7h-3.6c0-5.7.2-9.2-.4-12.2h3.7v.7c3.3-2.6,8-.1,7.6,4.2v7.4h-3.6,0ZM84.1,202.8c7.2-.2,20.9,1.4,25.5-4.4,5.5-5.1,5.9-17.8,0-22.7-8-7.7-27.7-4-27.3,9.2h-23.2c-.7-32.6,47.7-40.2,67.4-23,16.1,12.6,13.3,42-7.2,49.6,23.1,6.6,25.7,38.8,8.2,52.3-21.4,18.2-71.1,10.1-69.8-24.3h23.2c-.5,14.8,21.1,19.2,30.1,10.6,10.5-11.3,3.2-30.9-14.6-29.1,0,0-12.3,0-12.3,0v-18.1h0Z"/>
</svg>