<svg xmlns="http://www.w3.org/2000/svg" viewBox="0 0 759 230" fill="#0001">
  <path d="M37.6,15v69.5h-15.9V15H.5V1.2h58.4v13.8h-21.2ZM130.3,84.5h-15.8v-35.2h-27.6v35.2h-15.8V1.2h15.8v34.3h27.6V1.2h15.8v83.3ZM162.9,35.6h31.6v13.8h-31.6v21.4h37v13.8h-52.9V1.2h52.9v13.8h-37v20.6ZM258.2,59.1c-.7,16.4,28.3,17,28.3,1.6s-41.5-2-41.5-35.6,55.6-33.7,55.6-.2h-15.2c0-15.5-25.3-15.7-25.3,0s41.9.7,41.9,34.5-58.9,32.8-58.9-.2h15ZM473.2,59.1c-.7,16.4,28.3,17,28.3,1.6s-41.5-2-41.5-35.6,55.6-33.7,55.6-.2h-15.2c0-15.5-25.3-15.7-25.3,0s41.9.7,41.9,34.5-58.9,32.8-58.9-.2h15ZM331.7,35.6h31.6v13.8h-31.6v21.4h37v13.8h-52.9V1.2h52.9v13.8h-37v20.6ZM444.9,84.5h-15.8l-30.6-52v52h-15.8V1.2h15.8l30.6,52.1V1.2h15.8v83.3ZM546.6,35.6h31.6v13.8h-31.6v21.4h37v13.8h-52.9V1.2h52.9v13.8h-37v20.6ZM630,33.2c0-44,60.4-43.9,60.3,0v19.1c0,44.1-60.3,44.2-60.3,0v-19.1h0ZM674.6,52v-18c-.4-26.6-28-27.2-28.6,0v18c.5,26,28.1,25.5,28.6,0ZM721.6,36.3h31.7v13.8h-31.7v34.4h-15.8V1.2h52.9v13.8h-37v21.3ZM31.4,195.5v33.8h-15.8v-83.3h31.6c32.3,0,34,38.7,11.9,47.1l18.1,36.2h-18.2l-15.8-33.8h-11.8,0ZM46.3,182.3c16.2,0,16.2-22.6,0-22.6h-15v22.6h15ZM102.7,146v83.3h-15.8v-83.3h15.8ZM148,159.8v69.5h-15.9v-69.5h-21.2v-13.8h58.4v13.8h-21.3ZM177.2,201.8v-55.7h15.8v55.3c0,20.1,28.1,20.1,28.1,0v-55.3h15.9v55.7c0,37.4-59.8,37.4-59.8,0ZM262.8,213.1l-5.1,16.2h-16.7l29.6-83.3h12.9l29.7,83.3h-16.8l-5.1-16.2h-28.6ZM277,168l-10,32h20.1l-10.1-32h0ZM336.9,146v69.5h36.4v13.8h-52.3v-83.3h15.8ZM427.5,146v83.3h-15.8v-83.3h15.8ZM502.5,229.3h-15.8l-30.6-52v52h-15.8v-83.3h15.8l30.6,52.1v-52.1h15.8v83.3ZM560.2,146v69.5h36.4v13.8h-52.3v-83.3h15.8ZM621.7,146v83.3h-15.8v-83.3h15.8ZM682,181.1v13.8h-31.7v34.4h-15.8v-83.3h52.9v13.8h-37v21.4h31.7ZM743.9,180.4v13.8h-31.6v21.4h37v13.8h-52.9v-83.3h52.9v13.8h-37v20.6h31.6Z"/>
</svg>