<svg width="26" height="442" viewBox="0 0 26 442" fill="none" xmlns="http://www.w3.org/2000/svg">
<path d="M13.9686 2.61612V13.2259H11.6109V2.61612H0.290527V0H25.0145V15.0185H22.6567V2.61612H13.9848H13.9686Z" fill="#C8C9CA"/>
<path d="M9.46325 20.4126H15.8744C19.1526 20.4126 21.5426 21.1877 23.0606 22.738C24.5786 24.2883 25.3376 26.3877 25.3376 29.0038C25.3376 31.6199 24.5786 33.687 23.0606 35.2211C21.5426 36.7553 19.1526 37.5304 15.8744 37.5304H9.46325C6.18503 37.5304 3.79499 36.7553 2.27699 35.205C0.758998 33.6547 0 31.5715 0 28.9715C0 26.3715 0.758998 24.256 2.27699 22.7219C3.79499 21.1877 6.18503 20.4126 9.46325 20.4126ZM15.7613 34.9305C20.5575 34.9305 22.9637 32.9603 22.9637 29.02C22.9637 27.0336 22.3985 25.5479 21.2681 24.5467C20.1377 23.5455 18.2967 23.0449 15.7613 23.0449H9.31791C6.91173 23.0449 5.1515 23.5455 4.05337 24.5629C2.95525 25.5802 2.40619 27.0659 2.40619 29.02C2.40619 32.9603 4.71548 34.9305 9.31791 34.9305H15.7613Z" fill="#C8C9CA"/>
<path d="M11.1426 46.9931H0.290527V44.377H25.0145V53.5495C25.0145 55.875 24.417 57.6836 23.2058 59.0079C21.9946 60.3321 20.2829 60.9942 18.0705 60.9942C16.3102 60.9942 14.8407 60.5259 13.6941 59.5892C12.5475 58.6526 11.7885 57.3607 11.401 55.6812L0.290527 61.5432V58.5395L11.1426 52.952V47.0092V46.9931ZM13.4034 53.3396C13.4034 54.9383 13.8072 56.1818 14.5984 57.07C15.4059 57.9582 16.5363 58.3942 18.022 58.3942C19.5077 58.3942 20.7027 57.9582 21.4779 57.0861C22.253 56.2141 22.6406 54.9706 22.6406 53.3396V46.9931H13.4034V53.3396Z" fill="#C8C9CA"/>
<path d="M22.6406 83.8933H0.290527V81.3095H22.6406V74.2524H24.9983V90.9504H22.6406V83.8933Z" fill="#C8C9CA"/>
<path d="M0.290527 112.509V109.893H11.7562V98.3144H0.290527V95.6982H25.0145V98.3144H14.1301V109.893H25.0145V112.509H0.290527Z" fill="#C8C9CA"/>
<path d="M14.0494 122.473V133.083H11.6916V122.473H2.64827V134.875H0.290527V119.857H25.0145V134.875H22.6567V122.473H14.0494Z" fill="#C8C9CA"/>
<path d="M0.290527 168.466V165.849L20.2183 153.059H0.290527V150.443H25.0145V153.059L5.16749 165.849H25.0145V168.466H0.290527Z" fill="#C8C9CA"/>
<path d="M14.0494 178.413V189.023H11.6916V178.413H2.64827V190.815H0.290527V175.797H25.0145V190.815H22.6567V178.413H14.0494Z" fill="#C8C9CA"/>
<path d="M0.290527 216.218V213.892L21.7524 208.418L0.290527 203.056V200.731L25.0145 194.384V196.936L4.52154 201.958L25.0145 206.803V210.129L4.52154 215.152L25.0145 219.996V222.435L0.290527 216.234V216.218Z" fill="#C8C9CA"/>
<path d="M9.46325 236.016H15.8744C19.1526 236.016 21.5426 236.791 23.0606 238.357C24.5786 239.924 25.3376 242.023 25.3376 244.639C25.3376 246.335 25.0308 247.821 24.401 249.08C23.7873 250.34 22.8991 251.325 21.7687 252.019C20.6383 252.714 19.3302 253.053 17.8445 253.053H17.6992V250.437H17.8445C19.4271 250.437 20.6706 249.92 21.5911 248.887C22.5116 247.853 22.9637 246.448 22.9637 244.672C22.9637 242.685 22.3985 241.184 21.2681 240.166C20.1377 239.133 18.2967 238.632 15.7613 238.632H9.31791C4.71548 238.632 2.40619 240.667 2.40619 244.72C2.40619 246.61 2.92295 248.047 3.94033 249.032C4.97386 250.017 6.6049 250.518 8.84959 250.518H10.7552V244.607H13.016V253.134H9.31791C6.07198 253.134 3.6981 252.375 2.22855 250.841C0.742849 249.306 0 247.239 0 244.639C0 242.039 0.758998 239.924 2.27699 238.357C3.79499 236.791 6.18503 236.016 9.46325 236.016Z" fill="#C8C9CA"/>
<path d="M14.0494 262.597V273.207H11.6916V262.597H2.64827V274.999H0.290527V259.981H25.0145V274.999H22.6567V262.597H14.0494Z" fill="#C8C9CA"/>
<path d="M0.290527 299.207V296.591L20.2183 283.801H0.290527V281.185H25.0145V283.801L5.16749 296.591H25.0145V299.207H0.290527Z" fill="#C8C9CA"/>
<path d="M14.0494 309.154V319.764H11.6916V309.154H2.64827V321.557H0.290527V306.538H25.0145V321.557H22.6567V309.154H14.0494Z" fill="#C8C9CA"/>
<path d="M11.1426 330.358H0.290527V327.742H25.0145V336.914C25.0145 339.24 24.417 341.048 23.2058 342.373C21.9946 343.697 20.2829 344.359 18.0705 344.359C16.3102 344.359 14.8407 343.891 13.6941 342.954C12.5475 342.017 11.7885 340.725 11.401 339.046L0.290527 344.892V341.888L11.1426 336.301V330.358ZM13.4034 336.704C13.4034 338.303 13.8072 339.547 14.5984 340.435C15.4059 341.323 16.5363 341.759 18.022 341.759C19.5077 341.759 20.7027 341.323 21.4779 340.451C22.253 339.579 22.6406 338.335 22.6406 336.704V330.358H13.4034V336.704Z" fill="#C8C9CA"/>
<path d="M6.23332 353.031L0.290527 350.948V348.186L25.0145 357.181V359.361L0.290527 368.372V365.611L6.23332 363.527V353.031ZM21.3487 358.263L8.44572 353.79V362.785L21.3487 358.263Z" fill="#C8C9CA"/>
<path d="M22.6406 377.4H0.290527V374.816H22.6406V367.759H24.9983V384.457H22.6406V377.4Z" fill="#C8C9CA"/>
<path d="M25.0145 392.111H0.290527V389.495H25.0145V392.111Z" fill="#C8C9CA"/>
<path d="M9.46325 399.249H15.8744C19.1526 399.249 21.5426 400.024 23.0606 401.574C24.5786 403.125 25.3376 405.224 25.3376 407.84C25.3376 410.456 24.5786 412.523 23.0606 414.058C21.5426 415.592 19.1526 416.367 15.8744 416.367H9.46325C6.18503 416.367 3.79499 415.592 2.27699 414.041C0.758998 412.491 0 410.408 0 407.808C0 405.208 0.758998 403.092 2.27699 401.558C3.79499 400.024 6.18503 399.249 9.46325 399.249ZM15.7613 413.751C20.5575 413.751 22.9637 411.781 22.9637 407.84C22.9637 405.854 22.3985 404.368 21.2681 403.367C20.1377 402.366 18.2967 401.865 15.7613 401.865H9.31791C6.91173 401.865 5.1515 402.366 4.05337 403.383C2.95525 404.401 2.40619 405.886 2.40619 407.84C2.40619 411.781 4.71548 413.751 9.31791 413.751H15.7613Z" fill="#C8C9CA"/>
<path d="M0.290527 441.22V438.604L20.2183 425.814H0.290527V423.198H25.0145V425.814L5.16749 438.604H25.0145V441.22H0.290527Z" fill="#C8C9CA"/>
</svg>
