<svg width="759" height="230" viewBox="0 0 759 230" fill="none" xmlns="http://www.w3.org/2000/svg">
<g style="mix-blend-mode:multiply">
<path d="M37.6354 14.9578V84.4695H21.7149V14.9578H0.463867V1.2124H58.8686V14.9757H37.6354V14.9578Z" fill="#EEEEEF"/>
<path d="M130.288 84.4695H114.474V49.2234H86.8408V84.4695H71.0273V1.2124H86.8408V35.478H114.474V1.2124H130.288V84.4695Z" fill="#EEEEEF"/>
<path d="M162.86 35.6028H194.47V49.366H162.86V70.7241H199.907V84.4873H147.047V1.2124H199.907V14.9757H162.86V35.6028Z" fill="#EEEEEF"/>
<path d="M243.211 59.1357H258.169C258.739 63.7175 260.201 66.9623 262.572 68.852C264.943 70.7418 268.473 71.6867 273.126 71.6867C282.058 71.6867 286.515 68.0319 286.515 60.7046C286.515 57.4064 285.624 54.8927 283.859 53.1633C282.094 51.434 279.277 50.2395 275.408 49.5977L267.564 48.2784C252.517 45.7825 244.994 38.0629 244.994 25.1019C244.994 17.3824 247.543 11.2673 252.66 6.75684C257.776 2.24634 264.551 0 273.002 0C281.452 0 287.71 2.17503 292.488 6.50725C297.266 10.8573 299.993 16.9723 300.635 24.8523H285.428C285.196 20.8232 284.019 17.8994 281.934 16.0453C279.848 14.1911 276.781 13.2641 272.77 13.2641C268.759 13.2641 265.567 14.209 263.481 16.0988C261.396 17.9885 260.344 20.5914 260.344 23.8896C260.344 26.7778 261.271 29.0776 263.125 30.7713C264.979 32.4649 267.867 33.6594 271.807 34.3904L280.614 35.9592C294.93 38.5265 302.097 46.3352 302.097 59.3675C302.097 67.7289 299.423 74.1292 294.074 78.5505C288.726 82.9719 281.506 85.1825 272.413 85.1825C263.321 85.1825 256.529 82.954 251.537 78.4792C246.545 74.0222 243.781 67.5506 243.211 59.1179V59.1357Z" fill="#EEEEEF"/>
<path d="M331.656 35.6028H363.265V49.366H331.656V70.7241H368.703V84.4873H315.842V1.2124H368.703V14.9757H331.656V35.6028Z" fill="#EEEEEF"/>
<path d="M444.936 84.4695H429.122L398.476 32.465V84.4695H382.662V1.2124H398.476L429.122 53.3417V1.2124H444.936V84.4695Z" fill="#EEEEEF"/>
<path d="M458.199 59.1357H473.157C473.727 63.7175 475.189 66.9623 477.56 68.852C479.932 70.7418 483.462 71.6867 488.115 71.6867C497.047 71.6867 501.504 68.0319 501.504 60.7046C501.504 57.4064 500.612 54.8927 498.847 53.1633C497.082 51.434 494.265 50.2395 490.397 49.5977L482.552 48.2784C467.505 45.7825 459.982 38.0629 459.982 25.1019C459.982 17.3824 462.531 11.2673 467.648 6.75684C472.765 2.24634 479.539 0 487.99 0C496.44 0 502.698 2.17503 507.476 6.50725C512.254 10.8573 514.982 16.9723 515.623 24.8523H500.416C500.184 20.8232 499.008 17.8994 496.922 16.0453C494.836 14.1911 491.769 13.2641 487.758 13.2641C483.747 13.2641 480.556 14.209 478.47 16.0988C476.384 17.9885 475.332 20.5914 475.332 23.8896C475.332 26.7778 476.259 29.0776 478.113 30.7713C479.967 32.4649 482.855 33.6594 486.795 34.3904L495.603 35.9592C509.918 38.5265 517.085 46.3352 517.085 59.3675C517.085 67.7289 514.411 74.1292 509.063 78.5505C503.714 82.9719 496.494 85.1825 487.402 85.1825C478.309 85.1825 471.517 82.954 466.525 78.4792C461.533 74.0222 458.77 67.5506 458.199 59.1179V59.1357Z" fill="#EEEEEF"/>
<path d="M546.646 35.6028H578.255V49.366H546.646V70.7241H583.692V84.4873H530.832V1.2124H583.692V14.9757H546.646V35.6028Z" fill="#EEEEEF"/>
<path d="M630.026 33.1781C630.026 11.0534 640.117 0 660.316 0C669.569 0 676.896 2.6029 682.28 7.79087C687.665 12.9788 690.374 21.4472 690.374 33.1959V52.2541C690.374 64.0028 687.611 72.4711 682.102 77.6591C676.593 82.8471 669.177 85.45 659.835 85.45C639.957 85.45 630.026 74.3966 630.026 52.2719V33.2137V33.1781ZM674.561 52.0045V34.016C674.561 26.9382 673.402 21.8037 671.067 18.6303C668.731 15.4569 665.148 13.8702 660.334 13.8702C655.271 13.8702 651.598 15.4213 649.352 18.5234C647.106 21.6255 645.965 26.7956 645.965 34.0338V52.0223C645.965 58.8683 647.088 63.7889 649.352 66.8018C651.598 69.8148 655.271 71.3301 660.334 71.3301C665.397 71.3301 668.749 69.7791 671.067 66.677C673.384 63.5749 674.561 58.69 674.561 52.0223V52.0045Z" fill="#EEEEEF"/>
<path d="M721.646 36.3159H753.38V50.0792H721.646V84.4695H705.832V1.2124H758.692V14.9757H721.646V36.3337V36.3159Z" fill="#EEEEEF"/>
<path d="M31.3594 195.485V229.269H15.5459V146.012H47.1551C55.2847 146.012 61.7563 148.241 66.5877 152.716C71.4191 157.173 73.8259 163.234 73.8259 170.882C73.8259 176.356 72.5601 180.973 70.0285 184.753C67.4969 188.532 63.86 191.313 59.0999 193.078L77.1954 229.287H58.9751L43.1616 195.503H31.3416L31.3594 195.485ZM46.3172 182.328C50.0254 182.328 52.8957 181.347 54.9459 179.369C56.9962 177.39 58.0302 174.555 58.0302 170.865C58.0302 167.477 56.9783 164.785 54.8925 162.771C52.8066 160.756 49.9541 159.758 46.3172 159.758H31.3594V182.328H46.3172Z" fill="#EEEEEF"/>
<path d="M102.672 146.012V229.269H86.8589V146.012H102.672Z" fill="#EEEEEF"/>
<path d="M147.973 159.758V229.27H132.053V159.758H110.819V145.995H169.224V159.758H147.991H147.973Z" fill="#EEEEEF"/>
<path d="M181.026 216.415C178.459 212.119 177.158 207.216 177.158 201.761V146.012H192.971V201.279C192.971 206.022 194.219 209.712 196.715 212.315C199.211 214.936 202.634 216.237 206.966 216.237C211.298 216.237 214.757 214.936 217.289 212.315C219.82 209.694 221.086 206.022 221.086 201.279V146.012H237.007V201.761C237.007 207.234 235.705 212.119 233.084 216.415C230.464 220.712 226.898 224.064 222.352 226.435C217.806 228.806 212.671 230 206.966 230C201.261 230 196.252 228.806 191.705 226.435C187.159 224.064 183.594 220.73 181.026 216.415Z" fill="#EEEEEF"/>
<path d="M262.75 213.099L257.687 229.269H241.036L270.595 146.012H283.502L313.186 229.269H296.41L291.346 213.099H262.75ZM276.995 167.976L266.976 199.96H287.121L276.977 167.976H276.995Z" fill="#EEEEEF"/>
<path d="M336.897 146.012V215.524H373.338V229.287H321.083V146.03H336.897V146.012Z" fill="#EEEEEF"/>
<path d="M427.517 146.012V229.269H411.703V146.012H427.517Z" fill="#EEEEEF"/>
<path d="M502.52 229.269H486.706L456.06 177.265V229.269H440.246V146.012H456.06L486.706 198.142V146.012H502.52V229.269Z" fill="#EEEEEF"/>
<path d="M560.194 146.012V215.524H596.635V229.287H544.381V146.03H560.194V146.012Z" fill="#EEEEEF"/>
<path d="M621.701 146.012V229.269H605.888V146.012H621.701Z" fill="#EEEEEF"/>
<path d="M650.226 181.116H681.96V194.879H650.226V229.269H634.412V146.012H687.272V159.775H650.226V181.134V181.116Z" fill="#EEEEEF"/>
<path d="M712.338 180.403H743.947V194.166H712.338V215.524H749.385V229.287H696.524V146.03H749.385V159.794H712.338V180.421V180.403Z" fill="#EEEEEF"/>
</g>
</svg>
