<svg xmlns="http://www.w3.org/2000/svg" fill="#0002" viewBox="0 0 26 442">
  <path d="M14,2.6v10.6h-2.4V2.6H.3V0h24.7v15h-2.4V2.6h-8.7ZM9.5,20.4h6.4c3.3,0,5.7.8,7.2,2.3,1.5,1.6,2.3,3.6,2.3,6.3s-.8,4.7-2.3,6.2c-1.5,1.5-3.9,2.3-7.2,2.3h-6.4c-3.3,0-5.7-.8-7.2-2.3-1.5-1.6-2.3-3.6-2.3-6.2s.8-4.7,2.3-6.2c1.5-1.5,3.9-2.3,7.2-2.3ZM15.8,34.9c4.8,0,7.2-2,7.2-5.9s-.6-3.5-1.7-4.5c-1.1-1-3-1.5-5.5-1.5h-6.4c-2.4,0-4.2.5-5.3,1.5-1.1,1-1.6,2.5-1.6,4.5,0,3.9,2.3,5.9,6.9,5.9h6.4ZM11.1,47H.3v-2.6h24.7v9.2c0,2.3-.6,4.1-1.8,5.5-1.2,1.3-2.9,2-5.1,2s-3.2-.5-4.4-1.4c-1.1-.9-1.9-2.2-2.3-3.9L.3,61.5v-3l10.9-5.6v-5.9h0ZM13.4,53.3c0,1.6.4,2.8,1.2,3.7.8.9,1.9,1.3,3.4,1.3s2.7-.4,3.5-1.3c.8-.9,1.2-2.1,1.2-3.7v-6.3h-9.2v6.3ZM22.6,83.9H.3v-2.6h22.4v-7.1h2.4v16.7h-2.4v-7.1ZM.3,112.5v-2.6h11.5v-11.6H.3v-2.6h24.7v2.6h-10.9v11.6h10.9v2.6H.3ZM14,122.5v10.6h-2.4v-10.6H2.6v12.4H.3v-15h24.7v15h-2.4v-12.4h-8.6ZM.3,168.5v-2.6l19.9-12.8H.3v-2.6h24.7v2.6l-19.8,12.8h19.8v2.6H.3ZM14,178.4v10.6h-2.4v-10.6H2.6v12.4H.3v-15h24.7v15h-2.4v-12.4h-8.6ZM.3,216.2v-2.3l21.5-5.5L.3,203.1v-2.3l24.7-6.3v2.6l-20.5,5,20.5,4.8v3.3l-20.5,5,20.5,4.8v2.4L.3,216.2H.3ZM9.5,236h6.4c3.3,0,5.7.8,7.2,2.3,1.5,1.6,2.3,3.7,2.3,6.3s-.3,3.2-.9,4.4c-.6,1.3-1.5,2.2-2.6,2.9-1.1.7-2.4,1-3.9,1h-.1v-2.6h.1c1.6,0,2.8-.5,3.7-1.6.9-1,1.4-2.4,1.4-4.2s-.6-3.5-1.7-4.5c-1.1-1-3-1.5-5.5-1.5h-6.4c-4.6,0-6.9,2-6.9,6.1s.5,3.3,1.5,4.3c1,1,2.7,1.5,4.9,1.5h1.9v-5.9h2.3v8.5h-3.7c-3.2,0-5.6-.8-7.1-2.3-1.5-1.5-2.2-3.6-2.2-6.2s.8-4.7,2.3-6.3c1.5-1.6,3.9-2.3,7.2-2.3ZM14,262.6v10.6h-2.4v-10.6H2.6v12.4H.3v-15h24.7v15h-2.4v-12.4h-8.6ZM.3,299.2v-2.6l19.9-12.8H.3v-2.6h24.7v2.6l-19.8,12.8h19.8v2.6H.3ZM14,309.2v10.6h-2.4v-10.6H2.6v12.4H.3v-15h24.7v15h-2.4v-12.4h-8.6ZM11.1,330.4H.3v-2.6h24.7v9.2c0,2.3-.6,4.1-1.8,5.5-1.2,1.3-2.9,2-5.1,2s-3.2-.5-4.4-1.4c-1.1-.9-1.9-2.2-2.3-3.9l-11.1,5.8v-3l10.9-5.6v-5.9ZM13.4,336.7c0,1.6.4,2.8,1.2,3.7.8.9,1.9,1.3,3.4,1.3s2.7-.4,3.5-1.3c.8-.9,1.2-2.1,1.2-3.7v-6.3h-9.2v6.3ZM6.2,353l-5.9-2.1v-2.8l24.7,9v2.2L.3,368.4v-2.8l5.9-2.1v-10.5ZM21.3,358.3l-12.9-4.5v9l12.9-4.5ZM22.6,377.4H.3v-2.6h22.4v-7.1h2.4v16.7h-2.4v-7.1ZM25,392.1H.3v-2.6h24.7v2.6ZM9.5,399.2h6.4c3.3,0,5.7.8,7.2,2.3,1.5,1.6,2.3,3.6,2.3,6.3s-.8,4.7-2.3,6.2c-1.5,1.5-3.9,2.3-7.2,2.3h-6.4c-3.3,0-5.7-.8-7.2-2.3-1.5-1.5-2.3-3.6-2.3-6.2s.8-4.7,2.3-6.2c1.5-1.5,3.9-2.3,7.2-2.3ZM15.8,413.8c4.8,0,7.2-2,7.2-5.9s-.6-3.5-1.7-4.5c-1.1-1-3-1.5-5.5-1.5h-6.4c-2.4,0-4.2.5-5.3,1.5-1.1,1-1.6,2.5-1.6,4.5,0,3.9,2.3,5.9,6.9,5.9h6.4ZM.3,441.2v-2.6l19.9-12.8H.3v-2.6h24.7v2.6l-19.8,12.8h19.8v2.6H.3Z"/>
</svg>