<svg width="688" height="142" viewBox="0 0 688 142" fill="none" xmlns="http://www.w3.org/2000/svg">
<g clip-path="url(#clip0_17_4209)">
<path d="M0 138.2H687.9" stroke="#493024" stroke-width="0.52" stroke-miterlimit="10"/>
<path d="M16.88 110.17L6.20998 141.32H2.74998L13.56 110.17H0.22998V106.88H16.88V110.17Z" fill="#493024"/>
<path d="M25.96 119.86V124.45H21.79V119.86H25.96ZM25.96 136.73V141.32H21.79V136.73H25.96Z" fill="#493024"/>
<path d="M32.8701 133.59V132.79H36.3301V133.44C36.3301 135.04 36.8001 136.29 37.7301 137.21C38.6601 138.13 39.9201 138.58 41.5001 138.58C43.1801 138.58 44.4901 138.04 45.4401 136.96C46.3901 135.88 46.8601 134.42 46.8601 132.59V131.29C46.8601 129.39 46.3601 127.89 45.3701 126.77C44.3701 125.66 43.0101 125.1 41.2701 125.1H39.5601V121.8H41.2201C42.8001 121.8 44.0501 121.28 44.9701 120.23C45.8901 119.18 46.3401 117.81 46.3401 116.11V115.11C46.3401 113.45 45.9001 112.11 45.0101 111.12C44.1301 110.12 42.9201 109.62 41.4101 109.62C39.9001 109.62 38.7101 110.09 37.8501 111.02C37.0001 111.95 36.5701 113.2 36.5701 114.76V115.56H33.2501V114.66C33.2501 112.13 33.9901 110.12 35.4601 108.62C36.9301 107.12 38.9501 106.37 41.5101 106.37C44.0701 106.37 46.0501 107.14 47.5301 108.69C49.0201 110.24 49.7601 112.31 49.7601 114.91V116.01C49.7601 117.67 49.3801 119.12 48.6201 120.35C47.8601 121.58 46.8701 122.5 45.6301 123.1C47.1501 123.7 48.3101 124.71 49.1201 126.12C49.9301 127.53 50.3301 129.22 50.3301 131.19V132.39C50.3301 135.25 49.5201 137.54 47.8901 139.26C46.2601 140.97 44.1201 141.83 41.4601 141.83C38.8001 141.83 36.7501 141.09 35.2001 139.61C33.6501 138.13 32.8801 136.12 32.8801 133.59H32.8701Z" fill="#493024"/>
<path d="M57.8301 117.21C57.8301 109.99 60.6801 106.38 66.3701 106.38C72.0601 106.38 74.9501 109.99 74.9501 117.21V130.79C74.9501 138.15 72.0901 141.82 66.3701 141.82C60.6501 141.82 57.8301 138.14 57.8301 130.79V117.21ZM71.4901 130.09V118.11C71.4901 115.08 71.0901 112.92 70.3001 111.62C69.5101 110.32 68.2001 109.67 66.3601 109.67C64.5201 109.67 63.2201 110.32 62.4501 111.62C61.6801 112.92 61.2901 115.08 61.2901 118.11V130.09C61.2901 133.12 61.6801 135.28 62.4501 136.58C63.2201 137.88 64.5301 138.53 66.3601 138.53C68.1901 138.53 69.5101 137.88 70.3001 136.58C71.0901 135.28 71.4901 133.12 71.4901 130.09Z" fill="#493024"/>
<path d="M99.6098 124.1V141.32H96.4298V138.62C95.6998 139.65 94.7998 140.41 93.7298 140.89C92.6498 141.37 91.3398 141.61 89.7898 141.61C87.2598 141.61 85.2998 140.98 83.9098 139.71C82.5198 138.45 81.8198 136.6 81.8198 134.17C81.8198 131.91 82.5198 130.13 83.9298 128.85C85.3398 127.57 87.3198 126.93 89.8798 126.93H96.3798V124.03C96.3798 122.2 95.9098 120.82 94.9598 119.89C94.0098 118.96 92.6698 118.49 90.9298 118.49C89.2898 118.49 87.9998 118.88 87.0698 119.66C86.1398 120.44 85.6698 121.52 85.6698 122.88V123.03H82.5398V122.78C82.5398 120.62 83.2798 118.89 84.7698 117.59C86.2598 116.29 88.2998 115.64 90.8898 115.64C93.6998 115.64 95.8598 116.36 97.3598 117.79C98.8598 119.22 99.6098 121.32 99.6098 124.08V124.1ZM96.3898 132.74V129.44H90.3698C86.8298 129.44 85.0598 131 85.0598 134.13C85.0598 137.26 86.8098 138.87 90.3198 138.87C92.4398 138.87 93.9798 138.36 94.9398 137.35C95.8998 136.33 96.3898 134.8 96.3898 132.73V132.74Z" fill="#493024"/>
<path d="M110.91 116.01V119.11C111.61 118.01 112.51 117.17 113.64 116.59C114.76 116.01 116.02 115.72 117.41 115.72C119.05 115.72 120.46 116.09 121.63 116.82C122.8 117.55 123.7 118.6 124.33 119.97C125.91 117.14 128.35 115.73 131.63 115.73C134.19 115.73 136.18 116.52 137.61 118.1C139.03 119.68 139.74 121.89 139.74 124.72V141.35H136.52V125.22C136.52 123.12 136.04 121.53 135.07 120.43C134.11 119.33 132.75 118.78 131.02 118.78C129.29 118.78 127.87 119.34 126.87 120.45C125.87 121.57 125.38 123.1 125.38 125.07V141.35H122.11V125.22C122.11 123.12 121.63 121.53 120.66 120.43C119.7 119.33 118.34 118.78 116.61 118.78C114.88 118.78 113.54 119.34 112.51 120.45C111.48 121.57 110.97 123.15 110.97 125.22V141.35H107.75V116.04H110.93L110.91 116.01Z" fill="#493024"/>
<path d="M173.23 104.63L177.21 105.2C177.39 109.19 177.69 112.43 178.1 114.93C178.51 117.43 179.13 119.85 179.96 122.21C180.81 124.54 181.88 126.61 183.17 128.4C184.48 130.19 186.11 131.85 188.04 133.36C190 134.88 192.29 136.21 194.92 137.35L194.84 137.8C192.88 138.18 191.66 139.41 191.17 141.5C188.72 140.12 186.62 138.47 184.87 136.58C183.12 134.68 181.71 132.52 180.66 130.11C179.6 127.7 178.79 125.19 178.22 122.58C177.65 119.95 177.23 116.95 176.94 113.59C176.81 115.44 176.62 117.14 176.36 118.72C176.1 120.27 175.72 121.93 175.2 123.73C174.71 125.49 174.03 127.15 173.15 128.69C172.27 130.23 171.22 131.78 169.98 133.33C168.77 134.85 167.25 136.31 165.42 137.72C163.62 139.13 161.55 140.43 159.23 141.63L158.77 141.02C160.34 139.91 161.77 138.73 163.06 137.48C164.35 136.21 165.46 134.98 166.38 133.82C167.33 132.65 168.17 131.36 168.89 129.95C169.61 128.51 170.2 127.22 170.67 126.08C171.16 124.91 171.57 123.54 171.91 121.97C172.24 120.4 172.49 119.05 172.65 117.94C172.83 116.8 172.96 115.39 173.04 113.71C173.14 112.03 173.2 110.67 173.2 109.64C173.23 108.58 173.24 107.17 173.24 105.41V104.64L173.23 104.63Z" fill="#493024"/>
<path d="M233.82 113.91H227.29C225.56 120.67 222.6 126.24 218.4 130.64C222.57 133.95 227.78 136.38 234.02 137.92L233.94 138.41C232.03 138.63 230.69 139.73 229.92 141.71C224.15 139.7 219.47 136.8 215.89 133C211.33 136.88 205.49 139.76 198.38 141.63L198.15 141.14C204.75 138.56 210.04 135.13 214.04 130.84C210.54 126.39 208.12 120.75 206.81 113.91H198.73L198.42 112.73H214.16V103.98L217.95 104.47V112.73H233.84V113.91H233.82ZM222.69 113.91H207.61C209.16 119.77 211.95 124.65 216 128.56C219.27 124.38 221.5 119.5 222.69 113.91Z" fill="#493024"/>
<path d="M253.38 113.87V115.66C252.74 121.76 251.59 126.55 249.94 130.03C252.36 131.79 253.74 133.69 254.08 135.73C254.29 137.06 254 137.96 253.23 138.42C252.64 138.75 251.94 138.66 251.14 138.18C250.7 136.61 249.76 134.87 248.32 132.97C246.03 136.47 242.75 139.21 238.5 141.19L238.11 140.7C241.82 138.26 244.59 134.95 246.42 130.77C245.47 129.77 244.37 128.78 243.13 127.8C242.82 128.94 242.59 129.75 242.43 130.24C241.63 130.78 240.46 130.82 238.91 130.36C240.15 126.59 241.46 121.49 242.85 115.06H238.71L238.36 113.88H243.11C244.04 109.35 244.64 106.05 244.93 103.99L248.06 105.05C247.67 107.82 247.13 110.76 246.44 113.88H253.36L253.38 113.87ZM249.82 115.05H246.19C245.39 118.82 244.45 122.77 243.37 126.89C244.84 127.38 246.17 127.91 247.35 128.48C248.61 124.9 249.44 120.42 249.82 115.05ZM275.03 121.8V122.98H265.21V136.65C265.21 138.25 264.88 139.43 264.21 140.19C263.57 140.95 262.17 141.44 260.03 141.65C259.9 140.29 259.61 139.36 259.14 138.84C258.5 138.22 257.35 137.76 255.7 137.46V136.89C258.46 137.08 260.11 137.17 260.65 137.17C261.24 137.17 261.54 136.91 261.54 136.4V122.97H253.31L253 121.79H261.54V114.63L264.05 114.87C265.26 113.3 266.65 111.19 268.22 108.56H253.88L253.53 107.38H272.55V109.09C269.56 111.72 267.11 113.69 265.2 114.99V121.79H275.02L275.03 121.8Z" fill="#493024"/>
<path d="M290.03 126.32L290.18 126.81C287.14 129.14 283.65 131.59 279.7 134.14C279.57 134.68 279.28 135.05 278.81 135.24L276.8 130.6C277.91 130.33 279.45 129.87 281.44 129.22V116.85H277.5L277.19 115.67H281.44V104.76L285 105.25V115.67H289.48V115.34H295.98C295.65 115.2 295.35 115 295.09 114.73C295.06 113.21 294.57 111.52 293.62 109.64H289.64L289.33 108.46H298.34V103.98L301.94 104.47V108.46H312.57V109.64H305.8L307.08 110.49C305.97 112.42 304.64 114.03 303.1 115.33H313.38V116.51H289.99C289.84 116.73 289.58 116.84 289.22 116.84H285.01V128.03C286.92 127.41 288.59 126.84 290.04 126.32H290.03ZM312.37 132.51L312.49 137.23C313.24 137.56 313.61 138.07 313.61 138.78C313.61 139.54 313.18 140.08 312.33 140.41C311.48 140.74 309.92 140.9 307.65 140.9H304.83C303.36 140.9 302.41 140.68 301.97 140.25C301.56 139.82 301.35 138.97 301.35 137.73V129.67H299.34C298.77 133.17 297.34 135.86 295.05 137.73C292.78 139.6 289.39 140.94 284.88 141.76L284.73 141.15C288.21 140.01 290.76 138.56 292.38 136.8C294.03 135.01 295.05 132.64 295.43 129.68H294.73V130.74C294.73 130.85 294.58 131 294.27 131.19C293.99 131.38 293.59 131.56 293.07 131.72C292.58 131.86 292.1 131.92 291.64 131.92H291.1V119.22H309.97V130.37C309.94 130.53 309.57 130.76 308.85 131.06C308.13 131.33 307.48 131.47 306.92 131.47H306.3V129.68H304.91V136.96C304.91 137.23 304.96 137.41 305.07 137.49C305.17 137.54 305.43 137.57 305.84 137.57H309.94C310.25 137.54 310.48 137.39 310.64 137.12C310.9 136.63 311.32 135.1 311.92 132.52H312.38L312.37 132.51ZM306.3 120.38H294.74V123.84H306.3V120.38ZM294.74 125.02V128.52H306.3V125.02H294.74ZM303.71 109.64H294.82C296.24 110.24 297.23 110.96 297.8 111.8C298.39 112.64 298.6 113.39 298.42 114.04C298.27 114.66 297.9 115.1 297.34 115.34H302.06C302.63 113.79 303.18 111.9 303.72 109.64H303.71Z" fill="#493024"/>
<path d="M1.62988 46.2499V45.1999H6.99988V45.7699C6.99988 48.3599 7.68988 50.3499 9.06988 51.7499C10.4499 53.1499 12.4199 53.8499 14.9799 53.8499C20.3499 53.8499 23.0399 50.3499 23.0399 43.3399V38.0899C23.0399 34.5299 22.3899 31.8799 21.0799 30.1299C19.7699 28.3799 17.7699 27.4999 15.0499 27.4999C13.1599 27.4999 11.5399 27.9999 10.2099 28.9999C8.87988 29.9999 7.92988 31.3799 7.36988 33.1599H2.46988V2.60986H27.7999V8.01986H7.61988V25.7999C8.53988 24.7199 9.71988 23.8499 11.1499 23.1699C12.5799 22.4999 14.1399 22.1599 15.8299 22.1599C20.0799 22.1599 23.2799 23.5099 25.4299 26.1999C27.5799 28.8899 28.6499 32.7499 28.6499 37.7599V43.8199C28.6499 48.6699 27.4499 52.4399 25.0399 55.1299C22.6299 57.8199 19.3099 59.1699 15.0599 59.1699C10.8099 59.1699 7.56988 58.0099 5.19988 55.6899C2.81988 53.3699 1.62988 50.2199 1.62988 46.2399V46.2499Z" fill="#E73820"/>
<path d="M56.4198 0.369824L63.2798 4.22982C60.8398 9.78982 57.5398 14.7098 53.4098 18.9798C49.3098 23.2098 44.5198 26.5298 39.0398 28.9398L38.5698 28.2598C42.7498 24.8998 46.3998 20.6698 49.5098 15.5598C52.6198 10.4598 54.9298 5.38982 56.4298 0.369824H56.4198ZM75.8798 25.3998H83.3898V28.3898C82.9998 36.3598 82.3798 42.4998 81.5598 46.8098C80.7298 51.0798 79.5098 53.9098 77.8898 55.2798C75.8798 57.0598 73.0798 57.9398 69.4898 57.8898C69.4898 55.4398 69.0198 53.7798 68.0698 52.9098C66.9298 51.7498 64.6998 50.8598 61.3898 50.2298V49.4198C66.5098 49.8398 69.6298 50.0398 70.7298 50.0398C71.6398 50.0398 72.3598 49.8098 72.9198 49.3598C74.5398 47.8698 75.6998 40.4598 76.4098 27.1398H65.4098C65.1698 29.6298 64.8198 31.8698 64.3498 33.8598C63.9198 35.8098 63.1498 37.9898 62.0398 40.3998C60.9398 42.8098 59.5398 44.9898 57.8398 46.9398C56.1798 48.8898 53.9198 50.8798 51.0398 52.9198C48.1998 54.9498 44.8698 56.7798 41.0498 58.3998L40.4598 57.5298C43.3798 55.6198 45.8998 53.5898 48.0298 51.4298C50.1998 49.2298 51.8698 47.1798 53.0598 45.2698C54.2398 43.3598 55.1898 41.2698 55.8998 38.9798C56.6498 36.6598 57.1198 34.6698 57.3198 32.9998C57.5598 31.3398 57.7298 29.3898 57.8498 27.1498H47.1498L46.6198 25.4098H75.8898L75.8798 25.3998ZM71.2698 0.439824L71.9798 0.0698242C73.8298 4.58982 76.8898 8.53982 81.1498 11.8998C85.4098 15.2598 90.0998 17.9598 95.2198 19.9898L95.0398 20.6798C92.1598 21.1798 90.1698 23.3198 89.0698 27.0898C79.9598 20.6198 74.0298 11.7398 71.2698 0.449824V0.439824Z" fill="#E73820"/>
<path d="M156.9 55.1501V56.8901H121.83L121.42 55.1501H136.2V47.9901H125.56L125.09 46.1901C120.24 49.2601 114.05 52.7301 106.52 56.5801C106.2 57.4501 105.71 57.9901 105.04 58.2001L100.84 50.4801C103.52 49.9801 106.54 49.3801 109.89 48.6801V29.5701H102.26L101.79 27.8301H109.89V20.1701H106.11L105.7 18.6801C103.96 20.5101 102.25 22.0201 100.56 23.2201L99.9102 22.7201C101.96 19.9401 103.85 16.3501 105.59 11.9501C107.36 7.55006 108.59 3.59006 109.26 0.0600586L117.77 2.92006C117.53 3.67006 116.78 4.12006 115.52 4.29006C120.72 5.66006 123.76 7.67006 124.63 10.3301C125.1 11.9101 124.77 13.1701 123.63 14.1301C122.37 15.0901 121.05 15.0601 119.67 14.0701C118.57 11.2101 116.89 8.45006 114.64 5.79006C112.51 10.3101 109.65 14.5001 106.07 18.3601H123.45V20.1701H115.65V27.8301H125.11V29.5701H115.65V47.4301C117.7 46.9301 120.93 46.1901 125.35 45.1901L125.53 45.9401L125.12 46.1901H136.24V40.2101H131.98V41.7701C131.98 41.9401 131.78 42.1401 131.39 42.3901C131.04 42.6001 130.44 42.8001 129.62 43.0101C128.79 43.2201 127.91 43.3201 126.96 43.3201H125.9V22.8401H153.63V40.7701C153.63 40.8901 153.41 41.0601 152.98 41.2701C152.59 41.4801 151.95 41.6901 151.09 41.8901C150.26 42.1001 149.38 42.2001 148.43 42.2001H147.37V40.2101H142.46V46.1901H155.35V47.9901H142.46V55.1501H156.95H156.9ZM102.91 32.3701L103.68 32.1801C107.31 35.2901 109.06 38.5301 108.94 41.8901C108.9 43.8801 108.27 45.2101 107.05 45.8701C105.87 46.4901 104.76 46.1401 103.74 44.8101C104.29 41.1601 104.02 37.0101 102.91 32.3601V32.3701ZM117.4 44.8801L116.4 44.4401C117.03 41.1201 117.58 36.9501 118.06 31.9301L122.73 34.1101C120.99 38.8001 119.22 42.3901 117.41 44.8801H117.4ZM124.97 8.28006L124.5 6.47006H136.21V0.310059L142.48 1.06006V6.48006H155.84V8.29006H146.08L149.45 9.72006C147.87 12.2101 145.8 14.6201 143.24 16.9401H156.72V18.7501H124.2L123.73 16.9401H133.31C132.6 16.7701 131.87 16.3001 131.12 15.5101C131.28 13.1901 130.92 10.7801 130.06 8.29006H124.98L124.97 8.28006ZM135.14 16.9301H141.64C142.27 13.9001 142.84 11.0201 143.35 8.28006H131.94C134.27 9.15006 135.86 10.2501 136.73 11.5801C137.6 12.8701 137.81 14.0101 137.38 15.0001C136.95 16.0001 136.2 16.6401 135.13 16.9301H135.14ZM136.2 24.5901H131.94V30.6301H136.2V24.5901ZM131.95 38.4001H136.21V32.4201H131.95V38.4001ZM147.32 24.5901H142.41V30.6301H147.32V24.5901ZM142.41 38.4001H147.32V32.4201H142.41V38.4001Z" fill="#E73820"/>
<path d="M174.76 15.31L175.23 14.94C180.31 15.73 183.43 17.49 184.57 20.23C185.28 21.89 185.08 23.32 183.98 24.52C182.88 25.68 181.54 25.83 179.96 24.96C179.68 24.84 179.43 24.67 179.19 24.46C178.99 22.93 178.46 21.33 177.59 19.67C176.76 17.97 175.82 16.52 174.75 15.31H174.76ZM191.14 10.64L192.14 10.89C188.55 22.97 186.27 31.37 185.28 36.1C184.69 38.38 184.39 40.33 184.39 41.95C184.43 42.74 184.84 44.3 185.63 46.62C186.42 48.9 186.77 51.1 186.69 53.22C186.61 54.8 186.14 56.04 185.27 56.95C184.4 57.9 183.28 58.38 181.9 58.38C181.23 58.38 180.62 58.11 180.07 57.57C179.52 57.03 179.14 56.22 178.95 55.14C179.5 51.86 179.72 48.94 179.6 46.36C179.48 43.79 179.07 42.23 178.36 41.69C177.69 41.15 176.68 40.82 175.34 40.69V39.51H177.94C178.41 39.51 178.75 39.45 178.94 39.32C179.13 39.19 179.37 38.82 179.65 38.2C180.44 36.67 184.26 27.47 191.12 10.63L191.14 10.64ZM179.01 0.93L179.48 0.56C184.76 1.43 188.03 3.28 189.3 6.1C190.05 7.8 189.87 9.25 188.77 10.46C187.67 11.7 186.27 11.91 184.57 11.08C184.29 10.92 184.04 10.75 183.8 10.58C183.25 7.76 181.65 4.54 179.01 0.93ZM223.24 44.63H230.1V46.62H223C222.25 51.23 221.17 54.23 219.75 55.65C218.05 57.48 215.39 58.39 211.77 58.39C211.77 56.44 211.4 55.05 210.65 54.22C209.82 53.26 207.97 52.48 205.09 51.85L205.15 50.98C209.56 51.31 212.07 51.48 212.66 51.48C213.65 51.48 214.39 51.23 214.91 50.73C215.5 50.11 216.03 48.74 216.51 46.62H198.47C198.43 46.91 198.29 47.64 198.06 48.8C197.86 49.92 197.73 50.75 197.65 51.29C196.19 52.16 193.96 52.27 190.97 51.6C191.96 46.58 193.04 40.29 194.22 32.74H188.37L187.9 30.93H194.46C195.17 26.32 195.74 22.32 196.17 18.92C194.28 20.75 192.23 22.36 190.02 23.77L189.37 23.21C191.38 20.43 193.25 16.99 194.99 12.88C196.72 8.73 198.06 4.44 199.01 0L205.93 3.36C205.1 6.02 204.22 8.15 203.27 9.77H229.82V11.58H202.15C201.01 13.32 200.02 14.67 199.19 15.63L203.8 17.75H224.67V20.61C224.63 23.39 224.53 26.69 224.38 30.51H230.29V32.75H224.26C224.02 37.23 223.69 41.19 223.26 44.64L223.24 44.63ZM206.16 32.74H200.6C200.25 35.27 199.63 39.32 198.77 44.88H204.51C205.06 41.52 205.61 37.47 206.17 32.74H206.16ZM207.52 19.48H202.43C201.68 25.04 201.15 28.86 200.83 30.93H206.33C206.76 27.11 207.16 23.3 207.51 19.48H207.52ZM210.83 44.88H216.8C217.31 41.69 217.71 37.64 217.98 32.74H212.13C211.74 37.22 211.3 41.27 210.83 44.88ZM218.45 19.48H213.37C212.94 24.46 212.58 28.28 212.31 30.93H218.05C218.17 28.32 218.31 24.5 218.46 19.48H218.45Z" fill="#E73820"/>
<path d="M288.79 6.85V54.65C288.79 54.82 288.57 55.04 288.14 55.34C287.71 55.67 287.02 55.98 286.07 56.27C285.16 56.56 284.2 56.71 283.17 56.71H281.99V52.91H262.42V55.71C262.42 55.92 262.2 56.17 261.77 56.46C261.38 56.75 260.74 57.02 259.88 57.27C259.05 57.52 258.13 57.64 257.1 57.64H255.92V4.23C255.72 4.27 255.39 4.29 254.92 4.29C253.15 9.15 251.53 13.52 250.07 17.42V56.32C250.03 56.65 249.4 57.09 248.18 57.63C247 58.17 245.79 58.44 244.57 58.44H243.33V26.39C241.44 28.88 239.33 31.18 237 33.3L236.29 32.8C238.54 28.73 240.68 23.73 242.74 17.8C244.79 11.87 246.41 5.93 247.59 0L257.29 3.05C257.17 3.51 256.86 3.86 256.34 4.11L263.2 6.85H288.8H288.79ZM268.92 8.65H262.42V28.38H268.92V8.65ZM262.42 30.13V51.11H268.92V30.13H262.42ZM281.99 8.65H275.37V28.38H281.99V8.65ZM275.37 51.1H281.99V30.12H275.37V51.1Z" fill="#E73820"/>
<path d="M349.28 4.29004V55.83C349.2 56.16 348.53 56.62 347.27 57.2C346.05 57.78 344.87 58.07 343.72 58.07H342.72V53.59H305.82V55.89C305.82 56.39 305.25 56.93 304.11 57.51C302.97 58.13 301.76 58.44 300.5 58.44H299.44V4.29004H349.29H349.28ZM305.82 51.79H342.72V6.10004H305.82V51.79ZM324.27 36.23L324.39 36.98C320.92 39.3 316.72 41.86 311.8 44.64C311.48 45.43 310.99 45.93 310.32 46.13L306.95 38.97C310.5 38.6 316.27 37.68 324.28 36.23H324.27ZM334.44 19.3L339.47 22.6C337.81 28.12 335.68 32.68 333.08 36.29C334.1 38.37 335.17 39.98 336.27 41.15C336.58 41.57 336.84 41.75 337.04 41.71C337.24 41.67 337.45 41.42 337.69 40.96C338.4 39.67 339.21 37.62 340.11 34.8L340.76 34.92L339.81 43.45C341.31 46.06 341.66 47.81 340.87 48.68C340.2 49.43 339.35 49.76 338.33 49.68C337.34 49.56 336.38 49.22 335.43 48.68C334.52 48.14 333.73 47.5 333.06 46.75C331.56 45.05 330.24 43.12 329.1 40.96C325.51 44.61 321 47.56 315.56 49.8L315.03 49.05C319.84 45.9 323.9 41.79 327.21 36.73C325.79 32.91 324.77 28.35 324.14 23.04C323.82 23.45 323.27 23.72 322.48 23.85V33.06C322.44 33.31 321.95 33.66 321 34.12C320.05 34.54 319.19 34.74 318.4 34.74H317.63V32.81H314.02V34.3C314.02 34.42 313.82 34.61 313.43 34.86C313.04 35.11 312.5 35.34 311.83 35.54C311.2 35.75 310.59 35.85 310 35.85H309.29V21.66H317.21L319.46 19.23L324.13 22.9C323.97 21.65 323.81 19.75 323.66 17.17H307.64L307.17 15.36H323.55C323.47 13.58 323.39 10.82 323.31 7.08004L329.1 8.51004C329.1 11.91 329.12 14.2 329.16 15.36H333.83L335.13 13.55C334.38 11.31 333.08 9.30004 331.23 7.51004L331.76 7.07004C333.26 7.15004 334.54 7.36004 335.6 7.69004C336.7 8.02004 337.51 8.44004 338.02 8.93004C338.57 9.39004 338.95 9.91004 339.14 10.49C339.34 11.03 339.36 11.55 339.2 12.05C339.08 12.51 338.85 12.92 338.49 13.29C340.07 14.66 341.11 15.61 341.62 16.15C341.46 16.81 340.93 17.15 340.02 17.15H329.26C329.46 22.09 329.99 26.36 330.86 29.97C332.48 26.4 333.66 22.83 334.41 19.26L334.44 19.3ZM314.04 31.06H317.65V23.4H314.04V31.06Z" fill="#E73820"/>
<path d="M368.13 15.5002L375.64 19.4802C370.95 30.8902 364.76 39.1502 357.07 44.2502L356.54 43.6902C359.38 40.0402 361.8 35.6202 363.81 30.4302C365.82 25.2402 367.26 20.2602 368.13 15.4902V15.5002ZM381.55 0.930176L388.88 1.86018V49.1002C388.88 50.5902 388.76 51.8202 388.52 52.7702C388.28 53.6802 387.81 54.5502 387.1 55.3802C386.39 56.2102 385.33 56.8502 383.91 57.3102C382.53 57.8102 380.72 58.1602 378.47 58.3702C378.23 55.7602 377.58 53.9102 376.52 52.8302C375.14 51.5802 372.81 50.6702 369.54 50.0902V49.2802C375.37 49.6102 378.86 49.7802 380.01 49.7802C381.03 49.7802 381.55 49.3402 381.55 48.4702V0.930176ZM394.32 16.3102C402.24 20.2502 407.55 25.0702 410.23 30.7502C411.96 34.3602 412.32 37.4102 411.29 39.9002C410.5 41.8102 409.24 42.6202 407.51 42.3302C406.64 42.1702 405.74 41.6902 404.79 40.9002C404.24 37.0802 402.92 33.0402 400.83 28.7602C398.78 24.4902 396.4 20.4802 393.67 16.7502L394.32 16.3102Z" fill="#E73820"/>
<path d="M423.3 26.5698L423.83 25.7598C431 27.1298 435.81 29.7398 438.26 33.5998C439.09 34.8398 439.5 36.2398 439.5 37.7698C439.5 39.0098 439.15 40.0098 438.47 40.7598C437.78 41.5098 436.86 41.8798 435.72 41.8798C433.98 41.8798 432.7 40.9498 431.88 39.0798C431.84 38.9998 431.61 38.4998 431.2 37.5898C430.79 36.6798 430.51 36.0898 430.37 35.8198C430.23 35.5498 429.96 34.9998 429.54 34.1698C429.13 33.3398 428.74 32.6998 428.39 32.2398C428.03 31.7798 427.59 31.1898 427.06 30.4698C426.53 29.7398 425.96 29.0698 425.35 28.4498C424.74 27.8298 424.06 27.2098 423.31 26.5798L423.3 26.5698Z" fill="#E73820"/>
<path d="M454.82 15.31L455.29 14.94C460.37 15.73 463.49 17.49 464.63 20.23C465.34 21.89 465.14 23.32 464.04 24.52C462.94 25.68 461.6 25.83 460.02 24.96C459.74 24.84 459.49 24.67 459.25 24.46C459.05 22.93 458.52 21.33 457.65 19.67C456.82 17.97 455.88 16.52 454.81 15.31H454.82ZM471.2 10.64L472.2 10.89C468.61 22.97 466.33 31.37 465.34 36.1C464.75 38.38 464.45 40.33 464.45 41.95C464.49 42.74 464.9 44.3 465.69 46.62C466.48 48.9 466.83 51.1 466.75 53.22C466.67 54.8 466.2 56.04 465.33 56.95C464.46 57.9 463.34 58.38 461.96 58.38C461.29 58.38 460.68 58.11 460.13 57.57C459.58 57.03 459.2 56.22 459.01 55.14C459.56 51.86 459.78 48.94 459.66 46.36C459.54 43.79 459.13 42.23 458.42 41.69C457.75 41.15 456.74 40.82 455.4 40.69V39.51H458C458.47 39.51 458.81 39.45 459 39.32C459.2 39.2 459.43 38.82 459.71 38.2C460.5 36.67 464.32 27.47 471.18 10.63L471.2 10.64ZM459.07 0.93L459.54 0.56C464.82 1.43 468.09 3.28 469.36 6.1C470.11 7.8 469.93 9.25 468.83 10.46C467.73 11.7 466.33 11.91 464.63 11.08C464.35 10.92 464.1 10.75 463.86 10.58C463.31 7.76 461.71 4.54 459.07 0.93ZM503.31 44.63H510.17V46.62H503.07C502.32 51.23 501.24 54.23 499.82 55.65C498.12 57.48 495.46 58.39 491.84 58.39C491.84 56.44 491.47 55.05 490.72 54.22C489.89 53.26 488.04 52.48 485.16 51.85L485.22 50.98C489.63 51.31 492.14 51.48 492.73 51.48C493.72 51.48 494.46 51.23 494.98 50.73C495.57 50.11 496.1 48.74 496.58 46.62H478.54C478.5 46.91 478.36 47.64 478.13 48.8C477.93 49.92 477.8 50.75 477.72 51.29C476.26 52.16 474.03 52.27 471.04 51.6C472.03 46.58 473.11 40.29 474.29 32.74H468.44L467.97 30.93H474.53C475.24 26.32 475.81 22.32 476.24 18.92C474.35 20.75 472.3 22.36 470.09 23.77L469.44 23.21C471.45 20.43 473.32 16.99 475.06 12.88C476.79 8.73 478.13 4.44 479.08 0L486 3.36C485.17 6.02 484.29 8.15 483.34 9.77H509.89V11.58H482.22C481.08 13.32 480.09 14.67 479.26 15.63L483.87 17.75H504.74V20.61C504.7 23.39 504.6 26.69 504.45 30.51H510.36V32.75H504.33C504.09 37.23 503.76 41.19 503.33 44.64L503.31 44.63ZM486.22 32.74H480.66C480.31 35.27 479.69 39.32 478.83 44.88H484.57C485.12 41.52 485.67 37.47 486.23 32.74H486.22ZM487.58 19.48H482.49C481.74 25.04 481.21 28.86 480.89 30.93H486.39C486.82 27.11 487.22 23.3 487.57 19.48H487.58ZM490.89 44.88H496.86C497.37 41.69 497.77 37.64 498.04 32.74H492.19C491.8 37.22 491.36 41.27 490.89 44.88ZM498.52 19.48H493.44C493.01 24.46 492.65 28.28 492.38 30.93H498.12C498.24 28.32 498.38 24.5 498.53 19.48H498.52Z" fill="#E73820"/>
<path d="M568.85 6.85V54.65C568.85 54.82 568.63 55.04 568.2 55.34C567.77 55.67 567.08 55.98 566.13 56.27C565.22 56.56 564.26 56.71 563.23 56.71H562.05V52.91H542.48V55.71C542.48 55.92 542.26 56.17 541.83 56.46C541.44 56.75 540.8 57.02 539.94 57.27C539.11 57.52 538.19 57.64 537.16 57.64H535.98V4.23C535.78 4.27 535.45 4.29 534.98 4.29C533.21 9.15 531.59 13.52 530.13 17.42V56.32C530.09 56.65 529.46 57.09 528.24 57.63C527.06 58.17 525.85 58.44 524.63 58.44H523.39V26.39C521.5 28.88 519.39 31.18 517.06 33.3L516.35 32.8C518.6 28.73 520.74 23.73 522.8 17.8C524.85 11.87 526.47 5.93 527.65 0L537.35 3.05C537.23 3.51 536.92 3.86 536.4 4.11L543.26 6.85H568.86H568.85ZM548.99 8.65H542.49V28.38H548.99V8.65ZM542.48 30.13V51.11H548.98V30.13H542.48ZM562.05 8.65H555.43V28.38H562.05V8.65ZM555.43 51.1H562.05V30.12H555.43V51.1Z" fill="#E73820"/>
<path d="M629.34 4.29004V55.83C629.26 56.16 628.59 56.62 627.33 57.2C626.11 57.78 624.93 58.07 623.78 58.07H622.78V53.59H585.88V55.89C585.88 56.39 585.31 56.93 584.17 57.51C583.03 58.13 581.82 58.44 580.56 58.44H579.5V4.29004H629.35H629.34ZM585.88 51.79H622.78V6.10004H585.88V51.79ZM604.33 36.23L604.45 36.98C600.98 39.3 596.78 41.86 591.86 44.64C591.54 45.43 591.05 45.93 590.38 46.13L587.01 38.97C590.56 38.6 596.33 37.68 604.34 36.23H604.33ZM614.5 19.3L619.53 22.6C617.87 28.12 615.74 32.68 613.14 36.29C614.16 38.37 615.23 39.98 616.33 41.15C616.64 41.57 616.9 41.75 617.1 41.71C617.3 41.67 617.51 41.42 617.75 40.96C618.46 39.67 619.27 37.62 620.17 34.8L620.82 34.92L619.87 43.45C621.37 46.06 621.72 47.81 620.93 48.68C620.26 49.43 619.41 49.76 618.39 49.68C617.4 49.56 616.44 49.22 615.49 48.68C614.58 48.14 613.79 47.5 613.12 46.75C611.62 45.05 610.3 43.12 609.16 40.96C605.57 44.61 601.06 47.56 595.62 49.8L595.09 49.05C599.9 45.9 603.96 41.79 607.27 36.73C605.85 32.91 604.83 28.35 604.2 23.04C603.88 23.45 603.33 23.72 602.54 23.85V33.06C602.5 33.31 602.01 33.66 601.06 34.12C600.11 34.54 599.25 34.74 598.46 34.74H597.69V32.81H594.08V34.3C594.08 34.42 593.88 34.61 593.49 34.86C593.1 35.11 592.56 35.34 591.89 35.54C591.26 35.75 590.65 35.85 590.06 35.85H589.35V21.66H597.27L599.52 19.23L604.19 22.9C604.03 21.65 603.87 19.75 603.72 17.17H587.7L587.23 15.36H603.61C603.53 13.58 603.45 10.82 603.37 7.08004L609.16 8.51004C609.16 11.91 609.18 14.2 609.22 15.36H613.89L615.19 13.55C614.44 11.31 613.14 9.30004 611.29 7.51004L611.82 7.07004C613.32 7.15004 614.6 7.36004 615.66 7.69004C616.76 8.02004 617.57 8.44004 618.08 8.93004C618.63 9.39004 619.01 9.91004 619.2 10.49C619.4 11.03 619.42 11.55 619.26 12.05C619.14 12.51 618.91 12.92 618.55 13.29C620.13 14.66 621.17 15.61 621.68 16.15C621.52 16.81 620.99 17.15 620.08 17.15H609.32C609.52 22.09 610.05 26.36 610.92 29.97C612.54 26.4 613.72 22.83 614.47 19.26L614.5 19.3ZM594.1 31.06H597.71V23.4H594.1V31.06Z" fill="#E73820"/>
<path d="M687.8 13.7601V37.3501C687.76 37.6401 687.01 38.0301 685.55 38.5301C684.09 38.9901 682.79 39.2101 681.65 39.2101H680.41V33.9801H667.11V55.7701C667.11 56.2301 666.42 56.7901 665.04 57.4501C663.7 58.1101 662.38 58.4501 661.08 58.4501H659.72V33.9901H646.53V37.6601C646.53 38.0801 645.82 38.5901 644.4 39.2201C643.02 39.8401 641.64 40.1501 640.26 40.1501H639.2V13.7601H659.72V0.120117L667.11 1.05012V13.7501H687.81L687.8 13.7601ZM646.53 32.1801H659.72V15.5601H646.53V32.1801ZM667.11 32.1801H680.41V15.5601H667.11V32.1801Z" fill="#E73820"/>
</g>
<defs>
<clipPath id="clip0_17_4209">
<rect width="687.9" height="141.82" fill="white"/>
</clipPath>
</defs>
</svg>
