<svg width="408" height="145" viewBox="0 0 408 145" fill="none" xmlns="http://www.w3.org/2000/svg">
<g clip-path="url(#clip0_18_4468)">
<path d="M17.1999 31.68V53.21C17.1699 53.41 16.8299 53.66 16.1599 53.96C15.5199 54.3 14.8699 54.46 14.2099 54.46H13.5299V35.16C11.8299 36.81 10.1499 38.21 8.50986 39.36L8.10986 38.9C9.85986 36.83 11.5499 34.35 13.1699 31.47C14.8199 28.59 16.0499 26.02 16.8799 23.75L20.3099 26.31C19.2499 28.3 18.2099 30.09 17.1999 31.68ZM16.3999 15.48L19.6299 18.21C18.3299 20 16.7099 21.72 14.7699 23.37C12.8299 24.99 10.8799 26.38 8.90986 27.52L8.46986 27.06C9.95986 25.49 11.4499 23.59 12.9399 21.35C14.4599 19.11 15.6099 17.15 16.4099 15.47L16.3999 15.48ZM34.8599 39.82V49.43C36.3999 49.68 38.1599 49.81 40.1199 49.81C43.0199 49.81 45.0199 49.8 46.1399 49.77V50.31C45.5599 50.42 45.0999 50.79 44.7799 51.4C44.4899 52.04 44.3399 52.81 44.3399 53.71H39.8399C35.8799 53.71 32.7799 52.98 30.5499 51.53C28.3399 50.07 26.6399 47.4 25.4499 43.51C23.9299 48.27 21.5399 51.9 18.2699 54.42L17.9099 54C19.7399 51.51 21.0599 48.43 21.8599 44.77C22.6799 41.1 23.0999 37.36 23.0999 33.52L27.0499 34.44C26.7799 37.6 26.3899 40.16 25.8499 42.12C27.0699 45.03 28.8399 47.07 31.1499 48.25V31.3L30.6699 30.88C32.1099 28.92 33.3399 26.52 34.3799 23.66C35.4399 20.78 36.1899 18.06 36.6099 15.52L40.5999 17.32C40.0199 19.31 39.2999 21.05 38.4499 22.57C41.8999 23.52 44.0699 24.99 44.9499 26.98C45.4499 28.18 45.3699 29.15 44.7099 29.88C44.0499 30.63 43.1799 30.68 42.1199 30C41.5399 28.13 40.1099 26 37.8499 23.62C36.0199 26.64 35.0199 29.06 34.8599 30.88V38.6H44.7899V39.82H34.8599ZM20.0699 32.44L19.6699 31.98C21.1599 29.88 22.4199 27.32 23.4599 24.3C24.5199 21.25 25.2699 18.33 25.6899 15.53L29.6799 17.33C29.1999 19.18 28.5999 20.85 27.8899 22.37C30.4699 23.15 31.9799 24.33 32.4299 25.9C32.7199 26.91 32.5099 27.68 31.7899 28.21C31.0499 28.77 30.2199 28.7 29.3199 28C29.0499 26.66 28.3499 25.2 27.2099 23.64C25.1599 27.44 22.7799 30.38 20.0699 32.45V32.44Z" fill="#E73820"/>
<path d="M92.1602 14.7V16.57H69.4202L68.9102 14.7H92.1602ZM71.5702 23.33H89.7402V25.2H72.0102L71.5702 23.33ZM89.7402 33.9H72.0102L71.5702 31.96H89.7402V33.9ZM88.6602 43.46V59.04C88.6202 59.31 88.0702 59.66 87.0102 60.11C85.9502 60.56 85.0002 60.78 84.1502 60.78H83.2602V57.1H76.9102V61.65C76.9102 61.96 76.4002 62.32 75.3902 62.72C74.4102 63.17 73.4001 63.39 72.3401 63.39H71.6402V40.65H88.6702V43.46H88.6602ZM89.6202 8.15002H72.1502L71.7102 6.21002H89.6301V8.15002H89.6202ZM76.9102 55.16H83.2602V42.59H76.9102V55.16ZM119.1 43.32H118.27V41.05H114.84C116.36 43.99 118.38 46.65 120.88 49.01C123.38 51.37 125.98 53.16 128.69 54.36L128.56 55.1C126.31 55.55 124.77 57.42 123.92 60.72C119.64 56.89 116.4 51.29 114.2 43.93V61.72C114.2 61.85 114.03 62.03 113.69 62.26C113.35 62.53 112.82 62.77 112.1 63C111.38 63.22 110.6 63.33 109.75 63.33H108.86V41.06H104.6V61.72C104.6 61.85 104.43 62.03 104.09 62.26C103.75 62.53 103.22 62.77 102.5 63C101.82 63.22 101.08 63.33 100.28 63.33H99.3902V50.36C96.6802 54.42 93.1402 57.96 88.7802 60.99L88.1402 60.05C92.6702 55.06 95.9802 48.73 98.0502 41.06H93.0302L92.4602 39.12H99.3801V31.83H90.3002L89.7902 29.89H99.3801V22.87H93.0901L92.5201 20.93H99.3801V14.78H91.6301L91.1202 12.84H109.61C111.13 8.78002 112.26 4.93002 112.98 1.27002L118.7 3.68002C116.45 7.38002 113.98 10.43 111.27 12.84H127.34V14.78H114.19V20.93H123.34V28.89H127.91V31.83H123.34V41.66C123.3 41.93 122.77 42.28 121.75 42.73C120.73 43.13 119.84 43.33 119.08 43.33L119.1 43.32ZM95.7202 1.79002L96.4202 1.39002C101.04 2.86002 103.79 4.98002 104.68 7.74002C105.23 9.52002 104.91 10.93 103.73 11.95C102.5 13.02 101.13 12.93 99.6002 11.68C99.2602 8.43002 97.9702 5.13002 95.7202 1.78002V1.79002ZM104.61 14.77V20.92H108.87V14.77H104.61ZM104.61 22.86V29.88H108.87V22.86H104.61ZM104.61 39.11H108.87V31.82H104.61V39.11ZM118.27 22.86H114.2V29.88H118.27V22.86ZM114.2 39.11H118.27V31.82H114.2V39.11Z" fill="#E73820"/>
<path d="M156.45 14.5699V17.7099C154.88 20.8299 152.72 24.1699 149.97 27.7399C154.33 29.2999 156.94 31.4199 157.78 34.0899C158.29 35.7399 158.01 36.9899 156.95 37.8399C155.98 38.5999 154.85 38.4899 153.58 37.5099C153.11 35.1899 151.82 32.5799 149.7 29.6799V61.3799C149.7 61.5599 149.51 61.7799 149.13 62.0499C148.75 62.3599 148.18 62.6499 147.41 62.9199C146.65 63.1899 145.84 63.3199 145 63.3199H143.98V34.3599C141.01 37.2999 137.94 39.7999 134.77 41.8499L134.07 41.1799C137.37 37.9299 140.53 34.0199 143.54 29.4799C146.55 24.8899 148.81 20.5399 150.34 16.4399H136.43L135.86 14.5699H144.18V1.38989L149.71 2.18989V14.5599H156.44L156.45 14.5699ZM194.13 8.07989H158.74L158.23 6.13989H194.13V8.07989ZM192.03 33.2899V61.1799C192.03 61.3099 191.84 61.4899 191.46 61.7199C191.08 61.9399 190.51 62.1699 189.74 62.3899C188.98 62.6099 188.15 62.7199 187.26 62.7199H186.24V58.5699H164.32V61.5799C164.32 61.7599 164.13 61.9599 163.75 62.1799C163.41 62.4499 162.86 62.6699 162.1 62.8499C161.38 63.0699 160.58 63.1799 159.69 63.1799H158.67V33.2899H192.02H192.03ZM184.28 29.3499H183.26V26.9399H167.31V28.4799C167.31 28.6599 167.14 28.8599 166.8 29.0799C166.46 29.2999 165.91 29.4999 165.15 29.6799C164.43 29.8599 163.65 29.9499 162.8 29.9499H161.78V14.0299H189.04V28.0099C189.04 28.0999 188.85 28.2599 188.47 28.4799C188.09 28.6599 187.5 28.8599 186.69 29.0799C185.93 29.2599 185.12 29.3499 184.28 29.3499ZM172.53 35.1699H164.33V44.4699H172.53V35.1699ZM164.33 46.3999V56.6299H172.53V46.3999H164.33ZM167.32 24.9999H183.27V15.8999H167.32V24.9999ZM186.25 35.1699H177.93V44.4699H186.25V35.1699ZM177.93 56.6299H186.25V46.3999H177.93V56.6299Z" fill="#E73820"/>
<path d="M341.38 16.3801H330.64C327.8 27.4801 322.93 36.6401 316.03 43.8701C322.89 49.3101 331.45 53.3001 341.7 55.8401L341.57 56.6401C338.43 57.0001 336.23 58.8001 334.96 62.0601C325.47 58.7601 317.78 53.9901 311.9 47.7501C304.4 54.1301 294.81 58.8501 283.12 61.9301L282.74 61.1301C293.58 56.8901 302.29 51.2501 308.85 44.2101C303.09 36.9001 299.13 27.6201 296.97 16.3901H283.69L283.18 14.4501H309.04V0.0700684L315.27 0.870068V14.4501H341.38V16.3901V16.3801ZM323.08 16.3801H298.3C300.84 26.0101 305.44 34.0401 312.09 40.4601C317.47 33.5901 321.13 25.5701 323.08 16.3801Z" fill="#E73820"/>
<path d="M369.78 13.17V16.31C368.21 19.43 366.05 22.77 363.3 26.34C367.66 27.9 370.27 30.02 371.11 32.69C371.62 34.34 371.34 35.59 370.28 36.44C369.31 37.2 368.18 37.09 366.91 36.11C366.44 33.79 365.15 31.18 363.03 28.28V59.98C363.03 60.16 362.84 60.38 362.46 60.65C362.08 60.96 361.51 61.25 360.74 61.52C359.98 61.79 359.17 61.92 358.33 61.92H357.31V32.96C354.34 35.9 351.27 38.4 348.1 40.45L347.4 39.78C350.7 36.53 353.86 32.62 356.87 28.08C359.88 23.49 362.14 19.14 363.67 15.04H349.76L349.19 13.17H357.51V0L363.04 0.8V13.17H369.77H369.78ZM407.45 6.69H372.06L371.55 4.75H407.45V6.69ZM405.36 31.9V59.79C405.36 59.92 405.17 60.1 404.79 60.33C404.41 60.55 403.84 60.78 403.07 61C402.31 61.22 401.48 61.33 400.59 61.33H399.57V57.18H377.65V60.19C377.65 60.37 377.46 60.57 377.08 60.79C376.74 61.06 376.19 61.28 375.43 61.46C374.71 61.68 373.91 61.79 373.02 61.79H372V31.9H405.35H405.36ZM397.61 27.95H396.59V25.54H380.64V27.08C380.64 27.26 380.47 27.46 380.13 27.68C379.79 27.9 379.24 28.1 378.48 28.28C377.76 28.46 376.98 28.55 376.13 28.55H375.11V12.63H402.37V26.61C402.37 26.7 402.18 26.86 401.8 27.08C401.42 27.26 400.83 27.46 400.02 27.68C399.26 27.86 398.45 27.95 397.61 27.95ZM385.85 33.77H377.65V43.07H385.85V33.77ZM377.66 45.01V55.24H385.86V45.01H377.66ZM380.64 23.61H396.59V14.51H380.64V23.61ZM399.58 33.77H391.26V43.07H399.58V33.77ZM391.25 55.24H399.57V45.01H391.25V55.24Z" fill="#E73820"/>
<path d="M55.19 6.5H0" stroke="#E73820" stroke-width="0.27" stroke-miterlimit="10"/>
<path d="M55.19 63.26H0" stroke="#E73820" stroke-width="0.27" stroke-miterlimit="10"/>
<path d="M234.27 39.9501V47.0401C236.26 46.7101 239.44 46.1501 243.8 45.3601L243.92 45.9901C239.14 47.9801 232.74 50.3001 224.74 52.9601C224.55 53.4601 224.21 53.7801 223.7 53.9201L221.71 48.9701C223.68 48.7501 226.61 48.3101 230.52 47.6701V39.9501H222.87L222.55 38.7301H230.52V32.7701L234.27 33.2701V38.7301H242.96V39.9501H234.27ZM244.16 19.3001V20.5201H233.52C231.9 23.9001 230.41 26.6301 229.05 28.7001C233.97 28.3901 236.98 28.2001 238.1 28.1101C237.17 26.4901 236.13 25.1301 234.99 24.0401L235.39 23.7001C239.06 24.9301 241.38 26.6801 242.37 28.9501C242.95 30.3201 242.91 31.4401 242.25 32.3101C241.64 33.0901 240.85 33.1801 239.9 32.5601C239.79 32.4801 239.69 32.3901 239.58 32.3101C239.47 31.3001 239.14 30.2301 238.58 29.0801C236.03 29.8401 231.42 31.1101 224.75 32.9001C224.51 33.3801 224.14 33.6701 223.63 33.7801L222.07 29.0001C223.11 29.0001 224.86 28.9301 227.33 28.7901C227.97 26.3801 228.53 23.6301 229 20.5201H222.1L221.78 19.3001H244.15H244.16ZM249.22 19.5501V44.3901C249.22 44.6101 248.9 44.8701 248.26 45.1501C247.62 45.4301 246.98 45.5701 246.35 45.5701H245.71V19.0101L249.22 19.5601V19.5501ZM253.25 16.1101L256.92 16.6601V49.5601C256.92 51.1801 256.6 52.3601 255.96 53.0901C255.32 53.8401 253.94 54.3301 251.81 54.5601C251.68 53.2201 251.38 52.2901 250.93 51.7901C250.29 51.1201 249.18 50.6601 247.58 50.4101V49.7801C250.21 49.9801 251.81 50.0701 252.36 50.0701C252.7 50.0701 252.93 50.0101 253.04 49.9001C253.17 49.7601 253.24 49.5401 253.24 49.2301V16.1101H253.25Z" fill="#E73820"/>
<path d="M268.05 6.5H212.86" stroke="#E73820" stroke-width="0.27" stroke-miterlimit="10"/>
<path d="M268.05 63.26H212.86" stroke="#E73820" stroke-width="0.27" stroke-miterlimit="10"/>
<path d="M3.00977 115.87L3.35977 115.54C6.49977 115.97 8.44977 117.03 9.19977 118.71C9.65977 119.71 9.56977 120.55 8.92977 121.23C8.22977 121.94 7.40977 121.96 6.45977 121.31C6.19977 120.36 5.74977 119.4 5.10977 118.42C4.48977 117.42 3.79977 116.56 3.01977 115.86L3.00977 115.87ZM13.5198 115.46L14.1798 115.66C11.2898 124.67 9.75977 129.52 9.57977 130.23C9.18977 131.59 8.99977 132.75 8.99977 133.73C8.99977 134.22 9.21977 135.21 9.65977 136.7C10.0998 138.19 10.2898 139.59 10.2398 140.89C10.2098 141.87 9.95977 142.63 9.46977 143.17C8.97977 143.74 8.33977 144.02 7.53977 144.02C7.12977 144.02 6.76977 143.84 6.45977 143.49C6.14977 143.14 5.93977 142.62 5.83977 141.94C6.14977 139.8 6.25977 137.94 6.18977 136.36C6.10977 134.76 5.85977 133.81 5.41977 133.51C4.97977 133.18 4.33977 132.98 3.48977 132.9V132.05H5.61977C5.71977 132.02 5.82977 131.95 5.92977 131.85C6.05977 131.71 6.18977 131.52 6.31977 131.28C6.85977 130.33 9.26977 125.05 13.5498 115.45L13.5198 115.46ZM5.43977 107L5.78977 106.72C9.18977 107.1 11.3298 108.17 12.2098 109.93C12.6998 110.93 12.6498 111.79 12.0598 112.49C11.4198 113.25 10.5898 113.37 9.58977 112.86C8.86977 110.82 7.48977 108.87 5.44977 107H5.43977ZM39.0398 128.6H28.1798C29.4398 130.58 31.1198 132.36 33.2098 133.93C35.3198 135.5 37.4898 136.7 39.7098 137.51L39.6298 137.92C38.1098 138.27 37.1198 139.43 36.6498 141.38C32.4498 138.61 29.3698 134.48 27.4098 128.97V142.81C27.4098 143.03 27.0898 143.26 26.4398 143.5C25.7998 143.77 25.1598 143.91 24.5498 143.91H23.8498V132.52C21.0698 136.37 17.1398 139.49 12.0598 141.88L11.7098 141.31C16.2498 138.11 19.6198 133.88 21.8398 128.61H13.4098L13.0998 127.43H23.8498V122.26L27.4098 122.79V127.43H39.0498V128.61L39.0398 128.6ZM20.9098 110.21H18.3198C18.3198 112.54 17.6498 114.04 16.3098 114.69C15.4298 115.12 14.6698 115.07 14.0298 114.53C13.3098 113.93 13.2898 113.15 13.9898 112.17C15.8998 111.17 16.9898 109.35 17.2798 106.72L17.8598 106.76C18.0098 107.47 18.1398 108.23 18.2498 109.04H37.6198V110.95C36.1198 112.52 34.6698 113.85 33.2498 114.94L32.8298 114.7C33.2198 112.94 33.5398 111.45 33.7998 110.22H30.5098V117.75C30.5098 117.99 30.5598 118.16 30.6698 118.24C30.7998 118.32 31.0598 118.36 31.4398 118.36H33.4498C34.5098 118.36 35.1498 118.35 35.3798 118.32C35.6898 118.32 35.9098 118.21 36.0398 117.99C36.2698 117.69 36.6398 116.66 37.1598 114.9H37.5498L37.6998 118.03C38.4498 118.36 38.8198 118.84 38.8198 119.49C38.8198 120.14 38.4198 120.67 37.6198 121C36.8198 121.3 35.3398 121.45 33.1698 121.45H30.4998C29.1298 121.45 28.2498 121.25 27.8298 120.84C27.4398 120.43 27.2498 119.66 27.2498 118.52V110.22H24.4298C24.0198 113.8 22.9898 116.71 21.3398 118.93C19.7198 121.13 17.1998 122.86 13.7998 124.14L13.6098 123.53C16.1098 121.98 17.8998 120.17 18.9798 118.08C20.0598 115.96 20.7098 113.35 20.9098 110.23V110.21Z" fill="#493024"/>
<path d="M53.6099 125.55V127.5C56.7799 128.59 58.7099 130.08 59.4099 131.98C59.8199 133.15 59.6799 134.06 58.9899 134.71C58.2899 135.33 57.4799 135.27 56.5499 134.51C56.3399 132.58 55.3599 130.52 53.6099 128.32V142.77C53.6099 142.99 53.3099 143.23 52.7199 143.5C52.1299 143.77 51.5299 143.91 50.9399 143.91H50.2399V131.99C48.5899 134.81 46.5399 137.28 44.0899 139.4L43.6299 138.87C46.0799 135.51 47.9499 131.07 49.2399 125.56H44.3299L44.0199 124.38H50.2399V119.5H45.2499L44.9399 118.32H50.2399V113.6H44.8699L44.5599 112.42H50.2399V106.03L53.5999 106.56V112.42H60.4799V113.6H53.5999V118.32H59.8199V119.5H53.5999V124.38H60.6799V125.56H53.5999L53.6099 125.55ZM80.4799 127.55V128.73H74.7199V142.57C74.7199 142.84 74.3999 143.14 73.7499 143.47C73.1099 143.8 72.4699 143.96 71.8599 143.96H71.1999V128.74H66.4799C66.0899 132.21 65.1299 135.22 63.5799 137.78C62.0299 140.33 59.6899 142.43 56.5399 144.09L56.1499 143.64C58.3399 141.77 59.9799 139.63 61.0599 137.21C62.1399 134.77 62.8099 131.95 63.0699 128.75H58.7399L58.4299 127.57H63.1499C63.1999 126.38 63.2299 125.44 63.2299 124.76V116.78H59.4399L59.1299 115.6H63.2299V106.28L66.7099 106.77V115.6H71.1999V106.81H74.7199V115.6H79.8199V116.78H74.7199V127.57H80.4799V127.55ZM66.5999 127.55H71.1999V116.76H66.7099V124.74C66.7099 125.72 66.6699 126.65 66.5899 127.55H66.5999Z" fill="#493024"/>
<path d="M119.83 122.3V123.48H111.6C110.6 128.15 109.11 131.78 107.15 134.39C112.15 136.02 115.35 138.01 116.74 140.37C117.49 141.65 117.54 142.65 116.89 143.38C116.32 144 115.52 144.08 114.49 143.62C112.4 141.42 109.19 139.18 104.86 136.91C102.77 138.78 100.07 140.28 96.74 141.39C93.41 142.5 89.21 143.33 84.14 143.87L83.98 143.26C92.28 141.6 98.19 138.97 101.73 135.37C99.82 134.47 97.62 133.62 95.12 132.81C94.73 133.73 94.28 134.71 93.77 135.74C92.69 136.23 91.37 136.13 89.83 135.45C91.43 132.41 93.19 128.42 95.13 123.49H84.65L84.34 122.31H95.59C96.83 119.16 97.72 116.6 98.26 114.62L101.74 115.68C101.22 117.74 100.5 119.95 99.58 122.31H119.84L119.83 122.3ZM114.34 113.55H90.18C90.33 116.07 89.68 117.88 88.21 118.96C87.67 119.42 87.02 119.6 86.28 119.49C85.56 119.38 85.07 119 84.81 118.35C84.6 117.78 84.63 117.24 84.89 116.72C85.15 116.18 85.55 115.74 86.09 115.42C86.86 114.93 87.53 114.14 88.1 113.06C88.67 111.98 88.9 110.84 88.8 109.64L89.38 109.6C89.71 110.58 89.95 111.5 90.08 112.37H100.09V106.1L103.88 106.55V112.37H118.46V114.28C116.76 116.13 114.93 117.67 112.97 118.92L112.58 118.64C113.25 116.96 113.84 115.26 114.36 113.55H114.34ZM107.38 123.48H99.11C97.61 127.06 96.42 129.88 95.51 131.94C98.22 132.27 100.87 132.73 103.47 133.32C105.35 130.69 106.65 127.41 107.38 123.47V123.48Z" fill="#493024"/>
<path d="M159.62 111.88V113.06H143.34V117.98H156.87V139.18C156.87 140.7 156.53 141.82 155.86 142.56C155.22 143.29 153.81 143.77 151.65 143.98C151.52 142.65 151.21 141.75 150.72 141.29C150.05 140.64 148.86 140.19 147.16 139.95V139.34C149.94 139.56 151.66 139.67 152.3 139.67C152.87 139.67 153.15 139.37 153.15 138.78V119.16H130.22V142.6C130.22 142.84 129.89 143.13 129.22 143.46C128.58 143.79 127.88 143.95 127.13 143.95H126.51V117.99H139.62V113.07H124.04L123.73 111.89H139.62V106.27L143.33 106.76V111.89H159.61L159.62 111.88ZM151.85 134.02H143.15V142.08C143.15 142.13 143.03 142.23 142.8 142.37C142.59 142.51 142.25 142.64 141.76 142.78C141.27 142.92 140.75 142.98 140.21 142.98H139.59V134.03H132.01L131.7 132.85H139.59V127.85H132.44L132.13 126.67H142.68C143.43 124.69 144.11 122.38 144.73 119.75L147.86 121.13C146.73 123.22 145.36 125.06 143.76 126.66H151.49V127.84H143.14V132.84H151.84V134.02H151.85ZM134.33 120.1L134.75 119.86C137.43 120.67 139 121.89 139.47 123.52C139.78 124.55 139.59 125.37 138.89 125.96C138.17 126.58 137.37 126.53 136.49 125.8C136.31 123.76 135.59 121.87 134.32 120.1H134.33Z" fill="#493024"/>
<path d="M210.11 128.73V130.44C209.57 137.17 208.34 141.28 206.44 142.77C205.33 143.58 203.89 143.99 202.11 143.99C202.11 142.82 201.89 142.01 201.45 141.55C200.91 140.98 199.88 140.56 198.36 140.29V139.64C200.11 139.86 201.61 139.97 202.84 139.97C203.43 139.97 203.88 139.85 204.19 139.6C205.3 138.68 206.11 135.45 206.63 129.91H183.2C180.75 132.49 178.14 134.63 175.35 136.34L174.92 135.89C180.51 131.25 185.01 124.73 188.41 116.32H177.97L177.62 115.14H188.87C190.03 112.07 190.96 108.99 191.65 105.9L195.13 107.45C194.36 110.49 193.52 113.05 192.62 115.14H202.4V116.69L201.28 121.82H205.88V123.41L204.99 128.74H210.09L210.11 128.73ZM182.12 132.71L182.7 132.67C183.27 134.33 183.49 135.82 183.36 137.15C183.23 138.45 182.95 139.53 182.51 140.36C182.07 141.17 181.52 141.78 180.85 142.19C180.23 142.62 179.57 142.79 178.88 142.68C178.21 142.57 177.76 142.21 177.53 141.58C177.12 140.47 177.56 139.56 178.84 138.85C179.74 138.36 180.51 137.56 181.16 136.45C181.83 135.31 182.15 134.06 182.13 132.71H182.12ZM180.73 106.67L181.12 106.43C184.39 107.19 186.42 108.52 187.19 110.42C187.68 111.59 187.58 112.55 186.88 113.31C186.18 114.07 185.33 114.14 184.33 113.51C184.23 113.46 184.14 113.39 184.06 113.31C183.91 112.2 183.51 111.05 182.86 109.85C182.24 108.63 181.53 107.57 180.73 106.68V106.67ZM202.76 122.99H188.53C187.19 125.11 185.77 127.02 184.28 128.73H201.75L202.75 122.99H202.76ZM186.45 132.67L186.95 132.55C189.24 134.5 190.34 136.52 190.24 138.61C190.19 139.91 189.75 140.78 188.93 141.22C188.08 141.68 187.29 141.4 186.57 140.36C187.08 138 187.05 135.44 186.45 132.67ZM199.13 116.31H192.09C191.24 118.21 190.29 120.04 189.23 121.8H197.97L199.13 116.31ZM191.36 132.39L191.78 132.15C194.56 133.18 196.2 134.61 196.69 136.42C197 137.53 196.82 138.4 196.15 139.03C195.43 139.68 194.63 139.64 193.75 138.91C193.6 136.71 192.8 134.54 191.35 132.4L191.36 132.39ZM196.85 131.74L197.2 131.5C200.14 131.77 201.98 132.67 202.73 134.19C203.17 135.11 203.1 135.9 202.54 136.55C201.92 137.23 201.15 137.28 200.22 136.71C200.01 135.87 199.58 134.99 198.91 134.07C198.27 133.12 197.58 132.35 196.86 131.75L196.85 131.74Z" fill="#493024"/>
<path d="M225.83 129.91C229.13 130.59 231.15 131.82 231.9 133.61C232.34 134.67 232.25 135.52 231.63 136.17C230.99 136.88 230.2 136.9 229.27 136.25C229.06 135.25 228.64 134.21 227.99 133.16C227.35 132.08 226.62 131.14 225.83 130.35V142.84C225.83 143.06 225.51 143.29 224.86 143.53C224.21 143.8 223.58 143.94 222.97 143.94H222.31V133.73C220.45 136.36 218.07 138.69 215.16 140.73L214.73 140.16C217.49 137.2 219.69 133.24 221.34 128.28H215.5L215.19 127.1H222.3V122.54L225.82 123.03V127.1H233.71V128.28H225.82V129.91H225.83ZM234.49 121.93H215.12L214.81 120.75H225.13C225.88 118.36 226.5 115.73 226.99 112.86L230.16 114.32C229.03 116.79 227.65 118.93 226.02 120.75H234.49V121.93ZM215.81 112.81L215.5 111.63H222.38V106.22L225.98 106.67V111.63H233.36V112.81H215.81ZM218.13 113.14L218.59 112.94C221.14 114.32 222.55 115.95 222.8 117.82C222.96 118.96 222.67 119.77 221.95 120.26C221.2 120.72 220.47 120.56 219.75 119.77C219.78 117.76 219.23 115.55 218.13 113.14ZM251.3 120.42V121.6H246.62V142.84C246.59 142.95 246.47 143.08 246.23 143.25C246.02 143.41 245.68 143.56 245.19 143.7C244.7 143.86 244.17 143.94 243.61 143.94H242.99V121.6H238.43V123.02C238.43 124.73 238.38 126.23 238.28 127.54C238.2 128.84 237.97 130.33 237.58 132.02C237.22 133.67 236.72 135.15 236.07 136.46C235.43 137.74 234.51 139.04 233.32 140.37C232.13 141.7 230.72 142.88 229.07 143.91L228.61 143.42C230.34 141.63 231.68 139.55 232.63 137.19C233.61 134.83 234.23 132.59 234.49 130.48C234.75 128.36 234.88 125.86 234.88 122.95V110.78H238.75C242 109.21 244.54 107.66 246.37 106.14L248.3 109.52C245.31 110.63 242.02 111.43 238.44 111.92V120.42H251.31H251.3Z" fill="#493024"/>
<path d="M291.34 117.62V118.8H283.99V131.94C283.99 132.16 283.66 132.41 282.99 132.71C282.32 133.01 281.66 133.16 281.02 133.16H280.32V130.19H274.13V132.8C274.13 133.02 273.8 133.27 273.13 133.57C272.49 133.87 271.84 134.02 271.2 134.02H270.5V118.8H264.51V139.23H289.99V140.41H264.51V142.57C264.51 142.81 264.17 143.1 263.51 143.42C262.84 143.77 262.18 143.95 261.54 143.95H260.84V118.8H255.23L254.92 117.62H260.84V107.73H264.51V117.62H270.5V106.35L274.13 106.88V117.62H280.32V106.79L283.99 107.32V117.62H291.34ZM280.32 129.01V118.8H274.13V129.01H280.32Z" fill="#493024"/>
<path d="M302.03 106.14L306.01 108.01C304.85 111.51 303.83 114.56 302.96 117.17V142.81C302.93 142.97 302.59 143.2 301.92 143.5C301.25 143.8 300.61 143.95 299.99 143.95H299.29V121.49C297.56 123.85 295.72 125.86 293.76 127.51L293.26 127.14C295.01 124.56 296.69 121.39 298.29 117.62C299.89 113.85 301.14 110.02 302.04 106.14H302.03ZM329.4 133.08L328.59 139.63C329.78 141.39 330.11 142.59 329.6 143.21C329.19 143.78 328.59 144.02 327.82 143.94C327.05 143.86 326.3 143.64 325.58 143.29C324.86 142.94 324.15 142.48 323.45 141.91C318.09 137.57 314.71 130.52 313.32 120.75L304.85 121.77L304.42 120.63L313.16 119.61C312.67 115.92 312.43 111.62 312.43 106.71L316.3 107.4C316.25 112.2 316.42 116.12 316.8 119.16L323.02 118.43L328.51 117.82L328.59 118.92L316.91 120.3C318.1 128.85 320.96 134.76 325.49 138.04C325.82 138.34 326.08 138.47 326.26 138.45C326.44 138.42 326.62 138.23 326.8 137.88C327.44 136.74 328.17 135.11 328.97 133L329.4 133.08ZM319.04 107.89L319.39 107.6C322.74 107.95 324.85 108.97 325.73 110.65C326.24 111.63 326.21 112.47 325.61 113.17C324.97 113.93 324.13 114.02 323.1 113.45C322.46 111.58 321.1 109.72 319.04 107.87V107.89Z" fill="#493024"/>
<path d="M368.56 110.13V111.31H352.71C351.14 114 349.73 116.13 348.5 117.7H365.63V139.03C365.63 140.63 365.35 141.8 364.78 142.53C364.21 143.29 362.99 143.76 361.11 143.95C361.03 142.57 360.81 141.62 360.45 141.1C359.96 140.42 359.12 139.98 357.94 139.76V139.15C359.69 139.29 360.81 139.35 361.3 139.35C361.76 139.35 362 139.09 362 138.58V118.88H356.63V141.87C356.63 141.95 356.51 142.07 356.28 142.24C356.07 142.4 355.74 142.55 355.27 142.69C354.83 142.82 354.34 142.89 353.8 142.89H353.18V118.88H347.88V141.91C347.88 141.99 347.76 142.1 347.53 142.24C347.32 142.4 346.99 142.55 346.52 142.69C346.08 142.82 345.59 142.89 345.05 142.89H344.47V118.88H339.25V142.56C339.25 142.8 338.93 143.09 338.28 143.41C337.64 143.74 336.95 143.9 336.23 143.9H335.65V117.69H347.09C347.37 116.06 347.68 113.93 348.02 111.3H333.14L332.79 110.12H368.55L368.56 110.13Z" fill="#493024"/>
<path d="M407.15 133.53H392.65C394.38 134.94 396.62 136.15 399.38 137.15C402.16 138.13 404.97 138.81 407.81 139.19L407.77 139.64C406.22 140.02 405.23 141.21 404.79 143.22C398.81 141.37 394.35 138.15 391.41 133.53L391.37 143.05C391.37 143.16 391.22 143.28 390.91 143.42C390.63 143.55 390.24 143.68 389.75 143.79C389.29 143.93 388.83 143.99 388.4 143.99H387.74V135.4C384 139.06 378.66 141.73 371.7 143.42L371.43 142.85C377.07 140.57 381.4 137.47 384.42 133.53H372.51L372.16 132.35H387.74V128.48C386.32 129.29 384.51 129.97 382.29 130.52L382.02 129.99C384.7 128.85 386.5 127.55 387.43 126.08C388.38 124.59 388.86 122.88 388.86 120.95V115.7C388.55 115.92 388.23 116.11 387.89 116.27L387.39 115.82C389.63 113.35 391.4 110.1 392.69 106.05L395.78 107.76C395.37 108.95 394.89 109.9 394.35 110.61H407.46V111.79H398.14C398.86 112.14 399.42 112.58 399.8 113.09C400.19 113.58 400.38 114.04 400.38 114.47C400.38 114.88 400.3 115.27 400.15 115.65L403.01 118.21C402.78 118.51 402.35 118.71 401.73 118.82V125.29C401.73 125.51 401.77 125.66 401.85 125.74C401.93 125.79 402.1 125.82 402.35 125.82H403.59C404.23 125.82 404.62 125.81 404.75 125.78C404.98 125.78 405.16 125.67 405.29 125.45C405.47 125.07 405.83 123.8 406.37 121.62H406.83L406.95 125.53C407.36 125.69 407.62 125.87 407.72 126.06C407.85 126.25 407.91 126.52 407.91 126.87C407.91 128.25 406.38 128.95 403.31 128.95H401.38C400.19 128.95 399.42 128.75 399.06 128.34C398.72 127.93 398.56 127.17 398.56 126.06V118.45H392.26V120.61L392.57 120.37C395.43 120.86 397.16 121.86 397.75 123.38C398.08 124.28 397.93 124.99 397.29 125.54C396.67 126.08 395.96 126.04 395.16 125.42C395.03 124.63 394.68 123.82 394.12 122.98C393.55 122.11 392.93 121.38 392.26 120.78C392.26 124.23 391.96 126.79 391.37 128.47V132.34H407.14V133.52L407.15 133.53ZM380.17 111.8H378.59C376.66 114.22 374.43 116.11 371.9 117.5L371.44 117.01C372.65 115.76 373.81 114.18 374.92 112.25C376.03 110.3 376.93 108.25 377.63 106.1L380.65 108.14C380.13 109.39 379.75 110.22 379.49 110.62H390.35V111.8H382.27C383.82 112.64 384.54 113.65 384.43 114.81C384.35 115.6 383.97 116.11 383.27 116.36C382.6 116.58 381.96 116.39 381.34 115.79C381.34 114.57 380.95 113.24 380.18 111.8H380.17ZM387.74 119.37H381.67V125.07C382.85 124.85 384.69 124.53 387.16 124.09L387.28 124.7C383.88 126.17 379.79 127.78 375.02 129.54C374.87 130.03 374.56 130.34 374.09 130.48L372.12 126.45C374.1 126.21 376.17 125.92 378.31 125.6V119.37H373.44L373.13 118.19H387.74V119.37ZM395.63 111.8H393.39C392.02 113.35 390.53 114.64 388.91 115.67L392.81 117.3H398.22L398.95 116.49C398.33 116.57 397.76 116.4 397.25 115.96C397.15 114.69 396.61 113.3 395.63 111.81V111.8Z" fill="#493024"/>
</g>
<defs>
<clipPath id="clip0_18_4468">
<rect width="407.92" height="144.07" fill="white"/>
</clipPath>
</defs>
</svg>
