<?xml version="1.0" encoding="UTF-8"?><svg id="_圖層_1" xmlns="http://www.w3.org/2000/svg" version="1.1" viewBox="0 0 437 177"><!--Generator: Adobe Illustrator 29.3.1, SVG Export Plug-In . SVG Version: 2.1.0 Build 151)--><defs><style>.st0 {
        fill: #493024;
      }</style></defs><path class="st0" d="M19.2,7.5v35h-7.6V7.5H1.4V.6h27.9v6.9h-10.2.1ZM61.6,42.5h-7.6v-17.7h-13.2v17.7h-7.6V.6h7.6v17.2h13.2V.6h7.6v41.9ZM75.3,17.9h15.1v6.9h-15.1v10.7h17.7v6.9h-25.3V.6h25.3v6.9h-17.7v10.4ZM116.9,29.6c-.4,8.2,13.6,8.7,13.6.9s-19.8-1.3-19.8-18,27-16.1,26.6,0h-7.3c.2-7.7-12.2-8-12.2-.3s20.3.8,20.2,17.7c-.1,17.3-28.3,17.1-28.2-.2h0s7.1,0,7.1,0ZM214.1,29.6c-.4,8.2,13.6,8.7,13.6.9s-19.8-1.3-19.8-18,27-16.1,26.6,0h-7.3c.2-7.7-12.2-8-12.2-.3s20.3.8,20.2,17.7c-.1,17.3-28.3,17.1-28.2-.2h0s7.1,0,7.1,0ZM150.2,17.9h15.1v6.9h-15.1v10.7h17.7v6.9h-25.3V.6h25.3v6.9h-17.7v10.4ZM202.5,42.5h-7.6l-14.7-26.2v26.2h-7.6V.6h7.6l14.7,26.2V.6h7.6v41.9ZM247.5,17.9h15.1v6.9h-15.1v10.7h17.7v6.9h-25.3V.6h25.3v6.9h-17.7v10.4h0ZM3.9,89.5c0-23.3,28.9-23.3,28.9,0v9.6c0,22.4-28.9,22.4-28.9,0v-9.6h0ZM25.2,99v-9c1.4-13.4-15.2-13.5-13.6,0v9c-1.5,13,14.9,12.9,13.6,0ZM45.9,91.1h15.2v6.9h-15.2v17.3h-7.6v-41.9h25.3v6.9h-17.7v10.7h0ZM89.5,98.3v17h-7.6v-41.9h15.1c15.3,0,16.6,19.3,5.8,23.7l8.7,18.2h-8.7l-7.6-17h-5.7ZM96.7,91.6c7.6,0,7.6-11.3,0-11.3h-7.2v11.3h7.2ZM123.8,73.5v41.9h-7.6v-41.9h7.6ZM145.6,80.4v35h-7.6v-35h-10.2v-6.9h27.9v6.9h-10.2.1ZM159.8,101.5v-28h7.6v27.8c0,10.1,13.4,10.1,13.4,0v-27.8h7.6v28c0,19-28.6,19-28.6,0ZM200.9,107.2l-2.4,8.1h-8l14.1-41.9h6.2l14.2,41.9h-8l-2.4-8.1h-13.7ZM207.7,84.5l-4.8,16.1h9.6l-4.9-16.1h0ZM236.5,73.5v35h17.4v6.9h-25v-41.9h7.6ZM279.8,73.5v41.9h-7.6v-41.9h7.6ZM315.9,115.3h-7.6l-14.7-26.2v26.2h-7.6v-41.9h7.6l14.7,26.2v-26.2h7.6s0,41.9,0,41.9ZM343.4,73.5v35h17.4v6.9h-25v-41.9h7.6ZM373,73.5v41.9h-7.6v-41.9h7.6ZM386.9,91.1h15.2v6.9h-15.2v17.3h-7.6v-41.9h25.3v6.9h-17.7v10.7h0ZM416.7,90.8h15.1v6.9h-15.1v10.7h17.7v6.9h-25.3v-41.9h25.3v6.9h-17.7v10.4h0ZM5.2,166.3h8v1.8H5.2v8.5h-2v-18.6h11.3v1.8H5.2v6.5ZM15.9,168.3c0-7.6,10.4-7.6,10.4,0v2.8c0,7.5-10.3,7.6-10.4,0v-2.9ZM24.5,171v-2.6c0-5.3-6.7-5.3-6.7,0v2.6c0,5.5,6.7,5.5,6.7,0ZM239.4,168.3c0-7.6,10.4-7.6,10.4,0v2.8c0,7.5-10.3,7.6-10.4,0v-2.9ZM248,171v-2.6c0-5.3-6.7-5.3-6.7,0v2.6c0,5.5,6.7,5.5,6.7,0ZM31.8,164.7c.8-1.7,3-2.1,4.6-2v1.8c-2.3-.8-4.7.7-4.6,3.3v8.7h-1.8v-13.7h1.8v1.9ZM203.6,164.7c.8-1.7,3-2.1,4.6-2v1.8c-2.3-.8-4.7.7-4.6,3.3v8.7h-1.8v-13.7h1.8v1.9ZM47.9,173.1c0,2,1.4,2,2.8,1.9v1.6c-2.4.3-4.7-.4-4.7-3.4v-8.8h-2.1v-1.5h2.1v-3.1l1.9-.9v4h3.1v1.5h-3.1v8.7h0ZM227.3,173.1c0,2,1.4,2,2.8,1.9v1.6c-2.4.3-4.7-.4-4.7-3.4v-8.8h-2.1v-1.5h2.1v-3.1l1.9-.9v4h3.1v1.5h-3.1v8.7h0ZM55.9,158.1v6.5c1.7-2.7,8.2-3.2,8.2,3.1v9h-1.8v-8.7c0-4.9-6.3-4.8-6.3,0v8.7h-1.8v-18.6h1.7ZM176.1,162.8v1.8c1.7-2.7,8.2-3.2,8.2,3.1v9h-1.8v-8.7c0-4.9-6.3-4.8-6.3,0v8.7h-1.8v-13.9h1.7ZM255.3,162.8v1.8c1.7-2.7,8.2-3.2,8.2,3.1v9h-1.8v-8.7c0-4.9-6.3-4.8-6.3,0v8.7h-1.8v-13.9h1.7ZM69.6,172c0,3.5,6.6,4.3,6.6.4h1.8c0,5.8-10.2,6.7-10.2-1.5v-2.4c0-7.7,10.4-7.7,10.4,0v1.6h-8.6v1.9ZM69.6,168.7h6.7c0-5.9-6.7-5.9-6.7,0ZM106.9,172c0,3.5,6.6,4.3,6.6.4h1.8c0,5.8-10.2,6.7-10.2-1.5v-2.4c0-7.7,10.4-7.7,10.4,0v1.6h-8.6v1.9ZM106.9,168.7h6.7c0-5.9-6.7-5.9-6.7,0ZM162,172c0,3.5,6.6,4.3,6.6.4h1.8c0,5.8-10.2,6.7-10.2-1.5v-2.4c0-7.7,10.4-7.7,10.4,0v1.6h-8.6v1.9ZM162,168.7h6.7c0-5.9-6.7-5.9-6.7,0ZM189.7,172c0,3.5,6.6,4.3,6.6.4h1.8c0,5.8-10.2,6.7-10.2-1.5v-2.4c0-7.7,10.4-7.7,10.4,0v1.6h-8.6v1.9ZM189.7,168.7h6.7c0-5.9-6.7-5.9-6.7,0ZM101.3,176.6h-2l-9.6-15v15h-2v-18.6h2l9.6,14.9v-14.9h2v18.6ZM119.4,162.9l3.1,10.9,3.4-10.9h1.5l3.4,10.9,3.1-10.9h2l-4.2,13.7h-1.7l-3.5-11-3.4,11h-1.7l-4.2-13.7h2.2ZM154.7,168.8h-4.5v-1.7h6.4v3.2c0,9-12.7,9-12.7-.5v-5.3c0-9.1,12.8-8.6,12.8-1h0c0,.1-2,0-2,0h0c0-5.1-9-5.7-9,1v5.3c0,7.2,9,6.8,9,1v-2ZM218.6,166.8c0-3.5-6-3.6-6.1-.3h-1.8c.4-5.7,9.6-5.2,9.6.6v9.5h-1.8v-1.5c-7.5,6.6-14.2-8.2,0-6.3v-2ZM218.5,170.1c-2.1,0-6.5-.7-6.4,2.5s6.4,3.6,6.4-.7v-1.8ZM235.6,158.2v2.4h-1.9v-2.4h1.9ZM235.6,162.9v13.7h-1.8v-13.7h1.8Z"/></svg>