<svg xmlns="http://www.w3.org/2000/svg" xmlns:xlink="http://www.w3.org/1999/xlink" viewBox="0 0 880 880" fill="none"><defs><radialGradient id="rg" cx="440" cy="440" r="440" gradientUnits="userSpaceOnUse"><stop offset="0" stop-color="#f18e1d"/><stop offset="1" stop-color="#dd4f1d"/></radialGradient></defs><g id="v3"><g id="v2"><path id="v" stroke="#7d7d7d" stroke-width="1.2" d="M432.6,3v4.5M417.2,3v4.4M401.8,3v4.3h0M386.3,3v4.3h0M370.9,3.1v4.2h0M355.4,3.1v4.2M340.1,3.2v4.1M324.7,3.2v4.1M309.2,3.2v4M293.8,3.3v4h0M278.4,3.3s0,3.9,0,3.9M262.9,3.3v3.8M247.5,3.4v3.8h0M232.1,3.4v3.6M216.7,3.5v3.4M201.3,3.6v3.2h0M185.8,3.7v3.1M170.4,3.8v2.9M155,3.9v2.7M139.6,4v2.5M124.1,4v2.4M108.7,4.2v2.2h0M93.3,4.3v1.9M77.9,4.5v1.5M62.4,4.7v1.2M47,4.8v.9M31.6,4.9v.6M16.2,5.1v.3M.8,5.2h0"/><use xlink:href="#v" x="0" y="29"/><use xlink:href="#v" x="0" y="58"/><use xlink:href="#v" x="0" y="87"/><use xlink:href="#v" x="0" y="116"/></g><use xlink:href="#v2" x="0" y="145"/><use xlink:href="#v2" x="0" y="290"/><use xlink:href="#v2" x="0" y="435"/><use xlink:href="#v2" x="0" y="580"/><use xlink:href="#v2" x="0" y="725"/><use xlink:href="#v" x="0" y="870"/></g><use xlink:href="#v3" x="0" y="0" transform="rotate(180 440 440)"/><path fill="url(#rg)" d="M516.4,257.4h-153l-108.1,108.2v152.9l108.1,108.2h153l108.2-108.2v-152.9l-108.2-108.2h0ZM623,224.8l-106.5-106.5h-153l-106.5,106.5h366ZM569.9,85.7l-53.5-53.5h-153l-53.5,53.5h260ZM623,659.2l-106.5,106.5h-153l-106.5-106.5h366ZM569.9,798.3l-53.5,53.5h-153l-53.5-53.5h260ZM657.2,625l106.5-106.5v-152.9l-106.5-106.5v366h0ZM796.4,572l53.5-53.5v-152.9l-53.5-53.5v260h0ZM222.8,625l-106.5-106.5v-152.9l106.5-106.5v366h0ZM83.6,572l-53.5-53.5v-152.9l53.5-53.5v260h0ZM763.7,224.8h-106.5v-106.5l106.5,106.5ZM710.7,85.7l-53.5-53.5v53.5h53.5ZM849.9,224.8l-53.5-53.5v53.5h53.5ZM116.2,224.8h106.5v-106.5l-106.5,106.5ZM169.2,85.7l53.5-53.5v53.5h-53.5ZM30.1,224.8l53.5-53.5v53.5H30.1ZM763.7,659.2h-106.5v106.5l106.5-106.5ZM710.7,798.3l-53.5,53.5v-53.5h53.5ZM849.9,659.2l-53.5,53.5v-53.5h53.5ZM116.2,659.2h106.5v106.5l-106.5-106.5ZM169.2,798.3l53.5,53.5v-53.5h-53.5ZM30.1,659.2l53.5,53.5v-53.5H30.1Z"/><path stroke="#fff" d="M440,130.7v84.1M440,43.9v30.4M440,753.4v-84.1M440,840.1v-30.4M751.3,442.2h-84.1M838.1,442.2h-30.4M128.6,442.2h84.1M41.9,442.2h30.4"/></svg>