<svg width="526" height="81" fill="none" xmlns="http://www.w3.org/2000/svg"><g clip-path="url(#clip0_18_4323)"><path d="M2.52002 18.8234V11.2213C2.52002 7.33404 3.4434 4.5 5.3094 2.7C7.1754 0.9 9.67622 0 12.7926 0C14.8125 0 16.5823 0.36383 18.0828 1.11064C19.5833 1.85745 20.7568 2.89149 21.584 4.23192C22.4112 5.57234 22.8152 7.1234 22.8152 8.88511V9.05745H19.6987V8.88511C19.6987 7.00851 19.0832 5.53404 17.852 4.44255C16.6208 3.35106 14.9472 2.81489 12.8311 2.81489C10.4649 2.81489 8.67589 3.48511 7.46395 4.82553C6.23278 6.16596 5.63643 8.34894 5.63643 11.3553V18.9957C5.63643 24.4532 8.0603 27.1915 12.8888 27.1915C15.1396 27.1915 16.8517 26.5787 18.0251 25.3723C19.1986 24.1468 19.7949 22.2128 19.7949 19.5511V17.2915H12.7542V14.6106H22.9113V18.9957C22.9113 22.8447 22.0072 25.6596 20.1797 27.4021C18.3522 29.1447 15.8898 30.0447 12.7926 30.0447C9.69546 30.0447 7.1754 29.1447 5.3094 27.3447C3.4434 25.5447 2.52002 22.7106 2.52002 18.8234Z" fill="white"/><path d="M34.1843 13.3851H46.8231V16.1808H34.1843V26.8851H48.9584V29.6808H31.0679V0.382935H48.9584V3.17868H34.1843V13.3659V13.3851Z" fill="white"/><path d="M64.7326 3.17868V29.6808H61.6547V3.17868H53.248V0.382935H73.1392V3.17868H64.7326Z" fill="white"/><path d="M98.3976 3.17868V29.6808H95.3197V3.17868H86.9131V0.382935H106.804V3.17868H98.3976Z" fill="white"/><path d="M132.486 29.7H129.369V16.1042H115.576V29.7H112.46V0.382935H115.576V13.3085H129.369V0.382935H132.486V29.7Z" fill="white"/><path d="M144.355 13.3851H156.994V16.1808H144.355V26.8851H159.129V29.6808H141.239V0.382935H159.129V3.17868H144.355V13.3659V13.3851Z" fill="white"/><path d="M197.642 21.6574C197.642 24.1851 196.853 26.1383 195.257 27.5553C193.66 28.9723 191.486 29.6808 188.735 29.6808H177.674V0.382935H188.466C191.217 0.382935 193.371 1.05315 194.891 2.39357C196.411 3.734 197.18 5.64889 197.18 8.09996C197.18 9.59357 196.776 10.9531 195.988 12.1404C195.199 13.3276 194.083 14.151 192.66 14.6106C194.314 15.1276 195.545 15.9893 196.392 17.1957C197.238 18.4212 197.642 19.8957 197.642 21.6574ZM180.79 13.3468H188.139C189.986 13.3468 191.448 12.9255 192.486 12.1021C193.544 11.2595 194.064 9.9957 194.064 8.29145C194.064 6.58719 193.544 5.30421 192.525 4.44251C191.505 3.58081 190.043 3.14038 188.177 3.14038H180.79V13.3276V13.3468ZM194.526 21.4468C194.526 19.6851 193.987 18.3638 192.929 17.4446C191.871 16.5446 190.351 16.0851 188.389 16.0851H180.79V26.9234H188.35C190.313 26.9234 191.832 26.4638 192.91 25.5255C193.987 24.5872 194.526 23.2276 194.526 21.4468Z" fill="white"/><path d="M208.915 13.3851H221.554V16.1808H208.915V26.8851H223.689V29.6808H205.798V0.382935H223.689V3.17868H208.915V13.3659V13.3851Z" fill="white"/><path d="M229.056 21.4085H232.134C232.538 25.2957 234.866 27.2298 239.137 27.2298C241.349 27.2298 243.042 26.7702 244.196 25.8319C245.35 24.8936 245.927 23.534 245.927 21.7532C245.927 20.1447 245.466 18.9191 244.561 18.0957C243.657 17.2723 242.272 16.717 240.425 16.3915L237.097 15.8362C234.712 15.434 232.865 14.6298 231.596 13.3851C230.307 12.1596 229.672 10.417 229.672 8.17658C229.672 5.59147 230.538 3.58083 232.269 2.14466C234 0.708495 236.289 -0.019165 239.137 -0.019165C241.753 -0.019165 243.888 0.651048 245.562 1.99147C247.235 3.3319 248.217 5.38084 248.524 8.13828H245.446C245.1 4.48084 242.984 2.66169 239.079 2.66169C237.059 2.66169 235.482 3.14041 234.366 4.07871C233.25 5.03615 232.673 6.31913 232.673 7.96594C232.673 9.40211 233.115 10.5319 233.981 11.3362C234.847 12.1404 236.155 12.6957 237.925 13.0213L241.349 13.6149C243.83 14.0362 245.716 14.8979 247.024 16.1617C248.332 17.4447 248.986 19.2447 248.986 21.5617C248.986 24.2234 248.082 26.2915 246.293 27.7468C244.504 29.2021 242.041 29.9298 238.906 29.9298C235.943 29.9298 233.635 29.2021 231.942 27.7659C230.268 26.3298 229.287 24.2042 229.037 21.3893L229.056 21.4085Z" fill="white"/><path d="M264.683 3.17868V29.6808H261.605V3.17868H253.199V0.382935H273.09V3.17868H264.683Z" fill="white"/><path d="M293.058 16.8319V29.7H289.941V0.382935H300.868C303.638 0.382935 305.793 1.09145 307.37 2.52762C308.948 3.96379 309.736 5.99357 309.736 8.61698C309.736 10.7042 309.179 12.4468 308.063 13.8063C306.947 15.1659 305.408 16.0659 303.407 16.5255L310.371 29.7H306.793L300.137 16.8319H293.058ZM300.599 14.151C302.503 14.151 303.984 13.6723 305.043 12.734C306.101 11.7766 306.62 10.4361 306.62 8.67442C306.62 6.91272 306.101 5.4957 305.062 4.57655C304.023 3.6574 302.542 3.19783 300.599 3.19783H293.039V14.151H300.599Z" fill="white"/><path d="M320.875 0.382935V29.7H317.758V0.382935H320.875Z" fill="white"/><path d="M329.358 18.8234V11.2213C329.358 7.33404 330.282 4.5 332.148 2.7C334.014 0.9 336.515 0 339.631 0C341.651 0 343.421 0.36383 344.921 1.11064C346.422 1.85745 347.595 2.89149 348.422 4.23192C349.25 5.57234 349.654 7.1234 349.654 8.88511V9.05745H346.537V8.88511C346.537 7.00851 345.922 5.53404 344.69 4.44255C343.459 3.35106 341.786 2.81489 339.669 2.81489C337.303 2.81489 335.514 3.48511 334.302 4.82553C333.071 6.16596 332.475 8.34894 332.475 11.3553V18.9957C332.475 24.4532 334.899 27.1915 339.727 27.1915C341.978 27.1915 343.69 26.5787 344.863 25.3723C346.037 24.1468 346.633 22.2128 346.633 19.5511V17.2915H339.593V14.6106H349.75V18.9957C349.75 22.8447 348.846 25.6596 347.018 27.4021C345.191 29.1447 342.728 30.0447 339.631 30.0447C336.534 30.0447 334.014 29.1447 332.148 27.3447C330.282 25.5447 329.358 22.7106 329.358 18.8234Z" fill="white"/><path d="M377.932 29.7H374.816V16.1042H361.023V29.7H357.906V0.382935H361.023V13.3085H374.816V0.382935H377.932V29.7Z" fill="white"/><path d="M395.072 3.17868V29.6808H391.995V3.17868H383.588V0.382935H403.479V3.17868H395.072Z" fill="white"/><path d="M423.447 13.4617H436.086V16.2574H423.447V29.6808H420.331V0.382935H438.222V3.17868H423.447V13.4617Z" fill="white"/><path d="M448.378 16.8319V29.7H445.262V0.382935H456.188C458.959 0.382935 461.113 1.09145 462.691 2.52762C464.268 3.96379 465.057 5.99357 465.057 8.61698C465.057 10.7042 464.499 12.4468 463.383 13.8063C462.267 15.1659 460.728 16.0659 458.728 16.5255L465.692 29.7H462.113L455.457 16.8319H448.378ZM455.919 14.151C457.824 14.151 459.305 13.6723 460.363 12.734C461.421 11.7766 461.94 10.4361 461.94 8.67442C461.94 6.91272 461.421 5.4957 460.382 4.57655C459.343 3.6574 457.862 3.19783 455.919 3.19783H448.359V14.151H455.919Z" fill="white"/><path d="M472.136 18.8234V11.2213C472.136 7.33404 473.059 4.5 474.906 2.7C476.753 0.9 479.253 0 482.37 0C485.486 0 487.949 0.9 489.776 2.7C491.604 4.5 492.527 7.33404 492.527 11.2213V18.8234C492.527 22.7106 491.604 25.5447 489.757 27.3447C487.91 29.1447 485.429 30.0447 482.331 30.0447C479.234 30.0447 476.714 29.1447 474.887 27.3447C473.059 25.5447 472.136 22.7106 472.136 18.8234ZM489.43 11.3362C489.43 5.64894 487.083 2.79574 482.389 2.79574C480.023 2.79574 478.253 3.46596 477.06 4.80638C475.868 6.14681 475.271 8.32979 475.271 11.3362V18.9766C475.271 21.8298 475.868 23.917 477.08 25.2192C478.292 26.5213 480.061 27.1723 482.389 27.1723C487.083 27.1723 489.43 24.434 489.43 18.9766V11.3362Z" fill="white"/><path d="M526 29.7H522.883V6.75953L514.554 23.8404H512.168L503.8 6.75953V29.7H500.684V0.382935H503.8L513.361 20.1446L522.883 0.382935H526V29.7Z" fill="white"/><path d="M11.9078 80.6553H8.79136V68.3425L0 51.3574H3.36649L10.3303 65.4127L17.3326 51.3574H20.6991L11.9078 68.4V80.6744V80.6553Z" fill="white"/><path d="M25.7202 69.7979V62.1958C25.7202 58.3085 26.6436 55.4745 28.4904 53.6745C30.3371 51.8745 32.8379 50.9745 35.9544 50.9745C39.0708 50.9745 41.5331 51.8745 43.3606 53.6745C45.1882 55.4745 46.1115 58.3085 46.1115 62.1958V69.7979C46.1115 73.6851 45.1882 76.5192 43.3414 78.3192C41.4946 80.1192 39.0131 81.0192 35.9159 81.0192C32.8187 81.0192 30.2986 80.1192 28.4711 78.3192C26.6436 76.5192 25.7202 73.6851 25.7202 69.7979ZM43.0144 62.3107C43.0144 56.6234 40.6674 53.7702 35.9736 53.7702C33.6074 53.7702 31.8376 54.4404 30.6449 55.7809C29.4522 57.1213 28.8559 59.3043 28.8559 62.3107V69.9511C28.8559 72.8043 29.4522 74.8915 30.6641 76.1936C31.8761 77.4958 33.6459 78.1468 35.9736 78.1468C40.6674 78.1468 43.0144 75.4085 43.0144 69.9511V62.3107Z" fill="white"/><path d="M55.5954 76.2127C54.7105 74.7191 54.2681 73.0149 54.2681 71.1191V51.3574H57.423V70.851C57.423 73.0915 58.0578 74.8723 59.3274 76.1744C60.5971 77.4957 62.2899 78.1468 64.4253 78.1468C66.5606 78.1468 68.215 77.4957 69.5039 76.1744C70.7927 74.8532 71.4276 73.0723 71.4276 70.851V51.3574H74.544V71.1191C74.544 73.0532 74.1015 74.7574 73.2358 76.2319C72.3702 77.7255 71.1582 78.8744 69.6385 79.6978C68.0995 80.5212 66.3682 80.9234 64.4253 80.9234C62.4823 80.9234 60.751 80.5212 59.212 79.6978C57.673 78.8744 56.4611 77.7064 55.5762 76.2127H55.5954Z" fill="white"/><path d="M86.4133 67.7872V80.6553H83.2969V51.3383H94.2235C96.9745 51.3383 99.1482 52.0468 100.726 53.4829C102.303 54.9191 103.092 56.9489 103.092 59.5723C103.092 61.6595 102.534 63.4021 101.418 64.7617C100.302 66.1212 98.7635 67.0212 96.7628 67.4808L103.727 80.6553H100.149L93.4925 67.7872H86.4133ZM93.9542 65.1063C95.8587 65.1063 97.34 64.6276 98.398 63.6893C99.456 62.7319 99.9754 61.3914 99.9754 59.6297C99.9754 57.868 99.456 56.451 98.4172 55.5319C97.3784 54.6127 95.8972 54.1532 93.9542 54.1532H86.394V65.1063H93.9542Z" fill="white"/><path d="M125.06 64.4361H137.699V67.2319H125.06V80.6553H121.944V51.3383H139.834V54.134H125.06V64.417V64.4361Z" fill="white"/><path d="M150.319 51.3574V80.6744H147.202V51.3574H150.319Z" fill="white"/><path d="M162.534 67.7872V80.6553H159.418V51.3383H170.345C173.096 51.3383 175.269 52.0468 176.847 53.4829C178.424 54.9191 179.213 56.9489 179.213 59.5723C179.213 61.6595 178.655 63.4021 177.539 64.7617C176.424 66.1212 174.885 67.0212 172.884 67.4808L179.848 80.6553H176.27L169.614 67.7872H162.534ZM170.075 65.1063C171.98 65.1063 173.461 64.6276 174.519 63.6893C175.577 62.7319 176.097 61.3914 176.097 59.6297C176.097 57.868 175.577 56.451 174.538 55.5319C173.5 54.6127 172.018 54.1532 170.075 54.1532H162.515V65.1063H170.075Z" fill="white"/><path d="M184.888 72.383H187.966C188.37 76.2702 190.697 78.2043 194.968 78.2043C197.18 78.2043 198.873 77.7447 200.027 76.8064C201.182 75.8681 201.759 74.5085 201.759 72.7277C201.759 71.1192 201.297 69.8936 200.393 69.0702C199.489 68.2468 198.104 67.6915 196.257 67.366L192.929 66.8106C190.544 66.4085 188.697 65.6043 187.427 64.3596C186.138 63.134 185.503 61.3915 185.503 59.1511C185.503 56.566 186.369 54.5553 188.1 53.1192C189.832 51.683 192.121 50.9553 194.968 50.9553C197.584 50.9553 199.72 51.6255 201.393 52.966C203.067 54.3064 204.048 56.3553 204.356 59.1128H201.278C200.932 55.4553 198.816 53.6362 194.91 53.6362C192.891 53.6362 191.313 54.1149 190.197 55.0532C189.082 55.9915 188.504 57.2936 188.504 58.9404C188.504 60.3766 188.947 61.5064 189.813 62.3106C190.678 63.1149 191.986 63.6702 193.756 63.9957L197.18 64.5894C199.662 65.0106 201.547 65.8723 202.855 67.1362C204.163 68.4192 204.818 70.2192 204.818 72.5362C204.818 75.1979 203.913 77.266 202.124 78.7213C200.335 80.1766 197.873 80.9043 194.737 80.9043C191.775 80.9043 189.466 80.1766 187.773 78.7404C186.1 77.3043 185.119 75.1787 184.869 72.3638L184.888 72.383Z" fill="white"/><path d="M220.515 54.1532V80.6553H217.437V54.1532H209.03V51.3574H228.921V54.1532H220.515Z" fill="white"/><path d="M265.799 80.6553H262.683V67.0595H248.89V80.6553H245.773V51.3383H248.89V64.2638H262.683V51.3383H265.799V80.6553Z" fill="white"/><path d="M273.937 69.7979V62.1958C273.937 58.3085 274.86 55.4745 276.707 53.6745C278.553 51.8745 281.054 50.9745 284.171 50.9745C287.287 50.9745 289.749 51.8745 291.577 53.6745C293.404 55.4745 294.328 58.3085 294.328 62.1958V69.7979C294.328 73.6851 293.404 76.5192 291.558 78.3192C289.711 80.1192 287.229 81.0192 284.132 81.0192C281.035 81.0192 278.515 80.1192 276.687 78.3192C274.86 76.5192 273.937 73.6851 273.937 69.7979ZM291.231 62.3107C291.231 56.6234 288.884 53.7702 284.19 53.7702C281.824 53.7702 280.054 54.4404 278.861 55.7809C277.669 57.1213 277.072 59.3043 277.072 62.3107V69.9511C277.072 72.8043 277.669 74.8915 278.88 76.1936C280.092 77.4958 281.862 78.1468 284.19 78.1468C288.884 78.1468 291.231 75.4085 291.231 69.9511V62.3107Z" fill="white"/><path d="M327.8 80.6553H324.684V57.7149L316.354 74.7957H313.969L305.601 57.7149V80.6553H302.484V51.3383H305.601L315.162 71.1L324.684 51.3383H327.8V80.6553Z" fill="white"/><path d="M339.65 64.3595H352.289V67.1553H339.65V77.8595H354.424V80.6553H336.534V51.3383H354.424V54.134H339.65V64.3212V64.3595Z" fill="white"/></g><defs><clipPath id="clip0_18_4323"><rect width="526" height="81" fill="white"/></clipPath></defs></svg>