<svg width="528" height="187" fill="none" xmlns="http://www.w3.org/2000/svg"><g clip-path="url(#clip0_18_4420)"><g style="mix-blend-mode:multiply"><path d="M129.29 7.03001H135.86V8.49001H129.29V15.5H127.67V0.200012H136.97V1.66001H129.29V7.03001Z" fill="#C8C9CA"/><path d="M140.32 9.83V5.86C140.32 3.83 140.8 2.35 141.76 1.41C142.72 0.47 144.02 0 145.64 0C147.26 0 148.54 0.47 149.49 1.41C150.44 2.35 150.92 3.83 150.92 5.86V9.83C150.92 11.86 150.44 13.34 149.48 14.28C148.52 15.22 147.23 15.69 145.62 15.69C144.01 15.69 142.7 15.22 141.75 14.28C140.8 13.34 140.32 11.86 140.32 9.83ZM149.3 5.92C149.3 2.95 148.08 1.46 145.64 1.46C144.41 1.46 143.49 1.81 142.87 2.51C142.25 3.21 141.94 4.35 141.94 5.92V9.91C141.94 11.4 142.25 12.49 142.88 13.17C143.51 13.85 144.43 14.19 145.64 14.19C148.08 14.19 149.3 12.76 149.3 9.91V5.92Z" fill="#C8C9CA"/><path d="M156.77 8.79001V15.51H155.15V0.200012H160.83C162.27 0.200012 163.39 0.570012 164.21 1.32001C165.03 2.07001 165.44 3.13001 165.44 4.50001C165.44 5.59001 165.15 6.50001 164.57 7.21001C163.99 7.92001 163.19 8.39001 162.15 8.63001L165.77 15.51H163.91L160.45 8.79001H156.77ZM160.7 7.39001C161.69 7.39001 162.46 7.14001 163.01 6.65001C163.56 6.15001 163.83 5.45001 163.83 4.53001C163.83 3.61001 163.56 2.87001 163.02 2.39001C162.48 1.91001 161.71 1.67001 160.7 1.67001H156.77V7.39001H160.7Z" fill="#C8C9CA"/><path d="M179.62 1.66001V15.5H178.02V1.66001H173.65V0.200012H183.99V1.66001H179.62Z" fill="#C8C9CA"/><path d="M197.35 15.51H195.73V8.41001H188.56V15.51H186.94V0.200012H188.56V6.94001H195.73V0.200012H197.35V15.51Z" fill="#C8C9CA"/><path d="M203.51 6.99001H210.08V8.45001H203.51V14.04H211.19V15.5H201.89V0.200012H211.19V1.66001H203.51V6.99001Z" fill="#C8C9CA"/><path d="M231.99 15.51H230.37L222.45 3.17001V15.51H220.83V0.200012H222.45L230.37 12.49V0.200012H231.99V15.51Z" fill="#C8C9CA"/><path d="M238.16 6.99001H244.73V8.45001H238.16V14.04H245.84V15.5H236.54V0.200012H245.84V1.66001H238.16V6.99001Z" fill="#C8C9CA"/><path d="M261.56 15.51H260.12L256.73 2.22001L253.42 15.51H251.98L248.05 0.200012H249.63L252.74 12.89L255.74 0.200012H257.8L260.91 12.89L263.91 0.200012H265.42L261.58 15.51H261.56Z" fill="#C8C9CA"/><path d="M273.82 9.83V5.86C273.82 3.83 274.3 2.35 275.27 1.41C276.24 0.47 277.54 0 279.16 0C280.21 0 281.13 0.19 281.91 0.58C282.69 0.96 283.3 1.51 283.73 2.21C284.16 2.91 284.37 3.72 284.37 4.64V4.73H282.75V4.64C282.75 3.66 282.43 2.89 281.79 2.32C281.15 1.75 280.28 1.47 279.18 1.47C277.95 1.47 277.02 1.82 276.39 2.52C275.75 3.22 275.44 4.36 275.44 5.93V9.92C275.44 12.77 276.7 14.2 279.21 14.2C280.38 14.2 281.27 13.88 281.88 13.25C282.49 12.61 282.8 11.6 282.8 10.21V9.03H279.14V7.63H284.42V9.92C284.42 11.93 283.95 13.4 283 14.31C282.05 15.23 280.77 15.69 279.16 15.69C277.55 15.69 276.24 15.22 275.27 14.28C274.3 13.34 273.82 11.86 273.82 9.83Z" fill="#C8C9CA"/><path d="M290.28 6.99001H296.85V8.45001H290.28V14.04H297.96V15.5H288.66V0.200012H297.96V1.66001H290.28V6.99001Z" fill="#C8C9CA"/><path d="M312.95 15.51H311.33L303.41 3.17001V15.51H301.79V0.200012H303.41L311.33 12.49V0.200012H312.95V15.51Z" fill="#C8C9CA"/><path d="M319.12 6.99001H325.69V8.45001H319.12V14.04H326.8V15.5H317.5V0.200012H326.8V1.66001H319.12V6.99001Z" fill="#C8C9CA"/><path d="M332.25 8.79001V15.51H330.63V0.200012H336.31C337.75 0.200012 338.87 0.570012 339.69 1.32001C340.51 2.07001 340.92 3.13001 340.92 4.50001C340.92 5.59001 340.63 6.50001 340.05 7.21001C339.47 7.92001 338.67 8.39001 337.63 8.63001L341.25 15.51H339.39L335.93 8.79001H332.25ZM336.17 7.39001C337.16 7.39001 337.93 7.14001 338.48 6.65001C339.03 6.15001 339.3 5.45001 339.3 4.53001C339.3 3.61001 339.03 2.87001 338.49 2.39001C337.95 1.91001 337.18 1.67001 336.17 1.67001H332.24V7.39001H336.17Z" fill="#C8C9CA"/><path d="M346.29 11.83L345 15.51H343.29L348.86 0.200012H350.21L355.78 15.51H354.07L352.78 11.83H346.28H346.29ZM349.53 2.46001L346.76 10.45H352.33L349.53 2.46001Z" fill="#C8C9CA"/><path d="M361.37 1.66001V15.5H359.77V1.66001H355.4V0.200012H365.74V1.66001H361.37Z" fill="#C8C9CA"/><path d="M370.49 0.200012V15.51H368.87V0.200012H370.49Z" fill="#C8C9CA"/><path d="M374.9 9.83V5.86C374.9 3.83 375.38 2.35 376.34 1.41C377.3 0.47 378.6 0 380.22 0C381.84 0 383.12 0.47 384.07 1.41C385.02 2.35 385.5 3.83 385.5 5.86V9.83C385.5 11.86 385.02 13.34 384.06 14.28C383.1 15.22 381.81 15.69 380.2 15.69C378.59 15.69 377.28 15.22 376.33 14.28C375.38 13.34 374.9 11.86 374.9 9.83ZM383.89 5.92C383.89 2.95 382.67 1.46 380.23 1.46C379 1.46 378.08 1.81 377.46 2.51C376.84 3.21 376.53 4.35 376.53 5.92V9.91C376.53 11.4 376.84 12.49 377.47 13.17C378.1 13.85 379.02 14.19 380.23 14.19C382.67 14.19 383.89 12.76 383.89 9.91V5.92Z" fill="#C8C9CA"/><path d="M400.9 15.51H399.28L391.36 3.17001V15.51H389.74V0.200012H391.36L399.28 12.49V0.200012H400.9V15.51Z" fill="#C8C9CA"/></g><path d="M99.6104 152.63V148.54L105.21 144H108.67V178.45H105.26V148.19L99.6204 152.63H99.6104Z" fill="#493024"/><path d="M132.69 147.28L122.02 178.43H118.56L129.37 147.28H116.04V143.99H132.69V147.28Z" fill="#493024"/><path d="M141.77 156.97V161.56H137.6V156.97H141.77ZM141.77 173.85V178.44H137.6V173.85H141.77Z" fill="#493024"/><path d="M148.92 154.32C148.92 147.1 151.77 143.49 157.46 143.49C163.15 143.49 166.04 147.1 166.04 154.32V167.9C166.04 175.26 163.18 178.93 157.46 178.93C151.74 178.93 148.92 175.25 148.92 167.9V154.32ZM162.58 167.2V155.22C162.58 152.19 162.18 150.03 161.39 148.73C160.6 147.43 159.29 146.78 157.45 146.78C155.61 146.78 154.31 147.43 153.54 148.73C152.77 150.03 152.38 152.19 152.38 155.22V167.2C152.38 170.23 152.77 172.39 153.54 173.69C154.31 174.99 155.62 175.64 157.45 175.64C159.28 175.64 160.6 174.99 161.39 173.69C162.18 172.39 162.58 170.23 162.58 167.2Z" fill="#493024"/><path d="M173.86 154.32C173.86 147.1 176.71 143.49 182.4 143.49C188.09 143.49 190.98 147.1 190.98 154.32V167.9C190.98 175.26 188.12 178.93 182.4 178.93C176.68 178.93 173.86 175.25 173.86 167.9V154.32ZM187.52 167.2V155.22C187.52 152.19 187.12 150.03 186.33 148.73C185.54 147.43 184.23 146.78 182.39 146.78C180.55 146.78 179.25 147.43 178.48 148.73C177.71 150.03 177.32 152.19 177.32 155.22V167.2C177.32 170.23 177.71 172.39 178.48 173.69C179.25 174.99 180.56 175.64 182.39 175.64C184.22 175.64 185.54 174.99 186.33 173.69C187.12 172.39 187.52 170.23 187.52 167.2Z" fill="#493024"/><path d="M202.26 153.12V156.66C202.89 155.4 203.75 154.44 204.82 153.79C205.9 153.14 207.13 152.82 208.52 152.82C210.99 152.82 212.99 153.65 214.54 155.32C216.09 156.98 216.86 159.6 216.86 163.16V168.35C216.86 171.94 216.1 174.57 214.58 176.24C213.06 177.9 211.12 178.74 208.75 178.74C205.75 178.74 203.58 177.53 202.25 175.1V186.03H199.03V153.13H202.25L202.26 153.12ZM213.65 163.41C213.65 158.38 211.8 155.87 208.1 155.87C206.17 155.87 204.72 156.58 203.74 157.99C202.76 159.4 202.27 161.29 202.27 163.66V168.1C202.27 170.33 202.78 172.15 203.81 173.57C204.84 174.99 206.33 175.69 208.29 175.69C211.86 175.69 213.65 173.18 213.65 168.15V163.41Z" fill="#493024"/><path d="M227.6 153.12V156.22C228.3 155.12 229.2 154.28 230.33 153.7C231.45 153.12 232.71 152.83 234.1 152.83C235.74 152.83 237.15 153.2 238.32 153.93C239.49 154.66 240.39 155.71 241.02 157.08C242.6 154.25 245.04 152.84 248.32 152.84C250.88 152.84 252.87 153.63 254.3 155.21C255.72 156.79 256.43 159 256.43 161.83V178.46H253.21V162.33C253.21 160.23 252.73 158.63 251.76 157.54C250.8 156.44 249.44 155.89 247.71 155.89C245.98 155.89 244.56 156.45 243.56 157.56C242.56 158.68 242.07 160.22 242.07 162.18V178.46H238.8V162.33C238.8 160.23 238.32 158.63 237.35 157.54C236.39 156.44 235.03 155.89 233.3 155.89C231.57 155.89 230.23 156.45 229.2 157.56C228.17 158.68 227.66 160.26 227.66 162.33V178.46H224.44V153.15H227.62L227.6 153.12Z" fill="#493024"/><path d="M311.35 152.81V153.99H300.06L302.77 154.93C301.3 157.48 299.48 159.69 297.32 161.56H310.04V162.74H295.31V169.01H308.49V170.19H295.31V177.92C295.28 178 295.16 178.11 294.92 178.25C294.69 178.39 294.31 178.51 293.8 178.62C293.28 178.75 292.73 178.82 292.14 178.82H291.44V170.19H278.8L278.45 169.01H291.44V162.74H276.94L276.63 161.56H296.42C297.43 159.12 298.19 156.6 298.7 153.99H284.7C287.51 154.99 289.16 156.38 289.65 158.14C289.99 159.28 289.77 160.19 288.99 160.87C288.19 161.58 287.31 161.59 286.36 160.91C286.21 160.8 286.06 160.68 285.94 160.54C285.97 158.48 285.31 156.32 283.97 154.07L275.77 153.99L275.42 152.81H291.42V147.4H279.71L279.4 146.22H291.42V140.97L295.29 141.46V146.22H307.74V147.4H295.29V152.81H311.33H311.35Z" fill="#493024"/><path d="M327.65 149.07V150.98C326.7 152.88 325.38 154.91 323.71 157.08C326.36 158.03 327.95 159.32 328.47 160.95C328.78 161.95 328.61 162.71 327.97 163.23C327.38 163.69 326.69 163.62 325.92 163.03C325.64 161.62 324.85 160.03 323.56 158.27V177.56C323.56 177.67 323.44 177.8 323.21 177.97C322.98 178.16 322.63 178.34 322.17 178.5C321.71 178.66 321.22 178.74 320.7 178.74H320.08V161.12C318.28 162.91 316.41 164.43 314.47 165.68L314.04 165.27C316.05 163.29 317.97 160.92 319.8 158.15C321.63 155.36 323.01 152.71 323.94 150.21H315.47L315.12 149.07H320.18V141.05L323.54 141.54V149.07H327.64H327.65ZM350.58 145.12H329.05L328.74 143.94H350.58V145.12ZM349.3 160.46V177.43C349.3 177.51 349.18 177.62 348.95 177.76C348.72 177.9 348.37 178.03 347.91 178.17C347.45 178.31 346.94 178.37 346.4 178.37H345.78V175.85H332.44V177.68C332.44 177.79 332.32 177.91 332.09 178.05C331.88 178.21 331.55 178.35 331.09 178.46C330.65 178.6 330.16 178.66 329.62 178.66H329V160.47H349.3V160.46ZM344.59 158.06H343.97V156.59H334.27V157.53C334.27 157.64 334.17 157.76 333.96 157.9C333.75 158.04 333.42 158.16 332.96 158.27C332.52 158.38 332.05 158.43 331.53 158.43H330.91V148.74H347.5V157.25C347.5 157.3 347.38 157.4 347.15 157.53C346.92 157.64 346.56 157.76 346.07 157.9C345.61 158.01 345.12 158.06 344.6 158.06H344.59ZM337.44 161.6H332.45V167.26H337.44V161.6ZM332.45 168.44V174.67H337.44V168.44H332.45ZM334.27 155.42H343.97V149.88H334.27V155.42ZM345.79 161.6H340.73V167.26H345.79V161.6ZM340.72 174.67H345.78V168.44H340.72V174.67Z" fill="#493024"/><path d="M382.37 163.72H386.27V174.54C386.27 175.9 385.95 176.91 385.3 177.59C384.68 178.27 383.38 178.7 381.39 178.89C381.26 177.72 380.98 176.91 380.54 176.45C379.79 175.83 378.74 175.42 377.37 175.23V174.78C376.8 175 376.25 175.11 375.71 175.11H375.17V173.36H369.76V174.74C369.76 174.93 369.45 175.15 368.83 175.39C368.21 175.66 367.61 175.8 367.01 175.8H366.55V167.42H378.5V174.17C378.5 174.25 378.25 174.41 377.77 174.66C377.98 174.66 378.65 174.7 379.78 174.78C380.94 174.86 381.66 174.9 381.94 174.9C382.25 174.9 382.46 174.85 382.56 174.74C382.69 174.61 382.75 174.4 382.75 174.13V164.89H362.61V177.63C362.61 177.74 362.47 177.87 362.19 178.04C361.91 178.23 361.52 178.39 361.03 178.53C360.57 178.69 360.11 178.77 359.68 178.77H359.18V162.57C357.89 163.33 356.46 163.97 354.89 164.48L354.58 163.95C358.47 162.05 361.15 159.22 362.62 155.44C360.97 156.06 359.17 156.72 357.21 157.39C357.03 157.85 356.71 158.14 356.24 158.25L354.81 154.75C355.17 154.75 356.25 154.7 358.06 154.59C359.81 152.09 361.41 149.15 362.85 145.76L365.13 147.75C363.35 150.57 361.54 152.82 359.68 154.51L363.04 154.27C363.3 153.54 363.52 152.61 363.7 151.5L367.22 152.35V146.29H377.7V153.49C377.65 153.76 377.08 154.03 376 154.3C377.24 155.3 378.04 156 378.4 156.38C378.3 156.81 377.99 157.03 377.47 157.03H370.16V159.11H378.59V160.29H371.17L373.88 161.31C373.08 162.42 372.31 163.22 371.56 163.71H382.39L382.37 163.72ZM360.49 141.38L362.89 143.25C361.76 145.01 360.6 146.38 359.41 147.36C360.24 148.15 360.48 149 360.14 149.92C359.88 150.65 359.42 150.96 358.75 150.86C358.49 150.81 358.22 150.68 357.94 150.49C357.17 148.65 356.17 147.29 354.96 146.42L355.23 146.01C356.52 146.04 357.54 146.24 358.28 146.62C358.98 145.24 359.71 143.49 360.48 141.37L360.49 141.38ZM359.67 162.3L362.92 163.72H369.72C370 162.77 370.3 161.63 370.61 160.3H370.15V160.87C370.15 161.03 369.88 161.24 369.34 161.48C368.8 161.72 368.24 161.85 367.68 161.85H367.22V153.3C366.96 153.35 366.73 153.38 366.52 153.38C365.39 157.21 363.1 160.18 359.68 162.29L359.67 162.3ZM379.12 144.43H366.4L366.09 143.29H379.12V144.43ZM369.76 172.23H375.17V168.61H369.76V172.23ZM374.71 147.48H370.15V149.43H374.71V147.48ZM374.71 152.69V150.61H370.15V152.69H374.71ZM374.21 155.87L375.41 154.41H374.71V153.88H370.15V155.87H374.21ZM388.75 143.29V145.24C386.82 147.98 385.5 149.68 384.81 150.33C388.08 151.88 389.75 153.9 389.8 156.39C389.8 157.77 389.44 158.81 388.72 159.48C388.02 160.16 386.83 160.54 385.12 160.62C385.12 159.48 384.98 158.75 384.69 158.42C384.41 158.09 383.9 157.86 383.18 157.73V157.16H385.5C385.86 157.16 386.14 157.09 386.35 156.96C386.68 156.69 386.85 156.25 386.85 155.66C386.85 153.87 385.85 152.13 383.83 150.45C384.45 148.82 385.07 146.82 385.69 144.43H382.56V161.03C382.56 161.22 382.28 161.45 381.71 161.72C381.17 161.96 380.6 162.09 380.01 162.09H379.55V143.29H388.75Z" fill="#493024"/><path d="M402.18 149.39L405.5 151.91C404.52 153.78 403.52 155.49 402.49 157.04V177.55C402.46 177.77 402.13 178.02 401.48 178.32C400.86 178.65 400.23 178.81 399.59 178.81H398.93V160.33C397.23 161.96 395.54 163.34 393.87 164.48L393.48 164.03C395.21 162.08 396.87 159.72 398.47 156.95C400.09 154.18 401.33 151.66 402.18 149.38V149.39ZM401.56 141.01L404.77 143.61C403.51 145.4 401.94 147.07 400.05 148.62C398.17 150.17 396.25 151.46 394.29 152.49L393.9 152.04C395.39 150.6 396.86 148.83 398.31 146.71C399.75 144.59 400.84 142.7 401.56 141.01ZM430.32 176.25V177.43H404.61L404.3 176.25H414.85V163.51H406.89L406.58 162.33H414.85V151.51H406.27L405.96 150.33H429.74V151.51H418.57V162.33H428.97V163.51H418.57V176.25H430.32ZM410.84 141.79L411.15 141.46C415.22 141.7 417.93 142.87 419.27 144.96C420.04 146.15 420.16 147.27 419.62 148.3C419.13 149.25 418.36 149.58 417.3 149.28C417.07 149.23 416.84 149.13 416.6 148.99C416.24 147.69 415.5 146.37 414.4 145.04C413.32 143.68 412.13 142.6 410.84 141.78V141.79Z" fill="#493024"/><path d="M359.9 43.74L367.11 46.79C365.41 52.56 363.92 57.43 362.62 61.42V100.38C362.58 100.55 362.3 100.77 361.79 101.06C361.32 101.35 360.65 101.62 359.78 101.87C358.95 102.12 358.16 102.24 357.41 102.24H356.29V69.75C354.55 72.16 352.58 74.46 350.38 76.66L349.61 76.16C351.7 72.05 353.67 67.07 355.52 61.22C357.41 55.33 358.87 49.5 359.9 43.73V43.74ZM404.72 81.15H393.9C394.21 82.93 394.59 84.47 395.02 85.76C395.69 84.81 396.62 83.33 397.8 81.34L401.47 85.76C400.25 87.55 398.89 89.21 397.39 90.74C398.3 92.07 399.38 93.19 400.64 94.1C401.27 94.6 401.76 94.49 402.12 93.79C402.87 92.46 403.66 90.58 404.49 88.13L405.14 88.25L404.37 95.66C405.87 97.9 406.28 99.56 405.61 100.64C405.06 101.47 404.27 101.93 403.24 102.01C402.21 102.09 401.23 101.95 400.28 101.57C399.37 101.2 398.53 100.72 397.74 100.14C395.85 98.69 394.13 96.9 392.6 94.79C389.01 97.45 385.31 99.48 381.48 100.89L380.95 100.02C384.34 97.74 387.57 94.85 390.65 91.37C389.31 88.63 388.32 85.23 387.69 81.16H380.12V85.02C383.31 84.65 385.44 84.38 386.51 84.21L386.63 85.08C386.51 85.12 384.34 85.97 380.13 87.63V94.66C380.13 97.11 379.62 98.91 378.59 100.07C377.56 101.27 375.46 102 372.26 102.25C372.14 100.17 371.79 98.76 371.2 98.02C370.49 97.02 369.09 96.38 367 96.09V95.22C370.08 95.47 371.97 95.59 372.68 95.59C373.43 95.59 373.8 95.24 373.8 94.53V89.92C371.55 90.67 369.76 91.29 368.42 91.79C368.1 92.62 367.57 93.1 366.82 93.22L364.63 86.56C367.51 86.39 370.56 86.12 373.8 85.75V81.14H365.11L364.64 79.33H373.81V74.54C370.93 74.87 368.25 75.1 365.77 75.22L365.53 74.22C370.46 72.85 375.21 70.98 379.78 68.62H366.12L365.65 66.82H380.97V61.53H369.91L369.44 59.73H380.97V54.69H367.13L366.66 52.89H377.24C376.69 52.56 376.37 52.35 376.29 52.27C375.97 49.45 374.85 46.77 372.92 44.24L373.45 43.87C376.56 44.29 378.85 45.14 380.31 46.42C381.81 47.67 382.48 48.91 382.32 50.15C382.2 51.35 381.61 52.27 380.55 52.89H386.94C387.77 50.19 388.4 47.12 388.83 43.68L397.7 46.23C397.42 47.06 396.7 47.45 395.51 47.41C393.34 49.49 391 51.31 388.47 52.89H405.03V54.69H387.76V59.73H402.42V61.53H387.76V66.82H405.91V68.62H395.03C394.91 69.49 394.28 70.05 393.14 70.3C393.14 73.79 393.3 76.8 393.61 79.33H397.51L399.46 76.65C399.11 76.53 398.71 76.3 398.28 75.97C397.96 73.69 396.92 71.65 395.15 69.87L395.62 69.43C399.96 69.72 402.52 70.9 403.31 72.98C403.82 74.23 403.57 75.28 402.54 76.15C402.42 76.23 402.3 76.32 402.19 76.4C404.59 78.56 405.97 79.8 406.33 80.14C406.17 80.8 405.64 81.14 404.73 81.14L404.72 81.15ZM380.13 79.34H387.46C387.07 76.48 386.83 72.91 386.75 68.63H382.02L383.26 73.24C382.43 73.32 381.39 73.47 380.13 73.68V79.34Z" fill="#E73820"/><path d="M465.77 83.33L464.41 93.91C466.34 97.4 466.79 99.66 465.77 100.69C464.9 101.69 463.8 102.1 462.46 101.94C461.12 101.77 459.86 101.36 458.67 100.69C457.53 100.07 456.46 99.28 455.48 98.32C450.99 94 447.67 88.67 445.55 82.32C443.42 75.93 442.06 68.4 441.47 59.73H411.96L411.43 57.92H441.35C441.11 53.52 441 48.94 441 44.16L448.21 45.16C448.13 50.64 448.17 54.89 448.33 57.92H455.07L457.85 54.43C457.42 54.39 456.94 54.22 456.43 53.93C455.96 52.68 455.17 51.36 454.06 49.95C452.96 48.54 451.83 47.38 450.69 46.46L451.1 45.96C456.34 45.67 459.69 46.75 461.15 49.2C462.02 50.61 461.96 51.96 460.97 53.25C460.81 53.46 460.63 53.64 460.44 53.81C462.29 55.26 464.3 56.9 466.47 58.73C466.31 59.39 465.74 59.73 464.76 59.73H448.38C449.29 75.04 453.03 85.48 459.62 91.04C460.37 91.83 460.98 91.77 461.45 90.85C462.87 88.36 464.09 85.81 465.12 83.19L465.77 83.31V83.33ZM430.82 72.25V89.43C436.18 88.35 440.36 87.48 443.36 86.82L443.54 87.63C436.68 91.2 428.13 95.08 417.88 99.27C417.6 100.06 417.11 100.6 416.4 100.89L411.91 92.99C413.8 92.7 417.78 91.97 423.85 90.81V72.26H413.98L413.51 70.52H442.01V72.26H430.83L430.82 72.25Z" fill="#E73820"/><path d="M502.79 81.08L502.2 80.4C504.96 78.2 507.38 75.63 509.47 72.68C507.5 69.44 505.94 65.63 504.8 61.23C504.68 61.27 504.5 61.29 504.27 61.29H484.99L484.52 59.49H495.99L499.54 54.82C501.16 56.11 502.71 57.41 504.21 58.74C503.82 56.87 503.54 55.17 503.38 53.64H483.51V61.17C483.51 63.54 483.39 65.69 483.15 67.64C482.95 69.55 482.52 71.75 481.85 74.24C481.18 76.73 480.06 79.09 478.48 81.34C476.94 83.54 474.97 85.47 472.57 87.13L472.04 86.57C473.5 84.2 474.62 81.42 475.41 78.23C476.24 75.03 476.73 72.25 476.89 69.89C477.05 67.48 477.13 64.58 477.13 61.18V51.84H503.15C502.91 49.6 502.76 46.88 502.68 43.69L509.36 44.44C509.44 48.09 509.54 50.56 509.66 51.85H527.58V53.65H509.9C510.57 58.55 511.75 62.72 513.45 66.16C515.07 62.8 516.31 59.29 517.18 55.64L523.21 58.88C521.36 64.15 519.15 68.26 516.59 71.2C518.05 72.99 519.63 74.46 521.32 75.62C522.03 76.2 522.62 76.14 523.09 75.43C524.19 73.48 525.18 71.36 526.05 69.08L526.7 69.27L525.69 77.55C527.5 80.04 528 81.87 527.17 83.03C526.54 83.9 525.63 84.36 524.45 84.4C523.31 84.44 522.18 84.23 521.08 83.78C519.98 83.33 518.93 82.74 517.95 82.04C515.7 80.38 513.63 78.35 511.74 75.94C509.18 78.02 506.2 79.74 502.81 81.11L502.79 81.08ZM482.15 84.01H482.92C483.79 86.62 484.12 88.99 483.92 91.11C483.72 93.19 483.23 94.89 482.44 96.21C481.69 97.54 480.73 98.51 479.54 99.14C478.48 99.8 477.31 99.95 476.05 99.58C474.83 99.25 474.04 98.46 473.68 97.21C473.33 96.09 473.42 95.09 473.98 94.22C474.53 93.31 475.34 92.6 476.4 92.1C477.78 91.44 479.04 90.36 480.19 88.86C481.37 87.37 482.02 85.75 482.14 84L482.15 84.01ZM491.38 76.23V78.04C491.38 78.21 491.12 78.46 490.61 78.79C490.1 79.08 489.41 79.35 488.54 79.6C487.71 79.85 486.92 79.97 486.17 79.97H485.34V65.78H503.08V77.05C503.04 77.3 502.39 77.63 501.13 78.05C499.91 78.47 498.84 78.67 497.94 78.67H496.88V76.24H491.38V76.23ZM513.02 87.37L513.2 94.09C514.78 94.71 515.57 95.65 515.57 96.89C515.57 98.47 514.64 99.57 512.79 100.19C510.94 100.85 507.41 101.19 502.21 101.19H495.23C492.15 101.19 490.12 100.8 489.14 100.01C488.19 99.26 487.72 97.69 487.72 95.28V83.27L494.34 84.02V93.73C494.34 94.15 494.46 94.44 494.7 94.6C494.98 94.72 495.61 94.79 496.59 94.79H502.98C505.86 94.79 507.57 94.77 508.12 94.73C508.87 94.69 509.4 94.42 509.72 93.92C510.15 93.3 511.04 91.12 512.38 87.38H513.03L513.02 87.37ZM496.88 67.52H491.38V74.43H496.88V67.52ZM495.16 81.58L495.63 81.08C501.38 81.2 505.15 82.66 506.92 85.44C507.98 87.1 508.06 88.64 507.16 90.05C506.29 91.42 505.03 91.84 503.38 91.3C503.06 91.22 502.75 91.09 502.43 90.93C501.88 89.31 500.89 87.65 499.47 85.95C498.09 84.21 496.65 82.76 495.15 81.59L495.16 81.58ZM511.13 44.17L511.66 43.86C515.96 44.36 518.46 45.6 519.17 47.59C519.6 48.84 519.29 49.87 518.22 50.7C517 51.7 515.68 51.7 514.26 50.7C514.1 50.58 513.94 50.45 513.79 50.33C513.55 48.17 512.67 46.12 511.13 44.17ZM513.02 84.45L513.55 84.01C520.13 85.38 524.41 87.91 526.38 91.6C527.56 93.8 527.64 95.75 526.62 97.45C525.71 98.98 524.39 99.5 522.66 99.01C522.07 98.84 521.5 98.55 520.95 98.14C519.96 93.49 517.32 88.93 513.03 84.45H513.02Z" fill="#E73820"/><path d="M14.7202 62.6V100.13C14.6402 100.46 13.9702 100.88 12.7102 101.37C11.4902 101.91 10.2702 102.18 9.04023 102.18H7.74023V69.5C5.45023 72.28 3.13023 74.62 0.760234 76.53L-0.00976562 76.03C2.55023 72.05 4.94023 67.17 7.14023 61.4C9.39023 55.59 11.1202 49.7 12.3402 43.72L19.4902 46.77C17.5602 52.95 15.9602 58.22 14.7002 62.58L14.7202 62.6ZM57.2402 97.7V99.44H16.7302L16.2602 97.7H31.6302V78.09H19.4502L18.9802 76.29H31.6302V60.17H18.1502L17.6802 58.43H55.7002V60.17H39.0802V76.29H54.8702V78.09H39.0802V97.7H57.2302H57.2402ZM26.9002 44.73L27.3702 44.29C33.6402 44.83 37.7602 46.68 39.7302 49.83C40.9102 51.74 41.0502 53.48 40.1402 55.06C39.3102 56.51 38.0302 57.03 36.3002 56.62C35.8702 56.5 35.4102 56.31 34.9402 56.06C34.2702 54.19 33.1702 52.22 31.6302 50.15C30.0902 48.03 28.5202 46.23 26.9002 44.73Z" fill="#E73820"/><path d="M77.17 61.04V68.26C81.78 69.8 84.54 71.93 85.45 74.67C86 76.41 85.73 77.78 84.62 78.78C83.48 79.82 82.2 79.82 80.78 78.78C80.62 78.66 80.46 78.53 80.31 78.41C80.07 75.96 79.03 73.06 77.18 69.7V100.14C77.18 100.51 76.57 100.95 75.35 101.45C74.17 101.99 72.98 102.26 71.8 102.26H70.44V76.8C68.11 80.74 65.24 84.35 61.81 87.63L61.04 86.95C65.06 80.39 67.94 71.76 69.67 61.06H62.87L62.4 59.26H70.44V43.95L77.18 44.88V59.26H86.11V61.06H77.18L77.17 61.04ZM109.16 73.3L115.01 77.91C112.72 81.89 110.08 85.4 107.09 88.43C112.37 90.01 115.66 92.41 116.96 95.65C117.83 97.77 117.67 99.51 116.49 100.88C115.35 102.29 113.87 102.54 112.06 101.63C111.82 101.51 111.57 101.36 111.29 101.19C110.54 97.7 108.57 93.97 105.38 89.99C98.95 95.72 90.69 99.85 80.6 102.38L80.25 101.51C86.87 98.48 92.53 94.77 97.22 90.37C101.95 85.97 105.93 80.29 109.16 73.32V73.3ZM83.14 88.74L82.67 87.87C92.6 81.73 100.27 72.81 105.67 61.11L111.46 65.65C104.36 76.56 94.92 84.26 83.14 88.74ZM117.97 54.76V56.5H97.45L101.59 58.99C99.18 62.39 96.6 65.03 93.84 66.9C95.89 68.64 96.74 70.53 96.38 72.56C96.1 74.05 95.3 74.95 93.96 75.24C93.05 75.45 92.09 75.26 91.06 74.68C90.43 72.85 89.35 70.93 87.81 68.89C86.31 66.82 84.75 65.07 83.14 63.66L83.61 63.22C86.92 63.55 89.66 64.3 91.83 65.46C92.93 62.85 93.96 59.86 94.9 56.5H83.84L83.37 54.76H96.44V44.36L103.24 45.11V54.76H117.96H117.97Z" fill="#E73820"/><path d="M129.12 63.16L129.89 63.1C131.27 66.59 132.02 69.88 132.14 73C132.3 76.07 132.04 78.56 131.37 80.47C130.74 82.34 129.83 83.92 128.65 85.2C127.59 86.45 126.34 87.09 124.92 87.13C123.5 87.17 122.44 86.61 121.73 85.45C120.55 83.54 120.96 81.63 122.97 79.72C124.7 78.43 126.18 76.26 127.4 73.18C128.66 70.11 129.23 66.77 129.11 63.16H129.12ZM136.93 57.87L143.85 58.8V90.86C143.85 91.57 144.05 92.06 144.44 92.35C144.87 92.6 145.7 92.72 146.92 92.72H153.6C156.56 92.72 158.37 92.68 159.04 92.6C159.91 92.56 160.54 92.21 160.93 91.54C161.52 90.54 162.57 87.35 164.06 81.95H164.71L164.89 91.97C165.91 92.38 166.62 92.84 167.02 93.34C167.41 93.8 167.61 94.4 167.61 95.15C167.61 96.93 166.57 98.2 164.48 98.95C162.43 99.74 158.59 100.13 152.95 100.13H145.74C142.31 100.13 139.98 99.65 138.76 98.7C137.54 97.74 136.93 95.86 136.93 93.03V57.86V57.87ZM137.99 44.98C147.13 45.56 153.19 47.82 156.14 51.76C157.76 53.88 158.11 55.95 157.2 57.98C156.49 59.56 155.31 60.35 153.65 60.35C152.86 60.35 152.05 60.1 151.23 59.6C150.28 57.44 148.65 55.08 146.32 52.5C143.99 49.93 141.14 47.67 137.75 45.72L137.99 44.97V44.98ZM163 62.54C170.1 65.86 174.53 70.03 176.3 75.05C177.4 78.29 177.27 81.09 175.89 83.45C174.83 85.28 173.5 86.04 171.93 85.75C170.9 85.54 169.98 84.86 169.15 83.7C169.23 80.26 168.76 76.65 167.73 72.87C166.7 69.09 164.97 65.82 162.53 63.04L163 62.54Z" fill="#E73820"/><path d="M211.01 70.74L211.11 71.16C210.04 71.8 208.42 72.7 206.25 73.86V83.84C206.25 85.08 205.99 85.99 205.48 86.54C204.99 87.12 203.92 87.5 202.29 87.67C202.18 86.62 201.96 85.9 201.61 85.51C201.12 85 200.3 84.65 199.16 84.48V84C201.05 84.13 202.2 84.19 202.6 84.19C203.05 84.19 203.28 84 203.28 83.61V75.37C202.7 75.65 201.79 76.1 200.54 76.72C200.41 77.15 200.15 77.44 199.77 77.59L198.39 73.86C199.78 73.58 201.42 73.21 203.28 72.73V65.81H198.81L198.55 64.88H203.28V57.77L206.24 58.19V64.89H211.23V65.82H206.24V72C207.98 71.57 209.57 71.15 211 70.74H211.01ZM228.24 79.08L227.6 84.26C228.52 85.63 228.79 86.56 228.4 87.03C228.06 87.48 227.57 87.67 226.95 87.61C226.35 87.57 225.76 87.41 225.18 87.13C224.6 86.85 224.03 86.5 223.47 86.07C221.71 84.67 220.23 82.89 219.03 80.73C216.3 83.22 212.87 85.28 208.73 86.91L208.47 86.43C212.35 84.26 215.54 81.67 218.03 78.64C216.85 75.81 216.03 72.41 215.58 68.44L209.04 69.24L208.69 68.37L215.48 67.5C215.22 64.84 215.09 61.67 215.09 58L218.24 58.45C218.2 62.16 218.27 65.05 218.47 67.11L223.62 66.47L227.68 65.99L227.74 66.92L218.53 68.05C218.85 71.08 219.38 73.65 220.11 75.78C221.44 73.74 222.6 71.41 223.59 68.79L226.17 70.4C224.8 73.58 223.17 76.26 221.28 78.45C222.29 80.38 223.55 81.91 225.08 83.02C225.34 83.26 225.54 83.36 225.69 83.34C225.84 83.32 225.99 83.17 226.14 82.89C226.76 81.8 227.33 80.5 227.85 79L228.24 79.1V79.08ZM220.29 59.54L220.55 59.28C223.36 59.34 225.19 60.02 226.02 61.31C226.51 62.08 226.52 62.78 226.05 63.4C225.56 64.02 224.87 64.12 223.99 63.69C223.71 62.96 223.21 62.21 222.48 61.44C221.77 60.65 221.04 60.01 220.29 59.54Z" fill="#E73820"/><path d="M258.5 60.79V86.41C258.46 86.56 258.13 86.76 257.53 87.02C256.93 87.28 256.37 87.41 255.86 87.41H255.41V84.74H235.77V86.54C235.77 86.75 235.5 86.99 234.97 87.25C234.45 87.53 233.89 87.67 233.26 87.67H232.74V60.79H258.49H258.5ZM235.77 83.81H255.41V61.73H235.77V83.81ZM251.41 67.39V78.37C251.39 78.5 251.1 78.67 250.54 78.89C250 79.1 249.51 79.21 249.06 79.21H248.61V77.18H242.46V78.63C242.46 78.78 242.2 78.97 241.69 79.21C241.18 79.42 240.65 79.53 240.11 79.53H239.69V67.39H251.41ZM242.46 76.24H248.61V68.32H242.46V76.24Z" fill="#E73820"/><path d="M292.88 85.26V86.19H263.2L262.91 85.26H276.11V75.7H266.9L266.64 74.77H276.1V66.59H269.73C267.84 69.74 265.62 72.31 263.07 74.28L262.65 73.99C264 72.12 265.27 69.85 266.45 67.17C267.63 64.47 268.53 61.71 269.15 58.9L272.43 60.28C271.81 62.32 271.08 64.11 270.24 65.66H276.1V57.9L279.42 58.35V65.66H291.04V66.59H279.42V74.77H289.98V75.7H279.42V85.26H292.88Z" fill="#E73820"/><path d="M294.94 65.62L295.2 65.36C297.99 65.55 299.76 66.32 300.51 67.65C300.96 68.44 300.95 69.14 300.48 69.74C299.97 70.34 299.29 70.44 298.45 70.03C298.08 69.24 297.58 68.44 296.94 67.65C296.32 66.83 295.65 66.16 294.94 65.62ZM304.5 64.24L305.05 64.34C302.47 71.44 301.03 75.62 300.7 76.86C300.33 78.15 300.15 79.11 300.15 79.76C300.17 80.13 300.36 80.89 300.73 82.05C301.09 83.19 301.26 84.27 301.21 85.3C301.17 86.07 300.94 86.67 300.53 87.1C300.12 87.55 299.56 87.78 298.86 87.78C298.52 87.78 298.21 87.64 297.93 87.36C297.67 87.08 297.5 86.68 297.42 86.17C297.68 84.5 297.76 83.05 297.68 81.82C297.62 80.57 297.4 79.83 297.04 79.6C296.65 79.32 296.12 79.15 295.43 79.09V78.45H296.88C297.05 78.45 297.17 78.45 297.23 78.42C297.32 78.4 297.4 78.35 297.49 78.26C297.6 78.17 297.7 78.03 297.81 77.84C298.28 77.05 300.51 72.52 304.51 64.26L304.5 64.24ZM297.32 58.57L297.58 58.31C300.46 58.55 302.3 59.36 303.12 60.76C303.61 61.6 303.6 62.34 303.09 62.98C302.6 63.6 301.92 63.71 301.06 63.3C300.69 62.46 300.17 61.62 299.48 60.76C298.79 59.9 298.07 59.17 297.32 58.57ZM325.23 68.13V69.03H315.77V75.34H322.63V86.54C322.61 86.67 322.3 86.85 321.7 87.09C321.1 87.33 320.56 87.44 320.09 87.44H319.58V84.9H308.89V86.64C308.89 86.81 308.61 87 308.05 87.22C307.49 87.46 306.91 87.57 306.31 87.57H305.86V75.34H312.65V69.03H304.22L303.96 68.13H312.65V62.5C309.88 62.84 307.2 63.06 304.6 63.14L304.5 62.59C307.27 62.12 310.19 61.45 313.26 60.59C316.35 59.71 318.79 58.87 320.57 58.08L321.86 61.11C320.12 61.45 318.09 61.79 315.78 62.11V68.13H325.24H325.23ZM319.56 76.28H308.87V83.97H319.56V76.28Z" fill="#E73820"/><path d="M191.17 46.03H331.26" stroke="#E73820" stroke-width="0.96" stroke-miterlimit="10"/><path d="M191.17 99.54H331.26" stroke="#E73820" stroke-width="0.96" stroke-miterlimit="10"/></g><defs><clipPath id="clip0_18_4420"><rect width="527.56" height="186.03" fill="white"/></clipPath></defs></svg>