<svg width="570" height="320" fill="none" xmlns="http://www.w3.org/2000/svg"><g clip-path="url(#clip0_18_4491)"><path fill-rule="evenodd" clip-rule="evenodd" d="M298.533 80.4877L244.801 52.5952C249.43 72.6508 267.417 89.8294 288.912 89.8294C310.407 89.8294 328.442 72.6027 333.048 52.4868L290.805 74.4084L298.533 80.4757V80.4877Z" fill="white"/><path fill-rule="evenodd" clip-rule="evenodd" d="M310.865 55.8936L332.903 35.6935C332.3 32.8043 331.432 30.0114 330.311 27.351L307.333 52.3544L328.864 24.2933C327.502 21.6689 325.899 19.1891 324.066 16.8898L303.234 49.4893L321.655 14.0969C319.63 11.9421 317.387 9.97984 314.964 8.25837L298.701 47.3706L311.697 6.12761C309.153 4.62283 306.441 3.37085 303.608 2.39576L293.879 46.0825L299.762 1.25213C296.917 0.541871 293.963 0.108495 290.937 -0.0239258L288.912 45.6491L286.887 -0.0239258C283.861 0.108495 280.907 0.541871 278.062 1.25213L283.945 46.0825L274.216 2.39576C271.383 3.37085 268.671 4.63487 266.127 6.12761L279.123 47.3706L262.86 8.25837C260.437 9.97984 258.207 11.9421 256.169 14.0969L274.59 49.4893L253.758 16.8898C251.926 19.1891 250.322 21.6569 248.96 24.2933L270.491 52.3544L247.513 27.351C246.392 30.0114 245.512 32.7923 244.921 35.6935L266.959 55.8936L244.415 38.6428C244.138 40.6653 243.981 42.7238 243.981 44.8184C243.981 46.4677 244.077 48.0808 244.246 49.6819L272.179 64.1759C274.988 59.5292 279.726 56.0742 285.512 55.0509C293.674 53.6184 301.534 57.4465 305.609 64.1037L333.59 49.5856C333.759 48.0206 333.843 46.4195 333.843 44.8064C333.843 42.7118 333.687 40.6532 333.409 38.6308L310.865 55.8816V55.8936Z" fill="white"/><path d="M192.275 46.1426H196.277V46.4676C195.831 46.4676 195.53 46.5158 195.373 46.6C195.216 46.6843 195.108 46.8408 195.059 47.0455C195.011 47.2501 194.987 47.7557 194.987 48.5502V49.5374C194.879 49.5133 194.782 49.5133 194.698 49.5133C194.348 49.5133 193.89 49.6216 193.311 49.8383C192.54 50.1273 191.816 50.2717 191.153 50.2717C189.827 50.2717 188.73 49.8383 187.85 48.9595C186.97 48.0928 186.536 46.9853 186.536 45.649C186.536 44.3128 186.958 43.1692 187.79 42.17C188.634 41.1708 189.767 40.6772 191.202 40.6772C192.443 40.6772 193.468 41.1347 194.276 42.0376C194.42 41.7246 194.517 41.3755 194.565 41.0023H194.891V44.0961H194.565C194.433 43.1451 194.071 42.3867 193.48 41.8329C192.889 41.2792 192.178 41.0023 191.334 41.0023C190.49 41.0023 189.707 41.3273 189.056 41.9653C188.405 42.6154 188.079 43.759 188.079 45.4083C188.079 47.0575 188.393 48.2132 189.02 48.8993C189.646 49.5855 190.418 49.9226 191.346 49.9226C191.816 49.9226 192.25 49.8263 192.636 49.6337C193.022 49.4411 193.287 49.2003 193.432 48.9234C193.577 48.6465 193.649 48.2974 193.649 47.8761C193.649 47.3825 193.613 47.0455 193.552 46.8769C193.48 46.7084 193.384 46.6 193.251 46.5399C193.118 46.4797 192.865 46.4556 192.504 46.4556H192.287V46.1306L192.275 46.1426Z" fill="white"/><path d="M199.014 45.3959C199.014 43.9633 199.496 42.8197 200.448 41.953C201.401 41.0862 202.594 40.6528 204.029 40.6528C205.463 40.6528 206.681 41.0862 207.645 41.9409C208.61 42.7956 209.092 43.9633 209.092 45.444C209.092 46.9247 208.634 48.0323 207.706 48.9231C206.777 49.8139 205.56 50.2593 204.041 50.2593C202.522 50.2593 201.365 49.8139 200.424 48.9231C199.484 48.0323 199.014 46.8646 199.014 45.3959ZM200.581 45.444C200.581 46.9368 200.882 48.0443 201.473 48.7907C202.064 49.537 202.956 49.9102 204.149 49.9102C205.198 49.9102 206.018 49.537 206.621 48.7907C207.224 48.0443 207.525 46.9368 207.525 45.4561C207.525 43.9754 207.224 42.916 206.633 42.1456C206.03 41.3751 205.174 40.9899 204.041 40.9899C202.908 40.9899 202.064 41.3631 201.473 42.1095C200.882 42.8558 200.581 43.9633 200.581 45.432V45.444Z" fill="white"/><path d="M212.034 45.3959C212.034 43.9633 212.516 42.8197 213.468 41.953C214.421 41.0862 215.614 40.6528 217.049 40.6528C218.483 40.6528 219.701 41.0862 220.665 41.9409C221.63 42.7956 222.112 43.9633 222.112 45.444C222.112 46.9247 221.654 48.0323 220.726 48.9231C219.797 49.8139 218.58 50.2593 217.061 50.2593C215.542 50.2593 214.385 49.8139 213.444 48.9231C212.504 48.0323 212.034 46.8646 212.034 45.3959ZM213.601 45.444C213.601 46.9368 213.902 48.0443 214.493 48.7907C215.084 49.537 215.976 49.9102 217.169 49.9102C218.218 49.9102 219.038 49.537 219.641 48.7907C220.244 48.0443 220.545 46.9368 220.545 45.4561C220.545 43.9754 220.244 42.916 219.653 42.1456C219.05 41.3751 218.194 40.9899 217.061 40.9899C215.928 40.9899 215.084 41.3631 214.493 42.1095C213.902 42.8558 213.601 43.9633 213.601 45.432V45.444Z" fill="white"/><path d="M224.427 40.9058L225.946 40.8336C227.212 40.7734 228.08 40.7373 228.514 40.7373C229.888 40.7373 230.961 40.942 231.732 41.3633C232.504 41.7846 233.071 42.3504 233.456 43.0727C233.83 43.783 234.023 44.6136 234.023 45.5526C234.023 46.2267 233.927 46.8527 233.722 47.4065C233.517 47.9723 233.239 48.4297 232.878 48.8029C232.516 49.1761 232.106 49.453 231.636 49.6456C231.166 49.8382 230.72 49.9586 230.298 50.0067C229.876 50.0549 229.273 50.079 228.502 50.079H224.391V49.766H224.776C225.174 49.766 225.452 49.7178 225.596 49.6215C225.741 49.5252 225.849 49.3687 225.886 49.152C225.934 48.9474 225.946 48.4538 225.946 47.6713V43.2051C225.946 42.4708 225.922 41.9893 225.886 41.7726C225.837 41.5559 225.753 41.4114 225.608 41.3272C225.464 41.2429 225.162 41.2068 224.692 41.2068H224.415V40.8938L224.427 40.9058ZM227.284 41.0985V47.2861C227.284 48.201 227.296 48.7909 227.332 49.0557C227.368 49.3206 227.465 49.5011 227.646 49.6095C227.814 49.7178 228.176 49.766 228.731 49.766C229.538 49.766 230.201 49.6576 230.72 49.4409C231.238 49.2242 231.672 48.7909 232.022 48.1408C232.371 47.4907 232.54 46.6601 232.54 45.6609C232.54 44.8785 232.444 44.1802 232.239 43.5663C232.034 42.9523 231.745 42.4467 231.371 42.0615C230.997 41.6763 230.575 41.4114 230.117 41.279C229.659 41.1346 229.068 41.0744 228.345 41.0744C227.995 41.0744 227.646 41.0744 227.296 41.1105L227.284 41.0985Z" fill="white"/><path d="M345.151 40.9058L346.67 40.8336C347.936 40.7734 348.804 40.7373 349.238 40.7373C350.613 40.7373 351.686 40.942 352.457 41.3633C353.229 41.7846 353.795 42.3504 354.181 43.0727C354.555 43.783 354.748 44.6136 354.748 45.5526C354.748 46.2267 354.651 46.8527 354.446 47.4065C354.241 47.9723 353.964 48.4297 353.602 48.8029C353.241 49.1761 352.831 49.453 352.361 49.6456C351.89 49.8382 351.444 49.9586 351.022 50.0067C350.601 50.0549 349.998 50.079 349.226 50.079H345.115V49.766H345.501C345.899 49.766 346.176 49.7178 346.321 49.6215C346.478 49.5252 346.574 49.3687 346.61 49.152C346.658 48.9474 346.67 48.4538 346.67 47.6713V43.2051C346.67 42.4708 346.646 41.9893 346.61 41.7726C346.562 41.5559 346.478 41.4114 346.333 41.3272C346.188 41.2429 345.887 41.2068 345.417 41.2068H345.139V40.8938L345.151 40.9058ZM348.009 41.0985V47.2861C348.009 48.201 348.021 48.7909 348.057 49.0557C348.093 49.3206 348.189 49.5011 348.358 49.6095C348.527 49.7178 348.889 49.766 349.443 49.766C350.251 49.766 350.914 49.6576 351.432 49.4409C351.951 49.2242 352.385 48.7909 352.734 48.1408C353.084 47.4907 353.253 46.6601 353.253 45.6609C353.253 44.8785 353.156 44.1802 352.951 43.5663C352.746 42.9523 352.457 42.4467 352.083 42.0615C351.71 41.6763 351.288 41.4114 350.83 41.279C350.371 41.1346 349.781 41.0744 349.057 41.0744C348.708 41.0744 348.358 41.0744 348.009 41.1105V41.0985Z" fill="white"/><path d="M370.324 46.672H366.803L366.562 47.2618C366.213 48.1165 366.032 48.6703 366.032 48.9231C366.032 49.2 366.128 49.4167 366.321 49.5491C366.514 49.6936 366.755 49.7658 367.044 49.7658V50.0788H364.284V49.7658C364.694 49.7056 364.995 49.5611 365.2 49.3324C365.405 49.1037 365.646 48.6342 365.923 47.9119C365.947 47.8397 366.056 47.5748 366.249 47.1174L368.937 40.689H369.202L372.301 48.0443L372.723 49.0074C372.819 49.2241 372.952 49.3926 373.108 49.525C373.265 49.6454 373.506 49.7297 373.832 49.7658V50.0788H370.191V49.7658C370.637 49.7658 370.938 49.7297 371.095 49.6695C371.252 49.6093 371.336 49.4769 371.336 49.2722C371.336 49.1759 371.228 48.875 371.023 48.3814L370.311 46.672H370.324ZM370.203 46.371L368.563 42.4225L366.936 46.371H370.215H370.203Z" fill="white"/><path d="M387.768 46.0462L389.588 42.9764C389.89 42.4829 390.034 42.1217 390.034 41.9171C390.034 41.7245 389.95 41.5559 389.793 41.3874C389.636 41.2309 389.347 41.1466 388.937 41.1466V40.8336H391.963V41.1466C391.541 41.2068 391.204 41.3633 390.951 41.6161C390.697 41.8689 390.36 42.3264 389.962 42.9885L387.888 46.4435V47.6714C387.888 48.4538 387.912 48.9594 387.961 49.1761C388.009 49.3928 388.105 49.5493 388.262 49.6336C388.419 49.7179 388.732 49.766 389.19 49.766V50.079H385.236V49.766H385.381C385.779 49.766 386.056 49.7179 386.201 49.6215C386.357 49.5252 386.454 49.3687 386.49 49.1521C386.526 48.9474 386.55 48.4538 386.55 47.6714V46.5277L384.236 42.7357C383.765 41.9652 383.452 41.5198 383.295 41.3633C383.138 41.2189 382.861 41.1346 382.463 41.1226V40.8096H386.225V41.1226C385.525 41.1226 385.176 41.2791 385.176 41.6041C385.176 41.7365 385.296 41.9893 385.526 42.3625L387.744 46.0101L387.768 46.0462Z" fill="white"/><path d="M58.3734 198.932C47.9453 195.212 39.4581 189.843 32.912 182.825C24.9191 190.023 14.5995 195.344 1.96528 198.787L1.49512 197.884C13.1408 193.286 22.508 186.966 29.5967 178.924C24.8106 172.833 21.2904 165.634 19.036 157.316C17.0468 161.541 15.4073 164.84 14.0932 167.211C14.6839 168.042 14.5875 168.812 13.828 169.51L8.75258 163.515C12.2728 160.915 15.4555 158.146 18.3006 155.221L19.048 150.971L22.3633 152.019L19.7955 155.642C22.3272 163.13 26.5225 169.751 32.3936 175.505C38.0356 168.066 41.809 159.446 43.7017 149.647H2.37517L1.76034 147.697H29.5243V134.383L38.6625 135.153C38.5299 136.225 37.686 136.875 36.1549 137.103V147.697H52.3335L56.5289 141.907C57.433 142.701 58.3613 143.46 59.3016 144.206C61.339 145.976 62.9304 147.408 64.1118 148.528C63.931 149.274 63.3041 149.647 62.2191 149.647H51.5861C48.7409 161.541 43.7499 171.376 36.6251 179.129C44.2563 185.22 53.7561 189.65 65.1365 192.443L64.9316 193.274C61.773 193.599 59.5789 195.477 58.3613 198.92L58.3734 198.932Z" fill="white"/><path d="M10.5607 272.75V242.57C7.40213 245.64 4.12301 248.24 0.747446 250.383L0 249.685C3.52023 246.29 6.88374 242.197 10.0905 237.418C13.2973 232.675 15.7084 228.172 17.3359 223.899H2.50756L1.89273 221.948H10.7656V208.213L19.1684 209.044C19.0358 210.115 18.1919 210.741 16.6608 210.921V221.936H17.4685L21.1937 218.313L26.8839 224.38C26.4379 224.802 25.4132 225.078 23.8339 225.211C22.1582 228.461 19.8555 231.952 16.926 235.672C19.9038 236.695 22.1461 238.02 23.6289 239.645C24.8948 240.993 25.4976 242.365 25.4614 243.762C25.4614 245.062 24.9671 245.953 23.9665 246.446C22.9779 246.94 21.917 246.735 20.7838 245.856C20.2895 243.437 18.9152 240.728 16.6488 237.707V270.751C16.6488 271.076 16.1906 271.474 15.2985 271.931C14.1653 272.485 12.9477 272.762 11.6457 272.762H10.5607V272.75ZM26.2691 215.171L25.7266 213.149H53.9608L57.5533 208.478C58.3249 209.128 59.0844 209.778 59.856 210.428C61.6161 211.873 62.9904 213.076 63.991 214.051C63.8584 214.798 63.2677 215.171 62.2309 215.171H26.2691ZM26.2088 272.617V238.67L32.9117 241.462H55.3231L58.3731 237.839L64.4009 242.654C63.991 243.256 63.111 243.677 61.7607 243.906V270.535C61.7607 270.763 61.2906 271.064 60.3382 271.438C59.2532 271.907 58.0356 272.136 56.6853 272.136H55.6003V267.814H32.2366V270.956C32.2366 271.281 31.7785 271.63 30.8864 272.003C29.8496 272.425 28.6561 272.629 27.2938 272.629H26.2088V272.617ZM29.5241 237.971V218.662L36.1547 221.383H52.2007L55.1061 217.964L61.0012 222.49C60.5552 223.092 59.7354 223.513 58.566 223.742V235.937C58.566 236.117 58.0959 236.382 57.1435 236.707C56.0585 237.129 54.8408 237.333 53.4906 237.333H52.4056V234.829H35.4072V236.43C35.4072 236.707 34.9732 237.032 34.1173 237.406C33.1287 237.779 31.9473 237.959 30.5971 237.959H29.5121L29.5241 237.971ZM32.2366 253.091H40.9769V243.401H32.2366V253.091ZM32.2366 265.78H40.9769V255.114H32.2366V265.78ZM35.4193 232.807H52.4177V223.321H35.4193V232.807ZM46.7274 253.091H55.6003V243.401H46.7274V253.091ZM46.7274 265.78H55.6003V255.114H46.7274V265.78Z" fill="white"/><path d="M91.1765 177.901C93.8287 178.021 96.3845 177.166 98.8197 175.337C101.58 173.29 103.859 170.377 105.631 166.621C107.512 162.179 108.392 157.111 108.283 151.405H215.566C213.348 157.905 210.635 164.346 207.428 170.726L209.418 172.098C216.832 167.307 223.969 161.276 230.84 153.981C234.047 153.644 236.157 153.018 237.145 152.103L223.028 138.259L215.385 146.288H165.728V129.194C169.381 128.737 171.322 127.196 171.539 124.584L151.949 122.706V146.3H107.946C107.391 142.653 106.62 139.354 105.619 136.381L102.798 136.55C103.136 142.364 101.966 147.89 99.314 153.138C96.7703 158.038 93.6117 161.577 89.8504 163.732C85.1969 166.814 83.702 170.341 85.3657 174.325C86.3663 176.601 88.2952 177.804 91.1765 177.913V177.901Z" fill="white"/><path d="M226.525 261.326C224.644 259.737 222.703 258.075 220.714 256.366L212.082 268.681H201.787V179.947C205.548 179.49 208.092 178.407 209.43 176.697L193.324 164.394L186.681 173.11H133.202L118.422 166.958V268.681H83.5454L84.8715 273.641H232.504C234.939 273.641 236.374 272.726 236.82 270.908C234.385 268.404 230.949 265.214 226.525 261.338V261.326ZM188.501 204.397H136.325V209.357H188.501V235.853H136.325V240.644H188.501V268.681H131.37V178.069H188.501V204.397Z" fill="white"/><path d="M259.135 172.941C261.787 173.061 264.174 172.255 266.272 170.545C271.48 165.874 273.915 158.808 273.578 149.346H381.692C379.703 155.618 377.762 160.794 375.881 164.899C373.555 162.961 371.18 161.083 368.744 159.253L360.607 169.341H271.757L273.252 174.133H306.803C302.487 185.184 297.725 194.537 292.517 202.17C279.232 202.735 269.599 203.024 263.62 203.024L270.262 219.432C272.143 219.095 273.638 217.892 274.747 215.845C310.178 211.403 340.341 206.78 365.26 202.001C370.902 208.153 374.893 213.57 377.219 218.241C380.872 220.071 383.693 219.806 385.694 217.47C387.684 215.135 387.792 211.8 386.032 207.466C384.043 202.567 379.992 197.836 373.904 193.273C366.49 187.808 356.737 183.306 344.681 179.767L343.018 181.476C348.889 185.689 355.146 191.275 361.788 198.233C336.435 199.943 315.567 201.195 299.184 201.989C307.815 194.465 316.122 185.184 324.09 174.121H379.389C381.933 174.121 383.428 173.266 383.874 171.556C382.765 170.533 380.884 168.884 378.232 166.597C384.766 162.72 390.963 157.761 396.834 151.717C400.161 151.489 402.199 150.923 402.982 150.008L389.034 136.333L381.559 144.194H333.072V129.326C336.725 128.761 338.714 127.16 339.051 124.535L319.449 122.657V144.194H273.276C272.613 140.317 271.842 136.959 270.949 134.106H268.454C268.671 139.005 267.682 143.905 265.464 148.804C263.354 153.475 260.811 156.834 257.821 158.892C255.832 160.265 254.445 161.854 253.674 163.683C252.782 165.73 252.733 167.728 253.505 169.666C254.506 171.713 256.386 172.808 259.147 172.917L259.135 172.941Z" fill="white"/><path d="M385.851 258.762L377.219 270.042H333.047V219.433C336.483 218.867 338.364 217.326 338.689 214.822L319.425 212.944V236.708H266.452L267.778 241.499H319.425V270.054H250.84L252.335 274.845H397.81C400.245 274.845 401.68 273.99 402.126 272.281C399.582 269.885 396.086 266.924 391.662 263.397C389.781 261.916 387.84 260.375 385.851 258.786V258.762Z" fill="white"/><path d="M383.693 241.499C386.128 241.499 387.563 240.644 388.009 238.934C385.574 236.659 382.246 233.806 378.051 230.387C376.279 229.015 374.446 227.594 372.566 226.114L364.259 236.707H337.954V241.499H383.693Z" fill="white"/><path d="M507.564 166.103C505.238 163.936 502.187 161.204 498.426 157.893C496.762 156.521 495.099 155.16 493.447 153.788L485.478 163.876H448.938L450.264 168.836H503.236C505.672 168.836 507.106 167.921 507.552 166.103H507.564Z" fill="white"/><path d="M442.958 233.457C442.512 239.163 440.571 244.569 437.147 249.697C433.941 254.259 430.288 257.51 426.189 259.436C423.971 260.579 422.367 262.06 421.367 263.878C420.366 265.816 420.209 267.863 420.872 270.029C421.873 272.305 423.802 273.557 426.683 273.785C429.335 274.014 431.939 273.328 434.483 271.739C439.016 268.886 442.392 264.504 444.61 258.569C447.37 251.166 447.708 242.835 445.61 233.614L442.958 233.445V233.457Z" fill="white"/><path d="M499.595 213.63V188.843C502.694 188.049 504.803 186.965 505.9 185.593L491.952 174.819L485.647 181.825H468.817V186.785H487.142V206.106H468.817V210.897H487.142V217.217H489.131C491.012 217.217 493.23 216.76 495.774 215.845C498.209 214.93 499.487 214.196 499.595 213.618V213.63Z" fill="white"/><path d="M531.639 130.88C534.074 133.841 535.738 136.586 536.618 139.09C539.27 140.799 541.766 141.088 544.093 139.945C546.311 138.801 547.36 136.983 547.251 134.479C547.143 131.747 545.479 129.351 542.272 127.304C538.511 124.68 532.965 123.091 525.66 122.513L524.333 124.054C526.877 125.884 529.312 128.159 531.639 130.892V130.88Z" fill="white"/><path d="M440.137 203.88C442.681 194.875 443.959 183.475 443.959 169.691L444.164 142.653L431.505 137.38V169.859C431.505 183.535 430.734 194.646 429.179 203.193C426.96 215.845 422.874 226.56 416.894 235.335L419.052 237.213C429.239 228.895 436.267 217.784 440.149 203.88H440.137Z" fill="white"/><path d="M480.162 227.474C484.815 230.435 489.239 234.083 493.447 238.417C498.1 243.316 501.199 247.879 502.742 252.092C506.178 253.802 508.938 253.657 511.048 251.671C513.146 249.673 513.761 246.964 512.88 243.545C511.771 239.56 508.89 236.021 504.249 232.939C498.607 229.292 491.072 226.896 481.669 225.765L480.174 227.474H480.162Z" fill="white"/><path d="M564.852 218.409L567.348 196.873L565.358 196.536C562.815 203.494 560.548 208.959 558.547 212.944C557.884 214.196 557.185 214.858 556.473 214.906C555.75 214.966 554.786 214.533 553.568 213.618C546.925 209.176 541.115 203.53 536.136 196.692C543.224 187.916 549.144 177.78 553.906 166.26C557.221 166.717 559.391 165.802 560.379 163.527L542.284 156.172C539.403 166.765 535.256 176.853 529.831 186.436C524.189 175.613 520.367 162.961 518.378 148.479H565.877C568.204 148.479 569.59 147.564 570.024 145.747C568.035 143.471 565.214 140.618 561.549 137.199C559.994 135.719 558.39 134.238 556.739 132.757L549.433 143.532H517.884C517.221 138.403 516.883 133.335 516.883 128.315C519.873 127.749 521.585 126.209 522.031 123.705L503.429 121.827C503.537 128.556 503.983 135.791 504.755 143.544H449.07V148.503H505.418C508.179 167.993 513.724 184.69 522.031 198.594C515.28 208.056 507.19 216.267 497.787 223.213L499.619 225.091C510.252 220.191 519.487 213.919 527.347 206.287C532.772 213.811 539.475 220.36 547.444 225.945C551.651 228.907 555.63 230.845 559.403 231.76C563.827 232.903 566.926 232.097 568.698 229.364C569.578 228.22 569.747 226.86 569.192 225.259C568.638 223.67 567.203 221.383 564.876 218.421L564.852 218.409Z" fill="white"/><path d="M559.874 246.278C553.568 240.692 544.876 236.19 533.797 232.771L531.965 234.312C537.498 239.103 542.538 244.629 547.083 250.901C552.291 257.967 555.606 264.468 557.04 270.39C560.802 272.894 563.96 273.063 566.504 270.908C569.048 268.741 569.94 265.443 569.156 260.989C568.156 255.86 565.057 250.961 559.861 246.29L559.874 246.278Z" fill="white"/><path d="M531.482 263.204L531.145 244.737H528.987C526.335 254.657 524.442 260.579 523.345 262.517C522.573 263.89 521.235 264.624 519.354 264.745C517.691 264.865 511.711 264.913 501.416 264.913H481.319C477.992 264.913 475.894 264.745 475.014 264.395C474.242 264.058 473.857 263.252 473.857 262V236.527C476.847 236.069 478.51 234.709 478.836 232.422L460.897 230.544V264.564C460.897 269.584 462.054 272.906 464.381 274.568C466.708 276.217 471.687 277.048 479.33 277.048H500.584C515.087 277.048 524.888 276.422 529.975 275.17C534.508 274.026 536.787 271.859 536.787 268.669C536.787 266.273 535.015 264.456 531.47 263.204H531.482Z" fill="white"/><path d="M464.887 217.049L464.923 181.488L452.771 176.191V220.817H454.604C456.822 220.817 459.137 220.299 461.584 219.276C463.802 218.361 464.911 217.627 464.911 217.049H464.887Z" fill="white"/><path d="M87.186 306.589L87.3306 309.659H86.9569C86.8846 309.117 86.7881 308.732 86.6676 308.503C86.4626 308.13 86.1974 307.853 85.8719 307.673C85.5344 307.492 85.1003 307.408 84.5578 307.408H82.7133V317.424C82.7133 318.23 82.7977 318.736 82.9786 318.929C83.2197 319.193 83.6055 319.338 84.1118 319.338H84.5699V319.699H79.0002V319.338H79.4704C80.0249 319.338 80.4228 319.169 80.6518 318.832C80.7965 318.628 80.8688 318.158 80.8688 317.424V307.408H79.2896C78.6747 307.408 78.2407 307.456 77.9876 307.54C77.65 307.661 77.3607 307.902 77.1316 308.251C76.8905 308.6 76.7458 309.069 76.7097 309.659H76.3359L76.4927 306.589H87.2101H87.186Z" fill="white"/><path d="M94.2748 312.669H100.375V308.913C100.375 308.239 100.339 307.805 100.254 307.589C100.194 307.432 100.049 307.288 99.8445 307.179C99.5672 307.023 99.2779 306.951 98.9644 306.951H98.4943V306.589H104.112V306.951H103.642C103.329 306.951 103.039 307.023 102.762 307.167C102.557 307.276 102.412 307.432 102.34 307.637C102.268 307.841 102.232 308.275 102.232 308.913V317.364C102.232 318.026 102.268 318.471 102.352 318.676C102.412 318.832 102.545 318.977 102.75 319.097C103.039 319.254 103.329 319.326 103.642 319.326H104.112V319.687H98.4943V319.326H98.9644C99.4949 319.326 99.8927 319.169 100.134 318.856C100.291 318.652 100.375 318.158 100.375 317.364V313.367H94.2748V317.364C94.2748 318.026 94.311 318.471 94.3954 318.676C94.4557 318.832 94.6003 318.977 94.8053 319.097C95.0826 319.254 95.3719 319.326 95.6853 319.326H96.1555V319.687H90.5376V319.326H91.0078C91.5503 319.326 91.9481 319.169 92.1892 318.856C92.3459 318.652 92.4183 318.158 92.4183 317.364V308.913C92.4183 308.239 92.3821 307.805 92.2977 307.589C92.2374 307.432 92.1048 307.288 91.8999 307.179C91.6106 307.023 91.3212 306.951 91.0078 306.951H90.5376V306.589H96.1555V306.951H95.6853C95.3719 306.951 95.0826 307.023 94.8053 307.167C94.6003 307.276 94.4677 307.432 94.3833 307.637C94.311 307.841 94.2628 308.275 94.2628 308.913V312.669H94.2748Z" fill="white"/><path d="M111.044 307.299V312.476H113.925C114.673 312.476 115.179 312.368 115.42 312.139C115.758 311.838 115.939 311.32 115.987 310.574H116.348V315.136H115.987C115.89 314.498 115.806 314.089 115.722 313.908C115.601 313.68 115.42 313.511 115.155 313.379C114.89 313.246 114.48 313.186 113.937 313.186H111.056V317.508C111.056 318.086 111.08 318.435 111.128 318.567C111.177 318.688 111.273 318.796 111.406 318.868C111.538 318.94 111.779 318.977 112.141 318.977H114.371C115.119 318.977 115.649 318.928 115.987 318.82C116.324 318.724 116.65 318.519 116.951 318.206C117.349 317.809 117.759 317.207 118.181 316.4H118.567L117.433 319.687H107.319V319.326H107.789C108.102 319.326 108.392 319.253 108.669 319.109C108.874 319.001 109.019 318.856 109.091 318.639C109.163 318.435 109.2 318.013 109.2 317.375V308.864C109.2 308.034 109.115 307.516 108.946 307.324C108.717 307.071 108.332 306.938 107.789 306.938H107.319V306.577H117.433L117.578 309.442H117.204C117.072 308.756 116.915 308.275 116.758 308.022C116.59 307.769 116.348 307.564 116.023 307.432C115.77 307.336 115.312 307.287 114.661 307.287H111.056L111.044 307.299Z" fill="white"/><path d="M132.853 307.299V312.476H135.734C136.481 312.476 136.988 312.368 137.229 312.139C137.566 311.838 137.747 311.32 137.795 310.574H138.157V315.136H137.795C137.699 314.498 137.615 314.089 137.53 313.908C137.41 313.68 137.229 313.511 136.964 313.379C136.698 313.246 136.288 313.186 135.746 313.186H132.865V317.508C132.865 318.086 132.889 318.435 132.937 318.567C132.985 318.688 133.082 318.796 133.214 318.868C133.347 318.94 133.588 318.977 133.95 318.977H136.18C136.927 318.977 137.458 318.928 137.795 318.82C138.133 318.724 138.458 318.519 138.76 318.206C139.158 317.809 139.568 317.207 139.99 316.4H140.375L139.242 319.687H129.127V319.326H129.598C129.911 319.326 130.2 319.253 130.478 319.109C130.683 319.001 130.827 318.856 130.9 318.639C130.972 318.435 131.008 318.013 131.008 317.375V308.864C131.008 308.034 130.924 307.516 130.755 307.324C130.526 307.071 130.14 306.938 129.598 306.938H129.127V306.577H139.242L139.387 309.442H139.013C138.88 308.756 138.724 308.275 138.567 308.022C138.398 307.769 138.157 307.564 137.832 307.432C137.578 307.336 137.12 307.287 136.469 307.287H132.865L132.853 307.299Z" fill="white"/><path d="M152.286 306.289V310.827H151.925C151.804 309.96 151.599 309.262 151.298 308.744C150.996 308.227 150.574 307.817 150.02 307.516C149.465 307.216 148.887 307.059 148.296 307.059C147.621 307.059 147.066 307.264 146.632 307.673C146.198 308.082 145.969 308.552 145.969 309.069C145.969 309.467 146.102 309.828 146.379 310.165C146.777 310.646 147.729 311.296 149.236 312.103C150.466 312.765 151.298 313.259 151.744 313.62C152.19 313.969 152.54 314.39 152.781 314.86C153.022 315.341 153.142 315.835 153.142 316.353C153.142 317.34 152.757 318.194 151.985 318.917C151.213 319.639 150.225 320 149.007 320C148.621 320 148.272 319.976 147.934 319.916C147.729 319.88 147.319 319.771 146.693 319.567C146.066 319.362 145.668 319.266 145.499 319.266C145.33 319.266 145.21 319.314 145.113 319.41C145.017 319.507 144.945 319.711 144.908 320.012H144.547V315.522H144.908C145.077 316.461 145.306 317.171 145.583 317.629C145.873 318.098 146.307 318.483 146.885 318.796C147.464 319.109 148.115 319.266 148.802 319.266C149.61 319.266 150.249 319.049 150.719 318.628C151.189 318.206 151.418 317.701 151.418 317.123C151.418 316.798 151.334 316.473 151.153 316.148C150.972 315.823 150.695 315.51 150.321 315.233C150.068 315.04 149.381 314.631 148.26 314.005C147.139 313.379 146.343 312.873 145.861 312.5C145.391 312.127 145.029 311.718 144.788 311.26C144.547 310.803 144.414 310.309 144.414 309.768C144.414 308.829 144.776 308.022 145.499 307.336C146.222 306.65 147.139 306.313 148.26 306.313C148.959 306.313 149.694 306.481 150.478 306.83C150.84 306.987 151.093 307.071 151.238 307.071C151.406 307.071 151.539 307.023 151.647 306.927C151.756 306.83 151.84 306.626 151.901 306.325H152.262L152.286 306.289Z" fill="white"/><path d="M165.692 306.289V310.827H165.33C165.21 309.96 165.005 309.262 164.704 308.744C164.402 308.227 163.98 307.817 163.426 307.516C162.871 307.216 162.292 307.059 161.702 307.059C161.027 307.059 160.472 307.264 160.038 307.673C159.604 308.082 159.375 308.552 159.375 309.069C159.375 309.467 159.508 309.828 159.785 310.165C160.183 310.646 161.135 311.296 162.642 312.103C163.872 312.765 164.704 313.259 165.15 313.62C165.596 313.969 165.945 314.39 166.186 314.86C166.428 315.341 166.548 315.835 166.548 316.353C166.548 317.34 166.162 318.194 165.391 318.917C164.619 319.639 163.631 320 162.413 320C162.027 320 161.678 319.976 161.34 319.916C161.135 319.88 160.725 319.771 160.098 319.567C159.471 319.362 159.074 319.266 158.905 319.266C158.736 319.266 158.615 319.314 158.519 319.41C158.423 319.507 158.35 319.711 158.314 320.012H157.952V315.522H158.314C158.483 316.461 158.712 317.171 158.989 317.629C159.279 318.098 159.713 318.483 160.291 318.796C160.87 319.109 161.521 319.266 162.208 319.266C163.016 319.266 163.655 319.049 164.125 318.628C164.595 318.206 164.824 317.701 164.824 317.123C164.824 316.798 164.74 316.473 164.559 316.148C164.378 315.823 164.101 315.51 163.727 315.233C163.474 315.04 162.787 314.631 161.666 314.005C160.544 313.379 159.749 312.873 159.266 312.5C158.796 312.127 158.435 311.718 158.194 311.26C157.952 310.803 157.82 310.309 157.82 309.768C157.82 308.829 158.181 308.022 158.905 307.336C159.628 306.65 160.544 306.313 161.666 306.313C162.365 306.313 163.1 306.481 163.884 306.83C164.245 306.987 164.499 307.071 164.643 307.071C164.812 307.071 164.945 307.023 165.053 306.927C165.162 306.83 165.246 306.626 165.306 306.325H165.668L165.692 306.289Z" fill="white"/><path d="M174.143 307.299V312.476H177.024C177.772 312.476 178.278 312.368 178.519 312.139C178.857 311.838 179.038 311.32 179.086 310.574H179.447V315.136H179.086C178.989 314.498 178.905 314.089 178.821 313.908C178.7 313.68 178.519 313.511 178.254 313.379C177.989 313.246 177.579 313.186 177.036 313.186H174.155V317.508C174.155 318.086 174.179 318.435 174.227 318.567C174.276 318.688 174.372 318.796 174.493 318.868C174.625 318.94 174.866 318.977 175.228 318.977H177.458C178.206 318.977 178.736 318.928 179.074 318.82C179.411 318.724 179.737 318.519 180.038 318.206C180.436 317.809 180.846 317.207 181.268 316.4H181.654L180.52 319.687H170.406V319.326H170.876C171.189 319.326 171.479 319.253 171.756 319.109C171.961 319.001 172.106 318.856 172.178 318.639C172.25 318.435 172.286 318.013 172.286 317.375V308.864C172.286 308.034 172.202 307.516 172.033 307.324C171.804 307.071 171.418 306.938 170.876 306.938H170.406V306.577H180.52L180.665 309.442H180.291C180.159 308.756 180.002 308.275 179.845 308.022C179.676 307.769 179.435 307.564 179.11 307.432C178.857 307.336 178.399 307.287 177.748 307.287H174.143V307.299Z" fill="white"/><path d="M184.233 306.589H187.79L195.819 316.412V308.852C195.819 308.046 195.722 307.54 195.541 307.348C195.3 307.071 194.927 306.938 194.408 306.938H193.95V306.577H198.519V306.938H198.049C197.494 306.938 197.097 307.107 196.868 307.444C196.723 307.649 196.65 308.118 196.65 308.852V319.903H196.301L187.645 309.346V317.412C187.645 318.218 187.729 318.724 187.91 318.916C188.151 319.181 188.537 319.326 189.043 319.326H189.514V319.687H184.945V319.326H185.403C185.969 319.326 186.355 319.157 186.596 318.82C186.741 318.615 186.813 318.146 186.813 317.412V308.299C186.427 307.853 186.138 307.564 185.945 307.42C185.752 307.275 185.463 307.143 185.077 307.023C184.884 306.962 184.607 306.938 184.221 306.938V306.577L184.233 306.589Z" fill="white"/><path d="M213.119 306.289L213.42 310.743H213.119C212.721 309.406 212.142 308.443 211.407 307.866C210.659 307.276 209.779 306.987 208.73 306.987C207.862 306.987 207.067 307.203 206.367 307.649C205.668 308.094 205.114 308.793 204.704 309.756C204.306 310.719 204.101 311.922 204.101 313.367C204.101 314.547 204.294 315.582 204.668 316.449C205.053 317.316 205.62 317.99 206.38 318.447C207.139 318.905 208.019 319.145 208.996 319.145C209.852 319.145 210.599 318.965 211.25 318.604C211.901 318.243 212.612 317.52 213.396 316.437L213.697 316.629C213.034 317.797 212.275 318.652 211.395 319.194C210.515 319.735 209.478 320 208.272 320C206.102 320 204.414 319.194 203.221 317.58C202.329 316.377 201.883 314.968 201.883 313.343C201.883 312.031 202.172 310.839 202.763 309.744C203.354 308.648 204.161 307.793 205.186 307.191C206.211 306.59 207.344 306.289 208.562 306.289C209.514 306.289 210.442 306.517 211.371 306.987C211.636 307.131 211.841 307.203 211.949 307.203C212.118 307.203 212.275 307.143 212.407 307.023C212.576 306.854 212.697 306.602 212.769 306.301H213.107L213.119 306.289Z" fill="white"/><path d="M220.919 307.299V312.476H223.8C224.547 312.476 225.054 312.368 225.295 312.139C225.632 311.838 225.813 311.32 225.861 310.574H226.223V315.136H225.861C225.765 314.498 225.68 314.089 225.596 313.908C225.476 313.68 225.295 313.511 225.029 313.379C224.764 313.246 224.354 313.186 223.812 313.186H220.931V317.508C220.931 318.086 220.955 318.435 221.003 318.567C221.051 318.688 221.148 318.796 221.28 318.868C221.413 318.94 221.654 318.977 222.016 318.977H224.246C224.993 318.977 225.524 318.928 225.861 318.82C226.199 318.724 226.524 318.519 226.826 318.206C227.224 317.809 227.633 317.207 228.055 316.4H228.441L227.308 319.687H217.193V319.326H217.664C217.977 319.326 218.266 319.253 218.544 319.109C218.749 319.001 218.893 318.856 218.966 318.639C219.038 318.435 219.074 318.013 219.074 317.375V308.864C219.074 308.034 218.99 307.516 218.821 307.324C218.592 307.071 218.206 306.938 217.664 306.938H217.193V306.577H227.308L227.453 309.442H227.079C226.946 308.756 226.79 308.275 226.633 308.022C226.464 307.769 226.223 307.564 225.897 307.432C225.644 307.336 225.186 307.287 224.535 307.287H220.931L220.919 307.299Z" fill="white"/><path d="M245.85 306.289C247.549 306.289 249.032 306.939 250.274 308.227C251.528 309.515 252.143 311.128 252.143 313.066C252.143 315.004 251.516 316.714 250.25 318.026C248.996 319.338 247.465 320 245.681 320C243.897 320 242.353 319.362 241.124 318.074C239.894 316.786 239.279 315.137 239.279 313.102C239.279 311.068 239.991 309.322 241.413 308.01C242.643 306.866 244.126 306.301 245.838 306.301L245.85 306.289ZM245.669 306.999C244.499 306.999 243.547 307.432 242.848 308.299C241.968 309.382 241.522 310.971 241.522 313.054C241.522 315.137 241.98 316.834 242.896 317.99C243.595 318.869 244.523 319.302 245.681 319.302C246.91 319.302 247.935 318.82 248.731 317.857C249.539 316.894 249.936 315.389 249.936 313.319C249.936 311.08 249.49 309.406 248.61 308.299C247.899 307.42 246.923 306.987 245.669 306.987V306.999Z" fill="white"/><path d="M259.352 307.3V312.452H261.739C262.281 312.452 262.691 312.332 262.944 312.091C263.197 311.85 263.366 311.369 263.451 310.658H263.812V315.088H263.451C263.451 314.583 263.378 314.21 263.258 313.969C263.137 313.728 262.956 313.547 262.739 313.427C262.522 313.307 262.185 313.246 261.751 313.246H259.364V317.364C259.364 318.026 259.4 318.471 259.484 318.676C259.545 318.832 259.689 318.977 259.894 319.097C260.183 319.254 260.473 319.326 260.786 319.326H261.256V319.687H255.626V319.326H256.097C256.639 319.326 257.037 319.169 257.278 318.856C257.435 318.652 257.507 318.158 257.507 317.364V308.901C257.507 308.239 257.471 307.793 257.387 307.589C257.326 307.432 257.194 307.288 256.989 307.179C256.711 307.023 256.41 306.951 256.097 306.951H255.626V306.589H265.391L265.512 309.467H265.175C265.006 308.853 264.813 308.407 264.584 308.118C264.355 307.829 264.089 307.625 263.764 307.492C263.438 307.36 262.932 307.3 262.245 307.3H259.352Z" fill="white"/><path d="M285.187 313.006C286.091 313.198 286.778 313.511 287.224 313.933C287.851 314.522 288.165 315.245 288.165 316.111C288.165 316.761 287.96 317.387 287.55 317.977C287.14 318.579 286.573 319.013 285.85 319.277C285.127 319.554 284.03 319.687 282.559 319.687H276.362V319.326H276.857C277.411 319.326 277.797 319.157 278.038 318.808C278.183 318.579 278.255 318.098 278.255 317.363V308.901C278.255 308.094 278.159 307.576 277.978 307.36C277.725 307.071 277.351 306.938 276.857 306.938H276.362V306.577H282.028C283.089 306.577 283.933 306.649 284.572 306.806C285.537 307.035 286.272 307.444 286.79 308.034C287.297 308.624 287.55 309.298 287.55 310.068C287.55 310.73 287.345 311.308 286.947 311.826C286.549 312.343 285.959 312.729 285.175 312.981L285.187 313.006ZM280.112 312.488C280.353 312.536 280.618 312.572 280.931 312.584C281.233 312.608 281.57 312.62 281.944 312.62C282.884 312.62 283.596 312.524 284.066 312.319C284.536 312.115 284.898 311.802 285.151 311.38C285.404 310.959 285.525 310.502 285.525 310.008C285.525 309.238 285.211 308.588 284.584 308.046C283.957 307.504 283.041 307.239 281.848 307.239C281.197 307.239 280.618 307.311 280.112 307.456V312.488ZM280.112 318.748C280.859 318.916 281.594 319.013 282.33 319.013C283.499 319.013 284.391 318.748 285.006 318.23C285.621 317.7 285.922 317.062 285.922 316.28C285.922 315.774 285.778 315.281 285.5 314.811C285.223 314.342 284.777 313.969 284.15 313.704C283.523 313.439 282.752 313.294 281.823 313.294C281.426 313.294 281.076 313.294 280.799 313.319C280.509 313.331 280.28 313.355 280.112 313.391V318.76V318.748Z" fill="white"/><path d="M295.771 307.299V312.476H298.653C299.4 312.476 299.906 312.368 300.148 312.139C300.485 311.838 300.666 311.32 300.714 310.574H301.076V315.136H300.714C300.618 314.498 300.533 314.089 300.449 313.908C300.328 313.68 300.148 313.511 299.882 313.379C299.617 313.246 299.207 313.186 298.665 313.186H295.783V317.508C295.783 318.086 295.808 318.435 295.856 318.567C295.904 318.688 296 318.796 296.121 318.868C296.254 318.94 296.495 318.977 296.856 318.977H299.087C299.834 318.977 300.365 318.928 300.702 318.82C301.04 318.724 301.365 318.519 301.667 318.206C302.064 317.809 302.474 317.207 302.896 316.4H303.282L302.149 319.687H292.034V319.326H292.504C292.818 319.326 293.107 319.253 293.384 319.109C293.589 319.001 293.734 318.856 293.806 318.639C293.879 318.435 293.915 318.013 293.915 317.375V308.864C293.915 308.034 293.83 307.516 293.662 307.324C293.433 307.071 293.047 306.938 292.504 306.938H292.034V306.577H302.149L302.293 309.442H301.92C301.787 308.756 301.63 308.275 301.474 308.022C301.305 307.769 301.064 307.564 300.738 307.432C300.485 307.336 300.027 307.287 299.376 307.287H295.771V307.299Z" fill="white"/><path d="M315.181 315.305H310.106L309.214 317.375C308.997 317.881 308.888 318.266 308.888 318.519C308.888 318.724 308.984 318.892 309.177 319.049C309.37 319.205 309.78 319.302 310.407 319.35V319.711H306.272V319.35C306.814 319.253 307.176 319.133 307.333 318.977C307.658 318.664 308.032 318.038 308.43 317.087L313.047 306.3H313.385L317.954 317.207C318.315 318.086 318.653 318.652 318.954 318.916C319.256 319.181 319.678 319.326 320.208 319.362V319.723H315.036V319.362C315.555 319.338 315.916 319.253 316.097 319.097C316.278 318.952 316.375 318.772 316.375 318.555C316.375 318.266 316.242 317.821 315.989 317.207L315.193 315.317L315.181 315.305ZM314.904 314.595L312.673 309.298L310.395 314.595H314.904Z" fill="white"/><path d="M332.264 306.951V306.589H336.905V306.951H336.411C335.893 306.951 335.495 307.167 335.218 307.601C335.085 307.805 335.013 308.263 335.013 308.997V314.306C335.013 315.618 334.88 316.641 334.615 317.364C334.35 318.086 333.843 318.712 333.072 319.229C332.312 319.747 331.263 320.012 329.949 320.012C328.515 320.012 327.43 319.759 326.682 319.266C325.935 318.772 325.416 318.098 325.103 317.267C324.898 316.689 324.79 315.618 324.79 314.041V308.925C324.79 308.118 324.681 307.589 324.452 307.336C324.235 307.083 323.873 306.963 323.379 306.963H322.885V306.601H328.551V306.963H328.045C327.502 306.963 327.116 307.131 326.887 307.48C326.731 307.709 326.646 308.19 326.646 308.925V314.631C326.646 315.136 326.694 315.726 326.791 316.376C326.887 317.039 327.056 317.544 327.297 317.917C327.538 318.291 327.9 318.591 328.358 318.82C328.816 319.061 329.383 319.181 330.058 319.181C330.914 319.181 331.685 318.989 332.36 318.616C333.036 318.242 333.506 317.761 333.747 317.183C334 316.605 334.121 315.618 334.121 314.222V308.913C334.121 308.094 334.036 307.577 333.855 307.372C333.602 307.083 333.228 306.951 332.734 306.951H332.24H332.264Z" fill="white"/><path d="M350.962 306.589L351.107 309.659H350.733C350.661 309.117 350.565 308.732 350.444 308.503C350.239 308.13 349.974 307.853 349.648 307.673C349.311 307.492 348.877 307.408 348.334 307.408H346.49V317.424C346.49 318.23 346.574 318.736 346.755 318.929C346.996 319.193 347.382 319.338 347.888 319.338H348.346V319.699H342.777V319.338H343.235C343.789 319.338 344.187 319.169 344.416 318.832C344.561 318.628 344.633 318.158 344.633 317.424V307.408H343.054C342.439 307.408 342.005 307.456 341.752 307.54C341.414 307.661 341.125 307.902 340.896 308.251C340.655 308.6 340.51 309.069 340.474 309.659H340.112L340.269 306.589H350.986H350.962Z" fill="white"/><path d="M360.1 319.338V319.699H354.482V319.338H354.953C355.495 319.338 355.893 319.182 356.134 318.869C356.291 318.664 356.363 318.17 356.363 317.376V308.913C356.363 308.251 356.315 307.805 356.243 307.601C356.182 307.444 356.05 307.3 355.845 307.191C355.555 307.035 355.266 306.963 354.953 306.963H354.482V306.602H360.1V306.963H359.63C359.1 306.963 358.702 307.119 358.461 307.432C358.304 307.637 358.22 308.13 358.22 308.925V317.388C358.22 318.05 358.268 318.495 358.34 318.7C358.4 318.856 358.545 319.001 358.75 319.121C359.027 319.278 359.317 319.35 359.63 319.35H360.1V319.338Z" fill="white"/><path d="M367.02 307.3V312.452H369.407C369.962 312.452 370.36 312.332 370.613 312.091C370.866 311.85 371.035 311.369 371.119 310.658H371.481V315.088H371.119C371.119 314.583 371.047 314.21 370.926 313.969C370.806 313.728 370.625 313.547 370.408 313.427C370.191 313.307 369.853 313.246 369.419 313.246H367.032V317.364C367.032 318.026 367.08 318.471 367.153 318.676C367.213 318.832 367.358 318.977 367.563 319.097C367.852 319.254 368.141 319.326 368.455 319.326H368.925V319.687H363.295V319.326H363.765C364.308 319.326 364.705 319.169 364.947 318.856C365.103 318.652 365.176 318.158 365.176 317.364V308.901C365.176 308.239 365.127 307.793 365.055 307.589C364.995 307.432 364.862 307.288 364.657 307.179C364.38 307.023 364.079 306.951 363.765 306.951H363.295V306.589H373.06L373.18 309.467H372.843C372.674 308.853 372.481 308.407 372.252 308.118C372.023 307.829 371.758 307.625 371.432 307.492C371.107 307.36 370.601 307.3 369.913 307.3H367.02Z" fill="white"/><path d="M385.815 306.951V306.589H390.456V306.951H389.962C389.444 306.951 389.046 307.167 388.768 307.601C388.636 307.805 388.563 308.263 388.563 308.997V314.306C388.563 315.618 388.431 316.641 388.166 317.364C387.9 318.086 387.394 318.712 386.623 319.229C385.863 319.747 384.814 320.012 383.5 320.012C382.065 320.012 380.98 319.759 380.233 319.266C379.486 318.772 378.967 318.098 378.654 317.267C378.449 316.689 378.34 315.618 378.34 314.041V308.925C378.34 308.118 378.232 307.589 378.003 307.336C377.786 307.083 377.424 306.963 376.93 306.963H376.436V306.601H382.114V306.963H381.607C381.065 306.963 380.679 307.131 380.45 307.48C380.293 307.709 380.209 308.19 380.209 308.925V314.631C380.209 315.136 380.257 315.726 380.354 316.376C380.45 317.039 380.619 317.544 380.86 317.917C381.101 318.291 381.463 318.591 381.921 318.82C382.379 319.061 382.946 319.181 383.621 319.181C384.477 319.181 385.248 318.989 385.923 318.616C386.598 318.242 387.069 317.761 387.31 317.183C387.563 316.605 387.683 315.618 387.683 314.222V308.913C387.683 308.094 387.599 307.577 387.418 307.372C387.165 307.083 386.791 306.951 386.297 306.951H385.803H385.815Z" fill="white"/><path d="M404.416 316.063L404.73 316.135L403.609 319.687H393.446V319.326H393.94C394.495 319.326 394.893 319.145 395.134 318.784C395.266 318.579 395.339 318.098 395.339 317.351V308.901C395.339 308.082 395.242 307.564 395.073 307.36C394.82 307.071 394.446 306.938 393.952 306.938H393.458V306.577H399.401V306.938C398.702 306.938 398.22 306.998 397.93 307.131C397.653 307.263 397.46 307.432 397.352 307.637C397.243 307.841 397.195 308.335 397.195 309.117V317.351C397.195 317.881 397.243 318.254 397.352 318.459C397.424 318.591 397.545 318.7 397.713 318.76C397.882 318.82 398.377 318.856 399.22 318.856H400.173C401.173 318.856 401.885 318.784 402.295 318.639C402.705 318.495 403.066 318.23 403.404 317.857C403.741 317.484 404.079 316.882 404.404 316.075L404.416 316.063Z" fill="white"/><path d="M425.502 316.063L425.815 316.135L424.694 319.687H414.531V319.326H415.026C415.58 319.326 415.978 319.145 416.219 318.784C416.352 318.579 416.424 318.098 416.424 317.351V308.901C416.424 308.082 416.328 307.564 416.159 307.36C415.906 307.071 415.532 306.938 415.038 306.938H414.543V306.577H420.487V306.938C419.787 306.938 419.305 306.998 419.016 307.131C418.727 307.263 418.546 307.432 418.437 307.637C418.329 307.841 418.281 308.335 418.281 309.117V317.351C418.281 317.881 418.329 318.254 418.437 318.459C418.51 318.591 418.63 318.7 418.799 318.76C418.956 318.82 419.462 318.856 420.306 318.856H421.258C422.259 318.856 422.97 318.784 423.38 318.639C423.79 318.495 424.152 318.23 424.489 317.857C424.827 317.484 425.164 316.882 425.49 316.075L425.502 316.063Z" fill="white"/><path d="M434.737 319.338V319.699H429.119V319.338H429.589C430.131 319.338 430.529 319.182 430.77 318.869C430.927 318.664 430.999 318.17 430.999 317.376V308.913C430.999 308.251 430.951 307.805 430.879 307.601C430.818 307.444 430.686 307.3 430.481 307.191C430.192 307.035 429.902 306.963 429.589 306.963H429.119V306.602H434.737V306.963H434.266C433.736 306.963 433.338 307.119 433.097 307.432C432.94 307.637 432.856 308.13 432.856 308.925V317.388C432.856 318.05 432.904 318.495 432.976 318.7C433.037 318.856 433.181 319.001 433.386 319.121C433.664 319.278 433.953 319.35 434.266 319.35H434.737V319.338Z" fill="white"/><path d="M451.674 306.589V306.951C451.204 307.035 450.855 307.179 450.614 307.396C450.276 307.709 449.963 308.19 449.709 308.84L445.128 319.988H444.767L439.848 308.696C439.595 308.118 439.414 307.757 439.318 307.637C439.161 307.432 438.956 307.276 438.727 307.167C438.486 307.059 438.172 306.987 437.774 306.951V306.589H443.139V306.951C442.536 307.011 442.139 307.107 441.958 307.264C441.777 307.408 441.692 307.601 441.692 307.829C441.692 308.154 441.837 308.66 442.139 309.334L445.478 317.014L448.576 309.43C448.878 308.684 449.034 308.166 449.034 307.877C449.034 307.697 448.938 307.516 448.757 307.336C448.564 307.167 448.251 307.047 447.805 306.975C447.769 306.975 447.72 306.963 447.636 306.951V306.589H451.687H451.674Z" fill="white"/><path d="M460.415 319.338V319.699H454.797V319.338H455.267C455.81 319.338 456.207 319.182 456.448 318.869C456.605 318.664 456.678 318.17 456.678 317.376V308.913C456.678 308.251 456.629 307.805 456.557 307.601C456.497 307.444 456.364 307.3 456.159 307.191C455.87 307.035 455.581 306.963 455.267 306.963H454.797V306.602H460.415V306.963H459.945C459.414 306.963 459.016 307.119 458.775 307.432C458.618 307.637 458.534 308.13 458.534 308.925V317.388C458.534 318.05 458.582 318.495 458.655 318.7C458.715 318.856 458.86 319.001 459.065 319.121C459.342 319.278 459.631 319.35 459.945 319.35H460.415V319.338Z" fill="white"/><path d="M463.007 306.589H466.563L474.592 316.412V308.852C474.592 308.046 474.496 307.54 474.327 307.348C474.086 307.071 473.712 306.938 473.194 306.938H472.736V306.577H477.305V306.938H476.835C476.28 306.938 475.882 307.107 475.653 307.444C475.508 307.649 475.436 308.118 475.436 308.852V319.903H475.087L466.431 309.346V317.412C466.431 318.218 466.515 318.724 466.696 318.916C466.937 319.181 467.323 319.326 467.829 319.326H468.299V319.687H463.73V319.326H464.188C464.755 319.326 465.141 319.157 465.382 318.82C465.526 318.615 465.599 318.146 465.599 317.412V308.299C465.213 307.853 464.924 307.564 464.731 307.42C464.538 307.275 464.249 307.143 463.863 307.023C463.67 306.962 463.393 306.938 463.007 306.938V306.577V306.589Z" fill="white"/><path d="M492.133 306.289L492.471 310.43H492.133C491.795 309.394 491.349 308.624 490.807 308.094C490.023 307.336 489.023 306.963 487.793 306.963C486.117 306.963 484.851 307.625 483.983 308.949C483.26 310.069 482.886 311.393 482.886 312.934C482.886 314.186 483.127 315.329 483.61 316.353C484.092 317.388 484.731 318.134 485.515 318.616C486.298 319.097 487.106 319.338 487.926 319.338C488.408 319.338 488.878 319.278 489.324 319.157C489.77 319.037 490.216 318.857 490.626 318.616V314.824C490.626 314.162 490.578 313.74 490.481 313.536C490.385 313.331 490.228 313.174 490.011 313.078C489.806 312.97 489.433 312.922 488.902 312.922V312.561H493.978V312.922H493.736C493.23 312.922 492.893 313.09 492.7 313.427C492.567 313.668 492.507 314.138 492.507 314.836V318.844C491.759 319.242 491.036 319.543 490.313 319.723C489.589 319.916 488.782 320 487.901 320C485.37 320 483.441 319.194 482.127 317.568C481.138 316.353 480.644 314.944 480.644 313.355C480.644 312.199 480.921 311.092 481.476 310.044C482.139 308.793 483.031 307.817 484.188 307.143C485.153 306.59 486.286 306.301 487.6 306.301C488.082 306.301 488.516 306.337 488.902 306.421C489.288 306.493 489.842 306.674 490.566 306.939C490.927 307.071 491.169 307.143 491.289 307.143C491.41 307.143 491.518 307.083 491.603 306.975C491.687 306.866 491.747 306.638 491.759 306.313H492.121L492.133 306.289Z" fill="white"/></g><defs><clipPath id="clip0_18_4491"><rect width="570" height="320" fill="white"/></clipPath></defs></svg>