<svg width="459" height="142" fill="none" xmlns="http://www.w3.org/2000/svg"><g clip-path="url(#clip0_17_4117)"><path d="M0 138.27H458.54" stroke="#493024" stroke-width="0.52" stroke-miterlimit="10"/><path d="M1.13012 132.2V130.5C1.13012 129.27 1.30012 128.07 1.63012 126.91C1.96012 125.74 2.44012 124.5 3.08012 123.16L10.7201 106.93H14.3201L7.25012 122.06C7.63012 121.76 8.14012 121.51 8.79012 121.31C9.44012 121.11 10.1101 121.01 10.8101 121.01C13.2401 121.01 15.2101 121.86 16.7101 123.56C18.2101 125.26 18.9601 127.54 18.9601 130.4V132.1C18.9601 134.13 18.5701 135.88 17.8001 137.34C17.0301 138.8 15.9701 139.93 14.6201 140.71C13.2801 141.49 11.7501 141.88 10.0401 141.88C7.32012 141.88 5.16012 141.01 3.54012 139.26C1.93012 137.51 1.12012 135.16 1.12012 132.2H1.13012ZM15.5001 132.3V130.6C15.5001 128.67 15.0101 127.14 14.0301 126.01C13.0501 124.88 11.7201 124.31 10.0501 124.31C8.38012 124.31 7.09012 124.87 6.11012 125.98C5.13012 127.09 4.64012 128.62 4.64012 130.55V132.25C4.64012 134.21 5.12012 135.77 6.09012 136.92C7.05012 138.07 8.37012 138.64 10.0501 138.64C11.7301 138.64 13.0501 138.07 14.0301 136.92C15.0101 135.77 15.5001 134.23 15.5001 132.3Z" fill="#493024"/><path d="M29.9 119.92V124.51H25.73V119.92H29.9ZM29.9 136.79V141.38H25.73V136.79H29.9Z" fill="#493024"/><path d="M36.8101 133.65V132.85H40.2701V133.5C40.2701 135.1 40.7401 136.35 41.6701 137.27C42.6001 138.18 43.8601 138.64 45.4401 138.64C47.1201 138.64 48.4301 138.1 49.3801 137.02C50.3301 135.94 50.8001 134.48 50.8001 132.65V131.35C50.8001 129.45 50.3001 127.95 49.3101 126.83C48.3101 125.71 46.9501 125.16 45.2101 125.16H43.5001V121.87H45.1601C46.7401 121.87 47.9901 121.35 48.9101 120.3C49.8301 119.25 50.2901 117.88 50.2901 116.18V115.18C50.2901 113.52 49.8501 112.18 48.9601 111.19C48.0801 110.19 46.8701 109.69 45.3601 109.69C43.8501 109.69 42.6601 110.16 41.8001 111.09C40.9501 112.02 40.5201 113.27 40.5201 114.83V115.63H37.2001V114.73C37.2001 112.2 37.9401 110.19 39.4101 108.69C40.8801 107.19 42.9001 106.44 45.4601 106.44C48.0201 106.44 50.0001 107.21 51.4801 108.76C52.9701 110.31 53.7101 112.38 53.7101 114.98V116.08C53.7101 117.75 53.3301 119.19 52.5701 120.42C51.8101 121.65 50.8201 122.57 49.5801 123.17C51.1001 123.77 52.2601 124.78 53.0701 126.19C53.8801 127.6 54.2801 129.29 54.2801 131.26V132.46C54.2801 135.32 53.4701 137.61 51.8401 139.33C50.2101 141.04 48.0701 141.9 45.4101 141.9C42.7501 141.9 40.7001 141.16 39.1501 139.68C37.6001 138.2 36.8301 136.19 36.8301 133.66L36.8101 133.65Z" fill="#493024"/><path d="M61.7798 117.27C61.7798 110.05 64.6298 106.44 70.3198 106.44C76.0098 106.44 78.8998 110.05 78.8998 117.27V130.85C78.8998 138.21 76.0398 141.88 70.3198 141.88C64.5998 141.88 61.7798 138.2 61.7798 130.85V117.27ZM75.4298 130.15V118.17C75.4298 115.14 75.0298 112.98 74.2398 111.68C73.4498 110.38 72.1398 109.73 70.2998 109.73C68.4598 109.73 67.1598 110.38 66.3898 111.68C65.6198 112.98 65.2298 115.14 65.2298 118.17V130.15C65.2298 133.18 65.6198 135.34 66.3898 136.64C67.1598 137.94 68.4698 138.59 70.2998 138.59C72.1298 138.59 73.4498 137.94 74.2398 136.64C75.0298 135.34 75.4298 133.18 75.4298 130.15Z" fill="#493024"/><path d="M103.56 124.16V141.38H100.38V138.68C99.65 139.71 98.75 140.47 97.68 140.95C96.6 141.43 95.29 141.67 93.74 141.67C91.21 141.67 89.25 141.04 87.86 139.77C86.47 138.51 85.77 136.66 85.77 134.23C85.77 131.97 86.47 130.19 87.88 128.91C89.29 127.63 91.27 126.99 93.83 126.99H100.33V124.09C100.33 122.26 99.86 120.88 98.91 119.95C97.96 119.02 96.62 118.55 94.88 118.55C93.24 118.55 91.95 118.94 91.02 119.72C90.09 120.5 89.62 121.58 89.62 122.94V123.09H86.49V122.84C86.49 120.68 87.23 118.95 88.72 117.65C90.21 116.35 92.25 115.7 94.84 115.7C97.65 115.7 99.81 116.41 101.31 117.85C102.81 119.28 103.56 121.38 103.56 124.14V124.16ZM100.34 132.8V129.51H94.32C90.78 129.51 89.01 131.07 89.01 134.2C89.01 137.33 90.76 138.94 94.27 138.94C96.39 138.94 97.93 138.43 98.89 137.42C99.85 136.41 100.34 134.87 100.34 132.8Z" fill="#493024"/><path d="M114.85 116.07V119.17C115.55 118.07 116.45 117.23 117.58 116.65C118.7 116.07 119.96 115.78 121.35 115.78C122.99 115.78 124.4 116.15 125.57 116.88C126.74 117.61 127.64 118.66 128.27 120.03C129.85 117.2 132.29 115.79 135.57 115.79C138.13 115.79 140.12 116.58 141.55 118.16C142.97 119.74 143.68 121.95 143.68 124.78V141.41H140.46V125.28C140.46 123.18 139.98 121.59 139.01 120.49C138.05 119.39 136.69 118.84 134.96 118.84C133.23 118.84 131.81 119.4 130.81 120.51C129.81 121.63 129.32 123.16 129.32 125.13V141.41H126.05V125.28C126.05 123.18 125.57 121.59 124.6 120.49C123.64 119.39 122.28 118.84 120.55 118.84C118.82 118.84 117.48 119.4 116.45 120.51C115.42 121.63 114.91 123.21 114.91 125.28V141.41H111.69V116.1H114.87L114.85 116.07Z" fill="#493024"/><path d="M188.46 129.52L190.39 131.88C188.74 133.05 186.86 134.04 184.75 134.85C187.38 136.21 190.72 137.18 194.76 137.78L194.72 138.23C193.25 138.66 192.31 139.84 191.9 141.77C188.32 140.68 185.38 139.19 183.09 137.29C180.8 135.36 179.07 132.77 177.91 129.52H173.54V136.52C174.31 136.41 175.55 136.25 177.25 136.03C178.98 135.81 180.29 135.64 181.19 135.5L181.27 136.11C177.74 137.52 173.27 139.08 167.85 140.79C167.64 141.31 167.32 141.6 166.88 141.69L164.99 137.46C165.69 137.41 167.35 137.23 169.98 136.93V129.52H166.27C165.57 134.73 163.19 138.61 159.12 141.16L158.73 140.75C160.41 138.66 161.51 136.37 162.06 133.87C162.6 131.35 162.87 128.53 162.87 125.41V120H193.8V121.18H166.51V125.37C166.51 126.29 166.47 127.28 166.39 128.34H194.69V129.52H188.47H188.46ZM168.51 116.62V117.72C168.51 117.83 168.36 117.98 168.05 118.17C167.74 118.33 167.34 118.5 166.85 118.66C166.36 118.8 165.88 118.86 165.42 118.86H164.92V106.45H189.24V117.23C189.21 117.37 188.83 117.56 188.08 117.8C187.36 118.02 186.71 118.13 186.15 118.13H185.57V116.62H168.52H168.51ZM167.58 124.06H190.89V125.24H167.89L167.58 124.06ZM185.56 107.58H168.51V110.84H185.56V107.58ZM168.51 115.44H185.56V112.02H168.51V115.44ZM187.84 129.52H178.75C179.91 131.39 181.52 132.95 183.58 134.2C185.07 132.82 186.49 131.26 187.83 129.52H187.84Z" fill="#493024"/><path d="M233.56 129.72L233.72 136.47C234.23 136.69 234.58 136.92 234.76 137.16C234.94 137.4 235.03 137.74 235.03 138.18C235.03 138.78 234.82 139.24 234.41 139.56C234 139.89 233.21 140.14 232.05 140.33C230.92 140.52 229.31 140.62 227.22 140.62H223.2C221.42 140.62 220.24 140.36 219.64 139.85C219.05 139.36 218.75 138.39 218.75 136.92V121.01H214.15C213.94 123.75 213.56 126.15 212.99 128.21C212.42 130.24 211.56 132.16 210.4 133.95C209.27 135.71 207.73 137.23 205.8 138.51C203.89 139.78 201.56 140.86 198.8 141.72L198.61 141.19C200.75 140.05 202.54 138.79 203.98 137.41C205.42 136.03 206.56 134.48 207.38 132.77C208.23 131.06 208.84 129.28 209.2 127.44C209.59 125.57 209.83 123.43 209.94 121.01H199.15L198.8 119.83H214.81V103.92L218.6 104.45V119.83H234.8V121.01H222.51V135.94C222.51 136.32 222.6 136.58 222.78 136.71C222.96 136.82 223.37 136.87 224.02 136.87H227.54C229.24 136.87 230.27 136.84 230.63 136.79C231.02 136.76 231.31 136.56 231.52 136.18C231.78 135.64 232.32 133.48 233.14 129.71H233.56V129.72ZM202.32 106.73L202.74 106.44C206.58 108.2 209 110.4 210.01 113.03C210.65 114.63 210.63 115.93 209.93 116.94C209.29 117.81 208.46 117.97 207.46 117.43C207.23 117.3 207 117.13 206.76 116.94C206.58 115.34 206.06 113.62 205.21 111.77C204.36 109.9 203.39 108.22 202.31 106.72L202.32 106.73ZM227.25 106.2L230.85 108.68C228.02 112.75 225.19 115.86 222.38 118L221.96 117.59C223.79 114.36 225.55 110.56 227.26 106.2H227.25Z" fill="#493024"/><path d="M245.54 120.44V140.67C245.51 140.83 245.19 141.04 244.57 141.28C243.98 141.55 243.38 141.69 242.79 141.69H242.17V122.73C240.75 124.3 239.33 125.65 237.92 126.76L237.46 126.31C238.9 124.41 240.28 122.13 241.6 119.47C242.94 116.78 243.97 114.36 244.69 112.19L248.29 114.06V107.35L251.23 107.76V116.35H253.55V104.26L256.45 104.71V116.35H258.69V107.15L261.63 107.56V117.77C261.63 117.93 261.36 118.12 260.82 118.34C260.28 118.53 259.75 118.63 259.24 118.63H258.7V117.53H251.24V119.16C251.24 119.32 250.97 119.53 250.43 119.77C249.89 119.99 249.36 120.1 248.85 120.1H248.31V115.22C248.08 115.19 247.94 115.18 247.89 115.18C246.78 117.02 246.01 118.79 245.57 120.47L245.54 120.44ZM244.23 103.92L247.21 106.52C244.61 110.05 241.76 112.8 238.67 114.78L238.25 114.33C239.41 112.89 240.54 111.18 241.65 109.2C242.78 107.22 243.65 105.46 244.24 103.91L244.23 103.92ZM274.54 114.46H271.95C271.56 121.54 270.39 126.98 268.43 130.78C270.08 133.55 272.13 135.72 274.58 137.29L274.46 137.7C273.3 138.27 272.53 139.65 272.14 141.85C269.87 139.63 268.07 136.86 266.73 133.55C264.28 136.91 260.65 139.61 255.83 141.65L255.52 141.12C260.21 138.24 263.56 134.6 265.57 130.17C264.72 127.38 264.09 124.08 263.68 120.28C263.06 121.47 262.39 122.55 261.67 123.49L261.13 123.16L261.32 122.55H259.16V130.85C259.73 130.63 260.55 130.31 261.63 129.87C262.74 129.41 263.51 129.1 263.95 128.93L264.14 129.42C260.35 132.62 257.65 134.85 256.02 136.09C255.89 136.66 255.62 137.03 255.21 137.19L253.05 133.04C253.62 132.88 254.61 132.54 256.03 132.02V122.54H253.44C253.39 124.49 253.27 126.15 253.09 127.5C252.94 128.83 252.63 130.24 252.16 131.73C251.7 133.19 251 134.52 250.07 135.72C249.17 136.89 248.01 137.94 246.59 138.89L246.05 138.32C246.98 137.29 247.72 136.18 248.29 134.98C248.88 133.79 249.29 132.46 249.53 130.99C249.79 129.53 249.95 128.22 250.03 127.08C250.11 125.91 250.15 124.39 250.15 122.52H247.64L247.33 121.34H261.71C263.39 115.97 264.46 110.24 264.92 104.17L268.44 105.19C267.92 108.39 267.31 111.08 266.58 113.25H274.54V114.43V114.46ZM268.43 114.46H266.19C265.7 115.95 265.07 117.49 264.3 119.06C264.87 122.1 265.65 124.81 266.66 127.2C267.72 123.78 268.31 119.54 268.44 114.46H268.43Z" fill="#493024"/><path d="M289.77 132.12V136.52C291.08 136.36 293.13 136.09 295.92 135.71L296 136.32C292.73 137.51 287.93 139.03 281.62 140.88C281.44 141.31 281.12 141.6 280.65 141.73L278.87 137.74C279.1 137.74 280.12 137.65 281.92 137.45V130.21L284.59 130.58V137.17L286.75 136.88V127.36H285.2C285.2 127.69 284.9 127.97 284.31 128.21C283.72 128.45 283.14 128.58 282.57 128.58H282.15V120.77H294.29V127.28C294.26 127.42 293.94 127.61 293.32 127.85C292.7 128.07 292.16 128.18 291.7 128.18H291.24V127.37H289.77V130.95H295.72V132.13H289.77V132.12ZM294.91 111.37H284.08C284.13 112.51 283.95 113.5 283.54 114.34C283.15 115.15 282.63 115.72 281.96 116.05C281.42 116.35 280.84 116.4 280.22 116.21C279.6 115.99 279.22 115.59 279.06 114.99C278.78 113.82 279.26 112.96 280.53 112.39C281.2 112.09 281.77 111.59 282.23 110.88C282.69 110.15 282.9 109.36 282.85 108.52L283.43 108.48C283.64 109.02 283.8 109.59 283.93 110.19H294.91V107.5H283.27L282.92 106.36H311.38V107.5H298.47V110.19H313.55V111.98C312.52 113.2 311.19 114.34 309.57 115.4L309.11 115.11C309.5 113.84 309.81 112.59 310.04 111.37H298.48V119.22C298.48 119.3 298.36 119.41 298.13 119.55C297.92 119.69 297.58 119.82 297.09 119.96C296.6 120.07 296.09 120.12 295.54 120.12H294.92V111.37H294.91ZM284.55 118.33L284.24 117.19H293.83V118.33H284.55ZM293.55 113.73V114.91H285.2L284.89 113.73H293.55ZM285.2 126.18H291.23V121.95H285.2V126.18ZM310.49 121.62V123.21C309.43 124.81 308.14 126.29 306.62 127.65C309.04 128.76 311.93 129.52 315.28 129.93L315.24 130.38C314.03 130.76 313.27 131.74 312.96 133.31C312.26 133.12 311.45 132.85 310.52 132.5L311.76 133.48C311.55 133.81 311.17 134.01 310.6 134.09V140.48C310.57 140.64 310.23 140.85 309.56 141.09C308.92 141.33 308.34 141.46 307.82 141.46H307.28V139.67H301.06V140.61C301.06 140.72 300.96 140.85 300.75 141.02C300.54 141.18 300.22 141.33 299.78 141.47C299.34 141.63 298.87 141.71 298.35 141.71H297.81V133.04C296.37 133.61 294.95 134.08 293.56 134.46L293.21 133.85C296.9 132.33 300.13 130.28 302.91 127.71C301.96 126.65 301.17 125.55 300.55 124.41C298.72 126.28 296.76 127.76 294.67 128.85L294.25 128.36C295.59 127.25 296.87 125.81 298.08 124.05C299.29 122.29 300.22 120.52 300.86 118.76L303.68 119.9C303.45 120.66 303.18 121.24 302.87 121.65H310.49V121.62ZM300.01 118.33L299.7 117.19H309.83V118.33H300.01ZM308.9 113.73V114.91H300.12L299.81 113.73H308.89H308.9ZM306.97 132.61L308.05 131.39C306.76 130.77 305.63 130.05 304.65 129.23C303.18 130.32 301.66 131.24 300.09 132L306.97 132.61ZM301.05 138.47H307.27V133.79H301.05V138.47ZM306.89 122.8H301.98C301.9 122.91 301.77 123.07 301.59 123.29C301.41 123.48 301.27 123.63 301.16 123.74C301.88 124.63 302.89 125.52 304.18 126.38C305.26 125.21 306.16 124.02 306.89 122.8Z" fill="#493024"/><path d="M0.399902 16.6499V10.0199L9.4599 2.66992H15.0599V58.4299H9.5299V9.45992L0.399902 16.6499Z" fill="#E73820"/><path d="M43.6 0.439883L50.46 4.29988C48.02 9.85988 44.72 14.7799 40.59 19.0499C36.49 23.2799 31.7 26.5999 26.22 29.0099L25.75 28.3299C29.93 24.9699 33.58 20.7399 36.69 15.6299C39.8 10.5299 42.11 5.45988 43.61 0.439883H43.6ZM63.06 25.4599H70.57V28.4499C70.18 36.4199 69.56 42.5599 68.74 46.8699C67.91 51.1399 66.69 53.9699 65.07 55.3399C63.06 57.1199 60.26 57.9999 56.67 57.9499C56.67 55.4999 56.2 53.8399 55.25 52.9699C54.11 51.8099 51.88 50.9199 48.57 50.2899V49.4799C53.69 49.8999 56.81 50.0999 57.91 50.0999C58.82 50.0999 59.54 49.8699 60.1 49.4199C61.72 47.9299 62.88 40.5199 63.59 27.1999H52.59C52.35 29.6899 52 31.9299 51.53 33.9199C51.1 35.8699 50.33 38.0499 49.22 40.4599C48.12 42.8699 46.72 45.0499 45.02 46.9999C43.36 48.9499 41.1 50.9399 38.22 52.9799C35.38 55.0099 32.05 56.8399 28.23 58.4599L27.64 57.5899C30.56 55.6799 33.08 53.6499 35.21 51.4899C37.38 49.2899 39.05 47.2399 40.24 45.3299C41.42 43.4199 42.37 41.3299 43.08 39.0399C43.83 36.7199 44.3 34.7299 44.5 33.0699C44.74 31.4099 44.91 29.4599 45.03 27.2199H34.33L33.8 25.4799H63.07L63.06 25.4599ZM58.44 0.499883L59.15 0.129883C61 4.64988 64.06 8.59988 68.32 11.9599C72.58 15.3199 77.27 18.0199 82.39 20.0499L82.21 20.7399C79.33 21.2399 77.34 23.3699 76.24 27.1499C67.13 20.6799 61.2 11.7999 58.44 0.509883V0.499883Z" fill="#E73820"/><path d="M144.08 55.2101V56.9501H109.01L108.6 55.2101H123.38V48.0501H112.74L112.27 46.2501C107.42 49.3201 101.23 52.7901 93.6998 56.6401C93.3798 57.5101 92.8898 58.0501 92.2198 58.2601L88.0198 50.5401C90.6998 50.0401 93.7198 49.4401 97.0698 48.7401V29.6301H89.4398L88.9698 27.8901H97.0698V20.2301H93.2898L92.8798 18.7401C91.1398 20.5701 89.4298 22.0801 87.7398 23.2801L87.0898 22.7801C89.1398 20.0001 91.0298 16.4101 92.7698 12.0101C94.5398 7.61012 95.7698 3.65012 96.4398 0.120117L104.95 2.98012C104.71 3.73012 103.96 4.18012 102.7 4.35012C107.9 5.72012 110.94 7.73012 111.81 10.3901C112.28 11.9701 111.95 13.2301 110.81 14.1901C109.55 15.1501 108.23 15.1201 106.85 14.1301C105.75 11.2701 104.07 8.51012 101.82 5.85012C99.6898 10.3701 96.8298 14.5601 93.2498 18.4201H110.63V20.2301H102.83V27.8901H112.29V29.6301H102.83V47.4901C104.88 46.9901 108.11 46.2401 112.53 45.2501L112.71 46.0001L112.3 46.2501H123.42V40.2701H119.16V41.8301C119.16 42.0001 118.96 42.2001 118.57 42.4501C118.22 42.6601 117.62 42.8601 116.8 43.0701C115.97 43.2801 115.09 43.3801 114.14 43.3801H113.08V22.9001H140.81V40.8301C140.81 40.9501 140.59 41.1201 140.16 41.3301C139.77 41.5401 139.13 41.7401 138.27 41.9501C137.44 42.1601 136.56 42.2601 135.61 42.2601H134.55V40.2701H129.64V46.2501H142.53V48.0501H129.64V55.2101H144.13H144.08ZM90.0898 32.4301L90.8598 32.2401C94.4898 35.3501 96.2399 38.5901 96.1199 41.9501C96.0799 43.9401 95.4499 45.2701 94.2299 45.9301C93.0499 46.5501 91.9398 46.2001 90.9198 44.8701C91.4698 41.2201 91.1998 37.0701 90.0898 32.4201V32.4301ZM104.58 44.9401L103.58 44.5001C104.21 41.1801 104.76 37.0101 105.24 31.9901L109.91 34.1701C108.17 38.8601 106.4 42.4501 104.59 44.9401H104.58ZM112.15 8.34012L111.68 6.53012H123.39V0.370117L129.66 1.12012V6.53012H143.02V8.34012H133.26L136.63 9.77012C135.05 12.2601 132.98 14.6701 130.42 16.9901H143.9V18.8001H111.38L110.91 16.9901H120.49C119.78 16.8201 119.05 16.3501 118.3 15.5601C118.46 13.2401 118.1 10.8301 117.24 8.34012H112.16H112.15ZM122.32 16.9901H128.82C129.45 13.9601 130.02 11.0801 130.53 8.34012H119.12C121.45 9.21012 123.04 10.3101 123.91 11.6401C124.78 12.9301 124.99 14.0701 124.56 15.0601C124.13 16.0601 123.38 16.7001 122.31 16.9901H122.32ZM123.38 24.6501H119.12V30.6901H123.38V24.6501ZM119.13 38.4701H123.39V32.4901H119.13V38.4701ZM134.5 24.6501H129.59V30.6901H134.5V24.6501ZM129.59 38.4701H134.5V32.4901H129.59V38.4701Z" fill="#E73820"/><path d="M217.4 25.15V26.89H205.1C203.68 33.78 201.59 39.17 198.83 43.07C206.2 45.4 210.91 48.38 212.96 52.03C214.14 54.15 214.18 55.89 213.08 57.26C212.05 58.5 210.58 58.75 208.65 58.01C205.3 54.56 200.65 51.16 194.69 47.8C191.5 50.66 187.32 52.92 182.15 54.58C176.98 56.28 170.42 57.55 162.46 58.38L162.22 57.45C174.8 54.67 183.74 50.48 189.07 44.88C186.15 43.51 183.22 42.29 180.26 41.21C179.31 43.29 178.66 44.7 178.31 45.44C176.34 46.4 173.85 46.25 170.86 45C173.23 40.35 175.85 34.32 178.72 26.89H163.17L162.7 25.15H179.38C181.31 20.13 182.65 16.17 183.4 13.26L190.02 15C189.23 18.4 188.17 21.78 186.83 25.15H217.4ZM207.88 11.7H172.17C172.33 13.69 172.13 15.43 171.58 16.93C171.03 18.42 170.24 19.56 169.21 20.35C168.26 21.14 167.16 21.41 165.9 21.16C164.68 20.87 163.85 20.12 163.42 18.92C163.03 17.84 163.07 16.85 163.54 15.93C164.01 15.02 164.74 14.29 165.73 13.75C166.87 13.05 167.86 11.9 168.69 10.33C169.56 8.71 169.91 7.03 169.75 5.29H170.52C171.15 6.87 171.62 8.4 171.94 9.9H186.31V0L193.47 0.75V9.9H215.23V13.14C212.27 16.04 209.1 18.43 205.71 20.3L205.18 19.93C206.2 17.32 207.11 14.58 207.9 11.71L207.88 11.7ZM197.3 26.89H186.18C184.25 31.87 182.49 36.14 180.92 39.71C185.41 40.21 189.08 40.75 191.92 41.33C194.48 37.55 196.28 32.74 197.3 26.89Z" fill="#E73820"/><path d="M251.13 20.6599V22.3999H240.19V27.0699C245.27 28.6099 248.37 30.8699 249.47 33.8499C250.18 35.6799 249.98 37.1699 248.88 38.3299C247.82 39.4499 246.51 39.5499 244.98 38.6399C244.7 38.4799 244.45 38.2899 244.21 38.0799C243.82 35.1799 242.48 31.9999 240.19 28.5599V56.4399C240.19 56.5999 239.97 56.8299 239.54 57.1199C239.11 57.4499 238.44 57.7599 237.53 58.0499C236.66 58.3399 235.72 58.4899 234.69 58.4899H233.45V35.5199C230.61 40.3299 226.98 44.6499 222.57 48.4699L221.86 47.7199C226.28 41.4999 229.55 33.0499 231.68 22.3899H222.99L222.52 20.6499H233.46V10.1899C230.07 10.8099 226.54 11.2499 222.88 11.4999L222.64 10.6899C226.19 9.43992 229.91 7.84992 233.82 5.89992C237.72 3.90992 240.78 2.07992 242.99 0.419922L246.6 7.19992C244.98 7.73992 242.85 8.31992 240.21 8.93992V20.6399H251.15L251.13 20.6599ZM275.55 10.0199V53.4699C275.47 53.7999 274.76 54.2399 273.42 54.7799C272.08 55.3199 270.84 55.5899 269.69 55.5899H268.63V50.2399H258.4V53.8499C258.4 54.3499 257.81 54.9099 256.63 55.5299C255.45 56.1499 254.17 56.4599 252.79 56.4599H251.61V10.0199H275.56H275.55ZM258.4 48.4299H268.63V11.8299H258.4V48.4299Z" fill="#E73820"/><path d="M299.43 33.3V46.5C299.71 46.46 300.97 46.17 303.22 45.63C305.51 45.09 307.24 44.68 308.42 44.38L308.66 45.06C301.76 48.96 294.49 52.7 286.84 56.26C286.49 57.13 285.97 57.67 285.3 57.88L282.34 50.16C282.62 50.12 282.91 50.08 283.23 50.04C283.58 49.96 284 49.88 284.47 49.79C284.98 49.67 285.4 49.58 285.71 49.54V27.32L290.85 27.94V48.48L293.39 47.92V21.4H291.79V22.27C291.79 22.44 291.59 22.66 291.2 22.95C290.85 23.2 290.25 23.45 289.43 23.7C288.64 23.95 287.79 24.07 286.89 24.07H285.83V4.67H305.46V21.66C305.38 21.91 304.75 22.24 303.57 22.66C302.39 23.03 301.34 23.22 300.44 23.22H299.43V31.56H308.42V33.3H299.43ZM291.8 6.41V19.61H299.37V6.41H291.8ZM332.9 8.34V11.26C330.97 15.78 328.41 19.85 325.21 23.46C329.27 25.95 334.06 27.78 339.58 28.94L339.46 29.56C336.82 30.56 335.26 32.76 334.79 36.16C333.17 35.5 331.89 34.91 330.95 34.42L334.79 37.47C334.32 38.01 333.59 38.38 332.6 38.59V56.7C332.6 56.82 332.38 57.01 331.95 57.26C331.52 57.51 330.83 57.74 329.88 57.94C328.97 58.15 327.99 58.25 326.92 58.25H325.68V53.83H315.21V56.82C315.21 56.99 314.99 57.19 314.56 57.44C314.17 57.73 313.53 57.98 312.67 58.19C311.8 58.4 310.86 58.5 309.83 58.5H308.71V35.16C307.09 35.87 305.16 36.57 302.92 37.28L302.45 36.47C308.95 33.19 314.37 28.79 318.71 23.27C317.33 21.24 316.03 18.71 314.81 15.68C312.17 18.88 309.11 21.53 305.64 23.65L304.99 23.09C307.2 20.35 309.19 16.95 310.96 12.88C312.77 8.81 314.13 4.52 315.04 0L321.43 2.99C320.76 5.48 320.15 7.26 319.6 8.34H332.9ZM325.45 36.35L328.35 32.86C325.75 31.16 323.5 29.23 321.61 27.07C318.38 29.98 314.73 32.38 310.67 34.29L315.87 36.34H325.45V36.35ZM315.22 52.1H325.69V38.16H315.22V52.1ZM325.8 10.15H318.59C317.76 11.64 316.85 13.03 315.87 14.32C317.21 16.48 318.89 18.45 320.9 20.23C323.03 16.99 324.66 13.63 325.81 10.15H325.8Z" fill="#E73820"/><path d="M398.67 8.28V10.02H378.51L386.37 11.82L384.18 13.13C381.46 15.87 379.37 17.84 377.91 19.04H395.06V50.29C395.06 52.95 394.51 54.9 393.4 56.14C392.3 57.39 389.97 58.17 386.42 58.51C386.22 56.02 385.81 54.4 385.18 53.66C384.15 52.41 382.56 51.63 380.39 51.29V50.54C379.09 51.08 377.87 51.35 376.72 51.35H375.66V47.86H366.14V50.35C366.14 50.56 365.88 50.83 365.37 51.16C364.9 51.45 364.23 51.72 363.36 51.97C362.53 52.22 361.72 52.34 360.94 52.34H360.05V35.16H381.81V49.79C381.81 49.91 381.43 50.12 380.69 50.41C383.45 50.7 385.58 50.85 387.08 50.85C387.87 50.85 388.26 50.44 388.26 49.6V20.78H378.5V25.51C378.5 26.13 378.54 26.51 378.62 26.63C378.7 26.75 378.94 26.82 379.33 26.82H383.17C383.6 26.82 383.94 26.67 384.18 26.38C384.46 25.92 384.87 24.74 385.42 22.83H386.13L386.25 26.19C387.08 26.61 387.57 26.94 387.73 27.19C387.93 27.4 388.03 27.73 388.03 28.19C388.03 30.64 386.33 31.86 382.94 31.86H378.39C376.02 31.86 374.49 31.44 373.78 30.61C373.11 29.78 372.77 28.02 372.77 25.32V20.78H368.75C367.96 24.35 366.38 27.25 364.02 29.49C361.69 31.69 358.52 33.41 354.5 34.66L354.26 33.79C358.95 30.93 361.63 26.59 362.3 20.78H353.84V56.01C353.84 56.47 353.23 56.98 352.01 57.57C350.79 58.19 349.53 58.5 348.23 58.5H347.11V19.05H361.66C361.27 18.8 360.97 18.59 360.77 18.43C360.53 15.69 359.57 12.97 357.87 10.28L358.22 10.03H343.85L343.38 8.29H367.21V0.25L374.31 1V8.28H398.67ZM365.38 19.05H375.2C376.03 15.9 376.66 12.89 377.09 10.02H359.05C360.78 10.35 362.24 10.85 363.42 11.51C364.64 12.13 365.51 12.8 366.02 13.5C366.53 14.21 366.83 14.93 366.91 15.68C367.03 16.39 366.93 17.03 366.61 17.61C366.33 18.19 365.92 18.67 365.37 19.04L365.38 19.05ZM366.15 46.12H375.67V36.97H366.15V46.12Z" fill="#E73820"/><path d="M455.83 4.35986V55.7699C455.79 56.0999 455.14 56.5599 453.88 57.1399C452.62 57.7199 451.42 58.0099 450.27 58.0099H449.26V54.0899H412.72V55.9599C412.72 56.4599 412.15 57.0199 411.01 57.6399C409.87 58.2599 408.64 58.5699 407.34 58.5699H406.22V4.35986H455.83ZM412.73 52.3499H449.27V6.09986H412.73V52.3499ZM448.27 26.1399H439.64C442.24 28.4599 445.28 30.2499 448.75 31.4899L448.69 32.1099C446.68 32.6099 445.3 34.2299 444.55 36.9599C442.7 35.5899 441.12 34.1799 439.82 32.7299C439.47 32.8999 439.07 32.9999 438.64 33.0399C438.6 35.2799 438.42 36.9399 438.11 38.0199C437.83 39.0999 437.3 39.8899 436.51 40.3899C435.48 41.0099 433.95 41.3699 431.9 41.4499C431.9 39.9999 431.66 38.9999 431.19 38.4599C430.72 37.9199 429.81 37.5099 428.47 37.2099V36.2799C429.97 36.3599 431.23 36.3999 432.25 36.3999C432.88 36.3999 433.28 36.3199 433.43 36.1499C433.7 35.8599 433.9 34.6099 434.02 32.4099H426.86V42.7399C426.86 43.1499 426.98 43.4499 427.22 43.6099C427.46 43.7299 427.99 43.7999 428.82 43.7999H433.85C435.82 43.7999 437.28 43.7599 438.23 43.6799C438.86 43.5999 439.27 43.4099 439.47 43.1199C439.9 42.5399 440.57 40.8799 441.48 38.1399H442.13L442.31 43.2399C443.65 43.7799 444.32 44.5499 444.32 45.5399C444.32 46.8299 443.53 47.7599 441.95 48.3399C440.41 48.8799 437.55 49.1499 433.38 49.1499H427.58C425.1 49.1499 423.46 48.8199 422.67 48.1499C421.92 47.4899 421.55 46.1599 421.55 44.1699V32.5299C419.22 34.6499 416.6 36.4899 413.68 38.0699L413.09 37.3899C416.72 34.4399 419.71 30.6899 422.08 26.1199H414.1L413.63 24.3099H422.91C423.54 23.0199 424.15 21.4899 424.74 19.6999H420.19L419.72 17.8899H425.28C426.23 14.6999 426.9 11.3499 427.29 7.86986L433.03 9.60986C432.56 12.8899 431.89 15.6499 431.02 17.8899H434.57L437.23 14.6499C438.92 15.9799 440.4 17.2199 441.66 18.3799C441.15 15.5199 439.61 12.6099 437.05 9.66986L437.64 9.29986C442.17 10.2999 444.95 12.0599 445.98 14.5899C446.61 16.1699 446.41 17.4499 445.39 18.4499C444.44 19.4099 443.3 19.4699 441.96 18.6399C441.88 19.3499 441.39 19.6999 440.48 19.6999H434.63C435.42 21.2799 436.48 22.8099 437.82 24.3099H448.29V26.1199L448.27 26.1399ZM420 8.83986L424.08 11.5199C421.79 15.7499 418.97 18.8599 415.62 20.8599L414.79 20.1799C417 17.1499 418.73 13.3799 419.99 8.84986L420 8.83986ZM435.97 28.1999L437.21 29.2599C436.5 28.0599 435.95 27.0199 435.55 26.1499H426.92C426.45 26.8999 425.66 27.9799 424.55 29.3899L427.68 30.6999H433.47L435.95 28.2099L435.97 28.1999ZM433.3 19.7299H430.28C429.65 21.2199 428.9 22.7599 428.03 24.3399H434.77C434.26 23.0499 433.77 21.5199 433.29 19.7299H433.3Z" fill="#E73820"/></g><defs><clipPath id="clip0_17_4117"><rect width="458.54" height="141.89" fill="white"/></clipPath></defs></svg>