<svg width="298" height="173" fill="none" xmlns="http://www.w3.org/2000/svg"><g clip-path="url(#clip0_3_3989)"><path d="M55.7899 25.15V26.89H43.4899C42.0699 33.78 39.9799 39.17 37.2199 43.07C44.5899 45.39 49.2999 48.38 51.3499 52.03C52.5299 54.15 52.5699 55.89 51.4699 57.26C50.4399 58.5 48.9699 58.75 47.0399 58.01C43.6899 54.57 39.0399 51.16 33.0799 47.8C29.8899 50.66 25.7099 52.93 20.5399 54.58C15.3699 56.28 8.80986 57.55 0.849863 58.38L0.609863 57.45C13.1899 54.67 22.1299 50.48 27.4599 44.88C24.5399 43.51 21.6099 42.29 18.6499 41.21C17.6999 43.29 17.0499 44.7 16.6999 45.44C14.7299 46.4 12.2399 46.25 9.24986 45C11.6199 40.35 14.2399 34.32 17.1099 26.89H1.55986L1.08986 25.15H17.7699C19.6999 20.13 21.0399 16.17 21.7899 13.26L28.4099 15C27.6199 18.4 26.5599 21.78 25.2199 25.15H55.7899ZM46.2599 11.7H10.5499C10.7099 13.69 10.5099 15.43 9.95986 16.93C9.40986 18.42 8.61986 19.57 7.58986 20.35C6.63986 21.14 5.53986 21.41 4.27986 21.16C3.05986 20.87 2.22986 20.12 1.79986 18.92C1.40986 17.84 1.44986 16.85 1.91986 15.93C2.38986 15.02 3.11986 14.29 4.10986 13.75C5.24986 13.04 6.23986 11.9 7.06986 10.33C7.93986 8.71 8.28986 7.03 8.12986 5.29H8.89986C9.52986 6.87 9.99986 8.4 10.3199 9.9H24.6899V0L31.8499 0.75V9.9H53.6099V13.14C50.6499 16.04 47.4799 18.43 44.0899 20.3L43.5599 19.93C44.5799 17.32 45.4899 14.58 46.2799 11.71L46.2599 11.7ZM35.6799 26.89H24.5599C22.6299 31.87 20.8699 36.14 19.2999 39.71C23.7899 40.21 27.4599 40.75 30.2999 41.33C32.8599 37.55 34.6599 32.74 35.6799 26.89Z" fill="white"/><path d="M116.37 10.71H91.8299V18.12H112.29V50.24C112.29 52.9 111.7 54.87 110.52 56.15C109.38 57.44 106.93 58.24 103.19 58.58C102.99 56.09 102.52 54.43 101.77 53.6C100.59 52.35 98.7899 51.55 96.3899 51.17V50.3C100.49 50.63 103.05 50.8 104.08 50.8C104.95 50.8 105.38 50.36 105.38 49.49V19.92H71.9099V55.9C71.9099 56.4 71.2799 56.96 70.0199 57.58C68.7599 58.2 67.4599 58.51 66.1199 58.51H64.9999V18.11H84.8099V10.7H61.3899L60.9199 8.96H84.8099V0.25L91.8499 1.06V8.96H116.39V10.7L116.37 10.71ZM104.12 42.51H91.4699V55.15C91.4299 55.27 91.2099 55.44 90.8199 55.65C90.4299 55.9 89.7799 56.13 88.8699 56.33C87.9599 56.58 86.9799 56.7 85.9099 56.7H84.7299V42.51H74.0899L73.6199 40.71H84.7399V33.18H74.6299L74.1599 31.44H89.9499C90.9699 28.16 91.8599 24.55 92.6099 20.61L98.3499 22.98C96.0199 26.63 93.8199 29.45 91.7299 31.45H103.73V33.19H91.4899V40.72H104.14V42.52L104.12 42.51ZM77.1599 21.1L77.6899 20.79C82.2199 21.87 84.8799 23.67 85.6699 26.21C86.1799 27.83 85.8499 29.16 84.6699 30.19C83.4499 31.23 82.0899 31.23 80.5899 30.19C80.3899 30.07 80.2199 29.92 80.0599 29.75C80.0199 26.85 79.0599 23.96 77.1599 21.1Z" fill="white"/><path d="M139.46 36.2296C144.62 37.1896 147.74 39.0296 148.8 41.7696C149.43 43.4296 149.19 44.8196 148.09 45.9396C146.95 47.0596 145.61 47.1396 144.07 46.1896C143.91 46.0696 143.73 45.9396 143.54 45.8196C143.26 42.8296 141.9 39.8196 139.46 36.7896V56.5796C139.46 56.9096 138.85 57.3096 137.63 57.7596C136.41 58.2596 135.21 58.5096 134.02 58.5096H132.84V43.9396C129.84 47.5896 126.34 50.7196 122.31 53.3396L121.66 52.5296C125.72 47.9696 128.93 41.8196 131.3 34.1096H122.9L122.43 32.2996H132.84V25.3296L139.46 26.1396V32.2996H150.99V34.1096H139.46V36.2296ZM178.01 22.1596V23.9696H171.51V56.4596C171.47 56.6296 171.23 56.8496 170.8 57.1396C170.41 57.4696 169.76 57.7596 168.85 58.0096C167.94 58.2996 166.96 58.4496 165.89 58.4496H164.65V23.9596H159.03V26.1996C159.03 28.8596 158.95 31.1796 158.79 33.1696C158.67 35.1596 158.32 37.4396 157.73 40.0196C157.14 42.5896 156.33 44.8696 155.31 46.8696C154.28 48.8596 152.81 50.8996 150.88 52.9696C148.99 55.0396 146.7 56.8696 144.02 58.4496L143.37 57.7696C145.3 55.6496 146.9 53.3496 148.16 50.8596C149.42 48.3296 150.33 45.6296 150.88 42.7696C151.47 39.9096 151.87 37.2296 152.06 34.7396C152.26 32.2496 152.36 29.3696 152.36 26.0896V23.5996C152.12 24.1396 151.61 24.4096 150.82 24.4096H122.26L121.79 22.6096H137.52C138.5 19.2496 139.39 15.1796 140.18 10.4096H123.27L122.8 8.66957H132.97V0.24957L139.77 0.99957V8.65957H150.53V10.3996H140.77L146.03 12.8296C143.62 16.9396 141.26 20.1996 138.93 22.5996H152.35V23.3496V7.46957H159.27C163.53 5.05957 167 2.58957 169.68 0.0595703L173.29 6.15957C169.31 7.69957 164.56 8.81957 159.04 9.51957V22.1596H178.02H178.01ZM126.92 10.7096L127.57 10.3996C131.63 12.3096 133.96 14.6296 134.55 17.3696C134.94 19.2396 134.51 20.6496 133.25 21.5996C132.03 22.5596 130.73 22.4296 129.35 21.2296C129.23 21.1096 129.11 20.9796 128.99 20.8596C129.07 18.1996 128.38 14.8196 126.92 10.7096Z" fill="white"/><path d="M196.64 17.3004V24.5204C201.25 26.0604 204.01 28.1904 204.92 30.9304C205.47 32.6704 205.2 34.0404 204.09 35.0404C202.95 36.0804 201.67 36.0804 200.25 35.0404C200.09 34.9204 199.93 34.7904 199.78 34.6704C199.54 32.2204 198.5 29.3204 196.65 25.9604V56.4004C196.65 56.7704 196.04 57.2104 194.82 57.7104C193.64 58.2504 192.45 58.5204 191.27 58.5204H189.91V33.0604C187.58 37.0004 184.71 40.6104 181.28 43.8904L180.51 43.2104C184.53 36.6504 187.41 28.0204 189.14 17.3204H182.34L181.87 15.5104H189.91V0.19043L196.65 1.12043V15.5004H205.58V17.3104H196.65L196.64 17.3004ZM228.63 29.5704L234.48 34.1804C232.19 38.1604 229.55 41.6704 226.56 44.7004C231.84 46.2804 235.13 48.6804 236.43 51.9204C237.3 54.0404 237.14 55.7804 235.96 57.1504C234.82 58.5604 233.34 58.8104 231.52 57.9004C231.28 57.7804 231.03 57.6304 230.75 57.4604C230 53.9704 228.03 50.2404 224.84 46.2604C218.41 51.9904 210.16 56.1104 200.06 58.6504L199.71 57.7804C206.33 54.7504 211.99 51.0404 216.68 46.6404C221.41 42.2404 225.39 36.5604 228.62 29.5904L228.63 29.5704ZM202.62 45.0004L202.15 44.1304C212.08 37.9904 219.75 29.0704 225.15 17.3704L230.94 21.9104C223.84 32.8204 214.4 40.5204 202.62 45.0004ZM237.44 11.0204V12.7604H216.92L221.06 15.2504C218.65 18.6504 216.07 21.2904 213.31 23.1604C215.36 24.9004 216.21 26.7904 215.85 28.8204C215.57 30.3104 214.77 31.2104 213.43 31.5004C212.52 31.7104 211.56 31.5204 210.53 30.9404C209.9 29.1104 208.82 27.1804 207.28 25.1504C205.78 23.0804 204.23 21.3304 202.61 19.9204L203.08 19.4804C206.39 19.8104 209.13 20.5604 211.3 21.7204C212.4 19.1104 213.43 16.1204 214.38 12.7604H203.32L202.85 11.0204H215.92V0.62043L222.72 1.37043V11.0204H237.44Z" fill="white"/><path d="M248.6 19.4205L249.37 19.3605C250.75 22.8505 251.5 26.1405 251.62 29.2605C251.78 32.3305 251.52 34.8205 250.85 36.7305C250.22 38.6005 249.31 40.1705 248.13 41.4605C247.07 42.7005 245.82 43.3505 244.41 43.3905C242.99 43.4305 241.93 42.8705 241.22 41.7105C240.04 39.8005 240.45 37.8905 242.46 35.9805C244.19 34.6905 245.67 32.5205 246.9 29.4405C248.16 26.3705 248.73 23.0305 248.61 19.4205H248.6ZM256.4 14.1305L263.32 15.0605V47.1205C263.32 47.8305 263.52 48.3205 263.91 48.6105C264.34 48.8605 265.17 48.9805 266.39 48.9805H273.07C276.03 48.9805 277.84 48.9405 278.51 48.8605C279.38 48.8205 280.01 48.4705 280.4 47.8005C280.99 46.8005 282.04 43.6105 283.53 38.2105H284.18L284.36 48.2305C285.38 48.6505 286.09 49.1005 286.49 49.6005C286.88 50.0605 287.08 50.6605 287.08 51.4005C287.08 53.1805 286.04 54.4505 283.95 55.2005C281.9 55.9905 278.06 56.3805 272.42 56.3805H265.21C261.78 56.3805 259.45 55.9005 258.23 54.9505C257.01 54.0005 256.4 52.1105 256.4 49.2905V14.1305ZM257.47 1.24047C266.62 1.82047 272.67 4.08047 275.62 8.02047C277.24 10.1405 277.59 12.2105 276.68 14.2405C275.97 15.8205 274.79 16.6105 273.13 16.6105C272.34 16.6105 271.53 16.3605 270.71 15.8605C269.76 13.7005 268.13 11.3405 265.8 8.76047C263.47 6.19047 260.62 3.93047 257.23 1.98047L257.47 1.23047V1.24047ZM282.48 18.8005C289.58 22.1205 294.01 26.2905 295.78 31.3105C296.88 34.5505 296.75 37.3505 295.37 39.7105C294.31 41.5405 292.98 42.3005 291.41 42.0105C290.38 41.8005 289.46 41.1205 288.63 39.9605C288.71 36.5205 288.24 32.9105 287.21 29.1305C286.18 25.3505 284.45 22.0805 282.01 19.3005L282.48 18.8005Z" fill="white"/><path d="M35.92 98.3503V99.5303H14.3C13.81 100.34 13.18 101.31 12.41 102.42L26.68 102.87H30.74V120.94C30.71 121.1 30.33 121.32 29.58 121.59C28.86 121.86 28.21 122 27.65 122H27.07V119.27H13.04V120.9C13.04 121.01 12.92 121.14 12.69 121.31C12.48 121.5 12.14 121.68 11.65 121.84C11.19 122 10.67 122.08 10.1 122.08H9.44V105.92C6.81 108.61 3.81 110.84 0.43 112.63L0 112.1C4.36 108.98 7.9 104.79 10.63 99.5303H0.77L0.42 98.3503H11.21C11.75 97.1603 12.29 95.8703 12.83 94.4803H3.6L3.29 93.3003H13.23C13.59 92.2403 13.95 90.9903 14.31 89.5603C10.14 89.8003 6.14 89.9103 2.33 89.8903L2.21 89.1603C6.85 88.8103 11.75 88.1703 16.9 87.2503C22.08 86.3003 26.18 85.3203 29.19 84.3203L30.35 87.9003C26.72 88.4403 22.73 88.8903 18.4 89.2403C17.99 90.8403 17.59 92.2003 17.2 93.3103H33.24V94.4903H16.73C16.19 95.8203 15.6 97.1103 14.95 98.3603H35.9L35.92 98.3503ZM27.06 104.05H13.03V107.79H27.06V104.05ZM27.06 112.88V108.97H13.03V112.88H27.06ZM13.03 118.09H27.06V114.06H13.03V118.09Z" fill="#493024"/><path d="M70.6601 111.58L70.7401 117.28C71.6201 117.61 72.0501 118.13 72.0501 118.87C72.0501 119.74 71.5101 120.35 70.4301 120.7C69.3701 121.05 67.3401 121.23 64.3201 121.23H60.1501C58.4201 121.23 57.2801 121 56.7101 120.54C56.1401 120.08 55.8601 119.17 55.8601 117.81V107.84H52.3401C51.8201 111.99 50.3401 115.17 47.8901 117.36C45.4401 119.56 41.6401 121.1 36.4801 122L36.3301 121.43C40.3801 120.1 43.2901 118.39 45.0701 116.3C46.8501 114.21 47.9201 111.39 48.2801 107.84H46.3501V109.02C46.3501 109.26 46.0201 109.55 45.3501 109.87C44.6801 110.17 43.9801 110.32 43.2601 110.32H42.7201V86.8398H65.7601V108.82C65.7301 108.98 65.3601 109.21 64.6401 109.51C63.9201 109.78 63.2601 109.92 62.6701 109.92H62.0901V107.84H59.5001V116.96C59.5001 117.26 59.5801 117.46 59.7301 117.57C59.9101 117.65 60.3101 117.69 60.9301 117.69H64.6001C66.3801 117.69 67.4501 117.68 67.8101 117.65C68.2001 117.62 68.4901 117.43 68.7001 117.08C68.9301 116.62 69.4301 114.79 70.2101 111.59H70.6701L70.6601 111.58ZM62.0801 87.9698H46.3401V93.2999H62.0801V87.9698ZM62.0801 99.9398V94.4898H46.3401V99.9398H62.0801ZM46.3501 101.12V106.65H62.0901V101.12H46.3501Z" fill="#493024"/><path d="M102.19 88.46V120.2C102.14 120.39 101.73 120.65 100.95 120.97C100.2 121.32 99.5102 121.5 98.8602 121.5H98.2402V117.96H81.7702V120.28C81.7702 120.58 81.4302 120.9 80.7602 121.26C80.1202 121.61 79.4102 121.79 78.6302 121.79H77.9702V88.46H102.17H102.19ZM98.2502 89.64H81.7802V102.38H98.2502V89.64ZM81.7802 116.79H98.2502V103.56H81.7802V116.79Z" fill="#493024"/><path d="M142.21 91.9996V93.9096C140.87 95.2396 139.21 96.4496 137.22 97.5296L136.83 97.2496C137.32 95.8696 137.72 94.4996 138.03 93.1396H113.64C113.72 94.4996 113.54 95.6796 113.1 96.6796C112.69 97.6596 112.13 98.3496 111.44 98.7596C110.85 99.1696 110.22 99.3196 109.55 99.2096C108.91 99.0696 108.45 98.6896 108.2 98.0696C107.84 96.8996 108.29 95.9696 109.55 95.2596C110.32 94.7996 110.99 94.0496 111.56 93.0196C112.13 91.9896 112.4 90.8896 112.37 89.7196H112.95C113.23 90.5596 113.43 91.3196 113.53 91.9996H123.78V84.3096L127.45 84.7996V91.9996H130.12C131.15 89.8796 132.12 87.4696 133.02 84.7596L136.65 86.7096C135.18 88.6596 133.39 90.4296 131.28 91.9996H142.22H142.21ZM134.75 108.36H138.73V115.81C138.73 117.25 138.42 118.32 137.8 119.03C137.18 119.74 135.88 120.18 133.89 120.37C133.81 119.09 133.57 118.23 133.16 117.77C132.57 117.15 131.6 116.73 130.26 116.51V115.94C132.4 116.1 133.75 116.18 134.32 116.18C134.89 116.18 135.13 115.94 135.13 115.45V109.55H127.32V120.7C127.32 120.81 127.2 120.96 126.97 121.15C126.76 121.37 126.42 121.57 125.93 121.76C125.44 121.95 124.93 122.04 124.38 122.04H123.76V109.55H116.3V119.24C116.3 119.46 115.95 119.71 115.26 120.01C114.59 120.31 113.92 120.46 113.25 120.46H112.71V108.37H123.77V104.14H119.36V105.12C119.36 105.23 119.2 105.38 118.9 105.57C118.62 105.76 118.22 105.94 117.7 106.1C117.21 106.24 116.73 106.3 116.27 106.3H115.77V96.7796H135.72V104.72C135.69 104.88 135.31 105.09 134.56 105.33C133.84 105.57 133.21 105.7 132.67 105.7H132.05V104.15H127.33V108.38H134.75V108.36ZM114.26 85.1196L114.65 84.8396C117.74 85.4596 119.64 86.6596 120.33 88.4196C120.77 89.5096 120.65 90.3996 119.98 91.1096C119.28 91.8696 118.46 91.9396 117.51 91.3096C117.41 91.2596 117.32 91.1896 117.24 91.1096C117.16 90.1096 116.83 89.0496 116.24 87.9396C115.67 86.8296 115.02 85.8896 114.27 85.1296L114.26 85.1196ZM119.36 97.9396V102.99H132.04V97.9396H119.36Z" fill="#493024"/><path d="M156.2 108.04C159.5 108.72 161.52 109.95 162.27 111.74C162.71 112.8 162.62 113.65 162 114.3C161.36 115.01 160.57 115.03 159.64 114.38C159.43 113.38 159.01 112.35 158.36 111.29C157.72 110.21 156.99 109.27 156.19 108.48V120.97C156.19 121.19 155.87 121.42 155.22 121.66C154.57 121.93 153.94 122.07 153.33 122.07H152.67V111.86C150.81 114.49 148.43 116.82 145.52 118.86L145.09 118.29C147.85 115.33 150.05 111.37 151.7 106.41H145.86L145.55 105.23H152.66V100.67L156.18 101.16V105.23H164.07V106.41H156.18V108.04H156.2ZM164.86 100.06H145.49L145.18 98.8795H155.5C156.25 96.4895 156.87 93.8595 157.36 90.9795L160.53 92.4495C159.4 94.9195 158.02 97.0595 156.39 98.8795H164.86V100.06ZM146.19 90.9395L145.88 89.7595H152.76V84.3495L156.36 84.7995V89.7595H163.74V90.9395H146.19ZM148.51 91.2695L148.97 91.0695C151.52 92.4495 152.93 94.0795 153.18 95.9495C153.34 97.0895 153.05 97.8995 152.33 98.3895C151.58 98.8495 150.85 98.6895 150.13 97.8995C150.16 95.8895 149.61 93.6795 148.51 91.2695ZM181.68 98.5495V99.7295H177V120.97C176.97 121.08 176.85 121.21 176.61 121.38C176.4 121.54 176.06 121.69 175.57 121.83C175.08 121.99 174.55 122.07 173.99 122.07H173.37V99.7295H168.81V101.15C168.81 102.86 168.76 104.37 168.66 105.67C168.58 106.97 168.35 108.46 167.96 110.15C167.6 111.81 167.1 113.28 166.45 114.59C165.81 115.87 164.89 117.17 163.7 118.5C162.51 119.83 161.1 121.01 159.45 122.04L158.99 121.55C160.72 119.76 162.06 117.68 163.01 115.32C163.99 112.96 164.61 110.72 164.87 108.61C165.13 106.49 165.26 103.98 165.26 101.08V88.9095H169.13C172.38 87.3395 174.92 85.7895 176.75 84.2695L178.68 87.6495C175.69 88.7595 172.4 89.5595 168.82 90.0495V98.5595H181.69L181.68 98.5495Z" fill="#493024"/><path d="M197.87 91.9998V117.39C197.84 117.58 197.48 117.82 196.79 118.12C196.12 118.39 195.5 118.53 194.93 118.53H194.39V115.48H188.71V118.41C188.71 118.65 188.41 118.94 187.82 119.26C187.23 119.59 186.58 119.75 185.89 119.75H185.31V91.9998H189.52C189.98 89.2298 190.36 86.6998 190.64 84.3898L194.47 85.6898C193.39 88.0198 192.16 90.1298 190.8 91.9998H197.88H197.87ZM194.39 93.1398H188.71V102.83H194.39V93.1398ZM188.71 114.3H194.39V104H188.71V114.3ZM218.09 91.8798V93.6298C217.6 108.74 216.26 117.46 214.07 119.8C212.83 121.13 211.03 121.79 208.66 121.79C208.66 120.54 208.4 119.67 207.89 119.19C207.22 118.57 205.88 118.04 203.87 117.6L203.91 116.99C206.64 117.29 208.52 117.44 209.55 117.44C210.19 117.44 210.75 117.24 211.21 116.83C212.83 115.34 213.93 107.4 214.5 93.0198H204.64C202.94 96.2198 200.92 98.8398 198.57 100.87L198.07 100.54C200.67 96.1698 202.57 90.7598 203.75 84.2998L207.38 85.9298C206.81 88.1498 206.1 90.1398 205.25 91.8698H218.08L218.09 91.8798ZM202.27 99.2498L202.66 98.9698C206.27 100.35 208.52 102.18 209.43 104.46C209.97 105.84 209.88 106.96 209.16 107.8C208.52 108.56 207.72 108.63 206.76 108C206.61 107.92 206.45 107.81 206.3 107.67C206.15 106.34 205.68 104.92 204.91 103.4C204.14 101.85 203.26 100.47 202.28 99.2498H202.27Z" fill="#493024"/><path d="M257.9 111.98H247.35C248.77 114.88 252.52 116.85 258.6 117.88L258.56 118.37C257.58 118.61 256.85 118.99 256.36 119.51C255.9 120.05 255.63 120.88 255.55 121.99C250.7 120.44 247.71 117.11 246.58 111.98C245.75 114.48 244.26 116.54 242.1 118.17C239.93 119.8 236.49 121.11 231.78 122.12L231.43 121.51C234.88 120.26 237.45 118.86 239.12 117.32C240.79 115.78 241.93 114 242.52 111.99H233.36L233.05 110.81H242.79C242.97 109.83 243.11 108.27 243.22 106.13H239.86V107.43C239.86 107.65 239.52 107.91 238.85 108.2C238.21 108.5 237.55 108.65 236.88 108.65H236.38V94.9797C236.17 95.1197 235.93 95.1797 235.64 95.1797H230.85V99.2097C233.61 100.49 235.24 102 235.76 103.77C236.07 104.91 235.88 105.72 235.18 106.21C234.54 106.7 233.83 106.59 233.05 105.88C232.84 104.31 232.11 102.41 230.85 100.18V120.85C230.85 121.07 230.53 121.31 229.88 121.58C229.24 121.88 228.6 122.03 227.99 122.03H227.26V105.06C225.82 107.94 224 110.53 221.81 112.83L221.27 112.34C223.92 108.05 225.79 102.33 226.88 95.1697H222.01L221.7 93.9897H227.27V84.8697H230.86V93.9897H231.48L233.34 91.2197C234.55 92.3597 235.57 93.3597 236.39 94.2297V94.8397H254.52V106.68C254.49 106.87 254.13 107.11 253.44 107.41C252.74 107.71 252.11 107.86 251.55 107.86H250.97V106.11H247.14C247.04 108.06 246.87 109.62 246.64 110.79H257.93V111.97L257.9 111.98ZM234.54 90.2497L234.23 89.0697H239.76V84.4697L243.16 84.9197V89.0697H247.68V84.4697L251.04 84.9197V89.0697H257.65V90.2497H251.04V92.4097C251.04 92.5997 250.72 92.8297 250.07 93.0997C249.43 93.3397 248.79 93.4697 248.18 93.4697H247.68V90.2497H243.16V92.6497C243.16 92.8397 242.84 93.0597 242.19 93.2997C241.54 93.5397 240.91 93.6697 240.3 93.6697H239.76V90.2497H234.54ZM250.94 96.0297H239.84V99.8997H250.94V96.0297ZM239.84 101.08V104.95H250.94V101.08H239.84Z" fill="#493024"/><path d="M269.73 95.3005V100.02C272.54 101.27 274.2 102.79 274.72 104.58C275.03 105.69 274.85 106.52 274.18 107.06C273.48 107.6 272.74 107.49 271.94 106.73C271.73 105.1 271 103.18 269.74 100.95V120.89C269.74 121.11 269.43 121.35 268.81 121.62C268.22 121.89 267.61 122.03 266.99 122.03H266.26V105.26C264.92 107.97 263.23 110.43 261.2 112.63L260.7 112.1C263.15 107.89 264.89 102.29 265.92 95.2905H261.13L260.82 94.1105H266.27V84.3405L269.75 84.8705V94.1105H275.66V95.2905H269.75L269.73 95.3005ZM281.64 109.7V111.17C279.99 115.7 276.67 118.98 271.67 121.02L271.36 120.45C274.71 118.2 276.94 115 278.05 110.85H273.37L273.02 109.71H281.64V109.7ZM274.88 91.2305L274.57 90.0505H280.99C280.71 89.8905 280.54 89.7905 280.49 89.7705C280.34 88.9305 279.99 88.0305 279.45 87.0805C278.91 86.1305 278.32 85.3305 277.67 84.6805L278.06 84.4005C280.92 84.8605 282.66 85.8805 283.28 87.4505C283.64 88.4005 283.51 89.1705 282.89 89.7705C282.76 89.8805 282.63 89.9705 282.5 90.0505H286.44C287.14 88.2905 287.78 86.3505 288.37 84.2305L291.77 85.4905C290.48 87.3905 289.13 88.9105 287.71 90.0505H296.56V91.2305H286.74V94.2805H295.36V95.4605H286.74V98.8005H297.06V99.9805H273.94L273.63 98.8005H283.18V95.4605H276.18L275.87 94.2805H283.18V91.2305H274.87H274.88ZM292.97 104.9L295.44 107.75C293.38 109.27 291.3 110.59 289.22 111.7C291.44 114.36 294.19 116.18 297.49 117.15L297.45 117.6C296.06 117.98 295.14 119.15 294.71 121.1C291 118.88 288.37 115.19 286.82 110.03V117.8C286.82 119.16 286.51 120.16 285.89 120.81C285.27 121.49 283.97 121.92 281.99 122.11C281.86 120.89 281.56 120.09 281.1 119.71C280.51 119.14 279.45 118.75 277.93 118.53V117.92C280.46 118.11 282 118.2 282.57 118.2C283.08 118.2 283.34 117.93 283.34 117.39V106.77H276.92L276.73 105.59H286.82V107.71C287.31 108.9 287.95 110.04 288.75 111.13C290.58 108.69 291.98 106.61 292.96 104.9H292.97ZM279.75 101.52L279.87 100.91C284.07 100.45 286.91 101.01 288.37 102.58C289.09 103.37 289.26 104.13 288.87 104.86C288.53 105.46 287.98 105.66 287.21 105.47C286.57 104.79 285.56 104.09 284.19 103.35C282.85 102.59 281.37 101.98 279.74 101.52H279.75Z" fill="#493024"/><g style="mix-blend-mode:multiply"><path d="M0.339844 168.95V166.4C0.339844 165.1 0.649844 164.14 1.26984 163.54C1.88984 162.94 2.72984 162.63 3.76984 162.63C4.44984 162.63 5.03984 162.75 5.53984 163C6.03984 163.25 6.42984 163.6 6.70984 164.05C6.98984 164.5 7.11984 165.02 7.11984 165.61V165.67H6.07984V165.61C6.07984 164.98 5.86984 164.49 5.45984 164.12C5.04984 163.75 4.48984 163.57 3.77984 163.57C2.98984 163.57 2.38984 163.8 1.97984 164.25C1.56984 164.7 1.36984 165.43 1.36984 166.44V169.01C1.36984 170.85 2.17984 171.76 3.79984 171.76C4.54984 171.76 5.11984 171.56 5.51984 171.15C5.90984 170.74 6.10984 170.09 6.10984 169.2V168.44H3.75984V167.54H7.15984V169.01C7.15984 170.3 6.85984 171.25 6.24984 171.83C5.63984 172.42 4.81984 172.71 3.77984 172.71C2.73984 172.71 1.89984 172.41 1.27984 171.8C0.659844 171.2 0.349844 170.24 0.349844 168.94L0.339844 168.95Z" fill="#C8C9CA"/><path d="M10.8598 167.121H15.0798V168.061H10.8598V171.661H15.7998V172.601H9.81982V162.761H15.7998V163.701H10.8598V167.121Z" fill="#C8C9CA"/><path d="M21.0099 163.701V172.601H19.9799V163.701H17.1699V162.761H23.8199V163.701H21.0099Z" fill="#C8C9CA"/><path d="M32.13 163.701V172.601H31.1V163.701H28.29V162.761H34.94V163.701H32.13Z" fill="#C8C9CA"/><path d="M43.46 172.601H42.42V168.031H37.81V172.601H36.77V162.761H37.81V167.101H42.42V162.761H43.46V172.601Z" fill="#C8C9CA"/><path d="M47.3598 167.121H51.5798V168.061H47.3598V171.661H52.2998V172.601H46.3198V162.761H52.2998V163.701H47.3598V167.121Z" fill="#C8C9CA"/><path d="M65.0396 169.9C65.0396 170.75 64.7696 171.41 64.2396 171.88C63.7096 172.36 62.9796 172.59 62.0596 172.59H58.3696V162.75H61.9796C62.8996 162.75 63.6196 162.98 64.1296 163.43C64.6396 163.88 64.8896 164.52 64.8896 165.35C64.8896 165.85 64.7596 166.31 64.4896 166.71C64.2196 167.11 63.8496 167.39 63.3796 167.54C63.9296 167.71 64.3496 168 64.6296 168.41C64.9096 168.82 65.0496 169.32 65.0496 169.91L65.0396 169.9ZM59.3996 167.11H61.8496C62.4696 167.11 62.9496 166.97 63.3096 166.69C63.6596 166.41 63.8396 165.98 63.8396 165.41C63.8396 164.84 63.6696 164.41 63.3296 164.12C62.9896 163.83 62.4996 163.68 61.8696 163.68H59.3996V167.1V167.11ZM63.9996 169.83C63.9996 169.24 63.8196 168.79 63.4596 168.49C63.0996 168.19 62.5996 168.03 61.9396 168.03H59.3996V171.67H61.9296C62.5896 171.67 63.0896 171.51 63.4596 171.2C63.8196 170.89 63.9996 170.43 63.9996 169.83Z" fill="#C8C9CA"/><path d="M68.7397 167.121H72.9597V168.061H68.7397V171.661H73.6797V172.601H67.6997V162.761H73.6797V163.701H68.7397V167.121Z" fill="#C8C9CA"/><path d="M75.3999 169.82H76.4299C76.5599 171.12 77.3399 171.77 78.7699 171.77C79.5099 171.77 80.0799 171.61 80.4599 171.3C80.8499 170.99 81.0399 170.53 81.0399 169.93C81.0399 169.39 80.8899 168.98 80.5799 168.7C80.2799 168.42 79.8099 168.23 79.1999 168.13L78.0899 167.94C77.2899 167.81 76.6799 167.53 76.2499 167.12C75.8199 166.71 75.6099 166.12 75.6099 165.37C75.6099 164.5 75.8999 163.83 76.4799 163.34C77.0599 162.86 77.8299 162.61 78.7799 162.61C79.6499 162.61 80.3699 162.84 80.9299 163.29C81.4899 163.74 81.8199 164.43 81.9199 165.35H80.8899C80.7799 164.12 80.0699 163.51 78.7599 163.51C78.0799 163.51 77.5599 163.67 77.1799 163.99C76.7999 164.31 76.6199 164.74 76.6199 165.3C76.6199 165.79 76.7599 166.16 77.0499 166.43C77.3399 166.7 77.7799 166.89 78.3699 166.99L79.5099 167.19C80.3399 167.33 80.9699 167.62 81.4099 168.05C81.8499 168.48 82.0699 169.08 82.0699 169.86C82.0699 170.75 81.7699 171.45 81.1699 171.94C80.5699 172.43 79.7499 172.67 78.6999 172.67C77.7099 172.67 76.9399 172.43 76.3699 171.94C75.7999 171.45 75.4899 170.74 75.3999 169.8V169.82Z" fill="#C8C9CA"/><path d="M87.2497 163.701V172.601H86.2197V163.701H83.4097V162.761H90.0597V163.701H87.2497Z" fill="#C8C9CA"/><path d="M96.6001 168.281V172.601H95.5601V162.761H99.2101C100.13 162.761 100.86 163.001 101.39 163.481C101.92 163.961 102.18 164.641 102.18 165.531C102.18 166.231 101.99 166.811 101.62 167.271C101.25 167.731 100.73 168.031 100.07 168.181L102.4 172.601H101.2L98.9701 168.281H96.6001ZM99.1201 167.381C99.7601 167.381 100.25 167.221 100.6 166.901C100.95 166.581 101.13 166.131 101.13 165.541C101.13 164.951 100.96 164.471 100.61 164.161C100.26 163.851 99.7701 163.701 99.1201 163.701H96.5901V167.381H99.1201Z" fill="#C8C9CA"/><path d="M105.83 162.761V172.601H104.79V162.761H105.83Z" fill="#C8C9CA"/><path d="M108.6 168.95V166.4C108.6 165.1 108.91 164.14 109.53 163.54C110.15 162.94 110.99 162.63 112.03 162.63C112.71 162.63 113.3 162.75 113.8 163C114.3 163.25 114.69 163.6 114.97 164.05C115.25 164.5 115.38 165.02 115.38 165.61V165.67H114.34V165.61C114.34 164.98 114.13 164.49 113.72 164.12C113.31 163.75 112.75 163.57 112.04 163.57C111.25 163.57 110.65 163.8 110.24 164.25C109.83 164.7 109.63 165.43 109.63 166.44V169.01C109.63 170.85 110.44 171.76 112.06 171.76C112.81 171.76 113.38 171.56 113.78 171.15C114.18 170.74 114.37 170.09 114.37 169.2V168.44H112.02V167.54H115.42V169.01C115.42 170.3 115.12 171.25 114.51 171.83C113.9 172.42 113.08 172.71 112.04 172.71C111 172.71 110.16 172.41 109.54 171.8C108.92 171.2 108.61 170.24 108.61 168.94L108.6 168.95Z" fill="#C8C9CA"/><path d="M124.77 172.601H123.73V168.031H119.12V172.601H118.08V162.761H119.12V167.101H123.73V162.761H124.77V172.601Z" fill="#C8C9CA"/><path d="M130.44 163.701V172.601H129.41V163.701H126.6V162.761H133.25V163.701H130.44Z" fill="#C8C9CA"/><path d="M139.79 167.151H144.01V168.091H139.79V172.601H138.75V162.761H144.73V163.701H139.79V167.151Z" fill="#C8C9CA"/><path d="M148.05 168.281V172.601H147.01V162.761H150.66C151.58 162.761 152.31 163.001 152.84 163.481C153.37 163.961 153.63 164.641 153.63 165.531C153.63 166.231 153.45 166.811 153.07 167.271C152.7 167.731 152.18 168.031 151.51 168.181L153.84 172.601H152.64L150.41 168.281H148.04H148.05ZM150.58 167.381C151.22 167.381 151.71 167.221 152.06 166.901C152.41 166.581 152.59 166.131 152.59 165.541C152.59 164.951 152.42 164.471 152.07 164.161C151.72 163.851 151.23 163.701 150.58 163.701H148.05V167.381H150.58Z" fill="#C8C9CA"/><path d="M155.93 168.95V166.4C155.93 165.1 156.24 164.14 156.86 163.54C157.48 162.94 158.31 162.63 159.36 162.63C160.41 162.63 161.22 162.93 161.84 163.54C162.45 164.14 162.76 165.1 162.76 166.4V168.95C162.76 170.25 162.45 171.21 161.83 171.81C161.21 172.41 160.38 172.72 159.35 172.72C158.32 172.72 157.47 172.42 156.86 171.81C156.25 171.21 155.94 170.25 155.94 168.95H155.93ZM161.71 166.44C161.71 164.53 160.93 163.57 159.36 163.57C158.57 163.57 157.98 163.8 157.58 164.25C157.18 164.7 156.98 165.43 156.98 166.44V169.01C156.98 169.97 157.18 170.67 157.59 171.11C157.99 171.55 158.59 171.77 159.37 171.77C160.94 171.77 161.72 170.85 161.72 169.02V166.45L161.71 166.44Z" fill="#C8C9CA"/><path d="M173.87 172.601H172.83V164.901L170.05 170.641H169.25L166.45 164.901V172.601H165.41V162.761H166.45L169.65 169.391L172.83 162.761H173.87V172.601Z" fill="#C8C9CA"/><path d="M183.33 172.6H182.29V168.46L179.35 162.75H180.48L182.81 167.47L185.15 162.75H186.28L183.34 168.47V172.59L183.33 172.6Z" fill="#C8C9CA"/><path d="M187.89 168.95V166.4C187.89 165.1 188.2 164.14 188.82 163.54C189.44 162.94 190.27 162.63 191.32 162.63C192.37 162.63 193.18 162.93 193.8 163.54C194.41 164.14 194.72 165.1 194.72 166.4V168.95C194.72 170.25 194.41 171.21 193.79 171.81C193.17 172.41 192.34 172.72 191.31 172.72C190.28 172.72 189.43 172.42 188.82 171.81C188.21 171.21 187.9 170.25 187.9 168.95H187.89ZM193.67 166.44C193.67 164.53 192.89 163.57 191.32 163.57C190.53 163.57 189.94 163.8 189.54 164.25C189.14 164.7 188.94 165.43 188.94 166.44V169.01C188.94 169.97 189.14 170.67 189.55 171.11C189.95 171.55 190.55 171.77 191.33 171.77C192.9 171.77 193.68 170.85 193.68 169.02V166.45L193.67 166.44Z" fill="#C8C9CA"/><path d="M197.81 171.101C197.52 170.601 197.37 170.031 197.37 169.391V162.761H198.43V169.311C198.43 170.061 198.64 170.661 199.06 171.101C199.48 171.541 200.05 171.761 200.77 171.761C201.49 171.761 202.04 171.541 202.47 171.101C202.9 170.661 203.11 170.061 203.11 169.311V162.761H204.15V169.391C204.15 170.041 204.01 170.611 203.72 171.111C203.43 171.611 203.03 172.001 202.51 172.271C202 172.551 201.42 172.681 200.77 172.681C200.12 172.681 199.54 172.541 199.03 172.271C198.52 171.991 198.11 171.601 197.82 171.101H197.81Z" fill="#C8C9CA"/><path d="M208.04 168.281V172.601H207V162.761H210.65C211.57 162.761 212.3 163.001 212.83 163.481C213.36 163.961 213.62 164.641 213.62 165.531C213.62 166.231 213.44 166.811 213.06 167.271C212.69 167.731 212.17 168.031 211.5 168.181L213.83 172.601H212.63L210.4 168.281H208.03H208.04ZM210.57 167.381C211.21 167.381 211.7 167.221 212.05 166.901C212.4 166.581 212.58 166.131 212.58 165.541C212.58 164.951 212.41 164.471 212.06 164.161C211.71 163.851 211.22 163.701 210.57 163.701H208.04V167.381H210.57Z" fill="#C8C9CA"/><path d="M220.83 167.151H225.05V168.091H220.83V172.601H219.79V162.761H225.77V163.701H220.83V167.151Z" fill="#C8C9CA"/><path d="M229.21 162.761V172.601H228.17V162.761H229.21Z" fill="#C8C9CA"/><path d="M233.22 168.281V172.601H232.18V162.761H235.83C236.75 162.761 237.48 163.001 238.01 163.481C238.54 163.961 238.8 164.641 238.8 165.531C238.8 166.231 238.62 166.811 238.24 167.271C237.87 167.731 237.35 168.031 236.68 168.181L239.01 172.601H237.81L235.58 168.281H233.21H233.22ZM235.74 167.381C236.38 167.381 236.87 167.221 237.22 166.901C237.57 166.581 237.75 166.131 237.75 165.541C237.75 164.951 237.58 164.471 237.23 164.161C236.88 163.851 236.39 163.701 235.74 163.701H233.21V167.381H235.74Z" fill="#C8C9CA"/><path d="M240.63 169.82H241.66C241.79 171.12 242.57 171.77 244 171.77C244.74 171.77 245.31 171.61 245.69 171.3C246.08 170.99 246.27 170.53 246.27 169.93C246.27 169.39 246.12 168.98 245.81 168.7C245.51 168.42 245.04 168.23 244.43 168.13L243.32 167.94C242.52 167.81 241.91 167.53 241.48 167.12C241.05 166.71 240.84 166.12 240.84 165.37C240.84 164.5 241.13 163.83 241.71 163.34C242.29 162.86 243.06 162.61 244.01 162.61C244.89 162.61 245.6 162.84 246.16 163.29C246.72 163.74 247.05 164.43 247.15 165.35H246.12C246.01 164.12 245.3 163.51 243.99 163.51C243.32 163.51 242.79 163.67 242.41 163.99C242.03 164.31 241.85 164.74 241.85 165.3C241.85 165.79 241.99 166.16 242.29 166.43C242.58 166.7 243.02 166.89 243.61 166.99L244.75 167.19C245.58 167.33 246.21 167.62 246.65 168.05C247.09 168.48 247.31 169.08 247.31 169.86C247.31 170.75 247.01 171.45 246.41 171.94C245.81 172.43 244.99 172.67 243.94 172.67C242.95 172.67 242.18 172.43 241.61 171.94C241.05 171.45 240.73 170.74 240.64 169.8L240.63 169.82Z" fill="#C8C9CA"/><path d="M252.47 163.701V172.601H251.44V163.701H248.63V162.761H255.28V163.701H252.47Z" fill="#C8C9CA"/><path d="M267.47 172.601H266.43V168.031H261.82V172.601H260.78V162.761H261.82V167.101H266.43V162.761H267.47V172.601Z" fill="#C8C9CA"/><path d="M270.13 168.95V166.4C270.13 165.1 270.44 164.14 271.06 163.54C271.68 162.94 272.51 162.63 273.56 162.63C274.61 162.63 275.42 162.93 276.04 163.54C276.66 164.15 276.96 165.1 276.96 166.4V168.95C276.96 170.25 276.65 171.21 276.03 171.81C275.41 172.41 274.58 172.72 273.55 172.72C272.52 172.72 271.67 172.42 271.06 171.81C270.45 171.21 270.14 170.25 270.14 168.95H270.13ZM275.91 166.44C275.91 164.53 275.13 163.57 273.56 163.57C272.77 163.57 272.18 163.8 271.78 164.25C271.38 164.7 271.18 165.43 271.18 166.44V169.01C271.18 169.97 271.38 170.67 271.79 171.11C272.19 171.55 272.79 171.77 273.57 171.77C275.14 171.77 275.92 170.85 275.92 169.02V166.45L275.91 166.44Z" fill="#C8C9CA"/><path d="M288.06 172.601H287.02V164.901L284.24 170.641H283.44L280.64 164.901V172.601H279.6V162.761H280.64L283.84 169.391L287.02 162.761H288.06V172.601Z" fill="#C8C9CA"/><path d="M291.96 167.121H296.18V168.061H291.96V171.661H296.9V172.601H290.92V162.761H296.9V163.701H291.96V167.121Z" fill="#C8C9CA"/></g></g><defs><clipPath id="clip0_3_3989"><rect width="297.49" height="172.71" fill="white"/></clipPath></defs></svg>