<svg width="488" height="150" viewBox="0 0 488 150" fill="none" xmlns="http://www.w3.org/2000/svg">
<g clip-path="url(#clip0_18_4397)">
<path d="M0 138.33H458.54" stroke="#493024" stroke-width="0.52" stroke-miterlimit="10"/>
<path d="M0.700195 115.64V111.55L6.3002 107.01H9.7602V141.46H6.3502V111.2L0.710195 115.64H0.700195Z" fill="#493024"/>
<path d="M17.5598 132.26V130.56C17.5598 129.33 17.7298 128.13 18.0598 126.97C18.3898 125.8 18.8698 124.56 19.5098 123.22L27.1498 106.99H30.7498L23.6798 122.12C24.0598 121.82 24.5698 121.57 25.2198 121.37C25.8698 121.17 26.5398 121.07 27.2398 121.07C29.6698 121.07 31.6398 121.92 33.1398 123.62C34.6398 125.32 35.3898 127.6 35.3898 130.46V132.16C35.3898 134.19 34.9998 135.94 34.2298 137.4C33.4598 138.86 32.3998 139.99 31.0498 140.77C29.7098 141.55 28.1798 141.94 26.4698 141.94C23.7498 141.94 21.5898 141.07 19.9698 139.32C18.3598 137.57 17.5498 135.22 17.5498 132.26H17.5598ZM31.9298 132.36V130.66C31.9298 128.73 31.4398 127.2 30.4598 126.07C29.4798 124.94 28.1498 124.37 26.4798 124.37C24.8098 124.37 23.5198 124.93 22.5398 126.04C21.5598 127.15 21.0698 128.68 21.0698 130.61V132.31C21.0698 134.27 21.5498 135.83 22.5198 136.98C23.4798 138.13 24.7998 138.7 26.4798 138.7C28.1598 138.7 29.4798 138.13 30.4598 136.98C31.4398 135.83 31.9298 134.29 31.9298 132.36Z" fill="#493024"/>
<path d="M46.3302 119.98V124.57H42.1602V119.98H46.3302ZM46.3302 136.86V141.45H42.1602V136.86H46.3302Z" fill="#493024"/>
<path d="M53.2402 133.71V132.91H56.7002V133.56C56.7002 135.16 57.1702 136.41 58.1002 137.33C59.0302 138.25 60.2902 138.7 61.8702 138.7C63.5502 138.7 64.8602 138.16 65.8102 137.08C66.7602 136 67.2302 134.54 67.2302 132.71V131.41C67.2302 129.51 66.7302 128.01 65.7402 126.89C64.7402 125.78 63.3802 125.22 61.6402 125.22H59.9302V121.92H61.5902C63.1702 121.92 64.4202 121.4 65.3402 120.35C66.2602 119.3 66.7102 117.93 66.7102 116.23V115.23C66.7102 113.56 66.2702 112.23 65.3802 111.24C64.5002 110.24 63.2902 109.74 61.7802 109.74C60.2702 109.74 59.0802 110.21 58.2202 111.14C57.3702 112.07 56.9402 113.32 56.9402 114.89V115.69H53.6202V114.79C53.6202 112.26 54.3602 110.25 55.8302 108.75C57.3002 107.25 59.3202 106.5 61.8802 106.5C64.4402 106.5 66.4202 107.27 67.9002 108.82C69.3902 110.37 70.1302 112.44 70.1302 115.03V116.13C70.1302 117.8 69.7502 119.24 68.9902 120.47C68.2302 121.7 67.2402 122.62 66.0002 123.22C67.5202 123.82 68.6802 124.83 69.4902 126.24C70.3002 127.65 70.7002 129.34 70.7002 131.31V132.51C70.7002 135.37 69.8902 137.66 68.2602 139.38C66.6302 141.09 64.4902 141.95 61.8302 141.95C59.1702 141.95 57.1202 141.21 55.5702 139.73C54.0202 138.25 53.2502 136.24 53.2502 133.71H53.2402Z" fill="#493024"/>
<path d="M78.2002 117.33C78.2002 110.11 81.0502 106.5 86.7402 106.5C92.4302 106.5 95.3202 110.11 95.3202 117.33V130.91C95.3202 138.27 92.4602 141.94 86.7402 141.94C81.0202 141.94 78.2002 138.26 78.2002 130.91V117.33ZM91.8602 130.21V118.23C91.8602 115.2 91.4602 113.04 90.6702 111.74C89.8802 110.44 88.5702 109.79 86.7302 109.79C84.8902 109.79 83.5902 110.44 82.8202 111.74C82.0502 113.04 81.6602 115.2 81.6602 118.23V130.21C81.6602 133.24 82.0502 135.4 82.8202 136.7C83.5902 138 84.9002 138.65 86.7302 138.65C88.5602 138.65 89.8802 138 90.6702 136.7C91.4602 135.4 91.8602 133.24 91.8602 130.21Z" fill="#493024"/>
<path d="M106.6 116.14V119.69C107.23 118.43 108.09 117.47 109.16 116.82C110.24 116.17 111.47 115.85 112.86 115.85C115.33 115.85 117.33 116.68 118.88 118.35C120.43 120.02 121.2 122.63 121.2 126.19V131.38C121.2 134.98 120.44 137.6 118.92 139.27C117.4 140.93 115.46 141.77 113.09 141.77C110.09 141.77 107.92 140.56 106.59 138.13V149.06H103.37V116.16H106.59L106.6 116.14ZM117.99 126.42C117.99 121.39 116.14 118.88 112.44 118.88C110.51 118.88 109.06 119.59 108.08 121C107.1 122.41 106.61 124.3 106.61 126.67V131.11C106.61 133.34 107.12 135.16 108.15 136.58C109.18 138 110.67 138.7 112.63 138.7C116.2 138.7 117.99 136.19 117.99 131.16V126.42Z" fill="#493024"/>
<path d="M131.94 116.14V119.24C132.64 118.14 133.54 117.3 134.67 116.72C135.79 116.14 137.05 115.85 138.44 115.85C140.08 115.85 141.49 116.22 142.66 116.95C143.83 117.68 144.73 118.73 145.36 120.1C146.94 117.27 149.38 115.86 152.66 115.86C155.22 115.86 157.21 116.65 158.64 118.23C160.06 119.81 160.77 122.02 160.77 124.85V141.48H157.55V125.35C157.55 123.25 157.07 121.66 156.1 120.56C155.14 119.46 153.78 118.91 152.05 118.91C150.32 118.91 148.9 119.47 147.9 120.58C146.9 121.7 146.41 123.23 146.41 125.2V141.48H143.14V125.35C143.14 123.25 142.66 121.66 141.69 120.56C140.73 119.46 139.37 118.91 137.64 118.91C135.91 118.91 134.57 119.47 133.54 120.58C132.51 121.7 132 123.28 132 125.35V141.48H128.78V116.17H131.96L131.94 116.14Z" fill="#493024"/>
<path d="M186.19 123.31V133.81C187.5 135.27 189 136.23 190.68 136.66C192.38 137.09 195.05 137.31 198.68 137.31C204.63 137.31 209.74 137.26 213.99 137.15V137.68C212.49 138.01 211.67 139.08 211.52 140.89H198.72C194.98 140.89 192.2 140.47 190.37 139.63C188.57 138.79 187.01 137.09 185.69 134.54C184.17 136.66 182.43 138.74 180.47 140.81C180.52 141.19 180.35 141.5 179.97 141.75L177.81 137.4C179.02 136.88 180.67 136.08 182.76 135V122.79H178.12L177.89 121.61H186.2V123.32L186.19 123.31ZM179.38 105.53L179.73 105.25C183.36 106.17 185.66 107.68 186.61 109.77C187.18 111.02 187.14 112.08 186.49 112.94C185.85 113.75 185.02 113.9 184.02 113.39C183.87 113.31 183.7 113.2 183.52 113.06C183.31 111.81 182.81 110.5 182.01 109.11C181.21 107.7 180.33 106.5 179.38 105.53ZM192.91 122.9V134.66C192.91 134.85 192.59 135.09 191.94 135.39C191.32 135.66 190.69 135.8 190.05 135.8H189.51V121.72H198.94V117.98H194.45V118.92C194.45 119.14 194.13 119.39 193.48 119.69C192.84 119.96 192.18 120.1 191.51 120.1H191.01V106.43H210.53V118.56C210.5 118.72 210.14 118.95 209.45 119.25C208.75 119.52 208.14 119.66 207.59 119.66H207.01V117.99H202.29V121.73H212.23V131.99C212.23 133.29 211.92 134.26 211.3 134.88C210.68 135.5 209.38 135.9 207.39 136.06C207.31 135 207.06 134.27 206.62 133.86C205.92 133.32 204.87 132.95 203.45 132.76V132.19C205.87 132.35 207.37 132.43 207.94 132.43C208.25 132.43 208.45 132.38 208.56 132.27C208.69 132.13 208.75 131.93 208.75 131.66V122.91H202.29V127.43L204.96 127.35C204.6 126.29 204.15 125.36 203.61 124.54L204.07 124.3C206.44 125.44 207.81 126.82 208.17 128.45C208.4 129.51 208.18 130.27 207.51 130.73C206.84 131.22 206.17 131.1 205.5 130.36C205.53 129.82 205.45 129.13 205.27 128.29C202.59 129.08 199.48 129.89 195.95 130.73C195.77 131.22 195.46 131.5 195.02 131.58L193.13 127.71C194.57 127.71 196.51 127.67 198.93 127.59V122.91H192.9L192.91 122.9ZM198.94 107.56H194.45V111.55H198.94V107.56ZM194.46 116.8H198.95V112.69H194.46V116.8ZM207.03 107.56H202.31V111.55H207.03V107.56ZM202.31 116.8H207.03V112.69H202.31V116.8Z" fill="#493024"/>
<path d="M250.04 131.29L250.12 136.99C251 137.31 251.43 137.84 251.43 138.58C251.43 139.45 250.89 140.06 249.81 140.41C248.75 140.76 246.72 140.94 243.7 140.94H239.53C237.8 140.94 236.66 140.71 236.09 140.25C235.52 139.79 235.24 138.88 235.24 137.52V127.55H231.72C231.2 131.7 229.72 134.87 227.27 137.07C224.82 139.27 221.02 140.81 215.86 141.71L215.71 141.14C219.76 139.81 222.67 138.1 224.45 136.01C226.23 133.92 227.3 131.1 227.66 127.55H225.73V128.73C225.73 128.97 225.4 129.26 224.73 129.58C224.06 129.88 223.36 130.03 222.64 130.03H222.1V106.55H245.14V128.53C245.11 128.69 244.74 128.92 244.02 129.22C243.3 129.49 242.64 129.63 242.05 129.63H241.47V127.56H238.88V136.68C238.88 136.98 238.96 137.18 239.11 137.29C239.29 137.37 239.69 137.41 240.31 137.41H243.98C245.76 137.41 246.83 137.4 247.19 137.37C247.58 137.34 247.87 137.15 248.08 136.8C248.31 136.34 248.81 134.51 249.59 131.31H250.05L250.04 131.29ZM241.46 107.68H225.72V113.01H241.46V107.68ZM241.46 119.65V114.2H225.72V119.65H241.46ZM225.72 120.83V126.36H241.46V120.83H225.72Z" fill="#493024"/>
<path d="M290.25 121.36H275.21C276.83 124.35 279.06 127.02 281.9 129.38C284.76 131.74 287.74 133.48 290.83 134.59L290.75 135.04C289.15 135.39 288.08 136.53 287.54 138.46C281.46 135.01 277.06 129.32 274.36 121.37L274.28 140.37C274.28 140.64 273.95 140.94 273.28 141.27C272.64 141.62 271.98 141.8 271.31 141.8H270.58V125.16C266.84 131.05 261.56 135.66 254.73 139L254.34 138.43C257.28 136.37 259.95 133.83 262.34 130.82C264.76 127.78 266.68 124.63 268.1 121.38H255.23L254.92 120.2H270.58V112.79H258.29L257.98 111.65H270.58V104L274.29 104.57V111.65H287.47V112.79H274.29V120.2H290.26V121.38L290.25 121.36Z" fill="#493024"/>
<path d="M317.46 113.22L320.98 114.48C320.67 116.14 320.26 117.56 319.74 118.75C322.81 119.81 324.7 121.29 325.42 123.19C325.86 124.38 325.74 125.32 325.07 126C324.4 126.65 323.57 126.64 322.6 125.96C322.16 124.28 321 122.28 319.12 119.98C317.83 122.48 316.18 124.44 314.17 125.88C315.9 128.24 318 130.29 320.47 132.03C322.94 133.77 325.52 135.04 328.2 135.85L328.12 136.3C326.55 136.65 325.52 137.79 325.03 139.72C318.82 136.57 314.39 131.2 311.73 123.6V140.37C311.73 140.64 311.39 140.95 310.72 141.31C310.05 141.66 309.39 141.84 308.75 141.84H308.02V128.49C303.74 133.51 298.5 137.29 292.29 139.84L291.98 139.23C295.41 137.28 298.58 134.64 301.49 131.33C304.4 128.02 306.58 124.51 308.02 120.79V111.92H292.94L292.59 110.74H308.02V104.11L311.73 104.68V110.74H327.54V111.92H311.73V121.77C312.27 122.94 312.91 124.06 313.66 125.15C315.62 122.03 316.88 118.06 317.45 113.23L317.46 113.22ZM299.83 113.26L303.23 114.77C302.92 116.15 302.48 117.48 301.92 118.76C304.21 119.71 305.54 120.94 305.9 122.46C306.13 123.49 305.9 124.24 305.2 124.7C304.5 125.19 303.74 125.08 302.92 124.37C302.74 123.1 302.16 121.68 301.18 120.14C299.35 123.45 297.04 125.99 294.26 127.75L293.76 127.34C295.18 125.63 296.43 123.56 297.51 121.11C298.59 118.64 299.37 116.02 299.83 113.26Z" fill="#493024"/>
<path d="M1.62988 46.37V45.32H6.99988V45.88C6.99988 48.47 7.68988 50.46 9.06988 51.86C10.4499 53.26 12.4199 53.96 14.9799 53.96C20.3499 53.96 23.0399 50.46 23.0399 43.45V38.2C23.0399 34.64 22.3899 31.99 21.0799 30.24C19.7699 28.49 17.7699 27.61 15.0499 27.61C13.1599 27.61 11.5399 28.11 10.2099 29.11C8.87988 30.11 7.92988 31.49 7.36988 33.27H2.46988V2.73H27.7999V8.14H7.61988V25.92C8.53988 24.84 9.71988 23.97 11.1499 23.29C12.5799 22.62 14.1399 22.28 15.8299 22.28C20.0799 22.28 23.2799 23.63 25.4299 26.32C27.5799 29.01 28.6499 32.87 28.6499 37.88V43.94C28.6499 48.79 27.4499 52.56 25.0399 55.25C22.6299 57.94 19.3099 59.29 15.0599 59.29C10.8099 59.29 7.56988 58.13 5.19988 55.81C2.81988 53.49 1.62988 50.34 1.62988 46.36V46.37Z" fill="white"/>
<path d="M56.4198 0.500002L63.2798 4.36C60.8398 9.92 57.5398 14.84 53.4098 19.11C49.3098 23.34 44.5198 26.66 39.0398 29.07L38.5698 28.38C42.7498 25.02 46.3998 20.79 49.5098 15.68C52.6198 10.58 54.9298 5.51 56.4298 0.490002L56.4198 0.500002ZM75.8798 25.52H83.3898V28.51C82.9998 36.48 82.3798 42.62 81.5598 46.93C80.7298 51.2 79.5098 54.03 77.8898 55.39C75.8798 57.17 73.0798 58.05 69.4898 58.01C69.4898 55.56 69.0198 53.9 68.0698 53.03C66.9298 51.87 64.6998 50.98 61.3898 50.35V49.54C66.5098 49.95 69.6298 50.16 70.7298 50.16C71.6398 50.16 72.3598 49.93 72.9198 49.48C74.5398 47.99 75.6998 40.58 76.4098 27.26H65.4098C65.1698 29.75 64.8198 31.99 64.3498 33.98C63.9198 35.93 63.1498 38.11 62.0398 40.52C60.9398 42.93 59.5398 45.11 57.8398 47.06C56.1798 49.01 53.9198 51 51.0398 53.03C48.1998 55.06 44.8698 56.89 41.0498 58.51L40.4598 57.64C43.3798 55.73 45.8998 53.7 48.0298 51.54C50.1998 49.34 51.8698 47.29 53.0598 45.38C54.2398 43.47 55.1898 41.38 55.8998 39.09C56.6498 36.77 57.1198 34.77 57.3198 33.11C57.5598 31.45 57.7298 29.5 57.8498 27.26H47.1498L46.6198 25.52H75.8898H75.8798ZM71.2698 0.560002L71.9798 0.190002C73.8298 4.71 76.8898 8.66 81.1498 12.02C85.4098 15.38 90.0998 18.08 95.2198 20.11L95.0398 20.79C92.1598 21.29 90.1698 23.43 89.0698 27.2C79.9598 20.73 74.0298 11.85 71.2698 0.560002Z" fill="white"/>
<path d="M156.9 55.27V57.01H121.83L121.42 55.27H136.2V48.11H125.56L125.09 46.31C120.24 49.38 114.05 52.85 106.52 56.7C106.2 57.57 105.71 58.11 105.04 58.32L100.84 50.6C103.52 50.1 106.54 49.5 109.89 48.8V29.69H102.26L101.79 27.95H109.89V20.29H106.11L105.7 18.8C103.96 20.63 102.25 22.14 100.56 23.34L99.9102 22.84C101.96 20.06 103.85 16.47 105.59 12.07C107.36 7.67 108.59 3.71 109.26 0.18L117.77 3.04C117.53 3.79 116.78 4.24 115.52 4.41C120.72 5.78 123.76 7.79 124.63 10.45C125.1 12.03 124.77 13.29 123.63 14.25C122.37 15.21 121.05 15.18 119.67 14.19C118.57 11.33 116.89 8.57 114.64 5.91C112.51 10.43 109.65 14.62 106.07 18.48H123.45V20.28H115.65V27.94H125.11V29.68H115.65V47.54C117.7 47.04 120.93 46.29 125.35 45.3L125.53 46.05L125.12 46.3H136.24V40.32H131.98V41.88C131.98 42.05 131.78 42.25 131.39 42.5C131.04 42.71 130.44 42.92 129.62 43.12C128.79 43.33 127.91 43.43 126.96 43.43H125.9V22.95H153.63V40.88C153.63 41 153.41 41.17 152.98 41.38C152.59 41.59 151.95 41.8 151.09 42C150.26 42.21 149.38 42.31 148.43 42.31H147.37V40.32H142.46V46.3H155.35V48.1H142.46V55.26H156.95L156.9 55.27ZM102.91 32.49L103.68 32.3C107.31 35.41 109.06 38.65 108.94 42.01C108.9 44 108.27 45.33 107.05 45.99C105.87 46.61 104.76 46.26 103.74 44.93C104.29 41.28 104.02 37.13 102.91 32.48V32.49ZM117.4 45L116.4 44.56C117.03 41.24 117.58 37.07 118.06 32.05L122.73 34.23C120.99 38.92 119.22 42.51 117.41 45H117.4ZM124.97 8.4L124.5 6.6H136.21V0.44L142.48 1.19V6.61H155.84V8.41H146.08L149.45 9.84C147.87 12.33 145.8 14.74 143.24 17.06H156.72V18.86H124.2L123.73 17.06H133.31C132.6 16.89 131.87 16.42 131.12 15.63C131.28 13.31 130.92 10.9 130.06 8.41H124.98L124.97 8.4ZM135.14 17.05H141.64C142.27 14.02 142.84 11.14 143.35 8.4H131.94C134.27 9.27 135.86 10.37 136.73 11.7C137.6 12.99 137.81 14.13 137.38 15.12C136.95 16.12 136.2 16.76 135.13 17.05H135.14ZM136.2 24.71H131.94V30.75H136.2V24.71ZM131.95 38.53H136.21V32.55H131.95V38.53ZM147.32 24.71H142.41V30.75H147.32V24.71ZM142.41 38.53H147.32V32.55H142.41V38.53Z" fill="white"/>
<path d="M230.4 8.34V10.08H210.24L218.1 11.88L215.91 13.19C213.19 15.93 211.1 17.9 209.64 19.1H226.79V50.35C226.79 53.01 226.24 54.96 225.13 56.2C224.03 57.45 221.7 58.23 218.15 58.57C217.95 56.08 217.54 54.46 216.91 53.72C215.88 52.47 214.29 51.69 212.12 51.35V50.6C210.82 51.14 209.6 51.41 208.45 51.41H207.39V47.92H197.87V50.41C197.87 50.62 197.61 50.89 197.1 51.22C196.63 51.51 195.96 51.78 195.09 52.03C194.26 52.28 193.45 52.4 192.67 52.4H191.78V35.22H213.54V49.85C213.54 49.97 213.17 50.18 212.42 50.47C215.18 50.76 217.31 50.91 218.81 50.91C219.6 50.91 219.99 50.49 219.99 49.66V20.84H210.23V25.57C210.23 26.19 210.27 26.57 210.35 26.69C210.43 26.81 210.67 26.88 211.06 26.88H214.9C215.33 26.88 215.67 26.74 215.91 26.44C216.19 25.99 216.6 24.8 217.15 22.89H217.86L217.98 26.25C218.81 26.66 219.3 27 219.46 27.25C219.66 27.46 219.76 27.79 219.76 28.25C219.76 30.7 218.06 31.92 214.67 31.92H210.12C207.75 31.92 206.22 31.51 205.51 30.67C204.84 29.84 204.5 28.08 204.5 25.38V20.84H200.48C199.69 24.41 198.11 27.31 195.75 29.55C193.42 31.75 190.25 33.47 186.23 34.72L185.99 33.85C190.68 30.99 193.36 26.65 194.03 20.84H185.57V56.07C185.57 56.53 184.96 57.04 183.74 57.63C182.52 58.25 181.26 58.56 179.96 58.56H178.84V19.11H193.39C193 18.86 192.7 18.65 192.5 18.49C192.26 15.75 191.3 13.03 189.6 10.34L189.95 10.09H175.58L175.11 8.35H198.94V0.309998L206.04 1.06V8.34H230.4ZM197.11 19.11H206.93C207.76 15.96 208.39 12.95 208.82 10.08H190.78C192.51 10.41 193.97 10.91 195.15 11.57C196.37 12.19 197.24 12.86 197.75 13.56C198.26 14.27 198.56 14.99 198.64 15.74C198.76 16.44 198.66 17.09 198.34 17.67C198.06 18.25 197.65 18.73 197.1 19.1L197.11 19.11ZM197.88 46.19H207.4V37.04H197.88V46.19Z" fill="white"/>
<path d="M238.06 43.62V40.87C238.06 38.88 238.33 36.94 238.87 35.05C239.41 33.16 240.19 31.14 241.21 28.99L253.57 2.73H259.4L247.96 27.22C248.57 26.73 249.41 26.33 250.45 26.01C251.5 25.69 252.59 25.53 253.71 25.53C257.65 25.53 260.84 26.9 263.27 29.65C265.7 32.4 266.92 36.09 266.92 40.72V43.47C266.92 46.76 266.29 49.59 265.04 51.95C263.79 54.32 262.07 56.14 259.9 57.41C257.73 58.68 255.26 59.31 252.49 59.31C248.09 59.31 244.58 57.9 241.97 55.07C239.36 52.24 238.06 48.43 238.06 43.64V43.62ZM261.32 43.78V41.03C261.32 37.91 260.53 35.43 258.94 33.59C257.35 31.76 255.2 30.84 252.49 30.84C249.78 30.84 247.7 31.74 246.12 33.55C244.54 35.36 243.74 37.82 243.74 40.94V43.69C243.74 46.87 244.52 49.39 246.08 51.25C247.64 53.11 249.78 54.04 252.49 54.04C255.2 54.04 257.35 53.11 258.94 51.25C260.53 49.39 261.32 46.9 261.32 43.77V43.78Z" fill="white"/>
<path d="M278.16 19.46C278.16 7.77 282.77 1.92 291.98 1.92C301.19 1.92 305.87 7.77 305.87 19.46V41.44C305.87 53.35 301.24 59.3 291.98 59.3C282.72 59.3 278.16 53.35 278.16 41.44V19.46ZM300.27 40.31V20.92C300.27 16.02 299.63 12.52 298.35 10.42C297.07 8.32 294.95 7.27 291.98 7.27C289.01 7.27 286.9 8.32 285.65 10.42C284.4 12.52 283.77 16.02 283.77 20.92V40.31C283.77 45.21 284.4 48.71 285.65 50.82C286.9 52.92 289.01 53.97 291.98 53.97C294.95 53.97 297.07 52.92 298.35 50.82C299.63 48.72 300.27 45.22 300.27 40.31Z" fill="white"/>
<path d="M370.78 54.4V56.21H315.85L315.38 54.4H339.27V47.24H320.58L320.05 45.43H339.27V38.96H329.81V40.33C329.81 40.7 329.14 41.18 327.8 41.76C326.5 42.34 325.2 42.63 323.9 42.63H322.84V20.72H339.28V14.99H316.93L316.46 13.31H339.28V8.27C332.54 8.64 326.13 8.81 320.06 8.77L319.94 7.71C326.4 7 333.28 5.9 340.58 4.41C347.91 2.92 353.73 1.44 358.02 -0.0100021L364.05 6.4C363.26 7.02 362 6.94 360.27 6.15C356.21 6.77 351.58 7.31 346.37 7.77V13.31H369.73V14.99H346.37V20.72H363.16V39.52C363.08 39.85 362.15 40.31 360.38 40.89C362.94 42.8 365.15 44.58 367 46.24C366.84 46.91 366.27 47.24 365.29 47.24H346.37V54.4H370.79H370.78ZM339.26 22.47H329.8V28.88H339.26V22.47ZM329.8 37.22H339.26V30.56H329.8V37.22ZM356.05 22.47H346.35V28.88H356.05V22.47ZM356.05 37.22V30.56H346.35V37.22H356.05ZM346.36 38.96V45.43H356.47L360.02 41.01C358.92 41.3 357.99 41.45 357.24 41.45H356.06V38.96H346.36Z" fill="white"/>
<path d="M416.28 6.54V42.52C416.28 42.85 415.73 43.25 414.62 43.7C413.56 44.16 412.51 44.38 411.49 44.38H410.31V12.26C409.99 12.51 409.6 12.63 409.13 12.63H403.93V18.23C403.93 18.52 403.28 18.94 401.98 19.48C402.18 19.65 402.59 20 403.22 20.54C403.85 21.08 404.46 21.62 405.05 22.16C405.68 22.66 406.21 23.12 406.65 23.53C406.49 24.19 405.98 24.53 405.11 24.53H402.27C405.31 27.02 407.22 28.62 408.01 29.32C407.81 29.94 407.28 30.25 406.41 30.25H400.44L406.12 34.73C405.73 35.23 405.04 35.6 404.05 35.85V46.68C404.01 46.93 403.4 47.26 402.22 47.68C401.04 48.1 399.99 48.3 399.09 48.3H398.03V46.93H382.95V47.49C382.95 47.66 382.75 47.88 382.36 48.17C382.01 48.42 381.43 48.67 380.65 48.92C379.9 49.13 379.07 49.23 378.17 49.23H377.17V33.17H397.51L400.17 30.24H374.39L373.92 28.5H387.17V24.52H376.05L375.58 22.72H387.17V18.67H377.3L376.77 16.93H387.18V12.64H374.41L373.94 10.9H387.19V6.67H377.61L377.08 4.87H387.19V0.25L393.22 1V4.86H403.98V10.9H410.37V11.34V5.74L416.34 6.55L416.28 6.54ZM377.25 58.7L374 50.8C381.49 50.63 392.92 50.09 408.3 49.18L408.36 50.05C402.37 51.92 392.57 54.32 378.97 57.27C378.54 58.1 377.97 58.58 377.26 58.7H377.25ZM387.6 34.98H382.93V39.09H387.6V34.98ZM382.93 40.83V45.13H387.6V40.83H382.93ZM393.16 6.66V10.89H398.07V6.66H393.16ZM398.07 16.93V12.64H393.16V16.93H398.07ZM398.48 22.72L400.61 19.92C400.06 20.04 399.55 20.11 399.07 20.11H398.07V18.68H393.16V22.73H398.48V22.72ZM399.07 28.51L402.15 24.53H393.16V28.51H399.07ZM398.01 34.98H393.16V39.09H398.01V34.98ZM393.16 45.13H398.01V40.83H393.16V45.13ZM420.71 1.12L426.98 2.05V50.23C426.98 52.93 426.45 54.9 425.38 56.14C424.32 57.38 422.01 58.17 418.46 58.51C418.26 56.23 417.77 54.63 416.98 53.72C415.95 52.56 414.14 51.77 411.54 51.35V50.48C415.88 50.77 418.5 50.92 419.41 50.92C420.32 50.92 420.71 50.53 420.71 49.74V1.12Z" fill="white"/>
<path d="M487.27 52.29V54.03H441.92V56.58C441.92 56.79 441.7 57.06 441.27 57.39C440.84 57.76 440.17 58.1 439.26 58.39C438.39 58.72 437.43 58.89 436.36 58.89H435.12V5.17H484.61V6.91H441.92V52.29H487.27ZM456.23 48.18H455.28V44.82H450.85V47.75C450.85 48.08 450.3 48.48 449.19 48.93C448.13 49.35 447.04 49.55 445.94 49.55H445.17V30.75H461.02V46.56C460.98 46.81 460.39 47.14 459.25 47.56C458.11 47.97 457.1 48.18 456.23 48.18ZM450.85 43.07H455.28V32.49H450.85V43.07ZM467.29 27.08V24.03H457.95V25.96C457.95 26.33 457.32 26.79 456.06 27.33C454.8 27.83 453.56 28.08 452.34 28.08H451.45V11.7H473.92V25.39C473.88 25.64 473.19 25.99 471.85 26.45C470.55 26.87 469.41 27.07 468.42 27.07H467.3L467.29 27.08ZM457.94 22.28H467.28V13.5H457.94V22.28ZM475.57 47.93H474.57V44.82H469.66V46.75C469.66 47.08 469.13 47.5 468.06 48C467 48.46 465.91 48.68 464.81 48.68H463.98V30.75H480.42V46.25C480.38 46.5 479.77 46.85 478.59 47.31C477.45 47.73 476.44 47.93 475.57 47.93ZM469.65 43.07H474.56V32.49H469.65V43.07Z" fill="white"/>
</g>
<defs>
<clipPath id="clip0_18_4397">
<rect width="487.27" height="149.04" fill="white"/>
</clipPath>
</defs>
</svg>
