<svg width="618" height="149" viewBox="0 0 618 149" fill="none" xmlns="http://www.w3.org/2000/svg">
<g clip-path="url(#clip0_18_4372)">
<path d="M0 138.27H458.54" stroke="#493024" stroke-width="0.52" stroke-miterlimit="10"/>
<path d="M0.700195 115.57V111.48L6.3002 106.94H9.7602V141.39H6.3502V111.13L0.710195 115.57H0.700195Z" fill="#493024"/>
<path d="M17.9199 133.9V133.25H21.2399V133.6C21.2399 135.2 21.6699 136.43 22.5199 137.3C23.3699 138.17 24.5899 138.6 26.1699 138.6C29.4899 138.6 31.1499 136.44 31.1499 132.11V128.86C31.1499 126.66 30.7499 125.02 29.9399 123.94C29.1299 122.86 27.8899 122.32 26.2199 122.32C25.0499 122.32 24.0499 122.63 23.2299 123.24C22.4099 123.86 21.8199 124.71 21.4799 125.81H18.4399V106.94H34.0899V110.28H21.6199V121.26C22.1899 120.59 22.9199 120.05 23.7999 119.64C24.6799 119.22 25.6499 119.02 26.6899 119.02C29.3099 119.02 31.2899 119.85 32.6199 121.52C33.9499 123.18 34.6099 125.56 34.6099 128.66V132.4C34.6099 135.4 33.8699 137.73 32.3799 139.39C30.8899 141.05 28.8399 141.89 26.2199 141.89C23.5999 141.89 21.5999 141.17 20.1299 139.74C18.6599 138.31 17.9299 136.36 17.9299 133.9H17.9199Z" fill="#493024"/>
<path d="M45.7999 119.92V124.51H41.6299V119.92H45.7999ZM45.7999 136.79V141.38H41.6299V136.79H45.7999Z" fill="#493024"/>
<path d="M52.71 133.65V132.85H56.17V133.5C56.17 135.1 56.64 136.35 57.57 137.27C58.5 138.19 59.76 138.64 61.34 138.64C63.02 138.64 64.33 138.1 65.28 137.02C66.23 135.94 66.7 134.48 66.7 132.65V131.35C66.7 129.45 66.2 127.95 65.21 126.83C64.21 125.71 62.85 125.16 61.11 125.16H59.4V121.86H61.06C62.64 121.86 63.89 121.34 64.81 120.29C65.73 119.24 66.18 117.87 66.18 116.17V115.17C66.18 113.51 65.74 112.17 64.85 111.18C63.97 110.18 62.76 109.68 61.25 109.68C59.74 109.68 58.55 110.15 57.69 111.08C56.84 112.01 56.41 113.26 56.41 114.82V115.62H53.09V114.72C53.09 112.19 53.83 110.18 55.3 108.68C56.77 107.18 58.79 106.43 61.35 106.43C63.91 106.43 65.89 107.2 67.37 108.75C68.86 110.3 69.6 112.37 69.6 114.97V116.07C69.6 117.74 69.22 119.18 68.46 120.41C67.7 121.64 66.71 122.56 65.47 123.16C66.99 123.76 68.15 124.77 68.96 126.18C69.77 127.59 70.17 129.28 70.17 131.25V132.45C70.17 135.31 69.36 137.6 67.73 139.32C66.1 141.03 63.96 141.89 61.3 141.89C58.64 141.89 56.59 141.15 55.04 139.67C53.49 138.19 52.72 136.18 52.72 133.65H52.71Z" fill="#493024"/>
<path d="M77.6802 117.27C77.6802 110.05 80.5302 106.44 86.2202 106.44C91.9102 106.44 94.8002 110.05 94.8002 117.27V130.85C94.8002 138.21 91.9402 141.88 86.2202 141.88C80.5002 141.88 77.6802 138.2 77.6802 130.85V117.27ZM91.3302 130.15V118.17C91.3302 115.14 90.9302 112.98 90.1402 111.68C89.3502 110.38 88.0402 109.73 86.2002 109.73C84.3602 109.73 83.0602 110.38 82.2902 111.68C81.5202 112.98 81.1302 115.14 81.1302 118.17V130.15C81.1302 133.18 81.5202 135.34 82.2902 136.64C83.0602 137.94 84.3702 138.59 86.2002 138.59C88.0302 138.59 89.3502 137.94 90.1402 136.64C90.9302 135.34 91.3302 133.18 91.3302 130.15Z" fill="#493024"/>
<path d="M106.08 116.07V119.61C106.71 118.35 107.57 117.39 108.64 116.74C109.72 116.09 110.95 115.77 112.34 115.77C114.81 115.77 116.81 116.6 118.36 118.27C119.91 119.93 120.68 122.55 120.68 126.11V131.3C120.68 134.89 119.92 137.52 118.4 139.19C116.88 140.85 114.94 141.69 112.57 141.69C109.57 141.69 107.4 140.47 106.07 138.04V148.97H102.85V116.07H106.07H106.08ZM117.46 126.36C117.46 121.33 115.61 118.82 111.91 118.82C109.98 118.82 108.53 119.53 107.55 120.94C106.57 122.36 106.08 124.24 106.08 126.61V131.05C106.08 133.28 106.59 135.1 107.62 136.52C108.65 137.94 110.14 138.64 112.1 138.64C115.67 138.64 117.46 136.13 117.46 131.1V126.36Z" fill="#493024"/>
<path d="M131.42 116.07V119.17C132.12 118.07 133.02 117.23 134.15 116.65C135.27 116.07 136.53 115.78 137.92 115.78C139.56 115.78 140.97 116.15 142.14 116.88C143.31 117.61 144.21 118.66 144.84 120.03C146.42 117.2 148.86 115.79 152.14 115.79C154.7 115.79 156.69 116.58 158.12 118.16C159.54 119.74 160.25 121.95 160.25 124.78V141.41H157.03V125.28C157.03 123.18 156.55 121.59 155.58 120.49C154.62 119.39 153.26 118.84 151.53 118.84C149.8 118.84 148.38 119.4 147.38 120.51C146.38 121.62 145.89 123.16 145.89 125.13V141.41H142.62V125.28C142.62 123.18 142.14 121.59 141.17 120.49C140.21 119.39 138.85 118.84 137.12 118.84C135.39 118.84 134.05 119.4 133.02 120.51C131.99 121.63 131.48 123.21 131.48 125.28V141.41H128.26V116.1H131.44L131.42 116.07Z" fill="#493024"/>
<path d="M187.32 128.7C190.59 129.35 192.6 130.57 193.35 132.36C193.79 133.45 193.68 134.33 193.04 135.01C192.37 135.72 191.57 135.73 190.64 135.05C190.38 134.05 189.94 133.03 189.33 132C188.74 130.94 188.07 130.03 187.32 129.27V140.71C187.32 140.9 187.01 141.12 186.39 141.36C185.77 141.63 185.17 141.77 184.57 141.77H183.95V131.76C182.22 134.36 180.05 136.6 177.42 138.47L176.99 137.86C179.52 134.96 181.44 131.17 182.75 126.51H177.61L177.3 125.33H183.95V120.73L187.31 121.22V125.33H195.04V126.51H187.31V128.71L187.32 128.7ZM195.4 120.08H177.62L177.31 118.9H186.78C187.48 116.08 187.99 113.38 188.33 110.8L191.65 112.02C190.28 114.92 188.94 117.22 187.63 118.9H195.4V120.08ZM178.01 110.55L177.7 109.37H183.96V103.96L187.36 104.41V109.37H194.86V110.55H178H178.01ZM179.94 111.24L180.4 111.04C182.93 112.4 184.31 113.98 184.54 115.8C184.67 116.91 184.36 117.7 183.61 118.16C182.86 118.65 182.11 118.49 181.37 117.67C181.45 115.66 180.97 113.52 179.94 111.24ZM212.65 132.16L212.73 137.25C213.4 137.55 213.74 138.08 213.74 138.84C213.74 140.36 212.14 141.12 208.95 141.12H206.94C205.7 141.12 204.9 140.9 204.54 140.47C204.2 140.06 204.04 139.25 204.04 138.03V127.69H202.42C202.03 131.62 200.89 134.68 198.98 136.85C197.1 139.02 194.08 140.66 189.93 141.77L189.78 141.16C192.72 139.83 194.86 138.26 196.2 136.44C197.54 134.62 198.39 132.3 198.75 129.48C198.13 129.86 197.32 130.05 196.31 130.05H195.73V106.93H211.12V128.5C211.12 128.58 210.99 128.7 210.73 128.87C210.5 129.01 210.14 129.16 209.65 129.32C209.16 129.46 208.65 129.52 208.1 129.52H207.48V127.69L207.29 136.97C207.29 137.21 207.33 137.38 207.41 137.46C207.49 137.54 207.68 137.58 207.99 137.58H210.43C210.69 137.55 210.88 137.39 211.01 137.09C211.11 136.9 211.51 135.26 212.21 132.17H212.67L212.65 132.16ZM207.46 108.11H199.15V113.44H207.46V108.11ZM199.15 119.95H207.46V114.62H199.15V119.95ZM199.15 126.5H207.46V121.13H199.15V126.5Z" fill="#493024"/>
<path d="M250.83 122.07V123.25H235.06V136.56C235.06 138.19 234.67 139.39 233.9 140.18C233.13 140.99 231.5 141.51 229.03 141.73C228.82 140.35 228.39 139.41 227.72 138.92C226.87 138.24 225.34 137.74 223.12 137.41V136.8C227.06 137.07 229.41 137.21 230.16 137.21C230.57 137.21 230.84 137.14 230.97 137.01C231.13 136.87 231.2 136.63 231.2 136.28V123.26H215.62L215.27 122.08H231.2V115.12L234.41 115.45C236.63 113.66 238.83 111.45 241.02 108.82H219.56L219.21 107.64H246.04V109.43C242.48 111.98 239.04 114.03 235.72 115.58L236.38 115.66C236.3 116.23 235.86 116.6 235.07 116.76V122.09H250.84L250.83 122.07Z" fill="#493024"/>
<path d="M265.7 107.87V134.93C265.67 135.12 265.31 135.36 264.62 135.66C263.95 135.93 263.33 136.07 262.76 136.07H262.22V133.26H257.93V136.8C257.93 136.91 257.81 137.06 257.58 137.25C257.37 137.41 257.03 137.58 256.54 137.74C256.08 137.9 255.57 137.98 255.03 137.98H254.49V107.86H265.7V107.87ZM262.22 109.05H257.93V119.83H262.22V109.05ZM257.92 132.08H262.21V121.01H257.92V132.08ZM266.08 117.55H274.93V111.61H267.47L267.16 110.43H274.93V104.16L278.49 104.65V110.43H288.12V111.61H278.49V117.55H289.43V118.69H266.39L266.08 117.55ZM289.67 124.1V125.28H283.25V136.92C283.25 138.47 282.93 139.59 282.28 140.3C281.64 141.03 280.24 141.51 278.11 141.72C277.98 140.44 277.67 139.58 277.18 139.12C276.56 138.52 275.39 138.08 273.66 137.78V137.21C276.52 137.4 278.24 137.5 278.8 137.5C279.13 137.5 279.37 137.45 279.5 137.34C279.63 137.23 279.69 137.03 279.69 136.73V125.29H266.51L266.2 124.11H279.69V119.43L283.25 119.92V124.11H289.67V124.1ZM268.75 126.91L269.14 126.67C272.49 127.67 274.54 129.17 275.29 131.15C275.75 132.34 275.62 133.32 274.9 134.08C274.2 134.81 273.35 134.85 272.35 134.2C272.25 134.15 272.13 134.06 272 133.95C271.74 131.7 270.66 129.35 268.75 126.91Z" fill="#493024"/>
<path d="M326.68 129.72L326.84 136.47C327.35 136.69 327.7 136.92 327.88 137.16C328.06 137.4 328.15 137.74 328.15 138.18C328.15 138.78 327.94 139.24 327.53 139.56C327.12 139.89 326.33 140.14 325.17 140.33C324.04 140.52 322.43 140.62 320.34 140.62H316.32C314.54 140.62 313.36 140.36 312.76 139.85C312.17 139.36 311.87 138.39 311.87 136.92V121.01H307.27C307.06 123.75 306.68 126.15 306.11 128.21C305.54 130.24 304.68 132.16 303.52 133.95C302.39 135.71 300.85 137.23 298.92 138.51C297.01 139.78 294.68 140.86 291.92 141.72L291.73 141.19C293.87 140.05 295.66 138.79 297.1 137.41C298.54 136.03 299.68 134.48 300.5 132.77C301.35 131.06 301.96 129.28 302.32 127.44C302.71 125.57 302.95 123.43 303.06 121.01H292.27L291.92 119.83H307.93V103.92L311.72 104.45V119.83H327.92V121.01H315.63V135.94C315.63 136.32 315.72 136.58 315.9 136.71C316.08 136.82 316.49 136.87 317.14 136.87H320.66C322.36 136.87 323.39 136.84 323.75 136.79C324.14 136.76 324.43 136.56 324.64 136.18C324.9 135.64 325.44 133.48 326.26 129.71H326.68V129.72ZM295.44 106.73L295.86 106.44C299.7 108.2 302.12 110.4 303.13 113.03C303.77 114.63 303.75 115.93 303.05 116.94C302.41 117.81 301.58 117.97 300.58 117.43C300.35 117.3 300.12 117.13 299.88 116.94C299.7 115.34 299.18 113.62 298.33 111.77C297.48 109.9 296.51 108.22 295.43 106.72L295.44 106.73ZM320.37 106.2L323.97 108.68C321.14 112.75 318.31 115.86 315.5 118L315.08 117.59C316.91 114.36 318.67 110.56 320.38 106.2H320.37Z" fill="#493024"/>
<path d="M1.25 45.9V44.61H6.85V45.66C6.85 48.25 7.6 50.28 9.11 51.76C10.62 53.24 12.65 53.98 15.21 53.98C17.92 53.98 20.05 53.1 21.58 51.35C23.12 49.6 23.88 47.24 23.88 44.28V42.18C23.88 39.11 23.07 36.67 21.46 34.87C19.85 33.07 17.63 32.16 14.82 32.16H12.06V26.83H14.75C17.31 26.83 19.33 25.98 20.82 24.28C22.3 22.58 23.05 20.36 23.05 17.61V15.99C23.05 13.3 22.33 11.14 20.9 9.52998C19.47 7.90998 17.52 7.10998 15.07 7.10998C12.62 7.10998 10.69 7.85998 9.31 9.36998C7.93 10.88 7.24 12.9 7.24 15.43V16.72H1.86V15.27C1.86 11.18 3.05 7.91998 5.43 5.48998C7.81 3.06998 11.07 1.84998 15.22 1.84998C19.37 1.84998 22.56 3.09998 24.97 5.60998C27.38 8.10998 28.58 11.47 28.58 15.67V17.45C28.58 20.14 27.97 22.49 26.74 24.48C25.51 26.47 23.9 27.95 21.9 28.92C24.36 29.89 26.24 31.52 27.54 33.81C28.84 36.1 29.5 38.83 29.5 42.01V43.95C29.5 48.58 28.18 52.29 25.55 55.06C22.91 57.83 19.45 59.22 15.15 59.22C10.85 59.22 7.53 58.02 5.02 55.62C2.51 53.22 1.26 49.98 1.26 45.88L1.25 45.9Z" fill="white"/>
<path d="M56.64 0.440005L63.5 4.3C61.06 9.86 57.76 14.78 53.63 19.05C49.53 23.28 44.74 26.6 39.26 29.01L38.79 28.33C42.97 24.97 46.62 20.74 49.73 15.63C52.84 10.53 55.15 5.46 56.65 0.440005H56.64ZM76.09 25.46H83.6V28.45C83.21 36.42 82.59 42.56 81.77 46.87C80.94 51.14 79.72 53.97 78.1 55.34C76.09 57.12 73.29 58 69.7 57.95C69.7 55.5 69.23 53.84 68.28 52.97C67.14 51.81 64.91 50.92 61.6 50.29V49.48C66.72 49.9 69.84 50.1 70.94 50.1C71.85 50.1 72.57 49.87 73.13 49.42C74.75 47.93 75.91 40.52 76.62 27.2H65.62C65.38 29.69 65.03 31.93 64.56 33.92C64.13 35.87 63.36 38.05 62.25 40.46C61.15 42.87 59.75 45.05 58.05 47C56.39 48.95 54.13 50.94 51.25 52.98C48.41 55.01 45.08 56.84 41.26 58.46L40.67 57.59C43.59 55.68 46.11 53.65 48.24 51.49C50.41 49.29 52.08 47.24 53.27 45.33C54.45 43.42 55.4 41.33 56.11 39.04C56.86 36.72 57.33 34.73 57.53 33.07C57.77 31.41 57.94 29.46 58.06 27.22H47.36L46.83 25.48H76.1L76.09 25.46ZM71.48 0.500005L72.19 0.130005C74.04 4.65 77.1 8.60001 81.36 11.96C85.62 15.32 90.31 18.02 95.43 20.05L95.25 20.74C92.37 21.24 90.38 23.37 89.28 27.15C80.17 20.68 74.24 11.8 71.48 0.510005V0.500005Z" fill="white"/>
<path d="M157.11 55.21V56.95H122.04L121.63 55.21H136.41V48.05H125.77L125.3 46.25C120.45 49.32 114.26 52.79 106.73 56.64C106.41 57.51 105.92 58.05 105.25 58.26L101.05 50.54C103.73 50.04 106.75 49.44 110.1 48.74V29.63H102.47L102 27.89H110.1V20.23H106.32L105.91 18.74C104.17 20.57 102.46 22.08 100.77 23.28L100.12 22.78C102.17 20 104.06 16.41 105.8 12.01C107.57 7.61 108.8 3.65 109.47 0.119995L117.98 2.98C117.74 3.73 116.99 4.18 115.73 4.35C120.93 5.72 123.97 7.73 124.84 10.39C125.31 11.97 124.98 13.23 123.84 14.19C122.58 15.15 121.26 15.12 119.88 14.13C118.78 11.27 117.1 8.51 114.85 5.85C112.72 10.37 109.86 14.56 106.28 18.42H123.66V20.23H115.86V27.89H125.32V29.63H115.86V47.49C117.91 46.99 121.14 46.24 125.56 45.25L125.74 46L125.33 46.25H136.45V40.27H132.19V41.83C132.19 42 131.99 42.2 131.6 42.45C131.25 42.66 130.65 42.87 129.83 43.07C129 43.28 128.12 43.38 127.17 43.38H126.11V22.9H153.84V40.83C153.84 40.95 153.62 41.12 153.19 41.33C152.8 41.54 152.16 41.75 151.3 41.95C150.47 42.16 149.59 42.26 148.64 42.26H147.58V40.27H142.67V46.25H155.56V48.05H142.67V55.21H157.16H157.11ZM103.13 32.43L103.9 32.24C107.53 35.35 109.28 38.59 109.16 41.95C109.12 43.94 108.49 45.27 107.27 45.93C106.09 46.55 104.98 46.2 103.96 44.87C104.51 41.22 104.24 37.07 103.13 32.42V32.43ZM117.61 44.94L116.61 44.5C117.24 41.18 117.79 37.01 118.27 31.99L122.94 34.17C121.2 38.86 119.43 42.45 117.62 44.94H117.61ZM125.18 8.34L124.71 6.53H136.42V0.369995L142.69 1.12V6.54H156.05V8.35H146.29L149.66 9.77999C148.08 12.27 146.01 14.68 143.45 17H156.93V18.81H124.41L123.94 17H133.52C132.81 16.83 132.08 16.36 131.33 15.57C131.49 13.25 131.13 10.84 130.27 8.35H125.19L125.18 8.34ZM135.35 16.99H141.85C142.48 13.96 143.05 11.08 143.56 8.34H132.15C134.48 9.21 136.07 10.31 136.94 11.64C137.81 12.93 138.02 14.07 137.59 15.06C137.16 16.06 136.41 16.7 135.34 16.99H135.35ZM136.42 24.65H132.16V30.69H136.42V24.65ZM132.16 38.47H136.42V32.49H132.16V38.47ZM147.54 24.65H142.63V30.69H147.54V24.65ZM142.63 38.47H147.54V32.49H142.63V38.47Z" fill="white"/>
<path d="M230.61 38.84H208.08C210.64 41.33 214.01 43.45 218.19 45.19C222.41 46.93 226.72 48.16 231.14 48.86L231.02 49.61C229.68 49.94 228.54 50.71 227.59 51.91C226.64 53.11 225.97 54.63 225.58 56.45C216.99 53.09 210.66 47.32 206.6 39.15V56.64C206.6 56.85 206.3 57.1 205.71 57.39C205.12 57.68 204.33 57.93 203.34 58.14C202.35 58.39 201.41 58.51 200.5 58.51H199.2V44.44C193.29 49.75 185.36 53.88 175.43 56.83L175.02 56.02C179 53.99 182.69 51.46 186.08 48.43C189.47 45.36 192.27 42.16 194.48 38.84H175.91L175.38 37.04H199.21V31.56L206.6 32.43V37.04H230.61V38.84ZM224.41 8.34L229.08 12.95C227.54 15.77 225.53 18.55 223.05 21.29L223.58 21.1C227.6 23.18 229.85 25.67 230.32 28.57C230.64 30.44 230.18 31.83 228.96 32.74C227.7 33.7 226.4 33.51 225.06 32.18C224.94 31.02 224.86 29.92 224.82 28.88C221.04 30.67 218.16 31.97 216.19 32.8C215.8 33.46 215.34 33.9 214.83 34.11L211.75 27.7C213.41 27.41 214.41 27.1 214.77 26.77C216.46 24.99 218.42 21.87 220.62 17.43C219.24 18.18 217.8 18.9 216.3 19.61C215.91 20.4 215.37 20.94 214.7 21.23L211.8 14.94V29.57C211.76 29.82 211.17 30.17 210.03 30.63C208.89 31.05 207.86 31.25 206.95 31.25H206V28.82H199.73V30.38C199.73 30.71 199.22 31.11 198.19 31.56C197.16 32.02 196.12 32.24 195.06 32.24H194.23V13.69C193.84 13.77 193.44 13.75 193.05 13.63C191.71 15.66 189.72 18.17 187.08 21.16C191.26 23.19 193.58 25.66 194.06 28.57C194.38 30.44 193.92 31.83 192.7 32.74C191.48 33.7 190.22 33.53 188.91 32.24C188.83 32.16 188.73 32.05 188.62 31.93C188.7 30.93 188.68 30 188.56 29.13C184.81 30.79 181.92 32.04 179.87 32.86C179.48 33.48 179.02 33.94 178.51 34.23L175.38 27.76C177.04 27.51 178.06 27.2 178.46 26.83C180.23 25 182.28 21.83 184.61 17.31L180.35 19.55C179.92 20.51 179.35 21.11 178.64 21.35L175.45 14.56C177.11 14.23 178.13 13.9 178.52 13.56C179.43 12.48 180.37 10.55 181.36 7.77C182.38 4.95 183.11 2.42 183.55 0.179998L189.52 3.98C186.72 8.21 183.67 11.74 180.35 14.56C181.73 14.44 183.66 14.31 186.14 14.19C187.17 11.99 187.95 10.04 188.51 8.34L194.25 12.26V7.59H199.93C200.09 5.76 200.21 3.25 200.28 0.0599976L205.96 1.18C204.46 4.17 203.14 6.3 202 7.59H211.82V14.37C213.28 14.08 214.22 13.77 214.66 13.44C215.53 12.36 216.39 10.41 217.26 7.59C218.13 4.77 218.74 2.28 219.09 0.119998L225 3.92C222.12 8.4 219.19 11.95 216.19 14.56C216.82 14.52 217.83 14.46 219.21 14.37C220.63 14.29 221.61 14.23 222.17 14.18C223.27 11.65 224.02 9.7 224.42 8.33L224.41 8.34ZM188.34 27.14C187.99 25.15 187.45 23.3 186.74 21.6C184.3 24.17 182.17 26.23 180.35 27.76C181.02 27.72 182.24 27.64 184.02 27.51C185.83 27.35 187.27 27.22 188.34 27.14ZM206.02 9.4H199.75V17.18H206.02V9.4ZM199.75 27.01H206.02V18.98H199.75V27.01ZM224.52 27.08C224.24 25.21 223.71 23.33 222.92 21.42C220.95 23.66 218.88 25.74 216.71 27.64C219.39 27.47 221.99 27.29 224.52 27.08Z" fill="white"/>
<path d="M288.1 39.59L286.74 50.11C288.67 53.47 289.14 55.65 288.16 56.65C287.29 57.56 286.19 57.94 284.85 57.77C283.55 57.65 282.29 57.25 281.07 56.59C279.89 55.92 278.78 55.12 277.76 54.16C275.2 51.88 272.91 49.12 270.9 45.88C265.85 51.19 259.74 55.22 252.57 57.96L252.16 57.21C258.62 53.23 264.01 47.83 268.3 41.03C265.15 34.06 263.18 25.26 262.39 14.64H245.77V24.6H259.73V27.4C259.53 34.16 259.18 38.98 258.67 41.84C258.2 44.66 257.31 46.61 256.01 47.69C254.39 49.02 252.26 49.68 249.62 49.68C249.62 47.4 249.34 45.86 248.79 45.07C248.12 44.24 246.9 43.58 245.12 43.08V42.27C246.93 42.44 248.53 42.52 249.91 42.52C250.66 42.52 251.19 42.35 251.51 42.02C252.46 41.11 253.05 35.88 253.28 26.33H245.77C245.77 28.74 245.71 30.87 245.59 32.74C245.47 34.61 245.18 36.87 244.7 39.52C244.23 42.13 243.56 44.48 242.69 46.55C241.86 48.58 240.62 50.72 238.97 52.96C237.35 55.2 235.42 57.15 233.18 58.81L232.65 58.25C234.42 55.3 235.78 51.86 236.73 47.92C237.71 43.94 238.31 40.41 238.5 37.34C238.74 34.23 238.85 30.53 238.85 26.26V12.88H262.21C261.97 8.68999 261.86 4.44 261.86 0.119995L268.72 1.05C268.64 5.62 268.7 9.56 268.9 12.88H277.77L279.9 10.08C279.11 10.16 278.34 10 277.59 9.58C277.16 8.29 276.35 6.97 275.17 5.6C274.03 4.19 272.84 3.05 271.62 2.18L272.03 1.68C273.84 1.56 275.44 1.62 276.82 1.87C278.24 2.12 279.32 2.49 280.07 2.99C280.86 3.49 281.49 4.07 281.96 4.73C282.43 5.35 282.65 5.98 282.61 6.6C282.57 7.22 282.47 7.8 282.31 8.34C284.64 10.25 286.71 12.03 288.52 13.69C288.4 14.31 287.85 14.62 286.86 14.62H268.94C269.45 22.13 270.61 28.38 272.43 33.36C274.36 29.09 275.86 24.54 276.92 19.73L283.78 22.97C281.65 29.86 278.93 35.61 275.62 40.21C277.28 42.95 279.35 45.31 281.83 47.31C282.26 47.77 282.62 47.97 282.89 47.93C283.17 47.89 283.46 47.6 283.78 47.06C284.92 45.15 286.16 42.62 287.51 39.47L288.1 39.59Z" fill="white"/>
<path d="M300.75 26.64L301.28 25.83C308.45 27.2 313.26 29.81 315.71 33.67C316.54 34.91 316.95 36.31 316.95 37.84C316.95 39.09 316.6 40.08 315.92 40.83C315.23 41.58 314.31 41.95 313.17 41.95C311.43 41.95 310.15 41.02 309.33 39.15C309.29 39.07 309.06 38.57 308.65 37.66C308.24 36.75 307.96 36.16 307.82 35.89C307.68 35.62 307.41 35.07 306.99 34.24C306.58 33.41 306.19 32.77 305.84 32.31C305.48 31.85 305.04 31.26 304.51 30.54C303.98 29.81 303.41 29.14 302.8 28.52C302.19 27.9 301.51 27.28 300.76 26.65L300.75 26.64Z" fill="white"/>
<path d="M387.73 25.15V26.89H375.43C374.01 33.78 371.92 39.17 369.16 43.07C376.53 45.4 381.24 48.38 383.29 52.03C384.47 54.15 384.51 55.89 383.41 57.26C382.38 58.5 380.91 58.75 378.98 58.01C375.63 54.56 370.98 51.16 365.02 47.8C361.83 50.66 357.65 52.92 352.48 54.58C347.32 56.28 340.75 57.55 332.79 58.38L332.55 57.45C345.13 54.67 354.07 50.48 359.4 44.88C356.48 43.51 353.55 42.29 350.59 41.21C349.64 43.29 348.99 44.7 348.64 45.44C346.67 46.4 344.19 46.25 341.19 45C343.56 40.35 346.18 34.32 349.05 26.89H333.5L333.03 25.15H349.71C351.64 20.13 352.98 16.17 353.73 13.26L360.35 15C359.56 18.4 358.5 21.78 357.16 25.15H387.73ZM378.21 11.7H342.5C342.66 13.69 342.46 15.43 341.91 16.93C341.36 18.42 340.57 19.56 339.54 20.35C338.59 21.14 337.49 21.41 336.23 21.16C335.01 20.87 334.18 20.12 333.75 18.92C333.36 17.84 333.4 16.85 333.87 15.93C334.34 15.02 335.07 14.29 336.06 13.75C337.2 13.04 338.19 11.9 339.02 10.33C339.89 8.71 340.24 7.03 340.08 5.29H340.85C341.48 6.87 341.95 8.4 342.27 9.9H356.64V0L363.8 0.75V9.9H385.56V13.14C382.6 16.04 379.43 18.43 376.04 20.3L375.51 19.93C376.53 17.32 377.44 14.58 378.23 11.71L378.21 11.7ZM367.63 26.89H356.51C354.58 31.87 352.82 36.14 351.25 39.71C355.74 40.21 359.41 40.75 362.25 41.33C364.81 37.55 366.61 32.74 367.63 26.89Z" fill="white"/>
<path d="M425.31 7.90998V18.06H441.51V56.03C441.51 56.2 441.27 56.42 440.8 56.71C440.37 57 439.66 57.27 438.67 57.52C437.72 57.81 436.72 57.96 435.65 57.96H434.47V51.74H400.17V56.35C400.17 56.52 399.95 56.74 399.52 57.03C399.09 57.32 398.42 57.59 397.51 57.84C396.64 58.09 395.68 58.21 394.61 58.21H393.43V18.05H407.44V7.90998H390.53L390.06 6.16998H444.88V7.90998H425.31ZM434.48 19.79H425.31V31.55C425.31 31.97 425.37 32.26 425.49 32.42C425.61 32.54 425.84 32.61 426.2 32.61H427.38C428.01 32.61 428.44 32.59 428.68 32.55C429.11 32.55 429.45 32.38 429.69 32.05C430.16 31.3 430.81 29.27 431.64 25.95H432.29L432.53 32.3C433.71 32.88 434.3 33.84 434.3 35.16C434.3 36.48 433.71 37.48 432.53 38.15C431.39 38.77 429.44 39.08 426.68 39.08H423.96C421.83 39.08 420.45 38.71 419.82 37.96C419.23 37.17 418.93 35.66 418.93 33.42V19.79H413.9C413.9 22.16 413.74 24.29 413.43 26.2C413.11 28.07 412.52 30.12 411.66 32.36C410.79 34.56 409.41 36.61 407.52 38.52C405.67 40.43 403.34 42.11 400.54 43.56L400.19 43.12V49.97H434.49V19.78L434.48 19.79ZM407.45 19.79H400.18V42.76C403.06 39.73 404.97 36.35 405.92 32.61C406.91 28.88 407.42 24.6 407.46 19.79H407.45ZM413.9 18.05H418.93V7.90998H413.9V18.06V18.05Z" fill="white"/>
<path d="M451.43 34.54V15.37C450.21 16.62 448.89 17.71 447.47 18.67L446.7 18.11C450.09 13.38 452.65 7.33999 454.39 -9.76585e-06L459.53 2.85999C458.74 5.26999 457.95 7.04999 457.16 8.20999L461.71 8.57999C462.26 6.12999 462.71 3.47999 463.07 0.60999L469.1 2.47999C467.6 4.96999 465.79 6.99999 463.66 8.57999H475.13V10.32H466.5V15.36H473.54C476.3 11.04 478.31 5.91999 479.57 -0.0100098L484.77 2.72999C483.9 5.29999 483.15 7.12999 482.52 8.20999L487.13 8.57999C487.76 5.71999 488.17 3.07999 488.37 0.66999L494.76 2.53999C493.26 4.94999 491.41 6.95999 489.2 8.57999H501.91V10.32H492.51V15.36H500.73V17.1H492.51V22.33H500.79V24.07H492.51V29.42H502.68V31.1H482.69V32.35C482.69 32.56 482.51 32.81 482.16 33.1C481.8 33.39 481.23 33.66 480.45 33.91C479.66 34.16 478.79 34.28 477.85 34.28H476.79V15.25C475.49 16.41 474.23 17.41 473 18.24L472.23 17.62L472.58 17.12H466.49V22.35H474.06V24.09H466.49V29.44H475.95V31.12H457.26V32.61C457.26 32.82 457.06 33.07 456.67 33.36C456.32 33.65 455.74 33.92 454.96 34.17C454.21 34.42 453.38 34.54 452.48 34.54H451.42H451.43ZM492.7 36.35V39.65C489.82 43.01 486.37 45.92 482.35 48.36C488.3 49.73 495.18 50.52 502.99 50.73V51.54C500.07 52.45 498.28 54.78 497.61 58.51C488.46 57.22 480.97 55.09 475.14 52.1C467.3 55.46 458.15 57.56 447.7 58.39L447.41 57.58C456.24 55.59 463.95 52.85 470.53 49.36C466.11 46.33 462.67 42.6 460.18 38.16H450.01L449.48 36.36H492.71L492.7 36.35ZM461.01 10.33H457.29V15.37H461.01V10.33ZM461.01 22.35V17.12H457.29V22.35H461.01ZM461.01 29.44V24.09H457.29V29.44H461.01ZM484.6 38.16H461.66C464.81 41.61 469.39 44.36 475.38 46.44C479.2 43.91 482.28 41.15 484.6 38.16ZM486.97 10.33H482.71V15.37H486.97V10.33ZM486.97 22.35V17.12H482.71V22.35H486.97ZM486.97 29.44V24.09H482.71V29.44H486.97Z" fill="white"/>
<path d="M522.05 1.49L529.15 5.35C524.07 17.51 516.71 26.24 507.09 31.56L506.5 31C509.73 27.56 512.75 23.22 515.55 17.99C518.39 12.76 520.56 7.26 522.05 1.5V1.49ZM538.66 34.73L539.25 34.36C547.33 37.68 552.75 42 555.51 47.31C557.24 50.59 557.6 53.43 556.57 55.84C555.82 57.67 554.58 58.45 552.84 58.21C551.89 58.09 550.95 57.63 550 56.84C549.41 53.85 548.32 50.72 546.75 47.44C540.09 49.76 529.68 52.67 515.53 56.15C515.1 56.9 514.49 57.37 513.7 57.58L510.15 48C512.28 47.96 515.96 47.79 521.21 47.5C524.4 38.62 526.79 29.57 528.37 20.36L535.82 22.91C532.59 31.96 528.53 40.09 523.64 47.31C529.43 46.98 536.86 46.46 545.93 45.75C544.04 42.06 541.61 38.38 538.66 34.73ZM539.08 0.619998L539.79 0.309998C541.88 5.5 545.01 10.1 549.19 14.13C553.41 18.16 557.94 21.14 562.79 23.09L562.61 23.77C561.19 24.1 559.95 24.85 558.88 26.01C557.82 27.13 557.03 28.58 556.51 30.37C548.07 24.56 542.26 14.64 539.07 0.619998H539.08Z" fill="white"/>
<path d="M617.15 4.28998V55.52C617.07 55.85 616.4 56.31 615.14 56.89C613.88 57.47 612.69 57.76 611.59 57.76H610.58V54.4H574.04V55.89C574.04 56.39 573.47 56.95 572.33 57.57C571.19 58.23 569.96 58.57 568.66 58.57H567.54V4.28998H617.15ZM574.05 52.6H610.59V6.09998H574.05V52.6ZM609.64 19.11V20.85H575.7L575.23 19.11H589.01V14.57H578.37L577.9 12.89H589.02V7.34998L595.23 8.09998V12.89H607.41V14.57H595.23V19.11H609.66H609.64ZM604.79 27.01V33.36L608.99 36.97C608.67 37.47 608 37.55 606.98 37.22C606.82 37.3 605.13 38.11 601.89 39.65C603.94 40.4 605.52 41.41 606.62 42.7C607.53 43.74 607.84 44.84 607.57 46C607.33 47.16 606.76 47.83 605.86 47.99C604.95 48.11 603.99 47.66 602.96 46.62C602.25 45.33 601.19 43.99 599.77 42.58C598.35 41.13 596.83 39.95 595.22 39.03V49.24C595.22 49.41 595.02 49.61 594.63 49.86C594.28 50.11 593.68 50.36 592.86 50.61C592.04 50.86 591.12 50.98 590.14 50.98H589.08V40.34C585.61 43.45 581.35 46.03 576.31 48.06L575.78 47.19C580.55 43.91 584.41 39.51 587.37 33.99H585.3C585.3 34.32 585.06 34.63 584.59 34.92C584.12 35.17 583.49 35.42 582.7 35.67C581.91 35.88 581.16 35.98 580.45 35.98H579.68V24.65H604.81V27.02L604.79 27.01ZM585.28 32.24H599.06V26.45H585.28V32.24ZM595.22 33.99V38.16C596.84 38.33 598.57 38.66 600.42 39.16C601.29 37.83 602.12 36.4 602.9 34.86C601.76 35.23 600.79 35.42 600 35.42H599.05V33.99H595.21H595.22Z" fill="white"/>
</g>
<defs>
<clipPath id="clip0_18_4372">
<rect width="617.15" height="148.98" fill="white"/>
</clipPath>
</defs>
</svg>
