<svg width="439" height="179" viewBox="0 0 439 179" fill="none" xmlns="http://www.w3.org/2000/svg">
<path d="M62.4999 174.44C61.7399 173.01 61.3599 171.36 61.3599 169.5V168.25C61.3599 166.45 61.7599 164.85 62.5699 163.43C63.3799 162.02 64.4899 160.96 65.9099 160.26C64.7099 159.63 63.7599 158.7 63.0599 157.49C62.3599 156.28 62.0199 154.84 62.0199 153.17V152.17C62.0199 150.54 62.3699 149.07 63.0599 147.75C63.7599 146.44 64.7399 145.4 65.9999 144.63C67.2599 143.86 68.7199 143.48 70.3599 143.48C71.9999 143.48 73.5099 143.86 74.7899 144.63C76.0699 145.4 77.0499 146.44 77.7299 147.75C78.4099 149.06 78.7499 150.54 78.7499 152.17V153.17C78.7499 154.83 78.3899 156.27 77.6799 157.49C76.9699 158.7 76.0099 159.63 74.8099 160.26C76.2599 160.99 77.3899 162.07 78.1799 163.48C78.9699 164.89 79.3699 166.47 79.3699 168.2V169.45C79.3699 171.35 78.9799 173.01 78.2099 174.44C77.4399 175.87 76.3699 176.98 75.0099 177.76C73.6499 178.54 72.0899 178.93 70.3099 178.93C68.5299 178.93 67.0199 178.54 65.6599 177.76C64.2999 176.98 63.2399 175.87 62.4799 174.44H62.4999ZM75.9199 169.45V168.2C75.9199 166.34 75.4199 164.83 74.4299 163.68C73.4299 162.53 72.0799 161.96 70.3799 161.96C68.6799 161.96 67.3599 162.54 66.3499 163.71C65.3399 164.88 64.8299 166.37 64.8299 168.2V169.45C64.8299 171.28 65.3399 172.78 66.3499 173.94C67.3599 175.1 68.7099 175.69 70.3799 175.69C72.0499 175.69 73.3999 175.12 74.4099 173.97C75.4199 172.82 75.9299 171.32 75.9299 169.45H75.9199ZM75.2999 153.18V152.13C75.2999 150.57 74.8399 149.28 73.9299 148.26C73.0099 147.24 71.8299 146.74 70.3699 146.74C68.9099 146.74 67.7399 147.25 66.8399 148.26C65.9399 149.28 65.4899 150.57 65.4899 152.13V153.18C65.4899 154.81 65.9299 156.14 66.8199 157.17C67.6999 158.2 68.8899 158.72 70.3799 158.72C71.8699 158.72 73.0599 158.2 73.9599 157.17C74.8599 156.14 75.3099 154.81 75.3099 153.18H75.2999Z" fill="#493024"/>
<path d="M90.4801 156.97V161.56H86.3101V156.97H90.4801ZM90.4801 173.85V178.44H86.3101V173.85H90.4801Z" fill="#493024"/>
<path d="M97.3901 170.7V169.9H100.85V170.55C100.85 172.15 101.32 173.4 102.25 174.32C103.18 175.24 104.44 175.69 106.02 175.69C107.7 175.69 109.01 175.15 109.96 174.07C110.91 172.99 111.38 171.53 111.38 169.7V168.4C111.38 166.5 110.88 165 109.89 163.88C108.89 162.77 107.53 162.21 105.79 162.21H104.08V158.91H105.74C107.32 158.91 108.57 158.39 109.49 157.34C110.41 156.29 110.86 154.92 110.86 153.22V152.22C110.86 150.56 110.42 149.22 109.53 148.23C108.65 147.23 107.44 146.73 105.93 146.73C104.42 146.73 103.23 147.2 102.37 148.13C101.52 149.06 101.09 150.31 101.09 151.87V152.67H97.7701V151.77C97.7701 149.24 98.5101 147.23 99.9801 145.73C101.45 144.23 103.47 143.48 106.03 143.48C108.59 143.48 110.57 144.25 112.05 145.8C113.54 147.35 114.28 149.42 114.28 152.02V153.12C114.28 154.78 113.9 156.23 113.14 157.46C112.38 158.69 111.39 159.61 110.15 160.21C111.67 160.81 112.83 161.82 113.64 163.23C114.45 164.64 114.85 166.33 114.85 168.3V169.5C114.85 172.36 114.04 174.65 112.41 176.37C110.78 178.08 108.64 178.94 105.98 178.94C103.32 178.94 101.27 178.2 99.7201 176.72C98.1701 175.24 97.4001 173.23 97.4001 170.7H97.3901Z" fill="#493024"/>
<path d="M122.35 154.32C122.35 147.1 125.2 143.49 130.89 143.49C136.58 143.49 139.47 147.1 139.47 154.32V167.9C139.47 175.26 136.61 178.93 130.89 178.93C125.17 178.93 122.35 175.25 122.35 167.9V154.32ZM136.01 167.2V155.22C136.01 152.19 135.61 150.03 134.82 148.73C134.03 147.43 132.72 146.78 130.88 146.78C129.04 146.78 127.74 147.43 126.97 148.73C126.2 150.03 125.81 152.19 125.81 155.22V167.2C125.81 170.23 126.2 172.39 126.97 173.69C127.74 174.99 129.05 175.64 130.88 175.64C132.71 175.64 134.03 174.99 134.82 173.69C135.61 172.39 136.01 170.23 136.01 167.2Z" fill="#493024"/>
<path d="M164.13 161.21V178.43H160.95V175.73C160.22 176.76 159.32 177.52 158.25 178C157.17 178.48 155.86 178.72 154.31 178.72C151.78 178.72 149.82 178.09 148.43 176.82C147.04 175.56 146.34 173.71 146.34 171.28C146.34 169.02 147.04 167.24 148.45 165.96C149.86 164.68 151.84 164.04 154.4 164.04H160.9V161.14C160.9 159.31 160.43 157.93 159.48 157C158.53 156.07 157.19 155.6 155.45 155.6C153.81 155.6 152.52 155.99 151.59 156.77C150.66 157.55 150.19 158.63 150.19 159.99V160.14H147.06V159.89C147.06 157.73 147.8 156 149.29 154.7C150.78 153.4 152.82 152.75 155.41 152.75C158.22 152.75 160.38 153.47 161.88 154.9C163.38 156.33 164.13 158.43 164.13 161.19V161.21ZM160.91 169.85V166.55H154.89C151.35 166.55 149.58 168.11 149.58 171.24C149.58 174.37 151.33 175.98 154.84 175.98C156.96 175.98 158.5 175.47 159.46 174.46C160.42 173.44 160.91 171.91 160.91 169.84V169.85Z" fill="#493024"/>
<path d="M175.43 153.13V156.23C176.13 155.13 177.03 154.29 178.16 153.71C179.28 153.13 180.54 152.84 181.93 152.84C183.57 152.84 184.98 153.21 186.15 153.94C187.32 154.67 188.22 155.72 188.85 157.09C190.43 154.26 192.87 152.85 196.15 152.85C198.71 152.85 200.7 153.64 202.13 155.22C203.55 156.8 204.26 159.01 204.26 161.84V178.47H201.04V162.34C201.04 160.24 200.56 158.65 199.59 157.55C198.63 156.45 197.27 155.9 195.54 155.9C193.81 155.9 192.39 156.46 191.39 157.57C190.39 158.69 189.9 160.22 189.9 162.19V178.47H186.63V162.34C186.63 160.24 186.15 158.65 185.18 157.55C184.22 156.45 182.86 155.9 181.13 155.9C179.4 155.9 178.06 156.46 177.03 157.57C176 158.69 175.49 160.27 175.49 162.34V178.47H172.27V153.16H175.45L175.43 153.13Z" fill="#493024"/>
<path d="M225.42 148.87H226.08C226.75 151.12 227.06 153.02 227.01 154.57C226.96 156.12 226.66 157.34 226.12 158.23C225.76 158.8 225.27 159.15 224.65 159.29C224.03 159.4 223.54 159.21 223.18 158.72C222.92 158.29 222.86 157.82 222.99 157.34C223.12 156.85 223.39 156.42 223.8 156.04C224.29 155.36 224.7 154.32 225.04 152.91C225.4 151.5 225.53 150.16 225.43 148.88L225.42 148.87ZM228.16 140.97L231.52 141.5V177.64C231.52 177.88 231.22 178.13 230.63 178.37C230.04 178.64 229.43 178.78 228.81 178.78H228.15V140.97H228.16ZM231.64 148.05L232.14 147.85C234.46 149.34 235.7 150.98 235.85 152.77C235.93 153.86 235.62 154.59 234.92 154.97C234.3 155.3 233.7 155.13 233.1 154.48C233.18 152.36 232.69 150.22 231.63 148.05H231.64ZM259.13 168.93L259.09 169.42C258.32 169.61 257.71 169.95 257.27 170.44C256.83 170.9 256.54 171.58 256.38 172.47C258.21 173.96 259.41 174.98 259.98 175.52C259.88 175.95 259.52 176.17 258.9 176.17H239.34V177.07C239.34 177.18 239.22 177.31 238.99 177.48C238.78 177.67 238.45 177.85 237.99 178.01C237.55 178.17 237.06 178.25 236.52 178.25H235.98V143.86H259.37V145.04H239.34V163.56C241.09 160.74 242.07 157.18 242.28 152.9L244.95 153.84C244.72 155.47 244.42 156.78 244.06 157.79C245.32 158.31 246.19 158.97 246.65 159.78C246.78 158.67 246.84 157.31 246.84 155.71V151.8H240.15L239.84 150.62H246.84V145.66L249.97 146.15V150.63H258.79V151.81H249.97V152.38C250.18 155.83 250.56 158.5 251.13 160.4C252.06 158.2 252.62 155.71 252.83 152.91L255.5 154.01C255.16 155.58 254.82 156.76 254.46 157.55C256.78 158.34 258.12 159.41 258.48 160.77C258.71 161.64 258.51 162.26 257.86 162.64C257.34 162.94 256.78 162.87 256.16 162.44C255.77 161.27 255.03 159.99 253.92 158.57C253.17 159.85 252.37 160.84 251.52 161.54C252.19 163.3 253.13 164.8 254.34 166.02C255.58 167.21 257.17 168.19 259.13 168.95V168.93ZM239.34 174.99H253.95L256 172.3C254.12 171.19 252.7 169.57 251.75 167.46C250.8 165.32 250.13 162.58 249.74 159.24C248.94 165.78 245.63 170.36 239.8 172.99L239.37 172.5C243.03 170.06 245.34 166.55 246.29 161.96C245.67 162.37 245.05 162.27 244.43 161.67C244.4 160.86 244.13 159.95 243.62 158.94C242.67 161.08 241.42 162.78 239.87 164.03L239.33 163.66V174.97L239.34 174.99Z" fill="#493024"/>
<path d="M299.5 151.27V152.45H264.67L264.36 151.27H275.65C275.39 151.11 275.21 150.97 275.11 150.86C275.14 149.26 274.65 147.66 273.64 146.06H266.84L266.49 144.88H279.98V140.89L283.61 141.38V144.88H297.68V146.06H287.36L289.91 147.08C289.06 148.54 287.82 149.94 286.2 151.27H299.5ZM269.73 168.36H270.31C270.9 170.53 270.9 172.38 270.31 173.89C269.72 175.38 268.84 176.37 267.68 176.86C267.04 177.19 266.38 177.25 265.71 177.06C265.07 176.87 264.65 176.46 264.47 175.84C264.19 174.67 264.69 173.81 265.98 173.24C266.96 172.89 267.82 172.28 268.57 171.41C269.32 170.54 269.7 169.52 269.73 168.36ZM274.1 165.47V166.37C274.1 166.48 273.95 166.63 273.64 166.82C273.36 166.98 272.96 167.15 272.44 167.31C271.95 167.45 271.47 167.51 271.01 167.51H270.55V155.22H293.17V166.09C293.14 166.25 292.77 166.47 292.05 166.74C291.35 167.01 290.72 167.15 290.16 167.15H289.54V165.48H274.11L274.1 165.47ZM290.34 170.23L290.46 174.38C291.41 174.68 291.89 175.18 291.89 175.89C291.89 176.76 291.3 177.34 290.11 177.64C288.95 177.97 286.62 178.13 283.11 178.13H278.24C276.33 178.13 275.08 177.91 274.49 177.48C273.92 177.07 273.64 176.2 273.64 174.88V167.84L277.2 168.29V174.15C277.2 174.45 277.29 174.64 277.47 174.72C277.65 174.77 278.11 174.8 278.86 174.8H283.46C285.75 174.8 287.08 174.79 287.44 174.76C287.93 174.73 288.27 174.57 288.44 174.27C288.83 173.65 289.3 172.3 289.87 170.24H290.33L290.34 170.23ZM289.53 156.4H274.1V159.7H289.53V156.4ZM274.1 164.29H289.53V160.83H274.1V164.29ZM286.05 146.06H275.07C276.38 146.52 277.34 147.12 277.93 147.85C278.55 148.58 278.81 149.26 278.7 149.88C278.6 150.48 278.3 150.94 277.81 151.26H284.92C285.33 149.77 285.71 148.03 286.04 146.05L286.05 146.06ZM278.51 167.14L278.82 166.81C282.27 166.86 284.53 167.73 285.59 169.41C286.23 170.39 286.29 171.27 285.74 172.06C285.17 172.85 284.36 173.01 283.3 172.55C282.91 171.65 282.24 170.69 281.29 169.66C280.36 168.63 279.43 167.79 278.51 167.14ZM290.61 168.52L290.96 168.19C294.95 169.09 297.54 170.66 298.73 172.91C299.43 174.21 299.45 175.31 298.81 176.21C298.24 177.05 297.46 177.21 296.45 176.7C296.32 176.65 296.2 176.58 296.1 176.5C295.77 175.17 295.07 173.79 294.01 172.35C292.95 170.88 291.82 169.61 290.61 168.52Z" fill="#493024"/>
<path d="M320.93 156.48L321.08 157.01C317.06 159.34 314.79 160.66 314.28 160.96V173.58C314.28 175.21 313.95 176.42 313.28 177.2C312.64 178.01 311.26 178.53 309.14 178.75C309.01 177.31 308.7 176.32 308.21 175.78C307.59 175.1 306.42 174.61 304.69 174.31V173.7C307.5 173.89 309.2 173.99 309.79 173.99C310.38 173.99 310.68 173.72 310.68 173.18V162.97L306.12 165.37C305.94 165.94 305.64 166.31 305.23 166.47L303.57 161.83C305.01 161.5 307.38 160.83 310.68 159.79V151.65H304.57L304.26 150.47H310.68V140.99L314.27 141.52V150.47H320.92V151.65H314.27V158.65C314.79 158.49 317 157.77 320.92 156.49L320.93 156.48ZM340.45 145.9V147.08H332.99V173.08C332.99 174.71 332.6 175.96 331.83 176.82C331.06 177.69 329.5 178.22 327.15 178.41C327.07 177.05 326.67 176.08 325.95 175.48C325.07 174.83 323.57 174.34 321.43 174.02V173.41C325.19 173.68 327.45 173.82 328.2 173.82C328.87 173.82 329.21 173.52 329.21 172.92V147.08H318L317.69 145.9H340.46H340.45Z" fill="#493024"/>
<path d="M377.08 156.72V157.9H361.27C361.14 158.5 360.66 158.85 359.84 158.96V161.77C365.66 161.88 369.59 163.02 371.63 165.19C372.61 166.25 372.89 167.25 372.48 168.2C372.12 168.99 371.48 169.3 370.55 169.14C370.37 169.11 370.19 169.06 370.01 168.98C369.13 167.98 367.77 166.86 365.91 165.64C364.08 164.42 362.06 163.37 359.84 162.51V177.73C359.84 177.92 359.49 178.14 358.8 178.38C358.13 178.65 357.43 178.79 356.71 178.79H356.01V157.91H341.24L340.89 156.73H356.01V140.98L359.84 141.47V148.51H372.48V149.65H359.84V156.73H377.08V156.72Z" fill="#493024"/>
<path d="M0 59.3699V52.7399L9.06 45.3899H14.66V101.15H9.13V52.1799L0 59.3699Z" fill="white"/>
<path d="M27.5498 62.1201C27.5498 50.4301 32.1598 44.5801 41.3698 44.5801C50.5798 44.5801 55.2598 50.4201 55.2598 62.1201V84.1001C55.2598 96.0101 50.6298 101.96 41.3698 101.96C32.1098 101.96 27.5498 96.0101 27.5498 84.1001V62.1201ZM49.6598 82.9701V63.5801C49.6598 58.6801 49.0198 55.1801 47.7398 53.0801C46.4598 50.9801 44.3398 49.9301 41.3698 49.9301C38.3998 49.9301 36.2898 50.9801 35.0398 53.0801C33.7898 55.1801 33.1598 58.6801 33.1598 63.5801V82.9701C33.1598 87.8701 33.7898 91.3701 35.0398 93.4801C36.2898 95.5801 38.3998 96.6301 41.3698 96.6301C44.3398 96.6301 46.4598 95.5801 47.7398 93.4801C49.0198 91.3801 49.6598 87.8801 49.6598 82.9701Z" fill="white"/>
<path d="M83.12 43.1601L89.98 47.0201C87.54 52.5801 84.24 57.5001 80.11 61.7701C76.01 66.0001 71.22 69.3201 65.74 71.7301L65.27 71.0501C69.45 67.6901 73.1 63.4601 76.21 58.3501C79.32 53.2501 81.63 48.1801 83.13 43.1601H83.12ZM102.58 68.1801H110.09V71.1701C109.7 79.1401 109.08 85.2801 108.26 89.5901C107.43 93.8601 106.21 96.6901 104.59 98.0601C102.58 99.8401 99.78 100.72 96.19 100.67C96.19 98.2201 95.72 96.5601 94.77 95.6901C93.63 94.5301 91.4 93.6401 88.09 93.0101V92.2001C93.21 92.6201 96.33 92.8201 97.43 92.8201C98.34 92.8201 99.06 92.5901 99.62 92.1401C101.24 90.6501 102.4 83.2401 103.11 69.9201H92.11C91.87 72.4101 91.52 74.6501 91.05 76.6401C90.62 78.5901 89.85 80.7701 88.74 83.1801C87.64 85.5901 86.24 87.7701 84.54 89.7201C82.88 91.6701 80.62 93.6601 77.74 95.7001C74.9 97.7301 71.57 99.5601 67.75 101.18L67.16 100.31C70.08 98.4001 72.6 96.3701 74.73 94.2101C76.9 92.0101 78.57 89.9601 79.76 88.0501C80.94 86.1401 81.89 84.0501 82.6 81.7601C83.35 79.4401 83.82 77.4501 84.02 75.7901C84.26 74.1301 84.43 72.1801 84.55 69.9401H73.85L73.32 68.2001H102.59L102.58 68.1801ZM97.96 43.2201L98.67 42.8501C100.52 47.3701 103.58 51.3201 107.84 54.6801C112.1 58.0401 116.79 60.7401 121.91 62.7701L121.73 63.4601C118.85 63.9601 116.86 66.0901 115.76 69.8701C106.65 63.4001 100.72 54.5201 97.96 43.2301V43.2201Z" fill="white"/>
<path d="M183.6 97.9301V99.6701H148.53L148.12 97.9301H162.9V90.7701H152.26L151.79 88.9701C146.94 92.0401 140.75 95.5101 133.22 99.3601C132.9 100.23 132.41 100.77 131.74 100.98L127.54 93.2601C130.22 92.7601 133.24 92.1601 136.59 91.4601V72.3501H128.96L128.49 70.6101H136.59V62.9501H132.81L132.4 61.4601C130.66 63.2901 128.95 64.8001 127.26 66.0001L126.61 65.5001C128.66 62.7201 130.55 59.1301 132.29 54.7301C134.06 50.3301 135.29 46.3701 135.96 42.8401L144.47 45.7001C144.23 46.4501 143.48 46.9001 142.22 47.0701C147.42 48.4401 150.46 50.4501 151.33 53.1101C151.8 54.6901 151.47 55.9501 150.33 56.9101C149.07 57.8701 147.75 57.8401 146.37 56.8501C145.27 53.9901 143.59 51.2301 141.34 48.5701C139.21 53.0901 136.35 57.2801 132.77 61.1401H150.15V62.9501H142.35V70.6101H151.81V72.3501H142.35V90.2101C144.4 89.7101 147.63 88.9601 152.05 87.9701L152.23 88.7201L151.82 88.9701H162.94V82.9901H158.68V84.5501C158.68 84.7201 158.48 84.9201 158.09 85.1701C157.74 85.3801 157.14 85.5801 156.32 85.7901C155.49 86.0001 154.61 86.1001 153.66 86.1001H152.6V65.6201H180.33V83.5501C180.33 83.6701 180.11 83.8401 179.68 84.0501C179.29 84.2601 178.65 84.4701 177.79 84.6701C176.96 84.8801 176.08 84.9801 175.13 84.9801H174.07V82.9901H169.16V88.9701H182.05V90.7701H169.16V97.9301H183.65H183.6ZM129.61 75.1501L130.38 74.9601C134.01 78.0701 135.76 81.3101 135.64 84.6701C135.6 86.6601 134.97 87.9901 133.75 88.6501C132.57 89.2701 131.46 88.9201 130.44 87.5901C130.99 83.9401 130.72 79.7901 129.61 75.1401V75.1501ZM144.1 87.6601L143.1 87.2201C143.73 83.9001 144.28 79.7301 144.76 74.7101L149.43 76.8901C147.69 81.5801 145.92 85.1701 144.11 87.6601H144.1ZM151.67 51.0601L151.2 49.2501H162.91V43.0901L169.18 43.8401V49.2501H182.54V51.0601H172.78L176.15 52.4901C174.57 54.9801 172.5 57.3901 169.94 59.7101H183.42V61.5201H150.9L150.43 59.7101H160.01C159.3 59.5401 158.57 59.0701 157.82 58.2801C157.98 55.9601 157.62 53.5501 156.76 51.0601H151.68H151.67ZM161.84 59.7101H168.34C168.97 56.6801 169.54 53.8001 170.05 51.0601H158.64C160.97 51.9301 162.56 53.0301 163.43 54.3601C164.3 55.6501 164.51 56.7901 164.08 57.7801C163.65 58.7801 162.9 59.4201 161.83 59.7101H161.84ZM162.9 67.3701H158.64V73.4101H162.9V67.3701ZM158.64 81.1901H162.9V75.2101H158.64V81.1901ZM174.02 67.3701H169.11V73.4101H174.02V67.3701ZM169.11 81.1901H174.02V75.2101H169.11V81.1901Z" fill="white"/>
<path d="M218.66 61.33V44.71L225.4 45.64V98.86C225.4 99.23 224.79 99.69 223.57 100.23C222.35 100.77 221.15 101.04 219.96 101.04H218.66V82.68C215.43 85.58 211.54 88.74 207.01 92.14C206.81 93.1 206.32 93.68 205.53 93.88L201.57 84.92C204.72 84.17 210.42 82.49 218.66 79.88V63.14H204.05L203.52 61.33H218.66ZM254.91 82.25L255.15 91.34C256.81 92.13 257.63 93.17 257.63 94.45C257.63 96.11 256.74 97.27 254.97 97.94C253.23 98.65 250.08 99 245.51 99H240.13C237.17 99 235.16 98.52 234.1 97.57C233.04 96.61 232.5 94.79 232.5 92.09V44.78L239.36 45.78V68.81C243.11 64.29 246.38 59.45 249.18 54.31L255.03 60.04C251.09 64.15 245.87 67.82 239.36 71.06V89.98C239.36 90.73 239.52 91.25 239.83 91.54C240.18 91.83 240.83 91.98 241.78 91.98H246.16C247.7 91.98 248.98 91.94 250 91.86C250.67 91.78 251.2 91.49 251.6 90.99C252.03 90.16 252.94 87.25 254.32 82.28H254.91V82.25Z" fill="white"/>
<path d="M292.55 53.5499V56.7199C291.76 61.7399 290.74 66.2599 289.48 70.2899C288.26 74.2699 286.52 78.2799 284.28 82.2999C282.03 86.3299 279.08 89.9399 275.41 93.1299C271.74 96.3299 267.39 98.9999 262.34 101.16L261.81 100.54C270.32 94.6899 276.61 86.2199 280.67 75.1399C280.04 75.8899 279.25 76.2799 278.3 76.3199C277.39 76.3599 276.41 75.9699 275.34 75.1399C275.02 72.6099 273.96 69.8499 272.15 66.8599C269.35 71.1799 266.08 74.8299 262.33 77.8099L261.62 77.3099C264.38 73.0399 266.8 67.8699 268.89 61.8099C271.02 55.7499 272.52 49.4399 273.38 42.8899L280.71 45.3799C280.08 48.5799 279.37 51.2899 278.58 53.5299H292.53L292.55 53.5499ZM285.28 55.2899H277.95C276.65 58.6099 275.19 61.6999 273.58 64.5599C276.3 65.5199 278.31 66.7199 279.61 68.1699C280.91 69.6199 281.56 71.0699 281.56 72.5299C283.22 67.4299 284.46 61.6799 285.29 55.2899H285.28ZM305.21 44.7099V72.2799C309.27 74.9799 313.82 76.9099 318.87 78.0699L318.75 78.7499C317.37 79.1199 316.17 79.9099 315.14 81.1199C314.15 82.3199 313.46 83.8399 313.07 85.6599C310.15 84.3699 307.53 82.7599 305.2 80.7999V98.9099C305.2 99.2799 304.57 99.7399 303.31 100.28C302.05 100.82 300.79 101.09 299.52 101.09H298.1V72.3999C295.89 68.5799 294.16 64.1399 292.9 59.0799L293.61 58.7699C294.71 61.3399 296.21 63.7499 298.1 65.9899V43.7099L305.2 44.7099H305.21Z" fill="white"/>
<path d="M340.57 81.12L340.81 81.8C336.39 85.7 331.17 89.83 325.14 94.19C324.94 95.1 324.47 95.73 323.72 96.06L320.35 87.97C321.41 87.68 323.74 86.95 327.33 85.79V68.92H321.89L321.42 67.12H327.33V51.68H321.42L320.95 49.88H340.94V46.27H372.99V57.91C372.99 58.16 372.4 58.51 371.22 58.97C373.15 60.55 374.91 62.06 376.48 63.51C376.32 64.17 375.79 64.51 374.88 64.51H339.7L339.23 62.71H367.02L369.44 59.54C368.85 59.66 368.28 59.73 367.73 59.73H366.67V58.49H347.1V59.36C347.1 59.57 346.82 59.84 346.27 60.17C345.76 60.46 345.07 60.73 344.2 60.98C343.37 61.23 342.56 61.35 341.78 61.35H340.95V51.58C340.71 51.66 340.48 51.7 340.24 51.7H334.03V66.45H339.77V68.94H334.03V83.51C336.24 82.72 338.43 81.93 340.59 81.14L340.57 81.12ZM370.43 80.25L375.87 84.61C375.55 85.11 374.88 85.21 373.86 84.92C370.9 86.17 368.38 87.12 366.29 87.78C369.44 90.44 373.05 92.3 377.11 93.38L377.05 94.07C374.53 94.73 372.93 96.79 372.26 100.23C365.83 96.45 361.44 90.15 359.07 81.31C358.52 81.97 358.07 82.49 357.71 82.87V99.43C357.67 99.59 357.45 99.8 357.06 100.05C356.67 100.3 356.02 100.53 355.11 100.74C354.2 100.99 353.24 101.11 352.21 101.11H351.03V88.66C346.1 92.02 340.13 94.82 333.11 97.06L332.64 96.19C340.76 92.08 347.17 86.58 351.86 79.69H348.84V80.31C348.84 80.52 348.56 80.77 348.01 81.06C347.5 81.35 346.79 81.62 345.88 81.87C345.01 82.12 344.18 82.24 343.4 82.24H342.51V68.86H371.43V79.44C371.43 79.65 371.1 79.92 370.43 80.25ZM350.5 48.07H347.07V56.78H350.5V48.07ZM348.85 77.95H364.76V70.67H348.85V77.95ZM358.48 48.07H355.11V56.78H358.48V48.07ZM360.26 79.69L359.96 80.19C361.1 82.43 362.66 84.48 364.63 86.35C365.58 85.15 366.82 83.38 368.35 81.06C367.25 81.31 366.44 81.43 365.93 81.43H364.75V79.69H360.26ZM366.64 48.07H363.09V56.78H366.64V48.07Z" fill="white"/>
<path d="M397.2 72.6601V88.1601C399.17 90.2801 401.38 91.6301 403.82 92.2101C406.26 92.7901 410.3 93.0801 415.94 93.0801C426.27 93.0801 433.84 93.0001 438.65 92.8301V93.5801C435.97 94.2901 434.45 96.3401 434.1 99.7401H416.01C410.29 99.7401 406.1 99.0301 403.41 97.6201C400.73 96.2501 398.42 93.4301 396.49 89.1501C393.77 92.8901 390.81 96.3901 387.62 99.6701C387.62 100.38 387.3 100.89 386.67 101.23L382.89 93.0801C385.18 92.2901 387.78 91.2701 390.7 90.0301V71.7901H383.37L383.02 69.9901H397.21V72.6701L397.2 72.6601ZM385.08 45.1501L385.55 44.7801C391.34 45.8601 395.03 48.0001 396.61 51.1901C397.59 53.1801 397.54 54.9201 396.43 56.4201C395.4 57.8301 394.02 58.2301 392.29 57.6001C391.78 57.4401 391.28 57.1601 390.81 56.7901C390.18 52.8901 388.27 49.0101 385.07 45.1501H385.08ZM413.7 55.2901H399.45L398.98 53.4801H420.21C421 50.0401 421.65 46.4101 422.16 42.5901L429.67 44.7101C427.66 47.9101 425.08 50.8301 421.92 53.4901H438.65V55.3001H420.97C419.39 57.6701 417.99 59.5701 416.77 61.0301H432.14V88.6001C432.1 88.8901 431.39 89.2801 430.01 89.7801C428.67 90.2801 427.47 90.5301 426.4 90.5301H425.28V86.4201H410.62V88.6001C410.62 89.0101 409.99 89.5101 408.73 90.0901C407.51 90.6301 406.23 90.9001 404.89 90.9001H403.89V61.0201H413.41C413.57 58.8601 413.67 56.9501 413.71 55.2901H413.7ZM405.54 43.1601L406.07 42.7901C410.88 43.6601 413.78 45.3801 414.76 47.9601C415.39 49.5801 415.11 50.9701 413.93 52.1301C412.71 53.3801 411.29 53.5601 409.67 52.6901C409.31 52.5201 408.98 52.3001 408.66 52.0101C408.54 48.9801 407.5 46.0301 405.53 43.1701L405.54 43.1601ZM425.29 62.7601H410.63V68.8001H425.29V62.7601ZM410.62 70.5401V76.5801H425.28V70.5401H410.62ZM410.62 84.6701H425.28V78.3201H410.62V84.6701Z" fill="white"/>
<g style="mix-blend-mode:multiply">
<path d="M83.2401 7.02995H89.8101V8.48995H83.2401V15.5H81.6201V0.199951H90.9201V1.65995H83.2401V7.02995Z" fill="#C8C9CA"/>
<path d="M94.2603 9.83V5.86C94.2603 3.83 94.7402 2.35 95.7002 1.41C96.6602 0.47 97.9603 0 99.5803 0C101.2 0 102.48 0.47 103.43 1.41C104.38 2.35 104.86 3.83 104.86 5.86V9.83C104.86 11.86 104.38 13.34 103.42 14.28C102.46 15.22 101.17 15.69 99.5602 15.69C97.9502 15.69 96.6403 15.22 95.6903 14.28C94.7403 13.34 94.2603 11.86 94.2603 9.83ZM103.25 5.92C103.25 2.95 102.03 1.46 99.5902 1.46C98.3602 1.46 97.4403 1.81 96.8203 2.51C96.2003 3.21 95.8903 4.35 95.8903 5.92V9.91C95.8903 11.4 96.2003 12.49 96.8303 13.17C97.4603 13.85 98.3802 14.19 99.5902 14.19C102.03 14.19 103.25 12.76 103.25 9.91V5.92Z" fill="#C8C9CA"/>
<path d="M110.72 8.78995V15.51H109.1V0.199951H114.78C116.22 0.199951 117.34 0.569951 118.16 1.31995C118.98 2.06995 119.39 3.12995 119.39 4.49995C119.39 5.58995 119.1 6.49995 118.52 7.20995C117.94 7.91995 117.14 8.38995 116.1 8.62995L119.72 15.51H117.86L114.4 8.78995H110.72ZM114.65 7.38995C115.64 7.38995 116.41 7.13995 116.96 6.64995C117.51 6.15995 117.78 5.44995 117.78 4.52995C117.78 3.60995 117.51 2.86995 116.97 2.38995C116.43 1.90995 115.66 1.66995 114.65 1.66995H110.72V7.38995H114.65Z" fill="#C8C9CA"/>
<path d="M133.57 1.65995V15.5H131.97V1.65995H127.6V0.199951H137.94V1.65995H133.57Z" fill="#C8C9CA"/>
<path d="M151.29 15.51H149.67V8.40995H142.5V15.51H140.88V0.199951H142.5V6.93995H149.67V0.199951H151.29V15.51Z" fill="#C8C9CA"/>
<path d="M157.46 6.98995H164.03V8.44995H157.46V14.04H165.14V15.5H155.84V0.199951H165.14V1.65995H157.46V6.98995Z" fill="#C8C9CA"/>
<path d="M185.94 15.51H184.32L176.4 3.16995V15.51H174.78V0.199951H176.4L184.32 12.49V0.199951H185.94V15.51Z" fill="#C8C9CA"/>
<path d="M192.11 6.98995H198.68V8.44995H192.11V14.04H199.79V15.5H190.49V0.199951H199.79V1.65995H192.11V6.98995Z" fill="#C8C9CA"/>
<path d="M215.51 15.51H214.07L210.68 2.21995L207.37 15.51H205.93L202 0.199951H203.58L206.69 12.89L209.69 0.199951H211.75L214.86 12.89L217.86 0.199951H219.37L215.53 15.51H215.51Z" fill="#C8C9CA"/>
<path d="M227.77 9.83V5.86C227.77 3.83 228.25 2.35 229.22 1.41C230.19 0.47 231.49 0 233.11 0C234.16 0 235.08 0.19 235.86 0.58C236.64 0.96 237.25 1.51 237.68 2.21C238.11 2.91 238.32 3.72 238.32 4.64V4.73H236.7V4.64C236.7 3.66 236.38 2.89 235.74 2.32C235.1 1.75 234.23 1.47 233.13 1.47C231.9 1.47 230.97 1.82 230.34 2.52C229.7 3.22 229.39 4.36 229.39 5.93V9.92C229.39 12.77 230.65 14.2 233.16 14.2C234.33 14.2 235.22 13.88 235.83 13.25C236.44 12.61 236.75 11.6 236.75 10.21V9.03H233.09V7.63H238.37V9.92C238.37 11.93 237.9 13.4 236.95 14.31C236 15.23 234.72 15.69 233.11 15.69C231.5 15.69 230.19 15.22 229.22 14.28C228.25 13.34 227.77 11.86 227.77 9.83Z" fill="#C8C9CA"/>
<path d="M244.23 6.98995H250.8V8.44995H244.23V14.04H251.91V15.5H242.61V0.199951H251.91V1.65995H244.23V6.98995Z" fill="#C8C9CA"/>
<path d="M266.9 15.51H265.28L257.36 3.16995V15.51H255.74V0.199951H257.36L265.28 12.49V0.199951H266.9V15.51Z" fill="#C8C9CA"/>
<path d="M273.06 6.98995H279.63V8.44995H273.06V14.04H280.74V15.5H271.44V0.199951H280.74V1.65995H273.06V6.98995Z" fill="#C8C9CA"/>
<path d="M286.2 8.78995V15.51H284.58V0.199951H290.26C291.7 0.199951 292.82 0.569951 293.64 1.31995C294.46 2.06995 294.87 3.12995 294.87 4.49995C294.87 5.58995 294.58 6.49995 294 7.20995C293.42 7.91995 292.62 8.38995 291.58 8.62995L295.2 15.51H293.34L289.88 8.78995H286.2ZM290.12 7.38995C291.11 7.38995 291.88 7.13995 292.43 6.64995C292.98 6.14995 293.25 5.44995 293.25 4.52995C293.25 3.60995 292.98 2.86995 292.44 2.38995C291.9 1.90995 291.13 1.66995 290.12 1.66995H286.19V7.38995H290.12Z" fill="#C8C9CA"/>
<path d="M300.24 11.83L298.95 15.51H297.24L302.81 0.199951H304.16L309.73 15.51H308.02L306.73 11.83H300.23H300.24ZM303.48 2.45995L300.71 10.45H306.28L303.48 2.45995Z" fill="#C8C9CA"/>
<path d="M315.32 1.65995V15.5H313.72V1.65995H309.35V0.199951H319.69V1.65995H315.32Z" fill="#C8C9CA"/>
<path d="M324.44 0.199951V15.51H322.82V0.199951H324.44Z" fill="#C8C9CA"/>
<path d="M328.85 9.83V5.86C328.85 3.83 329.33 2.35 330.29 1.41C331.25 0.47 332.55 0 334.17 0C335.79 0 337.07 0.47 338.02 1.41C338.97 2.35 339.45 3.83 339.45 5.86V9.83C339.45 11.86 338.97 13.34 338.01 14.28C337.05 15.22 335.76 15.69 334.15 15.69C332.54 15.69 331.23 15.22 330.28 14.28C329.33 13.34 328.85 11.86 328.85 9.83ZM337.83 5.92C337.83 2.95 336.61 1.46 334.17 1.46C332.94 1.46 332.02 1.81 331.4 2.51C330.78 3.21 330.47 4.35 330.47 5.92V9.91C330.47 11.4 330.78 12.49 331.41 13.17C332.04 13.85 332.96 14.19 334.17 14.19C336.61 14.19 337.83 12.76 337.83 9.91V5.92Z" fill="#C8C9CA"/>
<path d="M354.85 15.51H353.23L345.31 3.16995V15.51H343.69V0.199951H345.31L353.23 12.49V0.199951H354.85V15.51Z" fill="#C8C9CA"/>
</g>
</svg>
