<svg width="400" height="186" viewBox="0 0 400 186" fill="none" xmlns="http://www.w3.org/2000/svg">
<path d="M255.366 184.141V65.9384L215.723 184.141H178.967L140.049 67.6208V184.141H95.846V0.829102H158.308L198.19 117.589L236.868 0.829102H298.373V184.141H255.366ZM352.185 184.141V24.6132H320.954L331.231 0.829102H400V184.141H352.193H352.185Z" fill="white"/>
<path d="M33.0171 56.5336H23.8479L24.3104 43.9439C18.9763 49.1664 12.4702 52.9377 6.44242 55.2579C6.15539 55.3775 5.92417 55.4333 5.74876 55.4333C5.46172 55.4333 5.28631 55.2579 5.05509 54.9709L0.183472 48.6481C7.90154 46.2721 13.9931 43.1944 19.5025 38.3228H16.8315L8.70683 38.4982L8.30019 38.0916L8.47558 29.9668V22.1371L8.30019 15.8144L8.70683 15.4635L17.1186 15.639H24.135V13.0237H11.1945L1.56282 13.1991L1.15618 12.7925V6.41393L1.67446 6.1269L11.1865 6.30231H24.127V1.19946L24.4141 0.848633H32.3633L32.7142 1.19946V6.30231H46.1729L55.8046 6.1269L56.2112 6.53352V12.8005L55.8046 13.2071L46.1729 13.0317H32.7142V15.6469H40.7751L48.7802 15.4715L49.2426 15.934L49.0672 22.4321V29.6878L49.2426 38.0995L48.7244 38.5061L41.3571 38.3307H37.2349C42.7444 42.7957 49.3064 45.8734 57.1919 48.0182L51.9137 55.0347C51.7382 55.3217 51.507 55.4413 51.1004 55.4413C50.925 55.4413 50.6937 55.4413 50.4067 55.3217C42.0508 52.0686 37.2349 48.4727 32.5387 43.5452L33.0012 56.5416L33.0171 56.5336ZM24.3104 21.5471H16.4169V24.2739H24.3104V21.5471ZM16.4249 29.6638V32.3907H24.3183V29.6638H16.4249ZM40.8468 24.2739V21.5471H32.5467V24.2739H40.8468ZM32.5547 32.3987H40.8548V29.6718H32.5547V32.3987Z" fill="white"/>
<path d="M53.2053 60.479L53.5561 60.766V66.6264L53.2053 66.9134L44.0361 66.738V83.2186H46.8187L55.3501 83.0432L55.7009 83.3303V89.1906L55.3501 89.4776L46.8187 89.3022H44.9051C48.0386 91.3912 52.0412 93.3048 57.4948 94.9313L53.5481 101.429C53.2611 101.892 53.0218 102.123 52.679 102.123C52.4478 102.123 52.2724 102.067 52.0411 101.948C48.501 100.616 45.3118 98.8143 42.4653 96.6695V100.792L42.0587 101.198L34.9227 101.023H32.7141V103.925H42.1145L50.9887 103.75L51.3953 104.156V109.961L50.9887 110.367L42.1145 110.192H14.7265L6.4902 110.367L6.02774 109.961V104.045L6.60982 103.758L14.7345 103.933H24.9482V101.031H22.5084L15.4282 101.206L14.9657 100.8V97.7219C12.5259 99.5797 9.7991 101.262 6.60982 102.769C6.32279 102.889 6.02776 103 5.74072 103C5.3899 103 5.04705 102.825 4.69623 102.418L0 96.8449C5.62909 94.8755 10.0383 92.1407 13.2276 89.3022H10.6203L2.4398 89.4776L2.03321 89.1268V83.3861L2.38403 83.0352L10.6203 83.2107H13.403V66.73L4.52883 66.9054L4.12218 66.5546V60.8139L4.47301 60.4631L13.4109 60.6385V56.4047L13.8176 55.998H20.834L21.2965 56.4047V60.6385H36.0309V56.4047L36.4376 55.998H43.5736L44.0361 56.4047V60.6385L53.2053 60.4631V60.479ZM40.1531 94.8277C38.1837 93.1453 36.4376 91.2875 34.7552 89.3182H22.923C21.5277 91.2875 20.0208 93.1453 18.2826 94.8277L22.5164 94.9472H24.9562V91.2317L25.3628 90.7055H32.2676L32.7301 91.1679V94.9393H34.9386L40.1611 94.8197L40.1531 94.8277ZM36.0309 66.746H21.2965V68.7791H36.0309V66.746ZM36.0309 73.882H21.2965V75.971H36.0309V73.882ZM36.0309 81.0738H21.2965V83.2186H36.0309V81.0738Z" fill="white"/>
<path d="M37.3304 185.313V142.05H23.4331L23.0902 142.847C21.8783 145.67 16.1217 149.186 14.232 150.342C13.9928 150.486 13.8174 150.597 13.7058 150.669L13.6659 150.693L13.0919 151.203V160.755H22.1494L20.3634 161.752V185.305H1.18787V127.507H18.1867L28.7672 138.733L39.2599 127.507H56.2907V185.305H37.3463L37.3304 185.313Z" fill="#FFF100"/>
</svg>
