<?xml version="1.0" encoding="UTF-8"?>
<svg id="_圖層_2" data-name="圖層 2" xmlns="http://www.w3.org/2000/svg" viewBox="0 0 1186.07 45.6">
  <defs>
    <style>
      .cls-1 {
        fill: #fff;
      }

      .cls-2 {
        fill: #fff000;
      }
    </style>
  </defs>
  <g id="_圖層_1-2" data-name="圖層 1">
    <g>
      <path class="cls-1" d="M13.08,8.76H0V.6h36.18v8.16h-13.02v36.24h-10.08V8.76Z"/>
      <path class="cls-1" d="M44.46.6h9.42v17.52h.12c2.16-3.54,5.16-5.82,10.5-5.82,7.68,0,10.5,4.26,10.5,11.7v21h-9.42v-18.48c0-4.08-1.32-6.3-5.04-6.3-4.08,0-6.66,2.76-6.66,6.96v17.82h-9.42V.6Z"/>
      <path class="cls-1" d="M116.76,33.18c-.36,6.72-5.16,12.42-14.88,12.42-11.04,0-15.6-6.66-15.6-16.68s5.34-16.62,15.84-16.62,14.64,6.42,14.64,17.1v1.38h-20.88c.24,4.92,1.92,7.62,5.94,7.62,3.6,0,5.58-2.4,5.64-5.22h9.3ZM107.46,25.56c-.12-3.3-1.74-6.3-5.58-6.3s-5.46,2.1-5.88,6.3h11.46Z"/>
      <path class="cls-1" d="M150.48,12.9h9.42v5.22h.12c2.16-3.54,5.16-5.82,10.5-5.82,7.68,0,10.5,4.26,10.5,11.7v21h-9.42v-18.48c0-4.08-1.32-6.3-5.04-6.3-4.08,0-6.66,2.76-6.66,6.96v17.82h-9.42V12.9Z"/>
      <path class="cls-1" d="M222.78,33.18c-.36,6.72-5.16,12.42-14.88,12.42-11.04,0-15.6-6.66-15.6-16.68s5.34-16.62,15.84-16.62,14.64,6.42,14.64,17.1v1.38h-20.88c.24,4.92,1.92,7.62,5.94,7.62,3.6,0,5.58-2.4,5.64-5.22h9.3ZM213.48,25.56c-.12-3.3-1.74-6.3-5.58-6.3s-5.46,2.1-5.88,6.3h11.46Z"/>
      <path class="cls-1" d="M241.2,28.8l-10.8-15.9h11.1l5.52,9.3,6.18-9.3h10.5l-10.5,15.96,10.74,16.14h-11.04l-6-9.84-6.18,9.84h-10.62l11.1-16.2Z"/>
      <path class="cls-1" d="M274.86,20.4h-4.38v-7.5h4.38V4.62h9.48v8.28h7.56v7.5h-7.56v12.18c0,2.94,1.44,4.38,4.86,4.38.9,0,1.8-.06,3.12-.3v8.4c-1.26.3-2.94.54-4.92.54-8.46,0-12.54-3.66-12.54-12.84v-12.36Z"/>
      <path class="cls-1" d="M325.2.6h9.42v44.4h-9.42V.6Z"/>
      <path class="cls-1" d="M366.41,41.22h-.12c-1.92,2.4-5.46,4.38-10.38,4.38-6.84,0-10.08-3.72-10.08-8.52,0-9.06,8.88-9.42,15.36-10.56,4.62-.78,5.22-1.2,5.22-3.42s-1.8-3.72-4.86-3.72-5.34,1.56-5.34,4.32h-8.94c.72-6.9,4.14-11.4,14.28-11.4s14.34,5.04,14.34,14.1v18.6h-9.48v-3.78ZM366.53,30.24c-4.92,1.32-11.28,1.44-11.28,5.22,0,2.16,1.8,3.48,4.26,3.48,4.08,0,7.02-2.46,7.02-6.36v-2.34Z"/>
      <path class="cls-1" d="M388.85,12.9h9.42v5.22h.12c2.16-3.54,5.16-5.82,10.5-5.82,7.68,0,10.5,4.26,10.5,11.7v21h-9.42v-18.48c0-4.08-1.32-6.3-5.04-6.3-4.08,0-6.66,2.76-6.66,6.96v17.82h-9.42V12.9Z"/>
      <path class="cls-1" d="M453.95,39.9h-.12c-2.04,3.42-4.98,5.7-10.02,5.7-9.12,0-13.14-7.62-13.14-16.62s3.96-16.68,13.14-16.68c5.04,0,7.98,2.34,10.02,5.76h.12V.6h9.48v44.4h-9.48v-5.1ZM453.95,28.98c0-6.12-2.28-10.02-6.84-10.02s-6.84,3.9-6.84,10.02,2.28,9.96,6.84,9.96,6.84-3.84,6.84-9.96Z"/>
      <path class="cls-1" d="M476.45,12.9h9.42v5.22h.12c1.86-3.54,4.38-5.82,9.06-5.82s7.68,2.16,9,6.18h.06c2.04-3.84,4.8-6.18,9.48-6.18,6.84,0,10.14,3.84,10.14,11.7v21h-9.42v-18.48c0-4.56-1.68-6.3-4.2-6.3-3.3,0-5.22,2.34-5.22,6.96v17.82h-9.48v-18.48c0-4.2-.9-6.3-4.08-6.3-3.54,0-5.46,2.64-5.46,6.96v17.82h-9.42V12.9Z"/>
      <path class="cls-1" d="M555.35,41.22h-.12c-1.92,2.4-5.46,4.38-10.38,4.38-6.84,0-10.08-3.72-10.08-8.52,0-9.06,8.88-9.42,15.36-10.56,4.62-.78,5.22-1.2,5.22-3.42s-1.8-3.72-4.86-3.72-5.34,1.56-5.34,4.32h-8.94c.72-6.9,4.14-11.4,14.28-11.4s14.34,5.04,14.34,14.1v18.6h-9.48v-3.78ZM555.47,30.24c-4.92,1.32-11.28,1.44-11.28,5.22,0,2.16,1.8,3.48,4.26,3.48,4.08,0,7.02-2.46,7.02-6.36v-2.34Z"/>
      <path class="cls-1" d="M577.79,12.9h9.42v5.16h.12c2.1-3.72,4.86-5.76,8.22-5.76.84,0,1.8.12,2.76.42v9.78c-1.02-.42-2.4-.72-4.14-.72-4.08,0-6.96,2.64-6.96,7.08v16.14h-9.42V12.9Z"/>
      <path class="cls-1" d="M607.19.6h9.42v26.82l10.68-14.52h11.94l-12.06,14.58,13.56,17.52h-11.94l-12.18-17.4v17.4h-9.42V.6Z"/>
      <path class="cls-2" d="M711.77,35.16c-3.48,6.6-8.94,10.44-18.18,10.44-14.16,0-21.54-9.12-21.54-22.68s7.8-22.92,21.12-22.92c9.9,0,15.24,4.32,18.42,12.18l-9.06,3.6c-1.62-4.98-4.56-7.5-9.6-7.5-6.84,0-10.68,5.52-10.68,14.52s4.44,14.52,11.4,14.52c4.38,0,7.38-2.22,9.3-6.18l8.82,4.02Z"/>
      <path class="cls-2" d="M721.37,22.86c0-13.62,8.58-22.86,21.66-22.86s21.72,9.24,21.72,22.86-8.58,22.74-21.72,22.74-21.66-9.12-21.66-22.74ZM754.55,22.8c0-8.76-4.56-14.52-11.46-14.52s-11.52,5.76-11.52,14.52,4.68,14.52,11.52,14.52,11.46-5.7,11.46-14.52Z"/>
      <path class="cls-2" d="M778.13.6h12.96l9.24,23.16,9.24-23.16h12.96v44.4h-9.72V15.24l-8.52,20.64h-8.16l-8.28-20.64v29.76h-9.72V.6Z"/>
      <path class="cls-2" d="M837.05.6h10.08v44.4h-10.08V.6Z"/>
      <path class="cls-2" d="M861.65.6h12.9l15.36,31.26V.6h9.6v44.4h-12.9l-15.36-31.92v31.92h-9.6V.6Z"/>
      <path class="cls-2" d="M935.33,20.7h17.94v14.1c-2.76,5.82-8.82,10.8-19.2,10.8-14.22,0-21.18-8.7-21.18-22.56s7.86-23.04,21.78-23.04c9.12,0,14.7,3.84,17.94,9.48l-7.86,5.04c-2.46-4.2-5.64-6.24-10.32-6.24-6.96,0-11.34,5.22-11.34,13.98,0,9.84,4.08,15.18,11.4,15.18,4.32,0,7.86-1.74,8.94-4.2v-4.68h-8.1v-7.86Z"/>
      <path class="cls-2" d="M996.77,30.18c.6,5.16,4.38,7.32,9,7.32s6.84-2.04,6.84-4.5c0-9.06-24.42-3.36-24.42-19.2,0-8.04,5.7-13.8,15.6-13.8,11.94,0,17.28,5.82,18.12,14.88h-9.78c-.48-4.62-3.9-6.78-7.98-6.78s-5.88,2.16-5.88,4.62c0,8.52,24.48,2.64,24.48,19.56,0,8.04-6.36,13.32-16.56,13.32-12.42,0-18.48-4.8-19.14-15.42h9.72Z"/>
      <path class="cls-2" d="M1035.89,22.86c0-13.62,8.58-22.86,21.66-22.86s21.72,9.24,21.72,22.86-8.58,22.74-21.72,22.74-21.66-9.12-21.66-22.74ZM1069.07,22.8c0-8.76-4.56-14.52-11.46-14.52s-11.52,5.76-11.52,14.52,4.68,14.52,11.52,14.52,11.46-5.7,11.46-14.52Z"/>
      <path class="cls-2" d="M1091.45,22.86c0-13.62,8.58-22.86,21.66-22.86s21.72,9.24,21.72,22.86-8.58,22.74-21.72,22.74-21.66-9.12-21.66-22.74ZM1124.63,22.8c0-8.76-4.56-14.52-11.46-14.52s-11.52,5.76-11.52,14.52,4.68,14.52,11.52,14.52,11.46-5.7,11.46-14.52Z"/>
      <path class="cls-2" d="M1148.21.6h12.9l15.36,31.26V.6h9.6v44.4h-12.9l-15.36-31.92v31.92h-9.6V.6Z"/>
    </g>
  </g>
</svg>