<?xml version="1.0" encoding="UTF-8"?>
<svg id="_圖層_2" data-name="圖層 2" xmlns="http://www.w3.org/2000/svg" viewBox="0 0 325.54 80.63">
  <defs>
    <style>
      .cls-1 {
        fill: #fff;
      }

      .cls-2 {
        fill: #fff000;
      }
    </style>
  </defs>
  <g id="_圖層_1-2" data-name="圖層 1">
    <g>
      <path class="cls-1" d="M8.18,5.1H0V0h22.62v5.1h-8.14v22.65h-6.3V5.1Z"/>
      <path class="cls-1" d="M23.11,0h5.89v10.95h.08c1.35-2.21,3.23-3.64,6.56-3.64,4.8,0,6.56,2.66,6.56,7.31v13.13h-5.89v-11.55c0-2.55-.83-3.94-3.15-3.94-2.55,0-4.16,1.73-4.16,4.35v11.14h-5.89V0Z"/>
      <path class="cls-1" d="M63.61,20.37c-.22,4.2-3.23,7.76-9.3,7.76-6.9,0-9.75-4.16-9.75-10.43s3.34-10.39,9.9-10.39,9.15,4.01,9.15,10.69v.86h-13.05c.15,3.08,1.2,4.76,3.71,4.76,2.25,0,3.49-1.5,3.53-3.26h5.81ZM57.8,15.6c-.07-2.06-1.09-3.94-3.49-3.94s-3.41,1.31-3.68,3.94h7.16Z"/>
      <path class="cls-1" d="M75.32,7.69h5.89v3.26h.08c1.35-2.21,3.23-3.64,6.56-3.64,4.8,0,6.56,2.66,6.56,7.31v13.13h-5.89v-11.55c0-2.55-.83-3.94-3.15-3.94-2.55,0-4.16,1.73-4.16,4.35v11.14h-5.89V7.69Z"/>
      <path class="cls-1" d="M115.83,20.37c-.22,4.2-3.23,7.76-9.3,7.76-6.9,0-9.75-4.16-9.75-10.43s3.34-10.39,9.9-10.39,9.15,4.01,9.15,10.69v.86h-13.05c.15,3.08,1.2,4.76,3.71,4.76,2.25,0,3.49-1.5,3.53-3.26h5.81ZM110.01,15.6c-.07-2.06-1.09-3.94-3.49-3.94s-3.41,1.31-3.68,3.94h7.16Z"/>
      <path class="cls-1" d="M122.65,17.63l-6.75-9.94h6.94l3.45,5.81,3.86-5.81h6.56l-6.56,9.98,6.71,10.09h-6.9l-3.75-6.15-3.86,6.15h-6.64l6.94-10.13Z"/>
      <path class="cls-1" d="M139.01,12.38h-2.74v-4.69h2.74V2.51h5.93v5.18h4.73v4.69h-4.73v7.61c0,1.84.9,2.74,3.04,2.74.56,0,1.13-.04,1.95-.19v5.25c-.79.19-1.84.34-3.08.34-5.29,0-7.84-2.29-7.84-8.03v-7.73Z"/>
      <path class="cls-1" d="M161.1,0h5.89v27.75h-5.89V0Z"/>
      <path class="cls-1" d="M182.18,25.39h-.08c-1.2,1.5-3.41,2.74-6.49,2.74-4.28,0-6.3-2.33-6.3-5.33,0-5.66,5.55-5.89,9.6-6.6,2.89-.49,3.26-.75,3.26-2.14s-1.12-2.33-3.04-2.33-3.34.97-3.34,2.7h-5.59c.45-4.31,2.59-7.13,8.93-7.13s8.96,3.15,8.96,8.81v11.63h-5.93v-2.36ZM182.26,18.53c-3.08.83-7.05.9-7.05,3.26,0,1.35,1.13,2.18,2.66,2.18,2.55,0,4.39-1.54,4.39-3.98v-1.46Z"/>
      <path class="cls-1" d="M191.52,7.69h5.89v3.26h.07c1.35-2.21,3.23-3.64,6.56-3.64,4.8,0,6.56,2.66,6.56,7.31v13.13h-5.89v-11.55c0-2.55-.83-3.94-3.15-3.94-2.55,0-4.16,1.73-4.16,4.35v11.14h-5.89V7.69Z"/>
      <path class="cls-1" d="M227.53,24.57h-.07c-1.28,2.14-3.11,3.56-6.26,3.56-5.7,0-8.21-4.76-8.21-10.39s2.48-10.43,8.21-10.43c3.15,0,4.99,1.46,6.26,3.6h.07V0h5.93v27.75h-5.93v-3.19ZM227.53,17.74c0-3.83-1.42-6.26-4.28-6.26s-4.28,2.44-4.28,6.26,1.42,6.23,4.28,6.23,4.28-2.4,4.28-6.23Z"/>
      <path class="cls-1" d="M236.91,7.69h5.89v3.26h.07c1.16-2.21,2.74-3.64,5.66-3.64s4.8,1.35,5.63,3.86h.04c1.28-2.4,3-3.86,5.93-3.86,4.28,0,6.34,2.4,6.34,7.31v13.13h-5.89v-11.55c0-2.85-1.05-3.94-2.62-3.94-2.06,0-3.26,1.46-3.26,4.35v11.14h-5.93v-11.55c0-2.63-.56-3.94-2.55-3.94-2.21,0-3.41,1.65-3.41,4.35v11.14h-5.89V7.69Z"/>
      <path class="cls-1" d="M281.54,25.39h-.08c-1.2,1.5-3.41,2.74-6.49,2.74-4.28,0-6.3-2.33-6.3-5.33,0-5.66,5.55-5.89,9.6-6.6,2.89-.49,3.26-.75,3.26-2.14s-1.12-2.33-3.04-2.33-3.34.97-3.34,2.7h-5.59c.45-4.31,2.59-7.13,8.93-7.13s8.96,3.15,8.96,8.81v11.63h-5.93v-2.36ZM281.62,18.53c-3.08.83-7.05.9-7.05,3.26,0,1.35,1.13,2.18,2.66,2.18,2.55,0,4.39-1.54,4.39-3.98v-1.46Z"/>
      <path class="cls-1" d="M290.88,7.69h5.89v3.23h.07c1.31-2.33,3.04-3.6,5.14-3.6.53,0,1.12.07,1.73.26v6.11c-.64-.26-1.5-.45-2.59-.45-2.55,0-4.35,1.65-4.35,4.43v10.09h-5.89V7.69Z"/>
      <path class="cls-1" d="M304.58,0h5.89v16.77l6.68-9.08h7.46l-7.54,9.11,8.48,10.95h-7.46l-7.61-10.88v10.88h-5.89V0Z"/>
    </g>
    <g>
      <path class="cls-2" d="M32.74,73.11c-2.51,4.75-6.44,7.52-13.09,7.52-10.2,0-15.51-6.57-15.51-16.33s5.62-16.51,15.21-16.51c7.13,0,10.98,3.11,13.27,8.77l-6.53,2.59c-1.17-3.59-3.28-5.4-6.91-5.4-4.93,0-7.69,3.98-7.69,10.46s3.2,10.46,8.21,10.46c3.15,0,5.32-1.6,6.7-4.45l6.35,2.9Z"/>
      <path class="cls-2" d="M34.25,64.25c0-9.81,6.18-16.46,15.6-16.46s15.64,6.66,15.64,16.46-6.18,16.38-15.64,16.38-15.6-6.57-15.6-16.38ZM58.15,64.21c0-6.31-3.28-10.46-8.25-10.46s-8.3,4.15-8.3,10.46,3.37,10.46,8.3,10.46,8.25-4.11,8.25-10.46Z"/>
      <path class="cls-2" d="M69.72,48.22h9.33l6.65,16.68,6.65-16.68h9.33v31.98h-7v-21.43l-6.14,14.87h-5.88l-5.96-14.87v21.43h-7v-31.98Z"/>
      <path class="cls-2" d="M106.75,48.22h7.26v31.98h-7.26v-31.98Z"/>
      <path class="cls-2" d="M119.07,48.22h9.29l11.06,22.51v-22.51h6.91v31.98h-9.29l-11.06-22.99v22.99h-6.91v-31.98Z"/>
      <path class="cls-2" d="M166.73,62.7h12.92v10.16c-1.99,4.19-6.35,7.78-13.83,7.78-10.24,0-15.25-6.27-15.25-16.25s5.66-16.59,15.69-16.59c6.57,0,10.59,2.77,12.92,6.83l-5.66,3.63c-1.77-3.02-4.06-4.49-7.43-4.49-5.01,0-8.17,3.76-8.17,10.07,0,7.09,2.94,10.93,8.21,10.93,3.11,0,5.66-1.25,6.44-3.02v-3.37h-5.83v-5.66Z"/>
      <path class="cls-2" d="M200.17,69.52c.43,3.72,3.15,5.27,6.48,5.27s4.93-1.47,4.93-3.24c0-6.53-17.59-2.42-17.59-13.83,0-5.79,4.11-9.94,11.24-9.94,8.6,0,12.45,4.19,13.05,10.72h-7.04c-.35-3.33-2.81-4.88-5.75-4.88s-4.23,1.56-4.23,3.33c0,6.14,17.63,1.9,17.63,14.09,0,5.79-4.58,9.59-11.93,9.59-8.95,0-13.31-3.46-13.79-11.11h7Z"/>
      <path class="cls-2" d="M222.94,64.25c0-9.81,6.18-16.46,15.6-16.46s15.64,6.66,15.64,16.46-6.18,16.38-15.64,16.38-15.6-6.57-15.6-16.38ZM246.83,64.21c0-6.31-3.28-10.46-8.25-10.46s-8.3,4.15-8.3,10.46,3.37,10.46,8.3,10.46,8.25-4.11,8.25-10.46Z"/>
      <path class="cls-2" d="M257.55,64.25c0-9.81,6.18-16.46,15.6-16.46s15.64,6.66,15.64,16.46-6.18,16.38-15.64,16.38-15.6-6.57-15.6-16.38ZM281.44,64.21c0-6.31-3.28-10.46-8.25-10.46s-8.3,4.15-8.3,10.46,3.37,10.46,8.3,10.46,8.25-4.11,8.25-10.46Z"/>
      <path class="cls-2" d="M293.02,48.22h9.29l11.06,22.51v-22.51h6.91v31.98h-9.29l-11.06-22.99v22.99h-6.91v-31.98Z"/>
    </g>
  </g>
</svg>