<svg width="450" height="253" viewBox="0 0 450 253" fill="none" xmlns="http://www.w3.org/2000/svg">
<g clip-path="url(#clip0_44_12397)">
<path fill-rule="evenodd" clip-rule="evenodd" d="M235.683 63.6353L193.264 41.5827C196.918 57.4392 211.119 71.021 228.088 71.021C245.058 71.021 259.297 57.4012 262.932 41.4971L229.583 58.8288L235.683 63.6258V63.6353Z" fill="white"/>
<path fill-rule="evenodd" clip-rule="evenodd" d="M245.42 44.1908L262.818 28.22C262.342 25.9358 261.657 23.7277 260.772 21.6242L242.631 41.3926L259.63 19.2067C258.554 17.1319 257.289 15.1712 255.842 13.3534L239.396 39.1273L253.938 11.1452C252.339 9.44157 250.569 7.89018 248.656 6.52915L235.817 37.4522L246.077 4.84451C244.069 3.6548 241.927 2.66495 239.691 1.89402L232.01 36.4338L236.654 0.989835C234.408 0.42829 232.077 0.0856519 229.688 -0.019043L228.089 36.0912L226.49 -0.019043C224.101 0.0856519 221.769 0.42829 219.523 0.989835L224.167 36.4338L216.487 1.89402C214.25 2.66495 212.109 3.66431 210.1 4.84451L220.36 37.4522L207.521 6.52915C205.608 7.89018 203.847 9.44157 202.239 11.1452L216.782 39.1273L200.335 13.3534C198.889 15.1712 197.623 17.1224 196.547 19.2067L213.546 41.3926L195.405 21.6242C194.52 23.7277 193.825 25.9263 193.359 28.22L210.757 44.1908L192.959 30.5519C192.74 32.1508 192.617 33.7784 192.617 35.4345C192.617 36.7384 192.693 38.0138 192.826 39.2796L214.878 50.739C217.096 47.0651 220.836 44.3335 225.405 43.5245C231.848 42.3919 238.054 45.4185 241.27 50.6818L263.361 39.2035C263.494 37.9662 263.561 36.7003 263.561 35.4249C263.561 33.7689 263.437 32.1413 263.218 30.5424L245.42 44.1812V44.1908Z" fill="white"/>
<path d="M151.796 36.4812H154.955V36.7382C154.603 36.7382 154.365 36.7762 154.242 36.8429C154.118 36.9095 154.032 37.0332 153.994 37.195C153.956 37.3568 153.937 37.7566 153.937 38.3847V39.1652C153.851 39.1462 153.775 39.1462 153.709 39.1462C153.433 39.1462 153.071 39.2318 152.614 39.4031C152.005 39.6316 151.434 39.7458 150.91 39.7458C149.863 39.7458 148.997 39.4031 148.303 38.7083C147.608 38.0231 147.265 37.1474 147.265 36.091C147.265 35.0345 147.598 34.1303 148.255 33.3404C148.921 32.5504 149.816 32.1602 150.948 32.1602C151.929 32.1602 152.738 32.5218 153.375 33.2357C153.49 32.9882 153.566 32.7122 153.604 32.4171H153.861V34.8632H153.604C153.499 34.1113 153.214 33.5117 152.747 33.0739C152.281 32.636 151.719 32.4171 151.053 32.4171C150.387 32.4171 149.768 32.6741 149.254 33.1786C148.74 33.6925 148.483 34.5967 148.483 35.9006C148.483 37.2045 148.731 38.1182 149.226 38.6608C149.721 39.2033 150.33 39.4698 151.063 39.4698C151.434 39.4698 151.776 39.3936 152.081 39.2413C152.386 39.0891 152.595 38.8987 152.709 38.6798C152.823 38.4609 152.881 38.1849 152.881 37.8518C152.881 37.4615 152.852 37.195 152.804 37.0618C152.747 36.9285 152.671 36.8429 152.566 36.7953C152.462 36.7477 152.262 36.7287 151.976 36.7287H151.805V36.4717L151.796 36.4812Z" fill="white"/>
<path d="M157.116 35.8911C157.116 34.7585 157.497 33.8543 158.249 33.169C159.001 32.4837 159.943 32.1411 161.076 32.1411C162.208 32.1411 163.169 32.4838 163.931 33.1595C164.692 33.8353 165.073 34.7585 165.073 35.9292C165.073 37.0998 164.711 37.9755 163.978 38.6798C163.246 39.3841 162.284 39.7363 161.085 39.7363C159.886 39.7363 158.972 39.3841 158.23 38.6798C157.487 37.9755 157.116 37.0523 157.116 35.8911ZM158.353 35.9292C158.353 37.1094 158.591 37.985 159.058 38.5751C159.524 39.1652 160.228 39.4602 161.171 39.4602C161.999 39.4602 162.646 39.1652 163.122 38.5751C163.598 37.985 163.836 37.1094 163.836 35.9387C163.836 34.768 163.598 33.9304 163.131 33.3213C162.655 32.7122 161.98 32.4076 161.085 32.4076C160.19 32.4076 159.524 32.7027 159.058 33.2928C158.591 33.8829 158.353 34.7585 158.353 35.9196V35.9292Z" fill="white"/>
<path d="M167.395 35.8911C167.395 34.7585 167.776 33.8543 168.528 33.169C169.279 32.4837 170.222 32.1411 171.354 32.1411C172.487 32.1411 173.448 32.4838 174.21 33.1595C174.971 33.8353 175.352 34.7585 175.352 35.9292C175.352 37.0998 174.99 37.9755 174.257 38.6798C173.524 39.3841 172.563 39.7363 171.364 39.7363C170.165 39.7363 169.251 39.3841 168.509 38.6798C167.766 37.9755 167.395 37.0523 167.395 35.8911ZM168.632 35.9292C168.632 37.1094 168.87 37.985 169.337 38.5751C169.803 39.1652 170.507 39.4602 171.449 39.4602C172.278 39.4602 172.925 39.1652 173.401 38.5751C173.876 37.985 174.114 37.1094 174.114 35.9387C174.114 34.768 173.876 33.9304 173.41 33.3213C172.934 32.7122 172.258 32.4076 171.364 32.4076C170.469 32.4076 169.803 32.7027 169.337 33.2928C168.87 33.8829 168.632 34.7585 168.632 35.9196V35.9292Z" fill="white"/>
<path d="M177.179 32.3413L178.378 32.2841C179.377 32.2366 180.063 32.208 180.405 32.208C181.49 32.208 182.337 32.3698 182.947 32.7029C183.556 33.036 184.003 33.4834 184.308 34.0544C184.603 34.616 184.755 35.2727 184.755 36.0151C184.755 36.5481 184.679 37.043 184.517 37.4808C184.355 37.9282 184.136 38.2898 183.851 38.5849C183.565 38.8799 183.242 39.0988 182.87 39.2511C182.499 39.4034 182.147 39.4986 181.814 39.5367C181.481 39.5747 181.005 39.5938 180.396 39.5938H177.15V39.3463H177.455C177.769 39.3463 177.988 39.3082 178.102 39.2321C178.216 39.1559 178.302 39.0322 178.331 38.8609C178.369 38.6991 178.378 38.3089 178.378 37.6902V34.1591C178.378 33.5786 178.359 33.1979 178.331 33.0265C178.292 32.8552 178.226 32.741 178.112 32.6744C177.997 32.6078 177.76 32.5792 177.388 32.5792H177.169V32.3317L177.179 32.3413ZM179.435 32.4935V37.3856C179.435 38.109 179.444 38.5754 179.473 38.7848C179.501 38.9941 179.577 39.1369 179.72 39.2226C179.853 39.3082 180.139 39.3463 180.577 39.3463C181.214 39.3463 181.738 39.2606 182.147 39.0893C182.556 38.918 182.899 38.5754 183.175 38.0614C183.451 37.5474 183.584 36.8907 183.584 36.1008C183.584 35.4821 183.508 34.9301 183.346 34.4447C183.185 33.9593 182.956 33.5595 182.661 33.255C182.366 32.9504 182.033 32.741 181.671 32.6363C181.31 32.5221 180.843 32.4745 180.272 32.4745C179.996 32.4745 179.72 32.4745 179.444 32.5031L179.435 32.4935Z" fill="white"/>
<path d="M272.488 32.3413L273.687 32.2841C274.687 32.2366 275.372 32.208 275.714 32.208C276.799 32.208 277.647 32.3698 278.256 32.7029C278.865 33.036 279.312 33.4834 279.617 34.0544C279.912 34.616 280.064 35.2727 280.064 36.0151C280.064 36.5481 279.988 37.043 279.826 37.4808C279.664 37.9282 279.445 38.2898 279.16 38.5849C278.874 38.8799 278.551 39.0988 278.18 39.2511C277.808 39.4034 277.456 39.4986 277.123 39.5367C276.79 39.5747 276.314 39.5938 275.705 39.5938H272.459V39.3463H272.764C273.078 39.3463 273.297 39.3082 273.411 39.2321C273.535 39.1559 273.611 39.0322 273.64 38.8609C273.678 38.6991 273.687 38.3089 273.687 37.6902V34.1591C273.687 33.5786 273.668 33.1979 273.64 33.0265C273.602 32.8552 273.535 32.741 273.421 32.6744C273.307 32.6078 273.069 32.5792 272.697 32.5792H272.479V32.3317L272.488 32.3413ZM274.744 32.4935V37.3856C274.744 38.109 274.753 38.5754 274.782 38.7848C274.81 38.9941 274.886 39.1369 275.02 39.2226C275.153 39.3082 275.438 39.3463 275.876 39.3463C276.514 39.3463 277.037 39.2606 277.447 39.0893C277.856 38.918 278.199 38.5754 278.475 38.0614C278.751 37.5474 278.884 36.8907 278.884 36.1008C278.884 35.4821 278.808 34.9301 278.646 34.4447C278.484 33.9593 278.256 33.5595 277.961 33.255C277.666 32.9504 277.332 32.741 276.971 32.6363C276.609 32.5221 276.143 32.4745 275.572 32.4745C275.296 32.4745 275.02 32.4745 274.744 32.5031V32.4935Z" fill="white"/>
<path d="M292.361 36.9002H289.581L289.391 37.3666C289.115 38.0424 288.972 38.4802 288.972 38.68C288.972 38.8989 289.048 39.0703 289.201 39.175C289.353 39.2892 289.543 39.3463 289.772 39.3463V39.5937H287.592V39.3463C287.916 39.2987 288.154 39.1845 288.316 39.0036C288.477 38.8228 288.668 38.4516 288.887 37.8806C288.906 37.8234 288.991 37.6141 289.144 37.2524L291.266 32.1699H291.475L293.921 37.9852L294.255 38.7467C294.331 38.918 294.435 39.0512 294.559 39.1559C294.683 39.2511 294.873 39.3177 295.13 39.3463V39.5937H292.256V39.3463C292.608 39.3463 292.846 39.3177 292.97 39.2701C293.093 39.2226 293.16 39.1179 293.16 38.9561C293.16 38.8799 293.074 38.642 292.913 38.2517L292.351 36.9002H292.361ZM292.265 36.6623L290.971 33.5405L289.686 36.6623H292.275H292.265Z" fill="white"/>
<path d="M306.133 36.4053L307.57 33.9783C307.808 33.5881 307.922 33.3026 307.922 33.1408C307.922 32.9885 307.855 32.8552 307.731 32.722C307.608 32.5983 307.379 32.5316 307.056 32.5316V32.2842H309.445V32.5316C309.112 32.5792 308.845 32.703 308.645 32.9028C308.445 33.1027 308.179 33.4644 307.865 33.9878L306.228 36.7194V37.6902C306.228 38.3089 306.247 38.7086 306.285 38.8799C306.323 39.0513 306.399 39.175 306.523 39.2416C306.646 39.3082 306.894 39.3463 307.256 39.3463V39.5938H304.134V39.3463H304.248C304.562 39.3463 304.781 39.3082 304.895 39.2321C305.019 39.156 305.095 39.0322 305.124 38.8609C305.152 38.6991 305.171 38.3089 305.171 37.6902V36.7861L303.344 33.788C302.973 33.1788 302.725 32.8267 302.602 32.703C302.478 32.5887 302.259 32.5221 301.945 32.5126V32.2651H304.914V32.5126C304.362 32.5126 304.086 32.6363 304.086 32.8933C304.086 32.998 304.181 33.1979 304.362 33.4929L306.114 36.3768L306.133 36.4053Z" fill="white"/>
<path d="M46.084 157.28C37.8514 154.339 31.151 150.094 25.983 144.545C19.6728 150.237 11.5258 154.444 1.55136 157.166L1.18018 156.452C10.3741 152.816 17.7693 147.819 23.3656 141.462C19.5871 136.646 16.808 130.954 15.0282 124.377C13.4578 127.718 12.1634 130.326 11.126 132.201C11.5924 132.858 11.5163 133.467 10.9166 134.019L6.90975 129.279C9.68888 127.223 12.2015 125.034 14.4477 122.721L15.0378 119.362L17.6551 120.19L15.6278 123.054C17.6265 128.974 20.9386 134.209 25.5737 138.759C30.0279 132.877 33.0069 126.062 34.5012 118.315H1.87496L1.38956 116.773H23.3085V106.246L30.5228 106.855C30.4181 107.702 29.7519 108.216 28.5432 108.397V116.773H41.3157L44.6279 112.195C45.3417 112.823 46.0745 113.422 46.8169 114.013C48.4254 115.412 49.6817 116.544 50.6144 117.429C50.4716 118.02 49.9767 118.315 49.1202 118.315H40.7257C38.4795 127.718 34.5392 135.494 28.9144 141.623C34.939 146.439 42.4388 149.942 51.4234 152.15L51.2616 152.807C48.768 153.064 47.0358 154.549 46.0745 157.271L46.084 157.28Z" fill="white"/>
<path d="M8.33739 215.643V191.782C5.84379 194.209 3.25501 196.265 0.590089 197.959L0 197.407C2.77913 194.723 5.43453 191.487 7.9662 187.709C10.4979 183.959 12.4014 180.399 13.6863 177.02H1.97965L1.49426 175.478H8.49919V164.619L15.1329 165.275C15.0282 166.122 14.362 166.617 13.1533 166.76V175.469H13.791L16.7319 172.604L21.2242 177.401C20.872 177.734 20.063 177.953 18.8162 178.058C17.4933 180.627 15.6754 183.388 13.3627 186.329C15.7135 187.138 17.4838 188.185 18.6544 189.469C19.6538 190.535 20.1297 191.62 20.1011 192.724C20.1011 193.752 19.7109 194.457 18.9209 194.847C18.1405 195.237 17.3029 195.075 16.4083 194.381C16.0181 192.467 14.9331 190.326 13.1438 187.937V214.063C13.1438 214.32 12.7821 214.634 12.0778 214.996C11.1831 215.434 10.2219 215.653 9.19397 215.653H8.33739V215.643ZM20.7388 170.12L20.3105 168.521H42.6006L45.4369 164.828C46.046 165.342 46.6456 165.856 47.2547 166.37C48.6443 167.512 49.7293 168.464 50.5192 169.235C50.4145 169.825 49.9482 170.12 49.1297 170.12H20.7388ZM20.6912 215.538V188.698L25.983 190.907H43.6761L46.084 188.042L50.8428 191.849C50.5192 192.325 49.8245 192.658 48.7585 192.839V213.892C48.7585 214.073 48.3873 214.311 47.6354 214.606C46.7788 214.977 45.8176 215.158 44.7516 215.158H43.895V211.741H25.45V214.225C25.45 214.482 25.0883 214.758 24.384 215.053C23.5655 215.386 22.6233 215.548 21.5478 215.548H20.6912V215.538ZM23.3085 188.146V172.88L28.5432 175.031H41.2111L43.5048 172.328L48.1589 175.907C47.8067 176.383 47.1595 176.716 46.2363 176.897V186.538C46.2363 186.681 45.8651 186.89 45.1133 187.147C44.2567 187.48 43.2954 187.642 42.2294 187.642H41.3729V185.662H27.9531V186.928C27.9531 187.147 27.6105 187.404 26.9347 187.699C26.1543 187.994 25.2215 188.137 24.1556 188.137H23.299L23.3085 188.146ZM25.45 200.101H32.3502V192.439H25.45V200.101ZM25.45 210.132H32.3502V201.7H25.45V210.132ZM27.9626 184.063H41.3824V176.563H27.9626V184.063ZM36.8901 200.101H43.895V192.439H36.8901V200.101ZM36.8901 210.132H43.895V201.7H36.8901V210.132Z" fill="white"/>
<path d="M71.9813 140.653C74.0752 140.748 76.0929 140.072 78.0155 138.626C80.195 137.008 81.9938 134.704 83.3929 131.735C84.8776 128.223 85.5724 124.216 85.4867 119.704H170.184C168.432 124.844 166.291 129.936 163.759 134.98L165.33 136.065C171.183 132.277 176.817 127.509 182.242 121.741C184.774 121.475 186.44 120.98 187.22 120.256L176.075 109.311L170.041 115.659H130.838V102.144C133.722 101.783 135.254 100.564 135.425 98.4989L119.959 97.0142V115.669H85.2203C84.7824 112.785 84.1733 110.177 83.3834 107.826L81.1562 107.96C81.4227 112.557 80.4995 116.925 78.4057 121.075C76.3975 124.949 73.9039 127.747 70.9344 129.451C67.2606 131.887 66.0804 134.676 67.3939 137.826C68.1838 139.625 69.7066 140.577 71.9813 140.662V140.653Z" fill="white"/>
<path d="M178.835 206.611C177.35 205.354 175.818 204.041 174.247 202.69L167.433 212.426H159.305V142.271C162.274 141.909 164.283 141.053 165.339 139.701L152.623 129.974L147.379 136.865H105.159L93.4909 132.001V212.426H65.9565L67.0035 216.347H183.556C185.478 216.347 186.611 215.624 186.963 214.187C185.04 212.207 182.328 209.685 178.835 206.62V206.611ZM148.816 161.601H107.624V165.523H148.816V186.471H107.624V190.259H148.816V212.426H103.713V140.786H148.816V161.601Z" fill="white"/>
<path d="M204.58 136.732C206.674 136.827 208.559 136.189 210.215 134.838C214.326 131.145 216.249 125.558 215.982 118.077H301.336C299.765 123.036 298.233 127.128 296.748 130.374C294.911 128.841 293.036 127.357 291.114 125.91L284.69 133.886H214.545L215.725 137.674H242.213C238.805 146.411 235.046 153.806 230.934 159.841C220.446 160.288 212.841 160.516 208.121 160.516L213.365 173.489C214.85 173.223 216.03 172.271 216.905 170.653C244.878 167.141 268.691 163.486 288.363 159.707C292.818 164.571 295.968 168.854 297.805 172.547C300.689 173.993 302.916 173.784 304.496 171.938C306.066 170.091 306.152 167.455 304.762 164.028C303.192 160.155 299.994 156.414 295.187 152.807C289.334 148.486 281.634 144.926 272.117 142.128L270.803 143.48C275.439 146.811 280.378 151.227 285.622 156.728C265.607 158.08 249.132 159.07 236.198 159.698C243.012 153.749 249.57 146.411 255.861 137.664H299.518C301.526 137.664 302.706 136.989 303.058 135.637C302.183 134.828 300.698 133.524 298.604 131.716C303.763 128.651 308.655 124.73 313.29 119.952C315.917 119.771 317.525 119.324 318.144 118.6L307.132 107.788L301.231 114.003H262.951V102.249C265.835 101.802 267.406 100.536 267.672 98.4608L252.197 96.9761V114.003H215.744C215.221 110.939 214.612 108.283 213.907 106.027H211.937C212.109 109.901 211.328 113.775 209.577 117.649C207.911 121.341 205.903 123.997 203.543 125.624C201.972 126.709 200.878 127.966 200.269 129.412C199.564 131.03 199.526 132.61 200.136 134.143C200.925 135.761 202.41 136.627 204.59 136.713L204.58 136.732Z" fill="white"/>
<path d="M304.619 204.583L297.805 213.501H262.933V173.489C265.645 173.042 267.13 171.823 267.387 169.844L252.178 168.359V187.147H210.357L211.404 190.935H252.178V213.511H198.032L199.212 217.299H314.061C315.983 217.299 317.116 216.623 317.468 215.272C315.46 213.378 312.7 211.036 309.207 208.248C307.722 207.077 306.19 205.859 304.619 204.602V204.583Z" fill="white"/>
<path d="M302.915 190.935C304.838 190.935 305.97 190.259 306.323 188.908C304.4 187.109 301.773 184.853 298.461 182.15C297.062 181.065 295.615 179.942 294.131 178.771L287.573 187.147H266.806V190.935H302.915Z" fill="white"/>
<path d="M400.709 131.325C398.872 129.612 396.464 127.452 393.494 124.834C392.181 123.749 390.868 122.674 389.564 121.589L383.273 129.565H354.425L355.472 133.486H397.292C399.214 133.486 400.347 132.763 400.699 131.325H400.709Z" fill="white"/>
<path d="M349.704 184.577C349.352 189.088 347.819 193.362 345.116 197.416C342.585 201.024 339.701 203.593 336.465 205.116C334.713 206.02 333.448 207.191 332.658 208.628C331.868 210.161 331.744 211.779 332.267 213.492C333.057 215.291 334.58 216.28 336.855 216.461C338.949 216.642 341.005 216.1 343.013 214.843C346.591 212.588 349.256 209.123 351.008 204.431C353.187 198.577 353.454 191.991 351.798 184.701L349.704 184.567V184.577Z" fill="white"/>
<path d="M394.417 168.901V149.304C396.863 148.676 398.529 147.82 399.395 146.735L388.383 138.216L383.406 143.756H370.119V147.677H384.586V162.953H370.119V166.741H384.586V171.738H386.156C387.641 171.738 389.392 171.376 391.4 170.653C393.323 169.929 394.332 169.349 394.417 168.892V168.901Z" fill="white"/>
<path d="M419.715 103.477C421.637 105.818 422.951 107.988 423.646 109.968C425.74 111.319 427.71 111.548 429.547 110.643C431.298 109.739 432.126 108.302 432.04 106.322C431.955 104.162 430.641 102.268 428.109 100.65C425.14 98.575 420.762 97.3187 414.994 96.8618L413.947 98.0801C415.955 99.5268 417.878 101.326 419.715 103.486V103.477Z" fill="white"/>
<path d="M347.477 161.192C349.485 154.073 350.494 145.06 350.494 134.162L350.656 112.785L340.662 108.616V134.295C340.662 145.107 340.053 153.892 338.825 160.65C337.074 170.653 333.848 179.123 329.127 186.062L330.831 187.547C338.873 180.97 344.422 172.185 347.486 161.192H347.477Z" fill="white"/>
<path d="M379.075 179.847C382.749 182.188 386.242 185.072 389.564 188.498C393.237 192.372 395.683 195.979 396.902 199.31C399.614 200.662 401.794 200.548 403.459 198.977C405.115 197.397 405.601 195.256 404.906 192.553C404.03 189.402 401.756 186.604 398.091 184.168C393.637 181.284 387.689 179.39 380.265 178.495L379.085 179.847H379.075Z" fill="white"/>
<path d="M445.936 172.68L447.906 155.653L446.336 155.386C444.328 160.888 442.538 165.209 440.958 168.359C440.435 169.349 439.883 169.872 439.321 169.91C438.75 169.958 437.989 169.615 437.028 168.892C431.783 165.38 427.196 160.916 423.265 155.51C428.861 148.572 433.535 140.558 437.294 131.449C439.911 131.811 441.625 131.088 442.405 129.289L428.119 123.473C425.844 131.849 422.57 139.825 418.287 147.401C413.833 138.845 410.816 128.841 409.246 117.392H446.745C448.582 117.392 449.676 116.668 450.019 115.231C448.449 113.432 446.222 111.176 443.328 108.473C442.1 107.303 440.835 106.132 439.531 104.961L433.763 113.48H408.856C408.332 109.425 408.066 105.418 408.066 101.449C410.426 101.002 411.777 99.7838 412.13 97.8041L397.444 96.3193C397.53 101.64 397.882 107.36 398.491 113.489H354.529V117.411H399.014C401.194 132.82 405.572 146.021 412.13 157.014C406.8 164.495 400.413 170.986 392.99 176.478L394.436 177.962C402.831 174.089 410.121 169.13 416.327 163.096C420.61 169.044 425.902 174.222 432.193 178.638C435.514 180.979 438.655 182.512 441.634 183.235C445.127 184.139 447.573 183.502 448.972 181.341C449.667 180.437 449.8 179.361 449.362 178.096C448.925 176.839 447.792 175.031 445.955 172.69L445.936 172.68Z" fill="white"/>
<path d="M442.005 194.714C437.028 190.297 430.165 186.738 421.419 184.035L419.972 185.253C424.341 189.041 428.319 193.41 431.907 198.368C436.019 203.955 438.636 209.095 439.769 213.778C442.738 215.757 445.232 215.89 447.24 214.187C449.248 212.474 449.952 209.866 449.334 206.344C448.544 202.29 446.098 198.416 441.996 194.723L442.005 194.714Z" fill="white"/>
<path d="M419.592 208.096L419.325 193.495H417.621C415.528 201.338 414.033 206.021 413.167 207.553C412.558 208.638 411.502 209.219 410.017 209.314C408.703 209.409 403.983 209.447 395.855 209.447H379.989C377.362 209.447 375.706 209.314 375.011 209.038C374.402 208.771 374.098 208.134 374.098 207.144V187.004C376.458 186.643 377.771 185.567 378.028 183.759L363.866 182.274V209.171C363.866 213.14 364.78 215.767 366.617 217.08C368.454 218.384 372.384 219.041 378.419 219.041H395.198C406.648 219.041 414.385 218.546 418.402 217.556C421.98 216.652 423.779 214.939 423.779 212.417C423.779 210.523 422.38 209.085 419.582 208.096H419.592Z" fill="white"/>
<path d="M367.016 171.604L367.045 143.489L357.451 139.301V174.583H358.898C360.649 174.583 362.476 174.174 364.409 173.365C366.16 172.642 367.035 172.061 367.035 171.604H367.016Z" fill="white"/>
<path d="M68.8309 242.397L68.9452 244.824H68.6501C68.593 244.396 68.5169 244.092 68.4217 243.911C68.2599 243.616 68.0505 243.397 67.7935 243.254C67.527 243.111 67.1844 243.045 66.7561 243.045H65.2999V250.963C65.2999 251.601 65.3666 252.001 65.5093 252.153C65.6997 252.363 66.0042 252.477 66.404 252.477H66.7656V252.762H62.3685V252.477H62.7397C63.1775 252.477 63.4916 252.343 63.6724 252.077C63.7866 251.915 63.8437 251.544 63.8437 250.963V243.045H62.5969C62.1115 243.045 61.7689 243.083 61.569 243.149C61.3026 243.245 61.0741 243.435 60.8933 243.711C60.7029 243.987 60.5887 244.358 60.5602 244.824H60.2651L60.3889 242.397H68.85H68.8309Z" fill="white"/>
<path d="M74.4275 247.204H79.2434V244.234C79.2434 243.701 79.2148 243.359 79.1482 243.187C79.1006 243.064 78.9864 242.949 78.8246 242.864C78.6057 242.74 78.3773 242.683 78.1298 242.683H77.7586V242.397H82.1938V242.683H81.8226C81.5752 242.683 81.3468 242.74 81.1279 242.854C80.9661 242.94 80.8519 243.064 80.7947 243.226C80.7376 243.387 80.7091 243.73 80.7091 244.234V250.916C80.7091 251.439 80.7376 251.791 80.8043 251.953C80.8519 252.077 80.9566 252.191 81.1183 252.286C81.3468 252.41 81.5752 252.467 81.8226 252.467H82.1938V252.753H77.7586V252.467H78.1298C78.5486 252.467 78.8627 252.343 79.053 252.096C79.1768 251.934 79.2434 251.544 79.2434 250.916V247.756H74.4275V250.916C74.4275 251.439 74.4561 251.791 74.5227 251.953C74.5703 252.077 74.6845 252.191 74.8463 252.286C75.0652 252.41 75.2936 252.467 75.5411 252.467H75.9122V252.753H71.4771V252.467H71.8482C72.2765 252.467 72.5906 252.343 72.781 252.096C72.9047 251.934 72.9618 251.544 72.9618 250.916V244.234C72.9618 243.701 72.9332 243.359 72.8666 243.187C72.819 243.064 72.7143 242.949 72.5525 242.864C72.3241 242.74 72.0957 242.683 71.8482 242.683H71.4771V242.397H75.9122V242.683H75.5411C75.2936 242.683 75.0652 242.74 74.8463 242.854C74.6845 242.94 74.5798 243.064 74.5132 243.226C74.4561 243.387 74.418 243.73 74.418 244.234V247.204H74.4275Z" fill="white"/>
<path d="M87.6665 242.959V247.051H89.9412C90.5313 247.051 90.931 246.966 91.1214 246.785C91.3879 246.547 91.5306 246.138 91.5687 245.548H91.8542V249.155H91.5687C91.4926 248.65 91.426 248.327 91.3593 248.184C91.2642 248.003 91.1214 247.87 90.912 247.765C90.7026 247.661 90.379 247.613 89.9507 247.613H87.676V251.03C87.676 251.487 87.6951 251.763 87.7331 251.867C87.7712 251.963 87.8474 252.048 87.952 252.105C88.0567 252.162 88.2471 252.191 88.5326 252.191H90.2934C90.8835 252.191 91.3022 252.153 91.5687 252.067C91.8352 251.991 92.0922 251.829 92.3301 251.582C92.6442 251.268 92.9678 250.792 93.3009 250.154H93.6055L92.7108 252.752H84.7256V252.467H85.0968C85.3442 252.467 85.5727 252.41 85.7916 252.296C85.9534 252.21 86.0676 252.096 86.1247 251.924C86.1818 251.763 86.2103 251.43 86.2103 250.925V244.196C86.2103 243.539 86.1437 243.13 86.0105 242.978C85.8296 242.778 85.5251 242.673 85.0968 242.673H84.7256V242.388H92.7108L92.825 244.653H92.53C92.4253 244.11 92.3016 243.73 92.1778 243.53C92.0446 243.33 91.8542 243.168 91.5973 243.063C91.3974 242.987 91.0357 242.949 90.5218 242.949H87.676L87.6665 242.959Z" fill="white"/>
<path d="M104.884 242.959V247.051H107.158C107.749 247.051 108.148 246.966 108.339 246.785C108.605 246.547 108.748 246.138 108.786 245.548H109.072V249.155H108.786C108.71 248.65 108.643 248.327 108.577 248.184C108.481 248.003 108.339 247.87 108.129 247.765C107.92 247.661 107.596 247.613 107.168 247.613H104.893V251.03C104.893 251.487 104.912 251.763 104.95 251.867C104.988 251.963 105.065 252.048 105.169 252.105C105.274 252.162 105.464 252.191 105.75 252.191H107.511C108.101 252.191 108.52 252.153 108.786 252.067C109.052 251.991 109.309 251.829 109.547 251.582C109.861 251.268 110.185 250.792 110.518 250.154H110.823L109.928 252.752H101.943V252.467H102.314C102.562 252.467 102.79 252.41 103.009 252.296C103.171 252.21 103.285 252.096 103.342 251.924C103.399 251.763 103.428 251.43 103.428 250.925V244.196C103.428 243.539 103.361 243.13 103.228 242.978C103.047 242.778 102.742 242.673 102.314 242.673H101.943V242.388H109.928L110.042 244.653H109.747C109.643 244.11 109.519 243.73 109.395 243.53C109.262 243.33 109.072 243.168 108.815 243.063C108.615 242.987 108.253 242.949 107.739 242.949H104.893L104.884 242.959Z" fill="white"/>
<path d="M120.226 242.159V245.747H119.94C119.845 245.062 119.683 244.51 119.445 244.101C119.207 243.692 118.874 243.368 118.436 243.13C117.999 242.892 117.542 242.768 117.075 242.768C116.542 242.768 116.105 242.93 115.762 243.254C115.419 243.577 115.239 243.949 115.239 244.358C115.239 244.672 115.343 244.957 115.562 245.224C115.876 245.605 116.628 246.119 117.818 246.756C118.789 247.28 119.445 247.67 119.797 247.955C120.15 248.231 120.426 248.565 120.616 248.936C120.806 249.316 120.901 249.707 120.901 250.116C120.901 250.896 120.597 251.572 119.988 252.143C119.379 252.714 118.598 253 117.637 253C117.332 253 117.056 252.981 116.79 252.933C116.628 252.905 116.304 252.819 115.81 252.657C115.315 252.495 115.001 252.419 114.867 252.419C114.734 252.419 114.639 252.457 114.563 252.533C114.487 252.61 114.43 252.771 114.401 253.009H114.115V249.459H114.401C114.534 250.202 114.715 250.763 114.934 251.125C115.162 251.496 115.505 251.801 115.962 252.048C116.419 252.296 116.933 252.419 117.475 252.419C118.113 252.419 118.617 252.248 118.988 251.915C119.36 251.582 119.54 251.182 119.54 250.725C119.54 250.468 119.474 250.211 119.331 249.954C119.188 249.697 118.969 249.45 118.674 249.231C118.474 249.079 117.932 248.755 117.047 248.26C116.162 247.765 115.534 247.365 115.153 247.07C114.782 246.775 114.496 246.452 114.306 246.09C114.115 245.728 114.011 245.338 114.011 244.91C114.011 244.167 114.296 243.53 114.867 242.987C115.438 242.445 116.162 242.178 117.047 242.178C117.599 242.178 118.179 242.311 118.798 242.587C119.084 242.711 119.283 242.778 119.398 242.778C119.531 242.778 119.636 242.74 119.721 242.664C119.807 242.587 119.874 242.426 119.921 242.188H120.207L120.226 242.159Z" fill="white"/>
<path d="M130.809 242.159V245.747H130.524C130.429 245.062 130.267 244.51 130.029 244.101C129.791 243.692 129.458 243.368 129.02 243.13C128.582 242.892 128.125 242.768 127.659 242.768C127.126 242.768 126.688 242.93 126.345 243.254C126.003 243.577 125.822 243.949 125.822 244.358C125.822 244.672 125.927 244.957 126.146 245.224C126.46 245.605 127.212 246.119 128.401 246.756C129.372 247.28 130.029 247.67 130.381 247.955C130.733 248.231 131.009 248.565 131.199 248.936C131.39 249.316 131.485 249.707 131.485 250.116C131.485 250.896 131.18 251.572 130.571 252.143C129.962 252.714 129.182 253 128.22 253C127.916 253 127.64 252.981 127.373 252.933C127.212 252.905 126.888 252.819 126.393 252.657C125.898 252.495 125.584 252.419 125.451 252.419C125.318 252.419 125.222 252.457 125.146 252.533C125.07 252.61 125.013 252.771 124.984 253.009H124.699V249.459H124.984C125.118 250.202 125.299 250.763 125.517 251.125C125.746 251.496 126.088 251.801 126.545 252.048C127.002 252.296 127.516 252.419 128.059 252.419C128.696 252.419 129.201 252.248 129.572 251.915C129.943 251.582 130.124 251.182 130.124 250.725C130.124 250.468 130.057 250.211 129.915 249.954C129.772 249.697 129.553 249.45 129.258 249.231C129.058 249.079 128.515 248.755 127.63 248.26C126.745 247.765 126.117 247.365 125.736 247.07C125.365 246.775 125.08 246.452 124.889 246.09C124.699 245.728 124.594 245.338 124.594 244.91C124.594 244.167 124.88 243.53 125.451 242.987C126.022 242.445 126.745 242.178 127.63 242.178C128.182 242.178 128.763 242.311 129.382 242.587C129.667 242.711 129.867 242.778 129.981 242.778C130.114 242.778 130.219 242.74 130.305 242.664C130.39 242.587 130.457 242.426 130.505 242.188H130.79L130.809 242.159Z" fill="white"/>
<path d="M137.481 242.959V247.051H139.756C140.346 247.051 140.746 246.966 140.936 246.785C141.203 246.547 141.345 246.138 141.383 245.548H141.669V249.155H141.383C141.307 248.65 141.241 248.327 141.174 248.184C141.079 248.003 140.936 247.87 140.727 247.765C140.517 247.661 140.194 247.613 139.765 247.613H137.491V251.03C137.491 251.487 137.51 251.763 137.548 251.867C137.586 251.963 137.662 252.048 137.757 252.105C137.862 252.162 138.052 252.191 138.338 252.191H140.099C140.689 252.191 141.107 252.153 141.374 252.067C141.64 251.991 141.897 251.829 142.135 251.582C142.449 251.268 142.773 250.792 143.106 250.154H143.411L142.516 252.752H134.531V252.467H134.902C135.149 252.467 135.378 252.41 135.597 252.296C135.759 252.21 135.873 252.096 135.93 251.924C135.987 251.763 136.015 251.43 136.015 250.925V244.196C136.015 243.539 135.949 243.13 135.816 242.978C135.635 242.778 135.33 242.673 134.902 242.673H134.531V242.388H142.516L142.63 244.653H142.335C142.23 244.11 142.107 243.73 141.983 243.53C141.85 243.33 141.659 243.168 141.402 243.063C141.203 242.987 140.841 242.949 140.327 242.949H137.481V242.959Z" fill="white"/>
<path d="M145.448 242.397H148.255L154.594 250.164V244.187C154.594 243.549 154.518 243.149 154.375 242.997C154.185 242.778 153.89 242.673 153.48 242.673H153.119V242.388H156.726V242.673H156.355C155.917 242.673 155.603 242.806 155.422 243.073C155.308 243.235 155.251 243.606 155.251 244.187V252.924H154.975L148.141 244.577V250.954C148.141 251.591 148.208 251.991 148.35 252.143C148.541 252.353 148.845 252.467 149.245 252.467H149.616V252.752H146.009V252.467H146.371C146.818 252.467 147.123 252.334 147.313 252.067C147.427 251.905 147.484 251.534 147.484 250.954V243.749C147.18 243.397 146.951 243.168 146.799 243.054C146.647 242.94 146.418 242.835 146.114 242.74C145.961 242.692 145.743 242.673 145.438 242.673V242.388L145.448 242.397Z" fill="white"/>
<path d="M168.252 242.159L168.49 245.681H168.252C167.938 244.624 167.481 243.863 166.9 243.406C166.31 242.94 165.615 242.711 164.787 242.711C164.102 242.711 163.474 242.883 162.922 243.235C162.37 243.587 161.932 244.139 161.608 244.9C161.294 245.662 161.133 246.613 161.133 247.756C161.133 248.688 161.285 249.507 161.58 250.192C161.884 250.877 162.332 251.41 162.931 251.772C163.531 252.134 164.226 252.324 164.997 252.324C165.672 252.324 166.263 252.181 166.776 251.896C167.29 251.61 167.852 251.039 168.471 250.183L168.709 250.335C168.185 251.258 167.585 251.934 166.891 252.362C166.196 252.79 165.377 253 164.426 253C162.712 253 161.38 252.362 160.438 251.087C159.733 250.135 159.381 249.021 159.381 247.737C159.381 246.699 159.61 245.757 160.076 244.891C160.542 244.025 161.18 243.349 161.989 242.873C162.798 242.397 163.693 242.159 164.654 242.159C165.406 242.159 166.139 242.34 166.872 242.711C167.081 242.825 167.243 242.883 167.329 242.883C167.462 242.883 167.585 242.835 167.69 242.74C167.823 242.607 167.919 242.407 167.976 242.169H168.242L168.252 242.159Z" fill="white"/>
<path d="M174.409 242.959V247.051H176.684C177.274 247.051 177.674 246.966 177.864 246.785C178.131 246.547 178.273 246.138 178.311 245.548H178.597V249.155H178.311C178.235 248.65 178.169 248.327 178.102 248.184C178.007 248.003 177.864 247.87 177.655 247.765C177.445 247.661 177.122 247.613 176.693 247.613H174.419V251.03C174.419 251.487 174.438 251.763 174.476 251.867C174.514 251.963 174.59 252.048 174.695 252.105C174.799 252.162 174.99 252.191 175.275 252.191H177.036C177.626 252.191 178.045 252.153 178.311 252.067C178.578 251.991 178.835 251.829 179.073 251.582C179.387 251.268 179.71 250.792 180.044 250.154H180.348L179.453 252.752H171.468V252.467H171.839C172.087 252.467 172.315 252.41 172.534 252.296C172.696 252.21 172.81 252.096 172.867 251.924C172.924 251.763 172.953 251.43 172.953 250.925V244.196C172.953 243.539 172.886 243.13 172.753 242.978C172.572 242.778 172.268 242.673 171.839 242.673H171.468V242.388H179.453L179.568 244.653H179.273C179.168 244.11 179.044 243.73 178.921 243.53C178.787 243.33 178.597 243.168 178.34 243.063C178.14 242.987 177.778 242.949 177.264 242.949H174.419L174.409 242.959Z" fill="white"/>
<path d="M194.092 242.159C195.434 242.159 196.605 242.673 197.585 243.692C198.575 244.71 199.06 245.985 199.06 247.518C199.06 249.05 198.565 250.402 197.566 251.439C196.576 252.476 195.367 253 193.959 253C192.55 253 191.332 252.495 190.361 251.477C189.39 250.459 188.905 249.155 188.905 247.546C188.905 245.938 189.466 244.558 190.589 243.52C191.56 242.616 192.731 242.169 194.082 242.169L194.092 242.159ZM193.949 242.721C193.026 242.721 192.274 243.063 191.722 243.749C191.027 244.605 190.675 245.862 190.675 247.508C190.675 249.155 191.037 250.497 191.76 251.41C192.312 252.105 193.045 252.448 193.959 252.448C194.929 252.448 195.738 252.067 196.367 251.306C197.004 250.544 197.318 249.355 197.318 247.718C197.318 245.947 196.966 244.624 196.271 243.749C195.71 243.054 194.939 242.711 193.949 242.711V242.721Z" fill="white"/>
<path d="M204.751 242.959V247.033H206.636C207.064 247.033 207.388 246.937 207.588 246.747C207.788 246.557 207.921 246.176 207.987 245.614H208.273V249.117H207.987C207.987 248.717 207.93 248.422 207.835 248.232C207.74 248.041 207.597 247.899 207.426 247.804C207.255 247.708 206.988 247.661 206.645 247.661H204.761V250.916C204.761 251.439 204.79 251.791 204.856 251.953C204.904 252.077 205.018 252.191 205.18 252.286C205.408 252.41 205.637 252.467 205.884 252.467H206.255V252.753H201.811V252.467H202.182C202.61 252.467 202.924 252.343 203.114 252.096C203.238 251.934 203.295 251.544 203.295 250.916V244.225C203.295 243.701 203.267 243.349 203.2 243.187C203.153 243.064 203.048 242.949 202.886 242.864C202.667 242.74 202.429 242.683 202.182 242.683H201.811V242.397H209.52L209.615 244.672H209.348C209.215 244.187 209.063 243.835 208.882 243.606C208.701 243.378 208.492 243.216 208.235 243.111C207.978 243.007 207.578 242.959 207.036 242.959H204.751Z" fill="white"/>
<path d="M225.148 247.47C225.861 247.622 226.404 247.87 226.756 248.203C227.251 248.669 227.498 249.24 227.498 249.926C227.498 250.44 227.337 250.935 227.013 251.401C226.689 251.877 226.242 252.22 225.671 252.429C225.1 252.648 224.234 252.752 223.073 252.752H218.181V252.467H218.571C219.009 252.467 219.313 252.334 219.504 252.058C219.618 251.877 219.675 251.496 219.675 250.916V244.225C219.675 243.587 219.599 243.178 219.456 243.006C219.256 242.778 218.961 242.673 218.571 242.673H218.181V242.388H222.654C223.491 242.388 224.158 242.445 224.662 242.569C225.424 242.749 226.004 243.073 226.413 243.539C226.813 244.006 227.013 244.539 227.013 245.148C227.013 245.671 226.851 246.128 226.537 246.537C226.223 246.947 225.757 247.251 225.138 247.451L225.148 247.47ZM221.141 247.061C221.331 247.099 221.54 247.128 221.788 247.137C222.026 247.156 222.292 247.166 222.587 247.166C223.33 247.166 223.891 247.089 224.262 246.928C224.634 246.766 224.919 246.518 225.119 246.185C225.319 245.852 225.414 245.49 225.414 245.1C225.414 244.491 225.167 243.977 224.672 243.549C224.177 243.121 223.453 242.911 222.511 242.911C221.997 242.911 221.54 242.968 221.141 243.082V247.061ZM221.141 252.01C221.731 252.143 222.311 252.22 222.892 252.22C223.815 252.22 224.519 252.01 225.005 251.601C225.49 251.182 225.728 250.678 225.728 250.059C225.728 249.659 225.614 249.269 225.395 248.898C225.176 248.527 224.824 248.232 224.329 248.022C223.834 247.813 223.225 247.699 222.492 247.699C222.178 247.699 221.902 247.699 221.683 247.718C221.455 247.727 221.274 247.746 221.141 247.775V252.02V252.01Z" fill="white"/>
<path d="M233.504 242.959V247.051H235.779C236.369 247.051 236.769 246.966 236.959 246.785C237.226 246.547 237.368 246.138 237.406 245.548H237.692V249.155H237.406C237.33 248.65 237.264 248.327 237.197 248.184C237.102 248.003 236.959 247.87 236.75 247.765C236.54 247.661 236.217 247.613 235.788 247.613H233.514V251.03C233.514 251.487 233.533 251.763 233.571 251.867C233.609 251.963 233.685 252.048 233.78 252.105C233.885 252.162 234.075 252.191 234.361 252.191H236.121C236.712 252.191 237.13 252.153 237.397 252.067C237.663 251.991 237.92 251.829 238.158 251.582C238.472 251.268 238.796 250.792 239.129 250.154H239.434L238.539 252.752H230.554V252.467H230.925C231.172 252.467 231.401 252.41 231.62 252.296C231.781 252.21 231.896 252.096 231.953 251.924C232.01 251.763 232.038 251.43 232.038 250.925V244.196C232.038 243.539 231.972 243.13 231.839 242.978C231.658 242.778 231.353 242.673 230.925 242.673H230.554V242.388H238.539L238.653 244.653H238.358C238.253 244.11 238.13 243.73 238.006 243.53C237.873 243.33 237.682 243.168 237.425 243.063C237.226 242.987 236.864 242.949 236.35 242.949H233.504V242.959Z" fill="white"/>
<path d="M248.827 249.288H244.821L244.116 250.925C243.945 251.325 243.859 251.63 243.859 251.829C243.859 251.991 243.935 252.124 244.088 252.248C244.24 252.372 244.564 252.448 245.058 252.486V252.772H241.794V252.486C242.222 252.41 242.508 252.315 242.631 252.191C242.888 251.944 243.184 251.449 243.498 250.697L247.143 242.169H247.409L251.016 250.792C251.302 251.487 251.568 251.934 251.806 252.144C252.044 252.353 252.377 252.467 252.796 252.496V252.781H248.713V252.496C249.122 252.477 249.408 252.41 249.551 252.286C249.694 252.172 249.77 252.029 249.77 251.858C249.77 251.63 249.665 251.277 249.465 250.792L248.837 249.298L248.827 249.288ZM248.609 248.727L246.848 244.539L245.049 248.727H248.609Z" fill="white"/>
<path d="M262.314 242.683V242.397H265.978V242.683H265.588C265.179 242.683 264.865 242.854 264.646 243.197C264.541 243.359 264.484 243.72 264.484 244.301V248.498C264.484 249.536 264.379 250.345 264.17 250.916C263.96 251.487 263.561 251.982 262.952 252.391C262.352 252.8 261.524 253.01 260.486 253.01C259.354 253.01 258.497 252.81 257.907 252.42C257.317 252.029 256.908 251.496 256.66 250.84C256.499 250.383 256.413 249.536 256.413 248.289V244.244C256.413 243.606 256.327 243.187 256.146 242.988C255.975 242.788 255.69 242.693 255.299 242.693H254.909V242.407H259.382V242.693H258.983C258.554 242.693 258.25 242.826 258.069 243.102C257.945 243.283 257.879 243.663 257.879 244.244V248.755C257.879 249.155 257.917 249.621 257.993 250.135C258.069 250.659 258.202 251.059 258.393 251.354C258.583 251.649 258.868 251.887 259.23 252.067C259.592 252.258 260.039 252.353 260.572 252.353C261.248 252.353 261.857 252.201 262.39 251.906C262.923 251.611 263.294 251.23 263.485 250.773C263.684 250.316 263.78 249.536 263.78 248.432V244.234C263.78 243.587 263.713 243.178 263.57 243.016C263.37 242.788 263.075 242.683 262.685 242.683H262.295H262.314Z" fill="white"/>
<path d="M277.076 242.397L277.19 244.824H276.895C276.838 244.396 276.762 244.092 276.666 243.911C276.505 243.616 276.295 243.397 276.038 243.254C275.772 243.111 275.429 243.045 275.001 243.045H273.545V250.963C273.545 251.601 273.611 252.001 273.754 252.153C273.944 252.363 274.249 252.477 274.649 252.477H275.01V252.762H270.613V252.477H270.975C271.413 252.477 271.727 252.343 271.908 252.077C272.022 251.915 272.079 251.544 272.079 250.963V243.045H270.832C270.347 243.045 270.004 243.083 269.804 243.149C269.538 243.245 269.309 243.435 269.128 243.711C268.938 243.987 268.824 244.358 268.795 244.824H268.51L268.633 242.397H277.095H277.076Z" fill="white"/>
<path d="M284.29 252.476V252.762H279.854V252.476H280.226C280.654 252.476 280.968 252.353 281.158 252.105C281.282 251.943 281.339 251.553 281.339 250.925V244.234C281.339 243.711 281.301 243.359 281.244 243.197C281.196 243.073 281.092 242.959 280.93 242.873C280.702 242.749 280.473 242.692 280.226 242.692H279.854V242.407H284.29V242.692H283.918C283.5 242.692 283.186 242.816 282.995 243.063C282.872 243.225 282.805 243.615 282.805 244.244V250.935C282.805 251.458 282.843 251.81 282.9 251.972C282.948 252.096 283.062 252.21 283.224 252.305C283.443 252.429 283.671 252.486 283.918 252.486H284.29V252.476Z" fill="white"/>
<path d="M289.753 242.959V247.033H291.637C292.075 247.033 292.389 246.937 292.589 246.747C292.789 246.557 292.922 246.176 292.989 245.614H293.274V249.117H292.989C292.989 248.717 292.932 248.422 292.837 248.232C292.741 248.041 292.599 247.899 292.427 247.804C292.256 247.708 291.99 247.661 291.647 247.661H289.762V250.916C289.762 251.439 289.801 251.791 289.858 251.953C289.905 252.077 290.019 252.191 290.181 252.286C290.41 252.41 290.638 252.467 290.886 252.467H291.257V252.753H286.812V252.467H287.183C287.611 252.467 287.926 252.343 288.116 252.096C288.24 251.934 288.297 251.544 288.297 250.916V244.225C288.297 243.701 288.259 243.349 288.202 243.187C288.154 243.064 288.049 242.949 287.888 242.864C287.669 242.74 287.431 242.683 287.183 242.683H286.812V242.397H294.521L294.616 244.672H294.35C294.217 244.187 294.064 243.835 293.884 243.606C293.703 243.378 293.493 243.216 293.236 243.111C292.979 243.007 292.58 242.959 292.037 242.959H289.753Z" fill="white"/>
<path d="M304.591 242.683V242.397H308.255V242.683H307.865C307.455 242.683 307.141 242.854 306.923 243.197C306.818 243.359 306.761 243.72 306.761 244.301V248.498C306.761 249.536 306.656 250.345 306.447 250.916C306.237 251.487 305.838 251.982 305.228 252.391C304.629 252.8 303.801 253.01 302.763 253.01C301.631 253.01 300.774 252.81 300.184 252.42C299.594 252.029 299.185 251.496 298.937 250.84C298.775 250.383 298.69 249.536 298.69 248.289V244.244C298.69 243.606 298.604 243.187 298.423 242.988C298.252 242.788 297.966 242.693 297.576 242.693H297.186V242.407H301.669V242.693H301.269C300.841 242.693 300.536 242.826 300.355 243.102C300.232 243.283 300.165 243.663 300.165 244.244V248.755C300.165 249.155 300.203 249.621 300.279 250.135C300.355 250.659 300.489 251.059 300.679 251.354C300.869 251.649 301.155 251.887 301.517 252.067C301.878 252.258 302.326 252.353 302.858 252.353C303.534 252.353 304.143 252.201 304.676 251.906C305.209 251.611 305.581 251.23 305.771 250.773C305.971 250.316 306.066 249.536 306.066 248.432V244.234C306.066 243.587 305.999 243.178 305.857 243.016C305.657 242.788 305.362 242.683 304.971 242.683H304.581H304.591Z" fill="white"/>
<path d="M319.276 249.888L319.524 249.945L318.639 252.752H310.615V252.467H311.005C311.443 252.467 311.757 252.324 311.948 252.039C312.052 251.877 312.109 251.496 312.109 250.906V244.225C312.109 243.577 312.033 243.168 311.9 243.006C311.7 242.778 311.405 242.673 311.015 242.673H310.625V242.388H315.317V242.673C314.765 242.673 314.384 242.721 314.156 242.826C313.937 242.93 313.785 243.063 313.699 243.225C313.613 243.387 313.575 243.777 313.575 244.396V250.906C313.575 251.325 313.613 251.62 313.699 251.782C313.756 251.886 313.851 251.972 313.984 252.02C314.118 252.067 314.508 252.096 315.174 252.096H315.926C316.716 252.096 317.278 252.039 317.601 251.924C317.925 251.81 318.21 251.601 318.477 251.306C318.743 251.011 319.01 250.535 319.267 249.897L319.276 249.888Z" fill="white"/>
<path d="M335.923 249.888L336.17 249.945L335.285 252.752H327.262V252.467H327.652C328.09 252.467 328.404 252.324 328.594 252.039C328.699 251.877 328.756 251.496 328.756 250.906V244.225C328.756 243.577 328.68 243.168 328.547 243.006C328.347 242.778 328.052 242.673 327.661 242.673H327.271V242.388H331.963V242.673C331.411 242.673 331.031 242.721 330.802 242.826C330.574 242.93 330.431 243.063 330.345 243.225C330.26 243.387 330.222 243.777 330.222 244.396V250.906C330.222 251.325 330.26 251.62 330.345 251.782C330.403 251.886 330.498 251.972 330.631 252.02C330.755 252.067 331.154 252.096 331.821 252.096H332.573C333.362 252.096 333.924 252.039 334.248 251.924C334.571 251.81 334.857 251.601 335.123 251.306C335.39 251.011 335.656 250.535 335.913 249.897L335.923 249.888Z" fill="white"/>
<path d="M343.213 252.476V252.762H338.778V252.476H339.149C339.577 252.476 339.891 252.353 340.082 252.105C340.205 251.943 340.263 251.553 340.263 250.925V244.234C340.263 243.711 340.224 243.359 340.167 243.197C340.12 243.073 340.015 242.959 339.853 242.873C339.625 242.749 339.396 242.692 339.149 242.692H338.778V242.407H343.213V242.692H342.842C342.423 242.692 342.109 242.816 341.919 243.063C341.795 243.225 341.728 243.615 341.728 244.244V250.935C341.728 251.458 341.766 251.81 341.823 251.972C341.871 252.096 341.985 252.21 342.147 252.305C342.366 252.429 342.594 252.486 342.842 252.486H343.213V252.476Z" fill="white"/>
<path d="M356.585 242.397V242.683C356.214 242.75 355.938 242.864 355.748 243.035C355.481 243.283 355.234 243.663 355.034 244.177L351.417 252.991H351.132L347.248 244.063C347.048 243.606 346.906 243.321 346.83 243.226C346.706 243.064 346.544 242.94 346.363 242.854C346.173 242.769 345.925 242.712 345.611 242.683V242.397H349.847V242.683C349.371 242.731 349.057 242.807 348.914 242.93C348.771 243.045 348.705 243.197 348.705 243.378C348.705 243.635 348.819 244.035 349.057 244.567L351.693 250.64L354.139 244.644C354.377 244.054 354.501 243.644 354.501 243.416C354.501 243.273 354.425 243.13 354.282 242.988C354.13 242.854 353.882 242.759 353.53 242.702C353.501 242.702 353.463 242.693 353.397 242.683V242.397H356.595H356.585Z" fill="white"/>
<path d="M363.485 252.476V252.762H359.05V252.476H359.421C359.85 252.476 360.164 252.353 360.354 252.105C360.478 251.943 360.535 251.553 360.535 250.925V244.234C360.535 243.711 360.497 243.359 360.44 243.197C360.392 243.073 360.288 242.959 360.126 242.873C359.897 242.749 359.669 242.692 359.421 242.692H359.05V242.407H363.485V242.692H363.114C362.696 242.692 362.381 242.816 362.191 243.063C362.067 243.225 362.001 243.615 362.001 244.244V250.935C362.001 251.458 362.039 251.81 362.096 251.972C362.144 252.096 362.258 252.21 362.42 252.305C362.638 252.429 362.867 252.486 363.114 252.486H363.485V252.476Z" fill="white"/>
<path d="M365.532 242.397H368.339L374.678 250.164V244.187C374.678 243.549 374.602 243.149 374.469 242.997C374.278 242.778 373.983 242.673 373.574 242.673H373.212V242.388H376.82V242.673H376.448C376.011 242.673 375.696 242.806 375.516 243.073C375.401 243.235 375.344 243.606 375.344 244.187V252.924H375.068L368.235 244.577V250.954C368.235 251.591 368.301 251.991 368.444 252.143C368.634 252.353 368.939 252.467 369.339 252.467H369.71V252.752H366.103V252.467H366.464C366.912 252.467 367.216 252.334 367.407 252.067C367.521 251.905 367.578 251.534 367.578 250.954V243.749C367.273 243.397 367.045 243.168 366.893 243.054C366.74 242.94 366.512 242.835 366.207 242.74C366.055 242.692 365.836 242.673 365.532 242.673V242.388V242.397Z" fill="white"/>
<path d="M388.526 242.159L388.793 245.433H388.526C388.26 244.615 387.908 244.006 387.479 243.587C386.861 242.987 386.071 242.692 385.1 242.692C383.777 242.692 382.778 243.216 382.092 244.263C381.521 245.148 381.226 246.195 381.226 247.413C381.226 248.403 381.417 249.307 381.797 250.116C382.178 250.935 382.683 251.525 383.301 251.905C383.92 252.286 384.557 252.476 385.205 252.476C385.585 252.476 385.957 252.429 386.309 252.334C386.661 252.238 387.013 252.096 387.337 251.905V248.907C387.337 248.384 387.299 248.051 387.222 247.889C387.146 247.727 387.023 247.603 386.851 247.527C386.689 247.442 386.394 247.403 385.976 247.403V247.118H389.982V247.403H389.792C389.392 247.403 389.126 247.537 388.974 247.803C388.869 247.994 388.821 248.365 388.821 248.917V252.086C388.231 252.4 387.66 252.638 387.089 252.781C386.518 252.933 385.88 253 385.186 253C383.187 253 381.664 252.362 380.627 251.077C379.846 250.116 379.456 249.002 379.456 247.746C379.456 246.832 379.675 245.957 380.113 245.129C380.636 244.139 381.341 243.368 382.254 242.835C383.016 242.397 383.91 242.169 384.948 242.169C385.328 242.169 385.671 242.197 385.976 242.264C386.28 242.321 386.718 242.464 387.289 242.673C387.575 242.778 387.765 242.835 387.86 242.835C387.955 242.835 388.041 242.787 388.108 242.702C388.174 242.616 388.222 242.435 388.231 242.178H388.517L388.526 242.159Z" fill="white"/>
</g>
<defs>
<clipPath id="clip0_44_12397">
<rect width="450" height="253" fill="white"/>
</clipPath>
</defs>
</svg>
